G04 MADE WITH FRITZING*
G04 WWW.FRITZING.ORG*
G04 DOUBLE SIDED*
G04 HOLES PLATED*
G04 CONTOUR ON CENTER OF CONTOUR VECTOR*
%ASAXBY*%
%FSLAX23Y23*%
%MOIN*%
%OFA0B0*%
%SFA1.0B1.0*%
%ADD10C,0.075000*%
%ADD11C,0.076772*%
%ADD12C,0.118740*%
%ADD13C,0.078000*%
%ADD14R,0.075000X0.075000*%
%ADD15R,0.118740X0.118740*%
%ADD16C,0.048000*%
%ADD17C,0.024000*%
%LNCOPPER0*%
G90*
G70*
G54D10*
X2192Y699D03*
X2697Y1984D03*
X1488Y1095D03*
X1670Y1227D03*
X1670Y1527D03*
X1770Y1227D03*
X1770Y1527D03*
X1870Y1227D03*
X1870Y1527D03*
X1970Y1227D03*
X1970Y1527D03*
X2070Y1227D03*
X2070Y1527D03*
X2170Y1227D03*
X2170Y1527D03*
X2270Y1227D03*
X2270Y1527D03*
G54D11*
X1070Y452D03*
X1070Y727D03*
X932Y589D03*
X2846Y827D03*
X2570Y827D03*
X2708Y689D03*
G54D10*
X2170Y1727D03*
X2570Y1727D03*
X1670Y327D03*
X1270Y327D03*
X2770Y1027D03*
X2770Y1427D03*
X2170Y1027D03*
X2570Y1027D03*
X1370Y927D03*
X970Y927D03*
X1670Y1727D03*
X2070Y1727D03*
X1370Y1027D03*
X1770Y1027D03*
G54D12*
X1870Y327D03*
X2067Y327D03*
X370Y1027D03*
X370Y1224D03*
G54D13*
X2570Y1927D03*
G54D10*
X770Y627D03*
X770Y1027D03*
X970Y1427D03*
X1370Y1427D03*
X970Y1727D03*
X1570Y1727D03*
X1370Y827D03*
X1970Y827D03*
X1770Y727D03*
X2370Y727D03*
G54D13*
X2270Y327D03*
X2270Y227D03*
G54D14*
X1670Y1227D03*
X2170Y1727D03*
X1670Y327D03*
X2770Y1027D03*
X2170Y1027D03*
X1370Y927D03*
X1670Y1727D03*
X1370Y1027D03*
G54D15*
X1870Y327D03*
X370Y1027D03*
G54D16*
X1770Y1191D02*
X1770Y1063D01*
D02*
X1370Y1227D02*
X1634Y1227D01*
D02*
X1370Y1063D02*
X1370Y1227D01*
D02*
X2170Y1063D02*
X2170Y1191D01*
D02*
X2570Y1227D02*
X2306Y1227D01*
D02*
X2570Y1063D02*
X2570Y1227D01*
D02*
X2170Y1691D02*
X2170Y1563D01*
D02*
X2570Y1527D02*
X2306Y1527D01*
D02*
X2570Y1691D02*
X2570Y1527D01*
D02*
X2606Y1027D02*
X2734Y1027D01*
D02*
X2070Y1427D02*
X2734Y1427D01*
D02*
X2070Y1491D02*
X2070Y1427D01*
D02*
X2070Y1691D02*
X2070Y1563D01*
D02*
X1170Y1027D02*
X1170Y1327D01*
D02*
X1170Y1327D02*
X1570Y1927D01*
D02*
X1570Y1927D02*
X2170Y1927D01*
D02*
X2170Y1927D02*
X2170Y1763D01*
D02*
X970Y1027D02*
X1170Y1027D01*
D02*
X970Y963D02*
X970Y1027D01*
D02*
X1870Y374D02*
X1870Y1191D01*
D02*
X2067Y374D02*
X2070Y1191D01*
D02*
X1823Y327D02*
X1706Y327D01*
D02*
X1070Y327D02*
X1234Y327D01*
D02*
X1070Y413D02*
X1070Y327D01*
D02*
X370Y980D02*
X370Y827D01*
D02*
X2170Y827D02*
X2532Y827D01*
D02*
X2170Y991D02*
X2170Y827D01*
D02*
X2570Y1763D02*
X2570Y1890D01*
D02*
X770Y1224D02*
X417Y1224D01*
D02*
X1970Y1427D02*
X1370Y1427D01*
D02*
X1970Y1491D02*
X1970Y1427D01*
G54D17*
D02*
X1645Y1727D02*
X1595Y1727D01*
G54D16*
D02*
X770Y1727D02*
X934Y1727D01*
D02*
X770Y1224D02*
X770Y1727D01*
D02*
X2370Y427D02*
X2370Y691D01*
D02*
X2708Y427D02*
X2370Y427D01*
D02*
X2708Y651D02*
X2708Y427D01*
D02*
X1970Y1191D02*
X1970Y863D01*
D02*
X1170Y827D02*
X1334Y827D01*
D02*
X370Y827D02*
X1170Y827D01*
D02*
X2233Y327D02*
X2114Y327D01*
D02*
X805Y619D02*
X895Y598D01*
D02*
X770Y1224D02*
X770Y1063D01*
D02*
X170Y827D02*
X970Y227D01*
D02*
X970Y227D02*
X2233Y227D01*
D02*
X170Y1227D02*
X170Y827D01*
D02*
X323Y1225D02*
X170Y1227D01*
D02*
X1370Y991D02*
X1370Y963D01*
D02*
X1770Y763D02*
X1770Y991D01*
D02*
X970Y1224D02*
X970Y1391D01*
D02*
X770Y1224D02*
X970Y1224D01*
G36*
X2124Y775D02*
X2124Y399D01*
X2284Y399D01*
X2284Y397D01*
X2292Y397D01*
X2292Y395D01*
X2298Y395D01*
X2298Y393D01*
X2320Y393D01*
X2320Y399D01*
X2318Y399D01*
X2318Y403D01*
X2316Y403D01*
X2316Y411D01*
X2314Y411D01*
X2314Y687D01*
X2312Y687D01*
X2312Y689D01*
X2310Y689D01*
X2310Y693D01*
X2308Y693D01*
X2308Y697D01*
X2306Y697D01*
X2306Y701D01*
X2304Y701D01*
X2304Y705D01*
X2302Y705D01*
X2302Y713D01*
X2300Y713D01*
X2300Y741D01*
X2302Y741D01*
X2302Y749D01*
X2304Y749D01*
X2304Y771D01*
X2156Y771D01*
X2156Y773D01*
X2148Y773D01*
X2148Y775D01*
X2124Y775D01*
G37*
D02*
G36*
X2124Y399D02*
X2124Y383D01*
X2226Y383D01*
X2226Y385D01*
X2228Y385D01*
X2228Y387D01*
X2232Y387D01*
X2232Y389D01*
X2234Y389D01*
X2234Y391D01*
X2238Y391D01*
X2238Y393D01*
X2242Y393D01*
X2242Y395D01*
X2248Y395D01*
X2248Y397D01*
X2256Y397D01*
X2256Y399D01*
X2124Y399D01*
G37*
D02*
G36*
X44Y2063D02*
X44Y1999D01*
X2584Y1999D01*
X2584Y1997D01*
X2592Y1997D01*
X2592Y1995D01*
X2598Y1995D01*
X2598Y1993D01*
X2602Y1993D01*
X2602Y1991D01*
X2606Y1991D01*
X2606Y1989D01*
X2608Y1989D01*
X2608Y1987D01*
X2612Y1987D01*
X2612Y1985D01*
X2614Y1985D01*
X2614Y1983D01*
X2616Y1983D01*
X2616Y1981D01*
X2618Y1981D01*
X2618Y1979D01*
X2620Y1979D01*
X2620Y1977D01*
X2622Y1977D01*
X2622Y1975D01*
X2624Y1975D01*
X2624Y1973D01*
X2626Y1973D01*
X2626Y1971D01*
X2628Y1971D01*
X2628Y1967D01*
X2630Y1967D01*
X2630Y1965D01*
X2632Y1965D01*
X2632Y1961D01*
X2634Y1961D01*
X2634Y1957D01*
X2636Y1957D01*
X2636Y1953D01*
X2638Y1953D01*
X2638Y1947D01*
X2640Y1947D01*
X2640Y1907D01*
X2638Y1907D01*
X2638Y1901D01*
X2636Y1901D01*
X2636Y1897D01*
X2634Y1897D01*
X2634Y1893D01*
X2632Y1893D01*
X2632Y1891D01*
X2630Y1891D01*
X2630Y1887D01*
X2628Y1887D01*
X2628Y1885D01*
X2626Y1885D01*
X2626Y1769D01*
X2628Y1769D01*
X2628Y1765D01*
X2630Y1765D01*
X2630Y1763D01*
X2632Y1763D01*
X2632Y1759D01*
X2634Y1759D01*
X2634Y1755D01*
X2636Y1755D01*
X2636Y1749D01*
X2638Y1749D01*
X2638Y1741D01*
X2640Y1741D01*
X2640Y1715D01*
X2638Y1715D01*
X2638Y1705D01*
X2636Y1705D01*
X2636Y1701D01*
X2634Y1701D01*
X2634Y1697D01*
X2632Y1697D01*
X2632Y1693D01*
X2630Y1693D01*
X2630Y1689D01*
X2628Y1689D01*
X2628Y1687D01*
X2626Y1687D01*
X2626Y1511D01*
X2624Y1511D01*
X2624Y1503D01*
X2622Y1503D01*
X2622Y1497D01*
X2786Y1497D01*
X2786Y1495D01*
X2794Y1495D01*
X2794Y1493D01*
X2798Y1493D01*
X2798Y1491D01*
X2802Y1491D01*
X2802Y1489D01*
X2806Y1489D01*
X2806Y1487D01*
X2808Y1487D01*
X2808Y1485D01*
X2812Y1485D01*
X2812Y1483D01*
X2814Y1483D01*
X2814Y1481D01*
X2816Y1481D01*
X2816Y1479D01*
X2818Y1479D01*
X2818Y1477D01*
X2820Y1477D01*
X2820Y1475D01*
X2822Y1475D01*
X2822Y1473D01*
X2824Y1473D01*
X2824Y1471D01*
X2826Y1471D01*
X2826Y1469D01*
X2828Y1469D01*
X2828Y1465D01*
X2830Y1465D01*
X2830Y1463D01*
X2832Y1463D01*
X2832Y1459D01*
X2834Y1459D01*
X2834Y1455D01*
X2836Y1455D01*
X2836Y1449D01*
X2838Y1449D01*
X2838Y1441D01*
X2840Y1441D01*
X2840Y1415D01*
X2838Y1415D01*
X2838Y1405D01*
X2836Y1405D01*
X2836Y1401D01*
X2834Y1401D01*
X2834Y1397D01*
X2832Y1397D01*
X2832Y1393D01*
X2830Y1393D01*
X2830Y1389D01*
X2828Y1389D01*
X2828Y1387D01*
X2826Y1387D01*
X2826Y1385D01*
X2824Y1385D01*
X2824Y1383D01*
X2822Y1383D01*
X2822Y1379D01*
X2820Y1379D01*
X2820Y1377D01*
X2818Y1377D01*
X2818Y1375D01*
X2814Y1375D01*
X2814Y1373D01*
X2812Y1373D01*
X2812Y1371D01*
X2810Y1371D01*
X2810Y1369D01*
X2806Y1369D01*
X2806Y1367D01*
X2804Y1367D01*
X2804Y1365D01*
X2800Y1365D01*
X2800Y1363D01*
X2796Y1363D01*
X2796Y1361D01*
X2790Y1361D01*
X2790Y1359D01*
X2996Y1359D01*
X2996Y2063D01*
X44Y2063D01*
G37*
D02*
G36*
X44Y1999D02*
X44Y1983D01*
X2190Y1983D01*
X2190Y1981D01*
X2196Y1981D01*
X2196Y1979D01*
X2200Y1979D01*
X2200Y1977D01*
X2204Y1977D01*
X2204Y1975D01*
X2206Y1975D01*
X2206Y1973D01*
X2208Y1973D01*
X2208Y1971D01*
X2210Y1971D01*
X2210Y1969D01*
X2212Y1969D01*
X2212Y1967D01*
X2214Y1967D01*
X2214Y1965D01*
X2216Y1965D01*
X2216Y1963D01*
X2218Y1963D01*
X2218Y1959D01*
X2220Y1959D01*
X2220Y1957D01*
X2222Y1957D01*
X2222Y1951D01*
X2224Y1951D01*
X2224Y1945D01*
X2226Y1945D01*
X2226Y1797D01*
X2240Y1797D01*
X2240Y1659D01*
X2226Y1659D01*
X2226Y1597D01*
X2286Y1597D01*
X2286Y1595D01*
X2294Y1595D01*
X2294Y1593D01*
X2298Y1593D01*
X2298Y1591D01*
X2302Y1591D01*
X2302Y1589D01*
X2306Y1589D01*
X2306Y1587D01*
X2308Y1587D01*
X2308Y1585D01*
X2312Y1585D01*
X2312Y1583D01*
X2514Y1583D01*
X2514Y1687D01*
X2512Y1687D01*
X2512Y1689D01*
X2510Y1689D01*
X2510Y1693D01*
X2508Y1693D01*
X2508Y1697D01*
X2506Y1697D01*
X2506Y1701D01*
X2504Y1701D01*
X2504Y1705D01*
X2502Y1705D01*
X2502Y1713D01*
X2500Y1713D01*
X2500Y1741D01*
X2502Y1741D01*
X2502Y1749D01*
X2504Y1749D01*
X2504Y1755D01*
X2506Y1755D01*
X2506Y1759D01*
X2508Y1759D01*
X2508Y1763D01*
X2510Y1763D01*
X2510Y1765D01*
X2512Y1765D01*
X2512Y1769D01*
X2514Y1769D01*
X2514Y1885D01*
X2512Y1885D01*
X2512Y1887D01*
X2510Y1887D01*
X2510Y1891D01*
X2508Y1891D01*
X2508Y1893D01*
X2506Y1893D01*
X2506Y1897D01*
X2504Y1897D01*
X2504Y1901D01*
X2502Y1901D01*
X2502Y1907D01*
X2500Y1907D01*
X2500Y1919D01*
X2498Y1919D01*
X2498Y1937D01*
X2500Y1937D01*
X2500Y1949D01*
X2502Y1949D01*
X2502Y1953D01*
X2504Y1953D01*
X2504Y1959D01*
X2506Y1959D01*
X2506Y1961D01*
X2508Y1961D01*
X2508Y1965D01*
X2510Y1965D01*
X2510Y1969D01*
X2512Y1969D01*
X2512Y1971D01*
X2514Y1971D01*
X2514Y1973D01*
X2516Y1973D01*
X2516Y1975D01*
X2518Y1975D01*
X2518Y1977D01*
X2520Y1977D01*
X2520Y1979D01*
X2522Y1979D01*
X2522Y1981D01*
X2524Y1981D01*
X2524Y1983D01*
X2526Y1983D01*
X2526Y1985D01*
X2528Y1985D01*
X2528Y1987D01*
X2532Y1987D01*
X2532Y1989D01*
X2534Y1989D01*
X2534Y1991D01*
X2538Y1991D01*
X2538Y1993D01*
X2542Y1993D01*
X2542Y1995D01*
X2548Y1995D01*
X2548Y1997D01*
X2556Y1997D01*
X2556Y1999D01*
X44Y1999D01*
G37*
D02*
G36*
X44Y1983D02*
X44Y1797D01*
X986Y1797D01*
X986Y1795D01*
X994Y1795D01*
X994Y1793D01*
X998Y1793D01*
X998Y1791D01*
X1002Y1791D01*
X1002Y1789D01*
X1006Y1789D01*
X1006Y1787D01*
X1008Y1787D01*
X1008Y1785D01*
X1012Y1785D01*
X1012Y1783D01*
X1014Y1783D01*
X1014Y1781D01*
X1016Y1781D01*
X1016Y1779D01*
X1018Y1779D01*
X1018Y1777D01*
X1020Y1777D01*
X1020Y1775D01*
X1022Y1775D01*
X1022Y1773D01*
X1024Y1773D01*
X1024Y1771D01*
X1026Y1771D01*
X1026Y1769D01*
X1028Y1769D01*
X1028Y1765D01*
X1030Y1765D01*
X1030Y1763D01*
X1032Y1763D01*
X1032Y1759D01*
X1034Y1759D01*
X1034Y1755D01*
X1036Y1755D01*
X1036Y1749D01*
X1038Y1749D01*
X1038Y1741D01*
X1040Y1741D01*
X1040Y1715D01*
X1038Y1715D01*
X1038Y1707D01*
X1036Y1707D01*
X1036Y1701D01*
X1034Y1701D01*
X1034Y1697D01*
X1032Y1697D01*
X1032Y1693D01*
X1030Y1693D01*
X1030Y1689D01*
X1028Y1689D01*
X1028Y1687D01*
X1026Y1687D01*
X1026Y1685D01*
X1024Y1685D01*
X1024Y1683D01*
X1022Y1683D01*
X1022Y1679D01*
X1020Y1679D01*
X1020Y1677D01*
X1018Y1677D01*
X1018Y1675D01*
X1014Y1675D01*
X1014Y1673D01*
X1012Y1673D01*
X1012Y1671D01*
X1010Y1671D01*
X1010Y1669D01*
X1006Y1669D01*
X1006Y1667D01*
X1004Y1667D01*
X1004Y1665D01*
X1000Y1665D01*
X1000Y1663D01*
X996Y1663D01*
X996Y1661D01*
X990Y1661D01*
X990Y1659D01*
X1322Y1659D01*
X1322Y1663D01*
X1324Y1663D01*
X1324Y1665D01*
X1326Y1665D01*
X1326Y1669D01*
X1328Y1669D01*
X1328Y1671D01*
X1330Y1671D01*
X1330Y1675D01*
X1332Y1675D01*
X1332Y1677D01*
X1334Y1677D01*
X1334Y1681D01*
X1336Y1681D01*
X1336Y1683D01*
X1338Y1683D01*
X1338Y1687D01*
X1340Y1687D01*
X1340Y1689D01*
X1342Y1689D01*
X1342Y1693D01*
X1344Y1693D01*
X1344Y1695D01*
X1346Y1695D01*
X1346Y1699D01*
X1348Y1699D01*
X1348Y1701D01*
X1350Y1701D01*
X1350Y1705D01*
X1352Y1705D01*
X1352Y1707D01*
X1354Y1707D01*
X1354Y1711D01*
X1356Y1711D01*
X1356Y1713D01*
X1358Y1713D01*
X1358Y1717D01*
X1360Y1717D01*
X1360Y1719D01*
X1362Y1719D01*
X1362Y1723D01*
X1364Y1723D01*
X1364Y1725D01*
X1366Y1725D01*
X1366Y1729D01*
X1368Y1729D01*
X1368Y1731D01*
X1370Y1731D01*
X1370Y1735D01*
X1372Y1735D01*
X1372Y1737D01*
X1374Y1737D01*
X1374Y1741D01*
X1376Y1741D01*
X1376Y1743D01*
X1378Y1743D01*
X1378Y1747D01*
X1380Y1747D01*
X1380Y1749D01*
X1382Y1749D01*
X1382Y1753D01*
X1384Y1753D01*
X1384Y1755D01*
X1386Y1755D01*
X1386Y1759D01*
X1388Y1759D01*
X1388Y1761D01*
X1390Y1761D01*
X1390Y1765D01*
X1392Y1765D01*
X1392Y1767D01*
X1394Y1767D01*
X1394Y1771D01*
X1396Y1771D01*
X1396Y1773D01*
X1398Y1773D01*
X1398Y1777D01*
X1400Y1777D01*
X1400Y1779D01*
X1402Y1779D01*
X1402Y1783D01*
X1404Y1783D01*
X1404Y1785D01*
X1406Y1785D01*
X1406Y1789D01*
X1408Y1789D01*
X1408Y1791D01*
X1410Y1791D01*
X1410Y1795D01*
X1412Y1795D01*
X1412Y1797D01*
X1414Y1797D01*
X1414Y1801D01*
X1416Y1801D01*
X1416Y1803D01*
X1418Y1803D01*
X1418Y1807D01*
X1420Y1807D01*
X1420Y1809D01*
X1422Y1809D01*
X1422Y1813D01*
X1424Y1813D01*
X1424Y1815D01*
X1426Y1815D01*
X1426Y1819D01*
X1428Y1819D01*
X1428Y1821D01*
X1430Y1821D01*
X1430Y1825D01*
X1432Y1825D01*
X1432Y1827D01*
X1434Y1827D01*
X1434Y1831D01*
X1436Y1831D01*
X1436Y1833D01*
X1438Y1833D01*
X1438Y1837D01*
X1440Y1837D01*
X1440Y1839D01*
X1442Y1839D01*
X1442Y1843D01*
X1444Y1843D01*
X1444Y1845D01*
X1446Y1845D01*
X1446Y1849D01*
X1448Y1849D01*
X1448Y1851D01*
X1450Y1851D01*
X1450Y1855D01*
X1452Y1855D01*
X1452Y1857D01*
X1454Y1857D01*
X1454Y1861D01*
X1456Y1861D01*
X1456Y1863D01*
X1458Y1863D01*
X1458Y1867D01*
X1460Y1867D01*
X1460Y1869D01*
X1462Y1869D01*
X1462Y1873D01*
X1464Y1873D01*
X1464Y1875D01*
X1466Y1875D01*
X1466Y1879D01*
X1468Y1879D01*
X1468Y1881D01*
X1470Y1881D01*
X1470Y1885D01*
X1472Y1885D01*
X1472Y1887D01*
X1474Y1887D01*
X1474Y1891D01*
X1476Y1891D01*
X1476Y1893D01*
X1478Y1893D01*
X1478Y1897D01*
X1480Y1897D01*
X1480Y1899D01*
X1482Y1899D01*
X1482Y1903D01*
X1484Y1903D01*
X1484Y1905D01*
X1486Y1905D01*
X1486Y1909D01*
X1488Y1909D01*
X1488Y1911D01*
X1490Y1911D01*
X1490Y1915D01*
X1492Y1915D01*
X1492Y1917D01*
X1494Y1917D01*
X1494Y1921D01*
X1496Y1921D01*
X1496Y1923D01*
X1498Y1923D01*
X1498Y1927D01*
X1500Y1927D01*
X1500Y1929D01*
X1502Y1929D01*
X1502Y1933D01*
X1504Y1933D01*
X1504Y1935D01*
X1506Y1935D01*
X1506Y1939D01*
X1508Y1939D01*
X1508Y1941D01*
X1510Y1941D01*
X1510Y1945D01*
X1512Y1945D01*
X1512Y1947D01*
X1514Y1947D01*
X1514Y1951D01*
X1516Y1951D01*
X1516Y1953D01*
X1518Y1953D01*
X1518Y1957D01*
X1520Y1957D01*
X1520Y1959D01*
X1522Y1959D01*
X1522Y1963D01*
X1524Y1963D01*
X1524Y1965D01*
X1526Y1965D01*
X1526Y1967D01*
X1528Y1967D01*
X1528Y1969D01*
X1530Y1969D01*
X1530Y1971D01*
X1532Y1971D01*
X1532Y1973D01*
X1534Y1973D01*
X1534Y1975D01*
X1536Y1975D01*
X1536Y1977D01*
X1540Y1977D01*
X1540Y1979D01*
X1544Y1979D01*
X1544Y1981D01*
X1550Y1981D01*
X1550Y1983D01*
X44Y1983D01*
G37*
D02*
G36*
X44Y1797D02*
X44Y1297D01*
X382Y1297D01*
X382Y1295D01*
X392Y1295D01*
X392Y1293D01*
X398Y1293D01*
X398Y1291D01*
X402Y1291D01*
X402Y1289D01*
X406Y1289D01*
X406Y1287D01*
X408Y1287D01*
X408Y1285D01*
X412Y1285D01*
X412Y1283D01*
X414Y1283D01*
X414Y1281D01*
X714Y1281D01*
X714Y1745D01*
X716Y1745D01*
X716Y1751D01*
X718Y1751D01*
X718Y1757D01*
X720Y1757D01*
X720Y1759D01*
X722Y1759D01*
X722Y1763D01*
X724Y1763D01*
X724Y1765D01*
X726Y1765D01*
X726Y1767D01*
X728Y1767D01*
X728Y1769D01*
X730Y1769D01*
X730Y1771D01*
X732Y1771D01*
X732Y1773D01*
X734Y1773D01*
X734Y1775D01*
X736Y1775D01*
X736Y1777D01*
X740Y1777D01*
X740Y1779D01*
X744Y1779D01*
X744Y1781D01*
X750Y1781D01*
X750Y1783D01*
X928Y1783D01*
X928Y1785D01*
X932Y1785D01*
X932Y1787D01*
X934Y1787D01*
X934Y1789D01*
X938Y1789D01*
X938Y1791D01*
X942Y1791D01*
X942Y1793D01*
X946Y1793D01*
X946Y1795D01*
X954Y1795D01*
X954Y1797D01*
X44Y1797D01*
G37*
D02*
G36*
X826Y1671D02*
X826Y1659D01*
X950Y1659D01*
X950Y1661D01*
X944Y1661D01*
X944Y1663D01*
X940Y1663D01*
X940Y1665D01*
X936Y1665D01*
X936Y1667D01*
X934Y1667D01*
X934Y1669D01*
X930Y1669D01*
X930Y1671D01*
X826Y1671D01*
G37*
D02*
G36*
X826Y1659D02*
X826Y1657D01*
X1320Y1657D01*
X1320Y1659D01*
X826Y1659D01*
G37*
D02*
G36*
X826Y1659D02*
X826Y1657D01*
X1320Y1657D01*
X1320Y1659D01*
X826Y1659D01*
G37*
D02*
G36*
X826Y1657D02*
X826Y1497D01*
X986Y1497D01*
X986Y1495D01*
X994Y1495D01*
X994Y1493D01*
X998Y1493D01*
X998Y1491D01*
X1002Y1491D01*
X1002Y1489D01*
X1006Y1489D01*
X1006Y1487D01*
X1008Y1487D01*
X1008Y1485D01*
X1012Y1485D01*
X1012Y1483D01*
X1014Y1483D01*
X1014Y1481D01*
X1016Y1481D01*
X1016Y1479D01*
X1018Y1479D01*
X1018Y1477D01*
X1020Y1477D01*
X1020Y1475D01*
X1022Y1475D01*
X1022Y1473D01*
X1024Y1473D01*
X1024Y1471D01*
X1026Y1471D01*
X1026Y1469D01*
X1028Y1469D01*
X1028Y1465D01*
X1030Y1465D01*
X1030Y1463D01*
X1032Y1463D01*
X1032Y1459D01*
X1034Y1459D01*
X1034Y1455D01*
X1036Y1455D01*
X1036Y1449D01*
X1038Y1449D01*
X1038Y1441D01*
X1040Y1441D01*
X1040Y1415D01*
X1038Y1415D01*
X1038Y1407D01*
X1036Y1407D01*
X1036Y1401D01*
X1034Y1401D01*
X1034Y1397D01*
X1032Y1397D01*
X1032Y1393D01*
X1030Y1393D01*
X1030Y1389D01*
X1028Y1389D01*
X1028Y1387D01*
X1026Y1387D01*
X1026Y1207D01*
X1024Y1207D01*
X1024Y1201D01*
X1022Y1201D01*
X1022Y1195D01*
X1020Y1195D01*
X1020Y1193D01*
X1018Y1193D01*
X1018Y1189D01*
X1016Y1189D01*
X1016Y1187D01*
X1014Y1187D01*
X1014Y1185D01*
X1012Y1185D01*
X1012Y1183D01*
X1010Y1183D01*
X1010Y1181D01*
X1008Y1181D01*
X1008Y1179D01*
X1006Y1179D01*
X1006Y1177D01*
X1004Y1177D01*
X1004Y1175D01*
X1000Y1175D01*
X1000Y1173D01*
X996Y1173D01*
X996Y1171D01*
X990Y1171D01*
X990Y1169D01*
X826Y1169D01*
X826Y1069D01*
X828Y1069D01*
X828Y1065D01*
X830Y1065D01*
X830Y1063D01*
X832Y1063D01*
X832Y1059D01*
X834Y1059D01*
X834Y1055D01*
X836Y1055D01*
X836Y1049D01*
X838Y1049D01*
X838Y1041D01*
X840Y1041D01*
X840Y1015D01*
X838Y1015D01*
X838Y1007D01*
X836Y1007D01*
X836Y1001D01*
X834Y1001D01*
X834Y997D01*
X832Y997D01*
X832Y993D01*
X830Y993D01*
X830Y989D01*
X828Y989D01*
X828Y987D01*
X826Y987D01*
X826Y985D01*
X824Y985D01*
X824Y983D01*
X822Y983D01*
X822Y979D01*
X820Y979D01*
X820Y977D01*
X818Y977D01*
X818Y975D01*
X814Y975D01*
X814Y973D01*
X812Y973D01*
X812Y971D01*
X810Y971D01*
X810Y969D01*
X806Y969D01*
X806Y967D01*
X804Y967D01*
X804Y965D01*
X800Y965D01*
X800Y963D01*
X796Y963D01*
X796Y961D01*
X790Y961D01*
X790Y959D01*
X908Y959D01*
X908Y963D01*
X910Y963D01*
X910Y965D01*
X912Y965D01*
X912Y969D01*
X914Y969D01*
X914Y1045D01*
X916Y1045D01*
X916Y1051D01*
X918Y1051D01*
X918Y1057D01*
X920Y1057D01*
X920Y1059D01*
X922Y1059D01*
X922Y1063D01*
X924Y1063D01*
X924Y1065D01*
X926Y1065D01*
X926Y1067D01*
X928Y1067D01*
X928Y1069D01*
X930Y1069D01*
X930Y1071D01*
X932Y1071D01*
X932Y1073D01*
X934Y1073D01*
X934Y1075D01*
X936Y1075D01*
X936Y1077D01*
X940Y1077D01*
X940Y1079D01*
X944Y1079D01*
X944Y1081D01*
X950Y1081D01*
X950Y1083D01*
X1114Y1083D01*
X1114Y1345D01*
X1116Y1345D01*
X1116Y1351D01*
X1118Y1351D01*
X1118Y1357D01*
X1120Y1357D01*
X1120Y1359D01*
X1122Y1359D01*
X1122Y1363D01*
X1124Y1363D01*
X1124Y1365D01*
X1126Y1365D01*
X1126Y1369D01*
X1128Y1369D01*
X1128Y1371D01*
X1130Y1371D01*
X1130Y1375D01*
X1132Y1375D01*
X1132Y1377D01*
X1134Y1377D01*
X1134Y1381D01*
X1136Y1381D01*
X1136Y1383D01*
X1138Y1383D01*
X1138Y1387D01*
X1140Y1387D01*
X1140Y1389D01*
X1142Y1389D01*
X1142Y1393D01*
X1144Y1393D01*
X1144Y1395D01*
X1146Y1395D01*
X1146Y1399D01*
X1148Y1399D01*
X1148Y1401D01*
X1150Y1401D01*
X1150Y1405D01*
X1152Y1405D01*
X1152Y1407D01*
X1154Y1407D01*
X1154Y1411D01*
X1156Y1411D01*
X1156Y1413D01*
X1158Y1413D01*
X1158Y1417D01*
X1160Y1417D01*
X1160Y1419D01*
X1162Y1419D01*
X1162Y1423D01*
X1164Y1423D01*
X1164Y1425D01*
X1166Y1425D01*
X1166Y1429D01*
X1168Y1429D01*
X1168Y1431D01*
X1170Y1431D01*
X1170Y1435D01*
X1172Y1435D01*
X1172Y1437D01*
X1174Y1437D01*
X1174Y1441D01*
X1176Y1441D01*
X1176Y1443D01*
X1178Y1443D01*
X1178Y1447D01*
X1180Y1447D01*
X1180Y1449D01*
X1182Y1449D01*
X1182Y1453D01*
X1184Y1453D01*
X1184Y1455D01*
X1186Y1455D01*
X1186Y1459D01*
X1188Y1459D01*
X1188Y1461D01*
X1190Y1461D01*
X1190Y1465D01*
X1192Y1465D01*
X1192Y1467D01*
X1194Y1467D01*
X1194Y1471D01*
X1196Y1471D01*
X1196Y1473D01*
X1198Y1473D01*
X1198Y1477D01*
X1200Y1477D01*
X1200Y1479D01*
X1202Y1479D01*
X1202Y1483D01*
X1204Y1483D01*
X1204Y1485D01*
X1206Y1485D01*
X1206Y1489D01*
X1208Y1489D01*
X1208Y1491D01*
X1210Y1491D01*
X1210Y1495D01*
X1212Y1495D01*
X1212Y1497D01*
X1214Y1497D01*
X1214Y1501D01*
X1216Y1501D01*
X1216Y1503D01*
X1218Y1503D01*
X1218Y1507D01*
X1220Y1507D01*
X1220Y1509D01*
X1222Y1509D01*
X1222Y1513D01*
X1224Y1513D01*
X1224Y1515D01*
X1226Y1515D01*
X1226Y1519D01*
X1228Y1519D01*
X1228Y1521D01*
X1230Y1521D01*
X1230Y1525D01*
X1232Y1525D01*
X1232Y1527D01*
X1234Y1527D01*
X1234Y1531D01*
X1236Y1531D01*
X1236Y1533D01*
X1238Y1533D01*
X1238Y1537D01*
X1240Y1537D01*
X1240Y1539D01*
X1242Y1539D01*
X1242Y1543D01*
X1244Y1543D01*
X1244Y1545D01*
X1246Y1545D01*
X1246Y1549D01*
X1248Y1549D01*
X1248Y1551D01*
X1250Y1551D01*
X1250Y1555D01*
X1252Y1555D01*
X1252Y1557D01*
X1254Y1557D01*
X1254Y1561D01*
X1256Y1561D01*
X1256Y1563D01*
X1258Y1563D01*
X1258Y1567D01*
X1260Y1567D01*
X1260Y1569D01*
X1262Y1569D01*
X1262Y1573D01*
X1264Y1573D01*
X1264Y1575D01*
X1266Y1575D01*
X1266Y1579D01*
X1268Y1579D01*
X1268Y1581D01*
X1270Y1581D01*
X1270Y1585D01*
X1272Y1585D01*
X1272Y1587D01*
X1274Y1587D01*
X1274Y1591D01*
X1276Y1591D01*
X1276Y1593D01*
X1278Y1593D01*
X1278Y1597D01*
X1280Y1597D01*
X1280Y1599D01*
X1282Y1599D01*
X1282Y1603D01*
X1284Y1603D01*
X1284Y1605D01*
X1286Y1605D01*
X1286Y1609D01*
X1288Y1609D01*
X1288Y1611D01*
X1290Y1611D01*
X1290Y1615D01*
X1292Y1615D01*
X1292Y1617D01*
X1294Y1617D01*
X1294Y1621D01*
X1296Y1621D01*
X1296Y1623D01*
X1298Y1623D01*
X1298Y1627D01*
X1300Y1627D01*
X1300Y1629D01*
X1302Y1629D01*
X1302Y1633D01*
X1304Y1633D01*
X1304Y1635D01*
X1306Y1635D01*
X1306Y1639D01*
X1308Y1639D01*
X1308Y1641D01*
X1310Y1641D01*
X1310Y1645D01*
X1312Y1645D01*
X1312Y1647D01*
X1314Y1647D01*
X1314Y1651D01*
X1316Y1651D01*
X1316Y1653D01*
X1318Y1653D01*
X1318Y1657D01*
X826Y1657D01*
G37*
D02*
G36*
X2226Y1597D02*
X2226Y1593D01*
X2246Y1593D01*
X2246Y1595D01*
X2254Y1595D01*
X2254Y1597D01*
X2226Y1597D01*
G37*
D02*
G36*
X826Y1497D02*
X826Y1281D01*
X914Y1281D01*
X914Y1387D01*
X912Y1387D01*
X912Y1389D01*
X910Y1389D01*
X910Y1393D01*
X908Y1393D01*
X908Y1397D01*
X906Y1397D01*
X906Y1401D01*
X904Y1401D01*
X904Y1405D01*
X902Y1405D01*
X902Y1413D01*
X900Y1413D01*
X900Y1441D01*
X902Y1441D01*
X902Y1449D01*
X904Y1449D01*
X904Y1455D01*
X906Y1455D01*
X906Y1459D01*
X908Y1459D01*
X908Y1463D01*
X910Y1463D01*
X910Y1465D01*
X912Y1465D01*
X912Y1469D01*
X914Y1469D01*
X914Y1471D01*
X916Y1471D01*
X916Y1473D01*
X918Y1473D01*
X918Y1475D01*
X920Y1475D01*
X920Y1477D01*
X922Y1477D01*
X922Y1479D01*
X924Y1479D01*
X924Y1481D01*
X926Y1481D01*
X926Y1483D01*
X928Y1483D01*
X928Y1485D01*
X932Y1485D01*
X932Y1487D01*
X934Y1487D01*
X934Y1489D01*
X938Y1489D01*
X938Y1491D01*
X942Y1491D01*
X942Y1493D01*
X946Y1493D01*
X946Y1495D01*
X954Y1495D01*
X954Y1497D01*
X826Y1497D01*
G37*
D02*
G36*
X2622Y1497D02*
X2622Y1483D01*
X2728Y1483D01*
X2728Y1485D01*
X2732Y1485D01*
X2732Y1487D01*
X2734Y1487D01*
X2734Y1489D01*
X2738Y1489D01*
X2738Y1491D01*
X2742Y1491D01*
X2742Y1493D01*
X2746Y1493D01*
X2746Y1495D01*
X2754Y1495D01*
X2754Y1497D01*
X2622Y1497D01*
G37*
D02*
G36*
X1286Y1397D02*
X1286Y1395D01*
X1284Y1395D01*
X1284Y1391D01*
X1282Y1391D01*
X1282Y1389D01*
X1280Y1389D01*
X1280Y1385D01*
X1278Y1385D01*
X1278Y1383D01*
X1276Y1383D01*
X1276Y1379D01*
X1274Y1379D01*
X1274Y1377D01*
X1272Y1377D01*
X1272Y1373D01*
X1270Y1373D01*
X1270Y1371D01*
X1268Y1371D01*
X1268Y1367D01*
X1266Y1367D01*
X1266Y1365D01*
X1264Y1365D01*
X1264Y1361D01*
X1262Y1361D01*
X1262Y1359D01*
X1350Y1359D01*
X1350Y1361D01*
X1344Y1361D01*
X1344Y1363D01*
X1340Y1363D01*
X1340Y1365D01*
X1336Y1365D01*
X1336Y1367D01*
X1334Y1367D01*
X1334Y1369D01*
X1330Y1369D01*
X1330Y1371D01*
X1328Y1371D01*
X1328Y1373D01*
X1326Y1373D01*
X1326Y1375D01*
X1322Y1375D01*
X1322Y1377D01*
X1320Y1377D01*
X1320Y1379D01*
X1318Y1379D01*
X1318Y1383D01*
X1316Y1383D01*
X1316Y1385D01*
X1314Y1385D01*
X1314Y1387D01*
X1312Y1387D01*
X1312Y1389D01*
X1310Y1389D01*
X1310Y1393D01*
X1308Y1393D01*
X1308Y1397D01*
X1286Y1397D01*
G37*
D02*
G36*
X2010Y1385D02*
X2010Y1383D01*
X2008Y1383D01*
X2008Y1381D01*
X2004Y1381D01*
X2004Y1379D01*
X2002Y1379D01*
X2002Y1377D01*
X1998Y1377D01*
X1998Y1375D01*
X1992Y1375D01*
X1992Y1373D01*
X1984Y1373D01*
X1984Y1371D01*
X1410Y1371D01*
X1410Y1369D01*
X1406Y1369D01*
X1406Y1367D01*
X1404Y1367D01*
X1404Y1365D01*
X1400Y1365D01*
X1400Y1363D01*
X1396Y1363D01*
X1396Y1361D01*
X1390Y1361D01*
X1390Y1359D01*
X2750Y1359D01*
X2750Y1361D01*
X2744Y1361D01*
X2744Y1363D01*
X2740Y1363D01*
X2740Y1365D01*
X2736Y1365D01*
X2736Y1367D01*
X2734Y1367D01*
X2734Y1369D01*
X2730Y1369D01*
X2730Y1371D01*
X2056Y1371D01*
X2056Y1373D01*
X2048Y1373D01*
X2048Y1375D01*
X2042Y1375D01*
X2042Y1377D01*
X2038Y1377D01*
X2038Y1379D01*
X2036Y1379D01*
X2036Y1381D01*
X2032Y1381D01*
X2032Y1383D01*
X2030Y1383D01*
X2030Y1385D01*
X2010Y1385D01*
G37*
D02*
G36*
X1260Y1359D02*
X1260Y1357D01*
X2996Y1357D01*
X2996Y1359D01*
X1260Y1359D01*
G37*
D02*
G36*
X1260Y1359D02*
X1260Y1357D01*
X2996Y1357D01*
X2996Y1359D01*
X1260Y1359D01*
G37*
D02*
G36*
X1260Y1359D02*
X1260Y1357D01*
X2996Y1357D01*
X2996Y1359D01*
X1260Y1359D01*
G37*
D02*
G36*
X1260Y1357D02*
X1260Y1355D01*
X1258Y1355D01*
X1258Y1353D01*
X1256Y1353D01*
X1256Y1349D01*
X1254Y1349D01*
X1254Y1347D01*
X1252Y1347D01*
X1252Y1343D01*
X1250Y1343D01*
X1250Y1341D01*
X1248Y1341D01*
X1248Y1337D01*
X1246Y1337D01*
X1246Y1335D01*
X1244Y1335D01*
X1244Y1331D01*
X1242Y1331D01*
X1242Y1329D01*
X1240Y1329D01*
X1240Y1325D01*
X1238Y1325D01*
X1238Y1323D01*
X1236Y1323D01*
X1236Y1319D01*
X1234Y1319D01*
X1234Y1317D01*
X1232Y1317D01*
X1232Y1313D01*
X1230Y1313D01*
X1230Y1311D01*
X1228Y1311D01*
X1228Y1307D01*
X1226Y1307D01*
X1226Y1297D01*
X2286Y1297D01*
X2286Y1295D01*
X2294Y1295D01*
X2294Y1293D01*
X2298Y1293D01*
X2298Y1291D01*
X2302Y1291D01*
X2302Y1289D01*
X2306Y1289D01*
X2306Y1287D01*
X2308Y1287D01*
X2308Y1285D01*
X2312Y1285D01*
X2312Y1283D01*
X2590Y1283D01*
X2590Y1281D01*
X2596Y1281D01*
X2596Y1279D01*
X2600Y1279D01*
X2600Y1277D01*
X2604Y1277D01*
X2604Y1275D01*
X2606Y1275D01*
X2606Y1273D01*
X2608Y1273D01*
X2608Y1271D01*
X2610Y1271D01*
X2610Y1269D01*
X2612Y1269D01*
X2612Y1267D01*
X2614Y1267D01*
X2614Y1265D01*
X2616Y1265D01*
X2616Y1263D01*
X2618Y1263D01*
X2618Y1259D01*
X2620Y1259D01*
X2620Y1257D01*
X2622Y1257D01*
X2622Y1251D01*
X2624Y1251D01*
X2624Y1245D01*
X2626Y1245D01*
X2626Y1097D01*
X2840Y1097D01*
X2840Y959D01*
X2996Y959D01*
X2996Y1357D01*
X1260Y1357D01*
G37*
D02*
G36*
X44Y1297D02*
X44Y1283D01*
X278Y1283D01*
X278Y1281D01*
X326Y1281D01*
X326Y1283D01*
X328Y1283D01*
X328Y1285D01*
X332Y1285D01*
X332Y1287D01*
X334Y1287D01*
X334Y1289D01*
X338Y1289D01*
X338Y1291D01*
X342Y1291D01*
X342Y1293D01*
X348Y1293D01*
X348Y1295D01*
X356Y1295D01*
X356Y1297D01*
X44Y1297D01*
G37*
D02*
G36*
X1226Y1297D02*
X1226Y1011D01*
X1224Y1011D01*
X1224Y1003D01*
X1222Y1003D01*
X1222Y999D01*
X1220Y999D01*
X1220Y995D01*
X1218Y995D01*
X1218Y993D01*
X1216Y993D01*
X1216Y989D01*
X1214Y989D01*
X1214Y987D01*
X1212Y987D01*
X1212Y985D01*
X1210Y985D01*
X1210Y983D01*
X1208Y983D01*
X1208Y981D01*
X1204Y981D01*
X1204Y979D01*
X1202Y979D01*
X1202Y977D01*
X1198Y977D01*
X1198Y975D01*
X1192Y975D01*
X1192Y973D01*
X1184Y973D01*
X1184Y971D01*
X1036Y971D01*
X1036Y949D01*
X1038Y949D01*
X1038Y941D01*
X1040Y941D01*
X1040Y915D01*
X1038Y915D01*
X1038Y907D01*
X1036Y907D01*
X1036Y883D01*
X1300Y883D01*
X1300Y1097D01*
X1314Y1097D01*
X1314Y1245D01*
X1316Y1245D01*
X1316Y1251D01*
X1318Y1251D01*
X1318Y1257D01*
X1320Y1257D01*
X1320Y1259D01*
X1322Y1259D01*
X1322Y1263D01*
X1324Y1263D01*
X1324Y1265D01*
X1326Y1265D01*
X1326Y1267D01*
X1328Y1267D01*
X1328Y1269D01*
X1330Y1269D01*
X1330Y1271D01*
X1332Y1271D01*
X1332Y1273D01*
X1334Y1273D01*
X1334Y1275D01*
X1336Y1275D01*
X1336Y1277D01*
X1340Y1277D01*
X1340Y1279D01*
X1344Y1279D01*
X1344Y1281D01*
X1350Y1281D01*
X1350Y1283D01*
X1600Y1283D01*
X1600Y1297D01*
X1226Y1297D01*
G37*
D02*
G36*
X1786Y1297D02*
X1786Y1295D01*
X1794Y1295D01*
X1794Y1293D01*
X1798Y1293D01*
X1798Y1291D01*
X1802Y1291D01*
X1802Y1289D01*
X1806Y1289D01*
X1806Y1287D01*
X1808Y1287D01*
X1808Y1285D01*
X1832Y1285D01*
X1832Y1287D01*
X1834Y1287D01*
X1834Y1289D01*
X1838Y1289D01*
X1838Y1291D01*
X1842Y1291D01*
X1842Y1293D01*
X1846Y1293D01*
X1846Y1295D01*
X1854Y1295D01*
X1854Y1297D01*
X1786Y1297D01*
G37*
D02*
G36*
X1886Y1297D02*
X1886Y1295D01*
X1894Y1295D01*
X1894Y1293D01*
X1898Y1293D01*
X1898Y1291D01*
X1902Y1291D01*
X1902Y1289D01*
X1906Y1289D01*
X1906Y1287D01*
X1908Y1287D01*
X1908Y1285D01*
X1932Y1285D01*
X1932Y1287D01*
X1934Y1287D01*
X1934Y1289D01*
X1938Y1289D01*
X1938Y1291D01*
X1942Y1291D01*
X1942Y1293D01*
X1946Y1293D01*
X1946Y1295D01*
X1954Y1295D01*
X1954Y1297D01*
X1886Y1297D01*
G37*
D02*
G36*
X1986Y1297D02*
X1986Y1295D01*
X1994Y1295D01*
X1994Y1293D01*
X1998Y1293D01*
X1998Y1291D01*
X2002Y1291D01*
X2002Y1289D01*
X2006Y1289D01*
X2006Y1287D01*
X2008Y1287D01*
X2008Y1285D01*
X2032Y1285D01*
X2032Y1287D01*
X2034Y1287D01*
X2034Y1289D01*
X2038Y1289D01*
X2038Y1291D01*
X2042Y1291D01*
X2042Y1293D01*
X2046Y1293D01*
X2046Y1295D01*
X2054Y1295D01*
X2054Y1297D01*
X1986Y1297D01*
G37*
D02*
G36*
X2086Y1297D02*
X2086Y1295D01*
X2094Y1295D01*
X2094Y1293D01*
X2098Y1293D01*
X2098Y1291D01*
X2102Y1291D01*
X2102Y1289D01*
X2106Y1289D01*
X2106Y1287D01*
X2108Y1287D01*
X2108Y1285D01*
X2132Y1285D01*
X2132Y1287D01*
X2134Y1287D01*
X2134Y1289D01*
X2138Y1289D01*
X2138Y1291D01*
X2142Y1291D01*
X2142Y1293D01*
X2146Y1293D01*
X2146Y1295D01*
X2154Y1295D01*
X2154Y1297D01*
X2086Y1297D01*
G37*
D02*
G36*
X2186Y1297D02*
X2186Y1295D01*
X2194Y1295D01*
X2194Y1293D01*
X2198Y1293D01*
X2198Y1291D01*
X2202Y1291D01*
X2202Y1289D01*
X2206Y1289D01*
X2206Y1287D01*
X2208Y1287D01*
X2208Y1285D01*
X2232Y1285D01*
X2232Y1287D01*
X2234Y1287D01*
X2234Y1289D01*
X2238Y1289D01*
X2238Y1291D01*
X2242Y1291D01*
X2242Y1293D01*
X2246Y1293D01*
X2246Y1295D01*
X2254Y1295D01*
X2254Y1297D01*
X2186Y1297D01*
G37*
D02*
G36*
X44Y1283D02*
X44Y157D01*
X2252Y157D01*
X2252Y159D01*
X2246Y159D01*
X2246Y161D01*
X2240Y161D01*
X2240Y163D01*
X2236Y163D01*
X2236Y165D01*
X2234Y165D01*
X2234Y167D01*
X2230Y167D01*
X2230Y169D01*
X2228Y169D01*
X2228Y171D01*
X956Y171D01*
X956Y173D01*
X948Y173D01*
X948Y175D01*
X942Y175D01*
X942Y177D01*
X938Y177D01*
X938Y179D01*
X936Y179D01*
X936Y181D01*
X932Y181D01*
X932Y183D01*
X930Y183D01*
X930Y185D01*
X928Y185D01*
X928Y187D01*
X924Y187D01*
X924Y189D01*
X922Y189D01*
X922Y191D01*
X920Y191D01*
X920Y193D01*
X916Y193D01*
X916Y195D01*
X914Y195D01*
X914Y197D01*
X912Y197D01*
X912Y199D01*
X908Y199D01*
X908Y201D01*
X906Y201D01*
X906Y203D01*
X904Y203D01*
X904Y205D01*
X900Y205D01*
X900Y207D01*
X898Y207D01*
X898Y209D01*
X896Y209D01*
X896Y211D01*
X892Y211D01*
X892Y213D01*
X890Y213D01*
X890Y215D01*
X888Y215D01*
X888Y217D01*
X884Y217D01*
X884Y219D01*
X882Y219D01*
X882Y221D01*
X880Y221D01*
X880Y223D01*
X876Y223D01*
X876Y225D01*
X874Y225D01*
X874Y227D01*
X872Y227D01*
X872Y229D01*
X868Y229D01*
X868Y231D01*
X866Y231D01*
X866Y233D01*
X864Y233D01*
X864Y235D01*
X860Y235D01*
X860Y237D01*
X858Y237D01*
X858Y239D01*
X856Y239D01*
X856Y241D01*
X852Y241D01*
X852Y243D01*
X850Y243D01*
X850Y245D01*
X848Y245D01*
X848Y247D01*
X844Y247D01*
X844Y249D01*
X842Y249D01*
X842Y251D01*
X840Y251D01*
X840Y253D01*
X836Y253D01*
X836Y255D01*
X834Y255D01*
X834Y257D01*
X832Y257D01*
X832Y259D01*
X828Y259D01*
X828Y261D01*
X826Y261D01*
X826Y263D01*
X824Y263D01*
X824Y265D01*
X820Y265D01*
X820Y267D01*
X818Y267D01*
X818Y269D01*
X816Y269D01*
X816Y271D01*
X812Y271D01*
X812Y273D01*
X810Y273D01*
X810Y275D01*
X808Y275D01*
X808Y277D01*
X804Y277D01*
X804Y279D01*
X802Y279D01*
X802Y281D01*
X800Y281D01*
X800Y283D01*
X796Y283D01*
X796Y285D01*
X794Y285D01*
X794Y287D01*
X792Y287D01*
X792Y289D01*
X788Y289D01*
X788Y291D01*
X786Y291D01*
X786Y293D01*
X784Y293D01*
X784Y295D01*
X780Y295D01*
X780Y297D01*
X778Y297D01*
X778Y299D01*
X776Y299D01*
X776Y301D01*
X772Y301D01*
X772Y303D01*
X770Y303D01*
X770Y305D01*
X768Y305D01*
X768Y307D01*
X764Y307D01*
X764Y309D01*
X762Y309D01*
X762Y311D01*
X760Y311D01*
X760Y313D01*
X756Y313D01*
X756Y315D01*
X754Y315D01*
X754Y317D01*
X752Y317D01*
X752Y319D01*
X748Y319D01*
X748Y321D01*
X746Y321D01*
X746Y323D01*
X744Y323D01*
X744Y325D01*
X740Y325D01*
X740Y327D01*
X738Y327D01*
X738Y329D01*
X736Y329D01*
X736Y331D01*
X732Y331D01*
X732Y333D01*
X730Y333D01*
X730Y335D01*
X728Y335D01*
X728Y337D01*
X724Y337D01*
X724Y339D01*
X722Y339D01*
X722Y341D01*
X720Y341D01*
X720Y343D01*
X716Y343D01*
X716Y345D01*
X714Y345D01*
X714Y347D01*
X712Y347D01*
X712Y349D01*
X708Y349D01*
X708Y351D01*
X706Y351D01*
X706Y353D01*
X704Y353D01*
X704Y355D01*
X700Y355D01*
X700Y357D01*
X698Y357D01*
X698Y359D01*
X696Y359D01*
X696Y361D01*
X692Y361D01*
X692Y363D01*
X690Y363D01*
X690Y365D01*
X688Y365D01*
X688Y367D01*
X684Y367D01*
X684Y369D01*
X682Y369D01*
X682Y371D01*
X680Y371D01*
X680Y373D01*
X676Y373D01*
X676Y375D01*
X674Y375D01*
X674Y377D01*
X672Y377D01*
X672Y379D01*
X668Y379D01*
X668Y381D01*
X666Y381D01*
X666Y383D01*
X664Y383D01*
X664Y385D01*
X660Y385D01*
X660Y387D01*
X658Y387D01*
X658Y389D01*
X656Y389D01*
X656Y391D01*
X652Y391D01*
X652Y393D01*
X650Y393D01*
X650Y395D01*
X648Y395D01*
X648Y397D01*
X644Y397D01*
X644Y399D01*
X642Y399D01*
X642Y401D01*
X640Y401D01*
X640Y403D01*
X636Y403D01*
X636Y405D01*
X634Y405D01*
X634Y407D01*
X632Y407D01*
X632Y409D01*
X628Y409D01*
X628Y411D01*
X626Y411D01*
X626Y413D01*
X624Y413D01*
X624Y415D01*
X620Y415D01*
X620Y417D01*
X618Y417D01*
X618Y419D01*
X616Y419D01*
X616Y421D01*
X612Y421D01*
X612Y423D01*
X610Y423D01*
X610Y425D01*
X608Y425D01*
X608Y427D01*
X604Y427D01*
X604Y429D01*
X602Y429D01*
X602Y431D01*
X600Y431D01*
X600Y433D01*
X596Y433D01*
X596Y435D01*
X594Y435D01*
X594Y437D01*
X592Y437D01*
X592Y439D01*
X588Y439D01*
X588Y441D01*
X586Y441D01*
X586Y443D01*
X584Y443D01*
X584Y445D01*
X580Y445D01*
X580Y447D01*
X578Y447D01*
X578Y449D01*
X576Y449D01*
X576Y451D01*
X572Y451D01*
X572Y453D01*
X570Y453D01*
X570Y455D01*
X568Y455D01*
X568Y457D01*
X564Y457D01*
X564Y459D01*
X562Y459D01*
X562Y461D01*
X560Y461D01*
X560Y463D01*
X556Y463D01*
X556Y465D01*
X554Y465D01*
X554Y467D01*
X552Y467D01*
X552Y469D01*
X548Y469D01*
X548Y471D01*
X546Y471D01*
X546Y473D01*
X544Y473D01*
X544Y475D01*
X540Y475D01*
X540Y477D01*
X538Y477D01*
X538Y479D01*
X536Y479D01*
X536Y481D01*
X532Y481D01*
X532Y483D01*
X530Y483D01*
X530Y485D01*
X528Y485D01*
X528Y487D01*
X524Y487D01*
X524Y489D01*
X522Y489D01*
X522Y491D01*
X520Y491D01*
X520Y493D01*
X516Y493D01*
X516Y495D01*
X514Y495D01*
X514Y497D01*
X512Y497D01*
X512Y499D01*
X508Y499D01*
X508Y501D01*
X506Y501D01*
X506Y503D01*
X504Y503D01*
X504Y505D01*
X500Y505D01*
X500Y507D01*
X498Y507D01*
X498Y509D01*
X496Y509D01*
X496Y511D01*
X492Y511D01*
X492Y513D01*
X490Y513D01*
X490Y515D01*
X488Y515D01*
X488Y517D01*
X484Y517D01*
X484Y519D01*
X482Y519D01*
X482Y521D01*
X480Y521D01*
X480Y523D01*
X476Y523D01*
X476Y525D01*
X474Y525D01*
X474Y527D01*
X472Y527D01*
X472Y529D01*
X468Y529D01*
X468Y531D01*
X466Y531D01*
X466Y533D01*
X464Y533D01*
X464Y535D01*
X460Y535D01*
X460Y537D01*
X458Y537D01*
X458Y539D01*
X456Y539D01*
X456Y541D01*
X452Y541D01*
X452Y543D01*
X450Y543D01*
X450Y545D01*
X448Y545D01*
X448Y547D01*
X444Y547D01*
X444Y549D01*
X442Y549D01*
X442Y551D01*
X440Y551D01*
X440Y553D01*
X436Y553D01*
X436Y555D01*
X434Y555D01*
X434Y557D01*
X432Y557D01*
X432Y559D01*
X428Y559D01*
X428Y561D01*
X426Y561D01*
X426Y563D01*
X424Y563D01*
X424Y565D01*
X420Y565D01*
X420Y567D01*
X418Y567D01*
X418Y569D01*
X416Y569D01*
X416Y571D01*
X412Y571D01*
X412Y573D01*
X410Y573D01*
X410Y575D01*
X408Y575D01*
X408Y577D01*
X404Y577D01*
X404Y579D01*
X402Y579D01*
X402Y581D01*
X400Y581D01*
X400Y583D01*
X396Y583D01*
X396Y585D01*
X394Y585D01*
X394Y587D01*
X392Y587D01*
X392Y589D01*
X388Y589D01*
X388Y591D01*
X386Y591D01*
X386Y593D01*
X384Y593D01*
X384Y595D01*
X380Y595D01*
X380Y597D01*
X378Y597D01*
X378Y599D01*
X376Y599D01*
X376Y601D01*
X372Y601D01*
X372Y603D01*
X370Y603D01*
X370Y605D01*
X368Y605D01*
X368Y607D01*
X364Y607D01*
X364Y609D01*
X362Y609D01*
X362Y611D01*
X360Y611D01*
X360Y613D01*
X356Y613D01*
X356Y615D01*
X354Y615D01*
X354Y617D01*
X352Y617D01*
X352Y619D01*
X348Y619D01*
X348Y621D01*
X346Y621D01*
X346Y623D01*
X344Y623D01*
X344Y625D01*
X340Y625D01*
X340Y627D01*
X338Y627D01*
X338Y629D01*
X336Y629D01*
X336Y631D01*
X332Y631D01*
X332Y633D01*
X330Y633D01*
X330Y635D01*
X328Y635D01*
X328Y637D01*
X324Y637D01*
X324Y639D01*
X322Y639D01*
X322Y641D01*
X320Y641D01*
X320Y643D01*
X316Y643D01*
X316Y645D01*
X314Y645D01*
X314Y647D01*
X312Y647D01*
X312Y649D01*
X308Y649D01*
X308Y651D01*
X306Y651D01*
X306Y653D01*
X304Y653D01*
X304Y655D01*
X300Y655D01*
X300Y657D01*
X298Y657D01*
X298Y659D01*
X296Y659D01*
X296Y661D01*
X292Y661D01*
X292Y663D01*
X290Y663D01*
X290Y665D01*
X288Y665D01*
X288Y667D01*
X284Y667D01*
X284Y669D01*
X282Y669D01*
X282Y671D01*
X280Y671D01*
X280Y673D01*
X276Y673D01*
X276Y675D01*
X274Y675D01*
X274Y677D01*
X272Y677D01*
X272Y679D01*
X268Y679D01*
X268Y681D01*
X266Y681D01*
X266Y683D01*
X264Y683D01*
X264Y685D01*
X260Y685D01*
X260Y687D01*
X258Y687D01*
X258Y689D01*
X256Y689D01*
X256Y691D01*
X252Y691D01*
X252Y693D01*
X250Y693D01*
X250Y695D01*
X248Y695D01*
X248Y697D01*
X244Y697D01*
X244Y699D01*
X242Y699D01*
X242Y701D01*
X240Y701D01*
X240Y703D01*
X236Y703D01*
X236Y705D01*
X234Y705D01*
X234Y707D01*
X232Y707D01*
X232Y709D01*
X228Y709D01*
X228Y711D01*
X226Y711D01*
X226Y713D01*
X224Y713D01*
X224Y715D01*
X220Y715D01*
X220Y717D01*
X218Y717D01*
X218Y719D01*
X216Y719D01*
X216Y721D01*
X212Y721D01*
X212Y723D01*
X210Y723D01*
X210Y725D01*
X208Y725D01*
X208Y727D01*
X204Y727D01*
X204Y729D01*
X202Y729D01*
X202Y731D01*
X200Y731D01*
X200Y733D01*
X196Y733D01*
X196Y735D01*
X194Y735D01*
X194Y737D01*
X192Y737D01*
X192Y739D01*
X188Y739D01*
X188Y741D01*
X186Y741D01*
X186Y743D01*
X184Y743D01*
X184Y745D01*
X180Y745D01*
X180Y747D01*
X178Y747D01*
X178Y749D01*
X176Y749D01*
X176Y751D01*
X172Y751D01*
X172Y753D01*
X170Y753D01*
X170Y755D01*
X168Y755D01*
X168Y757D01*
X164Y757D01*
X164Y759D01*
X162Y759D01*
X162Y761D01*
X160Y761D01*
X160Y763D01*
X156Y763D01*
X156Y765D01*
X154Y765D01*
X154Y767D01*
X152Y767D01*
X152Y769D01*
X148Y769D01*
X148Y771D01*
X146Y771D01*
X146Y773D01*
X144Y773D01*
X144Y775D01*
X140Y775D01*
X140Y777D01*
X138Y777D01*
X138Y779D01*
X136Y779D01*
X136Y781D01*
X132Y781D01*
X132Y783D01*
X130Y783D01*
X130Y785D01*
X128Y785D01*
X128Y787D01*
X126Y787D01*
X126Y789D01*
X124Y789D01*
X124Y793D01*
X122Y793D01*
X122Y795D01*
X120Y795D01*
X120Y799D01*
X118Y799D01*
X118Y803D01*
X116Y803D01*
X116Y811D01*
X114Y811D01*
X114Y1245D01*
X116Y1245D01*
X116Y1251D01*
X118Y1251D01*
X118Y1257D01*
X120Y1257D01*
X120Y1259D01*
X122Y1259D01*
X122Y1263D01*
X124Y1263D01*
X124Y1265D01*
X126Y1265D01*
X126Y1267D01*
X128Y1267D01*
X128Y1269D01*
X130Y1269D01*
X130Y1271D01*
X132Y1271D01*
X132Y1273D01*
X134Y1273D01*
X134Y1275D01*
X136Y1275D01*
X136Y1277D01*
X140Y1277D01*
X140Y1279D01*
X144Y1279D01*
X144Y1281D01*
X150Y1281D01*
X150Y1283D01*
X44Y1283D01*
G37*
D02*
G36*
X226Y1171D02*
X226Y1153D01*
X352Y1153D01*
X352Y1155D01*
X344Y1155D01*
X344Y1157D01*
X340Y1157D01*
X340Y1159D01*
X336Y1159D01*
X336Y1161D01*
X332Y1161D01*
X332Y1163D01*
X330Y1163D01*
X330Y1165D01*
X328Y1165D01*
X328Y1167D01*
X324Y1167D01*
X324Y1169D01*
X262Y1169D01*
X262Y1171D01*
X226Y1171D01*
G37*
D02*
G36*
X2310Y1171D02*
X2310Y1169D01*
X2306Y1169D01*
X2306Y1167D01*
X2304Y1167D01*
X2304Y1165D01*
X2300Y1165D01*
X2300Y1163D01*
X2296Y1163D01*
X2296Y1161D01*
X2290Y1161D01*
X2290Y1159D01*
X2514Y1159D01*
X2514Y1171D01*
X2310Y1171D01*
G37*
D02*
G36*
X416Y1169D02*
X416Y1167D01*
X412Y1167D01*
X412Y1165D01*
X410Y1165D01*
X410Y1163D01*
X406Y1163D01*
X406Y1161D01*
X404Y1161D01*
X404Y1159D01*
X400Y1159D01*
X400Y1157D01*
X396Y1157D01*
X396Y1155D01*
X388Y1155D01*
X388Y1153D01*
X714Y1153D01*
X714Y1169D01*
X416Y1169D01*
G37*
D02*
G36*
X2226Y1161D02*
X2226Y1159D01*
X2250Y1159D01*
X2250Y1161D01*
X2226Y1161D01*
G37*
D02*
G36*
X2226Y1159D02*
X2226Y1157D01*
X2514Y1157D01*
X2514Y1159D01*
X2226Y1159D01*
G37*
D02*
G36*
X2226Y1159D02*
X2226Y1157D01*
X2514Y1157D01*
X2514Y1159D01*
X2226Y1159D01*
G37*
D02*
G36*
X2226Y1157D02*
X2226Y1097D01*
X2240Y1097D01*
X2240Y959D01*
X2550Y959D01*
X2550Y961D01*
X2544Y961D01*
X2544Y963D01*
X2540Y963D01*
X2540Y965D01*
X2536Y965D01*
X2536Y967D01*
X2534Y967D01*
X2534Y969D01*
X2530Y969D01*
X2530Y971D01*
X2528Y971D01*
X2528Y973D01*
X2526Y973D01*
X2526Y975D01*
X2522Y975D01*
X2522Y977D01*
X2520Y977D01*
X2520Y979D01*
X2518Y979D01*
X2518Y983D01*
X2516Y983D01*
X2516Y985D01*
X2514Y985D01*
X2514Y987D01*
X2512Y987D01*
X2512Y989D01*
X2510Y989D01*
X2510Y993D01*
X2508Y993D01*
X2508Y997D01*
X2506Y997D01*
X2506Y1001D01*
X2504Y1001D01*
X2504Y1005D01*
X2502Y1005D01*
X2502Y1013D01*
X2500Y1013D01*
X2500Y1041D01*
X2502Y1041D01*
X2502Y1049D01*
X2504Y1049D01*
X2504Y1055D01*
X2506Y1055D01*
X2506Y1059D01*
X2508Y1059D01*
X2508Y1063D01*
X2510Y1063D01*
X2510Y1065D01*
X2512Y1065D01*
X2512Y1069D01*
X2514Y1069D01*
X2514Y1157D01*
X2226Y1157D01*
G37*
D02*
G36*
X226Y1153D02*
X226Y1151D01*
X714Y1151D01*
X714Y1153D01*
X226Y1153D01*
G37*
D02*
G36*
X226Y1153D02*
X226Y1151D01*
X714Y1151D01*
X714Y1153D01*
X226Y1153D01*
G37*
D02*
G36*
X226Y1151D02*
X226Y1099D01*
X442Y1099D01*
X442Y959D01*
X750Y959D01*
X750Y961D01*
X744Y961D01*
X744Y963D01*
X740Y963D01*
X740Y965D01*
X736Y965D01*
X736Y967D01*
X734Y967D01*
X734Y969D01*
X730Y969D01*
X730Y971D01*
X728Y971D01*
X728Y973D01*
X726Y973D01*
X726Y975D01*
X722Y975D01*
X722Y977D01*
X720Y977D01*
X720Y979D01*
X718Y979D01*
X718Y983D01*
X716Y983D01*
X716Y985D01*
X714Y985D01*
X714Y987D01*
X712Y987D01*
X712Y989D01*
X710Y989D01*
X710Y993D01*
X708Y993D01*
X708Y997D01*
X706Y997D01*
X706Y1001D01*
X704Y1001D01*
X704Y1005D01*
X702Y1005D01*
X702Y1013D01*
X700Y1013D01*
X700Y1041D01*
X702Y1041D01*
X702Y1049D01*
X704Y1049D01*
X704Y1055D01*
X706Y1055D01*
X706Y1059D01*
X708Y1059D01*
X708Y1063D01*
X710Y1063D01*
X710Y1065D01*
X712Y1065D01*
X712Y1069D01*
X714Y1069D01*
X714Y1151D01*
X226Y1151D01*
G37*
D02*
G36*
X226Y1099D02*
X226Y859D01*
X228Y859D01*
X228Y857D01*
X230Y857D01*
X230Y855D01*
X232Y855D01*
X232Y853D01*
X236Y853D01*
X236Y851D01*
X238Y851D01*
X238Y849D01*
X240Y849D01*
X240Y847D01*
X244Y847D01*
X244Y845D01*
X246Y845D01*
X246Y843D01*
X248Y843D01*
X248Y841D01*
X252Y841D01*
X252Y839D01*
X254Y839D01*
X254Y837D01*
X256Y837D01*
X256Y835D01*
X260Y835D01*
X260Y833D01*
X262Y833D01*
X262Y831D01*
X264Y831D01*
X264Y829D01*
X268Y829D01*
X268Y827D01*
X270Y827D01*
X270Y825D01*
X272Y825D01*
X272Y823D01*
X276Y823D01*
X276Y821D01*
X278Y821D01*
X278Y819D01*
X280Y819D01*
X280Y817D01*
X284Y817D01*
X284Y815D01*
X286Y815D01*
X286Y813D01*
X288Y813D01*
X288Y811D01*
X292Y811D01*
X292Y809D01*
X294Y809D01*
X294Y807D01*
X314Y807D01*
X314Y955D01*
X298Y955D01*
X298Y1099D01*
X226Y1099D01*
G37*
D02*
G36*
X2626Y1097D02*
X2626Y1083D01*
X2700Y1083D01*
X2700Y1097D01*
X2626Y1097D01*
G37*
D02*
G36*
X2610Y971D02*
X2610Y969D01*
X2606Y969D01*
X2606Y967D01*
X2604Y967D01*
X2604Y965D01*
X2600Y965D01*
X2600Y963D01*
X2596Y963D01*
X2596Y961D01*
X2590Y961D01*
X2590Y959D01*
X2700Y959D01*
X2700Y971D01*
X2610Y971D01*
G37*
D02*
G36*
X442Y959D02*
X442Y957D01*
X906Y957D01*
X906Y959D01*
X442Y959D01*
G37*
D02*
G36*
X442Y959D02*
X442Y957D01*
X906Y957D01*
X906Y959D01*
X442Y959D01*
G37*
D02*
G36*
X2226Y959D02*
X2226Y957D01*
X2996Y957D01*
X2996Y959D01*
X2226Y959D01*
G37*
D02*
G36*
X2226Y959D02*
X2226Y957D01*
X2996Y957D01*
X2996Y959D01*
X2226Y959D01*
G37*
D02*
G36*
X2226Y959D02*
X2226Y957D01*
X2996Y957D01*
X2996Y959D01*
X2226Y959D01*
G37*
D02*
G36*
X442Y957D02*
X442Y955D01*
X426Y955D01*
X426Y883D01*
X904Y883D01*
X904Y905D01*
X902Y905D01*
X902Y913D01*
X900Y913D01*
X900Y941D01*
X902Y941D01*
X902Y949D01*
X904Y949D01*
X904Y955D01*
X906Y955D01*
X906Y957D01*
X442Y957D01*
G37*
D02*
G36*
X2226Y957D02*
X2226Y897D01*
X2866Y897D01*
X2866Y895D01*
X2872Y895D01*
X2872Y893D01*
X2876Y893D01*
X2876Y891D01*
X2880Y891D01*
X2880Y889D01*
X2884Y889D01*
X2884Y887D01*
X2886Y887D01*
X2886Y885D01*
X2888Y885D01*
X2888Y883D01*
X2892Y883D01*
X2892Y881D01*
X2894Y881D01*
X2894Y879D01*
X2896Y879D01*
X2896Y877D01*
X2898Y877D01*
X2898Y875D01*
X2900Y875D01*
X2900Y871D01*
X2902Y871D01*
X2902Y869D01*
X2904Y869D01*
X2904Y867D01*
X2906Y867D01*
X2906Y863D01*
X2908Y863D01*
X2908Y861D01*
X2910Y861D01*
X2910Y855D01*
X2912Y855D01*
X2912Y851D01*
X2914Y851D01*
X2914Y843D01*
X2916Y843D01*
X2916Y811D01*
X2914Y811D01*
X2914Y805D01*
X2912Y805D01*
X2912Y799D01*
X2910Y799D01*
X2910Y795D01*
X2908Y795D01*
X2908Y791D01*
X2906Y791D01*
X2906Y789D01*
X2904Y789D01*
X2904Y785D01*
X2902Y785D01*
X2902Y783D01*
X2900Y783D01*
X2900Y781D01*
X2898Y781D01*
X2898Y779D01*
X2896Y779D01*
X2896Y777D01*
X2894Y777D01*
X2894Y775D01*
X2892Y775D01*
X2892Y773D01*
X2890Y773D01*
X2890Y771D01*
X2888Y771D01*
X2888Y769D01*
X2884Y769D01*
X2884Y767D01*
X2882Y767D01*
X2882Y765D01*
X2878Y765D01*
X2878Y763D01*
X2874Y763D01*
X2874Y761D01*
X2868Y761D01*
X2868Y759D01*
X2862Y759D01*
X2862Y757D01*
X2996Y757D01*
X2996Y957D01*
X2226Y957D01*
G37*
D02*
G36*
X2226Y897D02*
X2226Y883D01*
X2526Y883D01*
X2526Y885D01*
X2530Y885D01*
X2530Y887D01*
X2532Y887D01*
X2532Y889D01*
X2536Y889D01*
X2536Y891D01*
X2540Y891D01*
X2540Y893D01*
X2544Y893D01*
X2544Y895D01*
X2550Y895D01*
X2550Y897D01*
X2226Y897D01*
G37*
D02*
G36*
X2590Y897D02*
X2590Y895D01*
X2596Y895D01*
X2596Y893D01*
X2600Y893D01*
X2600Y891D01*
X2604Y891D01*
X2604Y889D01*
X2608Y889D01*
X2608Y887D01*
X2610Y887D01*
X2610Y885D01*
X2614Y885D01*
X2614Y883D01*
X2616Y883D01*
X2616Y881D01*
X2618Y881D01*
X2618Y879D01*
X2620Y879D01*
X2620Y877D01*
X2622Y877D01*
X2622Y875D01*
X2624Y875D01*
X2624Y873D01*
X2626Y873D01*
X2626Y869D01*
X2628Y869D01*
X2628Y867D01*
X2630Y867D01*
X2630Y865D01*
X2632Y865D01*
X2632Y861D01*
X2634Y861D01*
X2634Y857D01*
X2636Y857D01*
X2636Y853D01*
X2638Y853D01*
X2638Y845D01*
X2640Y845D01*
X2640Y809D01*
X2638Y809D01*
X2638Y803D01*
X2636Y803D01*
X2636Y799D01*
X2634Y799D01*
X2634Y795D01*
X2632Y795D01*
X2632Y791D01*
X2630Y791D01*
X2630Y787D01*
X2628Y787D01*
X2628Y785D01*
X2626Y785D01*
X2626Y783D01*
X2624Y783D01*
X2624Y781D01*
X2622Y781D01*
X2622Y779D01*
X2620Y779D01*
X2620Y777D01*
X2618Y777D01*
X2618Y775D01*
X2616Y775D01*
X2616Y773D01*
X2614Y773D01*
X2614Y771D01*
X2612Y771D01*
X2612Y769D01*
X2608Y769D01*
X2608Y767D01*
X2606Y767D01*
X2606Y765D01*
X2602Y765D01*
X2602Y763D01*
X2598Y763D01*
X2598Y761D01*
X2718Y761D01*
X2718Y759D01*
X2728Y759D01*
X2728Y757D01*
X2830Y757D01*
X2830Y759D01*
X2822Y759D01*
X2822Y761D01*
X2818Y761D01*
X2818Y763D01*
X2814Y763D01*
X2814Y765D01*
X2810Y765D01*
X2810Y767D01*
X2806Y767D01*
X2806Y769D01*
X2804Y769D01*
X2804Y771D01*
X2802Y771D01*
X2802Y773D01*
X2798Y773D01*
X2798Y775D01*
X2796Y775D01*
X2796Y777D01*
X2794Y777D01*
X2794Y779D01*
X2792Y779D01*
X2792Y783D01*
X2790Y783D01*
X2790Y785D01*
X2788Y785D01*
X2788Y787D01*
X2786Y787D01*
X2786Y791D01*
X2784Y791D01*
X2784Y793D01*
X2782Y793D01*
X2782Y797D01*
X2780Y797D01*
X2780Y801D01*
X2778Y801D01*
X2778Y807D01*
X2776Y807D01*
X2776Y847D01*
X2778Y847D01*
X2778Y853D01*
X2780Y853D01*
X2780Y857D01*
X2782Y857D01*
X2782Y861D01*
X2784Y861D01*
X2784Y865D01*
X2786Y865D01*
X2786Y867D01*
X2788Y867D01*
X2788Y871D01*
X2790Y871D01*
X2790Y873D01*
X2792Y873D01*
X2792Y875D01*
X2794Y875D01*
X2794Y877D01*
X2796Y877D01*
X2796Y879D01*
X2798Y879D01*
X2798Y881D01*
X2800Y881D01*
X2800Y883D01*
X2802Y883D01*
X2802Y885D01*
X2806Y885D01*
X2806Y887D01*
X2808Y887D01*
X2808Y889D01*
X2812Y889D01*
X2812Y891D01*
X2814Y891D01*
X2814Y893D01*
X2820Y893D01*
X2820Y895D01*
X2826Y895D01*
X2826Y897D01*
X2590Y897D01*
G37*
D02*
G36*
X2436Y771D02*
X2436Y757D01*
X2554Y757D01*
X2554Y759D01*
X2546Y759D01*
X2546Y761D01*
X2542Y761D01*
X2542Y763D01*
X2538Y763D01*
X2538Y765D01*
X2534Y765D01*
X2534Y767D01*
X2532Y767D01*
X2532Y769D01*
X2528Y769D01*
X2528Y771D01*
X2436Y771D01*
G37*
D02*
G36*
X2592Y761D02*
X2592Y759D01*
X2586Y759D01*
X2586Y757D01*
X2686Y757D01*
X2686Y759D01*
X2696Y759D01*
X2696Y761D01*
X2592Y761D01*
G37*
D02*
G36*
X2436Y757D02*
X2436Y755D01*
X2682Y755D01*
X2682Y757D01*
X2436Y757D01*
G37*
D02*
G36*
X2436Y757D02*
X2436Y755D01*
X2682Y755D01*
X2682Y757D01*
X2436Y757D01*
G37*
D02*
G36*
X2734Y757D02*
X2734Y755D01*
X2996Y755D01*
X2996Y757D01*
X2734Y757D01*
G37*
D02*
G36*
X2734Y757D02*
X2734Y755D01*
X2996Y755D01*
X2996Y757D01*
X2734Y757D01*
G37*
D02*
G36*
X2436Y755D02*
X2436Y749D01*
X2438Y749D01*
X2438Y741D01*
X2440Y741D01*
X2440Y715D01*
X2438Y715D01*
X2438Y705D01*
X2436Y705D01*
X2436Y701D01*
X2434Y701D01*
X2434Y697D01*
X2432Y697D01*
X2432Y693D01*
X2430Y693D01*
X2430Y689D01*
X2428Y689D01*
X2428Y687D01*
X2426Y687D01*
X2426Y483D01*
X2652Y483D01*
X2652Y647D01*
X2650Y647D01*
X2650Y649D01*
X2648Y649D01*
X2648Y653D01*
X2646Y653D01*
X2646Y657D01*
X2644Y657D01*
X2644Y659D01*
X2642Y659D01*
X2642Y665D01*
X2640Y665D01*
X2640Y671D01*
X2638Y671D01*
X2638Y709D01*
X2640Y709D01*
X2640Y715D01*
X2642Y715D01*
X2642Y719D01*
X2644Y719D01*
X2644Y723D01*
X2646Y723D01*
X2646Y727D01*
X2648Y727D01*
X2648Y729D01*
X2650Y729D01*
X2650Y733D01*
X2652Y733D01*
X2652Y735D01*
X2654Y735D01*
X2654Y737D01*
X2656Y737D01*
X2656Y739D01*
X2658Y739D01*
X2658Y741D01*
X2660Y741D01*
X2660Y743D01*
X2662Y743D01*
X2662Y745D01*
X2664Y745D01*
X2664Y747D01*
X2666Y747D01*
X2666Y749D01*
X2670Y749D01*
X2670Y751D01*
X2674Y751D01*
X2674Y753D01*
X2676Y753D01*
X2676Y755D01*
X2436Y755D01*
G37*
D02*
G36*
X2738Y755D02*
X2738Y753D01*
X2742Y753D01*
X2742Y751D01*
X2746Y751D01*
X2746Y749D01*
X2748Y749D01*
X2748Y747D01*
X2752Y747D01*
X2752Y745D01*
X2754Y745D01*
X2754Y743D01*
X2756Y743D01*
X2756Y741D01*
X2758Y741D01*
X2758Y739D01*
X2760Y739D01*
X2760Y737D01*
X2762Y737D01*
X2762Y735D01*
X2764Y735D01*
X2764Y731D01*
X2766Y731D01*
X2766Y729D01*
X2768Y729D01*
X2768Y727D01*
X2770Y727D01*
X2770Y723D01*
X2772Y723D01*
X2772Y719D01*
X2774Y719D01*
X2774Y713D01*
X2776Y713D01*
X2776Y707D01*
X2778Y707D01*
X2778Y673D01*
X2776Y673D01*
X2776Y665D01*
X2774Y665D01*
X2774Y661D01*
X2772Y661D01*
X2772Y657D01*
X2770Y657D01*
X2770Y653D01*
X2768Y653D01*
X2768Y651D01*
X2766Y651D01*
X2766Y647D01*
X2764Y647D01*
X2764Y411D01*
X2762Y411D01*
X2762Y405D01*
X2760Y405D01*
X2760Y399D01*
X2758Y399D01*
X2758Y395D01*
X2756Y395D01*
X2756Y393D01*
X2754Y393D01*
X2754Y389D01*
X2752Y389D01*
X2752Y387D01*
X2750Y387D01*
X2750Y385D01*
X2748Y385D01*
X2748Y383D01*
X2744Y383D01*
X2744Y381D01*
X2742Y381D01*
X2742Y379D01*
X2740Y379D01*
X2740Y377D01*
X2736Y377D01*
X2736Y375D01*
X2730Y375D01*
X2730Y373D01*
X2722Y373D01*
X2722Y371D01*
X2996Y371D01*
X2996Y755D01*
X2738Y755D01*
G37*
D02*
G36*
X2332Y373D02*
X2332Y371D01*
X2356Y371D01*
X2356Y373D01*
X2332Y373D01*
G37*
D02*
G36*
X2332Y371D02*
X2332Y369D01*
X2996Y369D01*
X2996Y371D01*
X2332Y371D01*
G37*
D02*
G36*
X2332Y371D02*
X2332Y369D01*
X2996Y369D01*
X2996Y371D01*
X2332Y371D01*
G37*
D02*
G36*
X2332Y369D02*
X2332Y361D01*
X2334Y361D01*
X2334Y357D01*
X2336Y357D01*
X2336Y353D01*
X2338Y353D01*
X2338Y347D01*
X2340Y347D01*
X2340Y307D01*
X2338Y307D01*
X2338Y301D01*
X2336Y301D01*
X2336Y297D01*
X2334Y297D01*
X2334Y293D01*
X2332Y293D01*
X2332Y291D01*
X2330Y291D01*
X2330Y287D01*
X2328Y287D01*
X2328Y267D01*
X2330Y267D01*
X2330Y265D01*
X2332Y265D01*
X2332Y261D01*
X2334Y261D01*
X2334Y257D01*
X2336Y257D01*
X2336Y253D01*
X2338Y253D01*
X2338Y247D01*
X2340Y247D01*
X2340Y207D01*
X2338Y207D01*
X2338Y201D01*
X2336Y201D01*
X2336Y197D01*
X2334Y197D01*
X2334Y193D01*
X2332Y193D01*
X2332Y191D01*
X2330Y191D01*
X2330Y187D01*
X2328Y187D01*
X2328Y185D01*
X2326Y185D01*
X2326Y183D01*
X2324Y183D01*
X2324Y179D01*
X2322Y179D01*
X2322Y177D01*
X2320Y177D01*
X2320Y175D01*
X2318Y175D01*
X2318Y173D01*
X2314Y173D01*
X2314Y171D01*
X2312Y171D01*
X2312Y169D01*
X2310Y169D01*
X2310Y167D01*
X2306Y167D01*
X2306Y165D01*
X2304Y165D01*
X2304Y163D01*
X2300Y163D01*
X2300Y161D01*
X2294Y161D01*
X2294Y159D01*
X2288Y159D01*
X2288Y157D01*
X2996Y157D01*
X2996Y369D01*
X2332Y369D01*
G37*
D02*
G36*
X44Y157D02*
X44Y155D01*
X2996Y155D01*
X2996Y157D01*
X44Y157D01*
G37*
D02*
G36*
X44Y157D02*
X44Y155D01*
X2996Y155D01*
X2996Y157D01*
X44Y157D01*
G37*
D02*
G36*
X44Y155D02*
X44Y41D01*
X2996Y41D01*
X2996Y155D01*
X44Y155D01*
G37*
D02*
G36*
X1426Y1171D02*
X1426Y1097D01*
X1440Y1097D01*
X1440Y815D01*
X1438Y815D01*
X1438Y807D01*
X1436Y807D01*
X1436Y801D01*
X1434Y801D01*
X1434Y797D01*
X1432Y797D01*
X1432Y793D01*
X1430Y793D01*
X1430Y789D01*
X1428Y789D01*
X1428Y787D01*
X1426Y787D01*
X1426Y785D01*
X1424Y785D01*
X1424Y783D01*
X1422Y783D01*
X1422Y779D01*
X1420Y779D01*
X1420Y777D01*
X1418Y777D01*
X1418Y775D01*
X1414Y775D01*
X1414Y773D01*
X1412Y773D01*
X1412Y771D01*
X1410Y771D01*
X1410Y769D01*
X1406Y769D01*
X1406Y767D01*
X1404Y767D01*
X1404Y765D01*
X1400Y765D01*
X1400Y763D01*
X1396Y763D01*
X1396Y761D01*
X1390Y761D01*
X1390Y759D01*
X1708Y759D01*
X1708Y763D01*
X1710Y763D01*
X1710Y765D01*
X1712Y765D01*
X1712Y769D01*
X1714Y769D01*
X1714Y987D01*
X1712Y987D01*
X1712Y989D01*
X1710Y989D01*
X1710Y993D01*
X1708Y993D01*
X1708Y997D01*
X1706Y997D01*
X1706Y1001D01*
X1704Y1001D01*
X1704Y1005D01*
X1702Y1005D01*
X1702Y1013D01*
X1700Y1013D01*
X1700Y1041D01*
X1702Y1041D01*
X1702Y1049D01*
X1704Y1049D01*
X1704Y1055D01*
X1706Y1055D01*
X1706Y1059D01*
X1708Y1059D01*
X1708Y1063D01*
X1710Y1063D01*
X1710Y1065D01*
X1712Y1065D01*
X1712Y1069D01*
X1714Y1069D01*
X1714Y1159D01*
X1600Y1159D01*
X1600Y1171D01*
X1426Y1171D01*
G37*
D02*
G36*
X368Y771D02*
X368Y751D01*
X372Y751D01*
X372Y749D01*
X374Y749D01*
X374Y747D01*
X376Y747D01*
X376Y745D01*
X380Y745D01*
X380Y743D01*
X382Y743D01*
X382Y741D01*
X384Y741D01*
X384Y739D01*
X388Y739D01*
X388Y737D01*
X390Y737D01*
X390Y735D01*
X392Y735D01*
X392Y733D01*
X396Y733D01*
X396Y731D01*
X398Y731D01*
X398Y729D01*
X400Y729D01*
X400Y727D01*
X404Y727D01*
X404Y725D01*
X406Y725D01*
X406Y723D01*
X408Y723D01*
X408Y721D01*
X412Y721D01*
X412Y719D01*
X414Y719D01*
X414Y717D01*
X416Y717D01*
X416Y715D01*
X420Y715D01*
X420Y713D01*
X422Y713D01*
X422Y711D01*
X424Y711D01*
X424Y709D01*
X428Y709D01*
X428Y707D01*
X430Y707D01*
X430Y705D01*
X432Y705D01*
X432Y703D01*
X436Y703D01*
X436Y701D01*
X438Y701D01*
X438Y699D01*
X440Y699D01*
X440Y697D01*
X786Y697D01*
X786Y695D01*
X794Y695D01*
X794Y693D01*
X798Y693D01*
X798Y691D01*
X802Y691D01*
X802Y689D01*
X806Y689D01*
X806Y687D01*
X808Y687D01*
X808Y685D01*
X812Y685D01*
X812Y683D01*
X814Y683D01*
X814Y681D01*
X816Y681D01*
X816Y679D01*
X818Y679D01*
X818Y677D01*
X820Y677D01*
X820Y675D01*
X824Y675D01*
X824Y673D01*
X832Y673D01*
X832Y671D01*
X840Y671D01*
X840Y669D01*
X850Y669D01*
X850Y667D01*
X858Y667D01*
X858Y665D01*
X866Y665D01*
X866Y663D01*
X876Y663D01*
X876Y661D01*
X942Y661D01*
X942Y659D01*
X954Y659D01*
X954Y657D01*
X1054Y657D01*
X1054Y659D01*
X1046Y659D01*
X1046Y661D01*
X1042Y661D01*
X1042Y663D01*
X1038Y663D01*
X1038Y665D01*
X1034Y665D01*
X1034Y667D01*
X1032Y667D01*
X1032Y669D01*
X1028Y669D01*
X1028Y671D01*
X1026Y671D01*
X1026Y673D01*
X1024Y673D01*
X1024Y675D01*
X1022Y675D01*
X1022Y677D01*
X1020Y677D01*
X1020Y679D01*
X1018Y679D01*
X1018Y681D01*
X1016Y681D01*
X1016Y683D01*
X1014Y683D01*
X1014Y685D01*
X1012Y685D01*
X1012Y687D01*
X1010Y687D01*
X1010Y691D01*
X1008Y691D01*
X1008Y695D01*
X1006Y695D01*
X1006Y699D01*
X1004Y699D01*
X1004Y703D01*
X1002Y703D01*
X1002Y709D01*
X1000Y709D01*
X1000Y745D01*
X1002Y745D01*
X1002Y771D01*
X368Y771D01*
G37*
D02*
G36*
X1138Y771D02*
X1138Y759D01*
X1350Y759D01*
X1350Y761D01*
X1344Y761D01*
X1344Y763D01*
X1340Y763D01*
X1340Y765D01*
X1336Y765D01*
X1336Y767D01*
X1334Y767D01*
X1334Y769D01*
X1330Y769D01*
X1330Y771D01*
X1138Y771D01*
G37*
D02*
G36*
X1138Y759D02*
X1138Y757D01*
X1706Y757D01*
X1706Y759D01*
X1138Y759D01*
G37*
D02*
G36*
X1138Y759D02*
X1138Y757D01*
X1706Y757D01*
X1706Y759D01*
X1138Y759D01*
G37*
D02*
G36*
X1138Y757D02*
X1138Y745D01*
X1140Y745D01*
X1140Y709D01*
X1138Y709D01*
X1138Y703D01*
X1136Y703D01*
X1136Y699D01*
X1134Y699D01*
X1134Y695D01*
X1132Y695D01*
X1132Y691D01*
X1130Y691D01*
X1130Y687D01*
X1128Y687D01*
X1128Y685D01*
X1126Y685D01*
X1126Y683D01*
X1124Y683D01*
X1124Y681D01*
X1122Y681D01*
X1122Y679D01*
X1120Y679D01*
X1120Y677D01*
X1118Y677D01*
X1118Y675D01*
X1116Y675D01*
X1116Y673D01*
X1114Y673D01*
X1114Y671D01*
X1112Y671D01*
X1112Y669D01*
X1108Y669D01*
X1108Y667D01*
X1106Y667D01*
X1106Y665D01*
X1102Y665D01*
X1102Y663D01*
X1098Y663D01*
X1098Y661D01*
X1092Y661D01*
X1092Y659D01*
X1750Y659D01*
X1750Y661D01*
X1744Y661D01*
X1744Y663D01*
X1740Y663D01*
X1740Y665D01*
X1736Y665D01*
X1736Y667D01*
X1734Y667D01*
X1734Y669D01*
X1730Y669D01*
X1730Y671D01*
X1728Y671D01*
X1728Y673D01*
X1726Y673D01*
X1726Y675D01*
X1722Y675D01*
X1722Y677D01*
X1720Y677D01*
X1720Y679D01*
X1718Y679D01*
X1718Y683D01*
X1716Y683D01*
X1716Y685D01*
X1714Y685D01*
X1714Y687D01*
X1712Y687D01*
X1712Y689D01*
X1710Y689D01*
X1710Y693D01*
X1708Y693D01*
X1708Y697D01*
X1706Y697D01*
X1706Y701D01*
X1704Y701D01*
X1704Y705D01*
X1702Y705D01*
X1702Y713D01*
X1700Y713D01*
X1700Y741D01*
X1702Y741D01*
X1702Y749D01*
X1704Y749D01*
X1704Y755D01*
X1706Y755D01*
X1706Y757D01*
X1138Y757D01*
G37*
D02*
G36*
X444Y697D02*
X444Y695D01*
X446Y695D01*
X446Y693D01*
X448Y693D01*
X448Y691D01*
X452Y691D01*
X452Y689D01*
X454Y689D01*
X454Y687D01*
X456Y687D01*
X456Y685D01*
X460Y685D01*
X460Y683D01*
X462Y683D01*
X462Y681D01*
X464Y681D01*
X464Y679D01*
X468Y679D01*
X468Y677D01*
X470Y677D01*
X470Y675D01*
X472Y675D01*
X472Y673D01*
X476Y673D01*
X476Y671D01*
X478Y671D01*
X478Y669D01*
X480Y669D01*
X480Y667D01*
X484Y667D01*
X484Y665D01*
X486Y665D01*
X486Y663D01*
X488Y663D01*
X488Y661D01*
X492Y661D01*
X492Y659D01*
X494Y659D01*
X494Y657D01*
X496Y657D01*
X496Y655D01*
X500Y655D01*
X500Y653D01*
X502Y653D01*
X502Y651D01*
X504Y651D01*
X504Y649D01*
X508Y649D01*
X508Y647D01*
X510Y647D01*
X510Y645D01*
X512Y645D01*
X512Y643D01*
X516Y643D01*
X516Y641D01*
X518Y641D01*
X518Y639D01*
X520Y639D01*
X520Y637D01*
X524Y637D01*
X524Y635D01*
X526Y635D01*
X526Y633D01*
X528Y633D01*
X528Y631D01*
X532Y631D01*
X532Y629D01*
X534Y629D01*
X534Y627D01*
X536Y627D01*
X536Y625D01*
X540Y625D01*
X540Y623D01*
X542Y623D01*
X542Y621D01*
X544Y621D01*
X544Y619D01*
X548Y619D01*
X548Y617D01*
X550Y617D01*
X550Y615D01*
X552Y615D01*
X552Y613D01*
X556Y613D01*
X556Y611D01*
X558Y611D01*
X558Y609D01*
X560Y609D01*
X560Y607D01*
X564Y607D01*
X564Y605D01*
X566Y605D01*
X566Y603D01*
X568Y603D01*
X568Y601D01*
X572Y601D01*
X572Y599D01*
X574Y599D01*
X574Y597D01*
X576Y597D01*
X576Y595D01*
X580Y595D01*
X580Y593D01*
X582Y593D01*
X582Y591D01*
X584Y591D01*
X584Y589D01*
X588Y589D01*
X588Y587D01*
X590Y587D01*
X590Y585D01*
X592Y585D01*
X592Y583D01*
X596Y583D01*
X596Y581D01*
X598Y581D01*
X598Y579D01*
X600Y579D01*
X600Y577D01*
X604Y577D01*
X604Y575D01*
X606Y575D01*
X606Y573D01*
X608Y573D01*
X608Y571D01*
X612Y571D01*
X612Y569D01*
X614Y569D01*
X614Y567D01*
X616Y567D01*
X616Y565D01*
X620Y565D01*
X620Y563D01*
X622Y563D01*
X622Y561D01*
X624Y561D01*
X624Y559D01*
X628Y559D01*
X628Y557D01*
X630Y557D01*
X630Y555D01*
X632Y555D01*
X632Y553D01*
X636Y553D01*
X636Y551D01*
X638Y551D01*
X638Y549D01*
X640Y549D01*
X640Y547D01*
X644Y547D01*
X644Y545D01*
X646Y545D01*
X646Y543D01*
X648Y543D01*
X648Y541D01*
X652Y541D01*
X652Y539D01*
X654Y539D01*
X654Y537D01*
X656Y537D01*
X656Y535D01*
X660Y535D01*
X660Y533D01*
X662Y533D01*
X662Y531D01*
X664Y531D01*
X664Y529D01*
X668Y529D01*
X668Y527D01*
X670Y527D01*
X670Y525D01*
X672Y525D01*
X672Y523D01*
X676Y523D01*
X676Y521D01*
X678Y521D01*
X678Y519D01*
X918Y519D01*
X918Y521D01*
X910Y521D01*
X910Y523D01*
X904Y523D01*
X904Y525D01*
X900Y525D01*
X900Y527D01*
X896Y527D01*
X896Y529D01*
X894Y529D01*
X894Y531D01*
X890Y531D01*
X890Y533D01*
X888Y533D01*
X888Y535D01*
X886Y535D01*
X886Y537D01*
X884Y537D01*
X884Y539D01*
X882Y539D01*
X882Y541D01*
X880Y541D01*
X880Y543D01*
X876Y543D01*
X876Y545D01*
X868Y545D01*
X868Y547D01*
X858Y547D01*
X858Y549D01*
X850Y549D01*
X850Y551D01*
X842Y551D01*
X842Y553D01*
X832Y553D01*
X832Y555D01*
X824Y555D01*
X824Y557D01*
X816Y557D01*
X816Y559D01*
X750Y559D01*
X750Y561D01*
X744Y561D01*
X744Y563D01*
X740Y563D01*
X740Y565D01*
X736Y565D01*
X736Y567D01*
X734Y567D01*
X734Y569D01*
X730Y569D01*
X730Y571D01*
X728Y571D01*
X728Y573D01*
X726Y573D01*
X726Y575D01*
X722Y575D01*
X722Y577D01*
X720Y577D01*
X720Y579D01*
X718Y579D01*
X718Y583D01*
X716Y583D01*
X716Y585D01*
X714Y585D01*
X714Y587D01*
X712Y587D01*
X712Y589D01*
X710Y589D01*
X710Y593D01*
X708Y593D01*
X708Y597D01*
X706Y597D01*
X706Y601D01*
X704Y601D01*
X704Y605D01*
X702Y605D01*
X702Y613D01*
X700Y613D01*
X700Y641D01*
X702Y641D01*
X702Y649D01*
X704Y649D01*
X704Y655D01*
X706Y655D01*
X706Y659D01*
X708Y659D01*
X708Y663D01*
X710Y663D01*
X710Y665D01*
X712Y665D01*
X712Y669D01*
X714Y669D01*
X714Y671D01*
X716Y671D01*
X716Y673D01*
X718Y673D01*
X718Y675D01*
X720Y675D01*
X720Y677D01*
X722Y677D01*
X722Y679D01*
X724Y679D01*
X724Y681D01*
X726Y681D01*
X726Y683D01*
X728Y683D01*
X728Y685D01*
X732Y685D01*
X732Y687D01*
X734Y687D01*
X734Y689D01*
X738Y689D01*
X738Y691D01*
X742Y691D01*
X742Y693D01*
X746Y693D01*
X746Y695D01*
X754Y695D01*
X754Y697D01*
X444Y697D01*
G37*
D02*
G36*
X884Y661D02*
X884Y659D01*
X892Y659D01*
X892Y657D01*
X912Y657D01*
X912Y659D01*
X922Y659D01*
X922Y661D01*
X884Y661D01*
G37*
D02*
G36*
X1790Y661D02*
X1790Y659D01*
X1814Y659D01*
X1814Y661D01*
X1790Y661D01*
G37*
D02*
G36*
X1086Y659D02*
X1086Y657D01*
X1814Y657D01*
X1814Y659D01*
X1086Y659D01*
G37*
D02*
G36*
X1086Y659D02*
X1086Y657D01*
X1814Y657D01*
X1814Y659D01*
X1086Y659D01*
G37*
D02*
G36*
X958Y657D02*
X958Y655D01*
X1814Y655D01*
X1814Y657D01*
X958Y657D01*
G37*
D02*
G36*
X958Y657D02*
X958Y655D01*
X1814Y655D01*
X1814Y657D01*
X958Y657D01*
G37*
D02*
G36*
X964Y655D02*
X964Y653D01*
X966Y653D01*
X966Y651D01*
X970Y651D01*
X970Y649D01*
X972Y649D01*
X972Y647D01*
X976Y647D01*
X976Y645D01*
X978Y645D01*
X978Y643D01*
X980Y643D01*
X980Y641D01*
X982Y641D01*
X982Y639D01*
X984Y639D01*
X984Y637D01*
X986Y637D01*
X986Y635D01*
X988Y635D01*
X988Y633D01*
X990Y633D01*
X990Y629D01*
X992Y629D01*
X992Y627D01*
X994Y627D01*
X994Y623D01*
X996Y623D01*
X996Y619D01*
X998Y619D01*
X998Y615D01*
X1000Y615D01*
X1000Y609D01*
X1002Y609D01*
X1002Y571D01*
X1000Y571D01*
X1000Y565D01*
X998Y565D01*
X998Y561D01*
X996Y561D01*
X996Y557D01*
X994Y557D01*
X994Y553D01*
X992Y553D01*
X992Y549D01*
X990Y549D01*
X990Y547D01*
X988Y547D01*
X988Y545D01*
X986Y545D01*
X986Y543D01*
X984Y543D01*
X984Y541D01*
X982Y541D01*
X982Y539D01*
X980Y539D01*
X980Y537D01*
X978Y537D01*
X978Y535D01*
X976Y535D01*
X976Y533D01*
X974Y533D01*
X974Y531D01*
X970Y531D01*
X970Y529D01*
X968Y529D01*
X968Y527D01*
X964Y527D01*
X964Y525D01*
X960Y525D01*
X960Y523D01*
X1082Y523D01*
X1082Y521D01*
X1092Y521D01*
X1092Y519D01*
X1098Y519D01*
X1098Y517D01*
X1102Y517D01*
X1102Y515D01*
X1106Y515D01*
X1106Y513D01*
X1108Y513D01*
X1108Y511D01*
X1112Y511D01*
X1112Y509D01*
X1114Y509D01*
X1114Y507D01*
X1116Y507D01*
X1116Y505D01*
X1118Y505D01*
X1118Y503D01*
X1120Y503D01*
X1120Y501D01*
X1122Y501D01*
X1122Y499D01*
X1124Y499D01*
X1124Y497D01*
X1126Y497D01*
X1126Y495D01*
X1128Y495D01*
X1128Y491D01*
X1130Y491D01*
X1130Y489D01*
X1132Y489D01*
X1132Y485D01*
X1134Y485D01*
X1134Y481D01*
X1136Y481D01*
X1136Y477D01*
X1138Y477D01*
X1138Y471D01*
X1140Y471D01*
X1140Y433D01*
X1138Y433D01*
X1138Y427D01*
X1136Y427D01*
X1136Y423D01*
X1134Y423D01*
X1134Y419D01*
X1132Y419D01*
X1132Y415D01*
X1130Y415D01*
X1130Y413D01*
X1128Y413D01*
X1128Y409D01*
X1126Y409D01*
X1126Y397D01*
X1740Y397D01*
X1740Y383D01*
X1798Y383D01*
X1798Y399D01*
X1814Y399D01*
X1814Y655D01*
X964Y655D01*
G37*
D02*
G36*
X954Y523D02*
X954Y521D01*
X946Y521D01*
X946Y519D01*
X1048Y519D01*
X1048Y521D01*
X1058Y521D01*
X1058Y523D01*
X954Y523D01*
G37*
D02*
G36*
X680Y519D02*
X680Y517D01*
X1042Y517D01*
X1042Y519D01*
X680Y519D01*
G37*
D02*
G36*
X680Y519D02*
X680Y517D01*
X1042Y517D01*
X1042Y519D01*
X680Y519D01*
G37*
D02*
G36*
X684Y517D02*
X684Y515D01*
X686Y515D01*
X686Y513D01*
X688Y513D01*
X688Y511D01*
X692Y511D01*
X692Y509D01*
X694Y509D01*
X694Y507D01*
X696Y507D01*
X696Y505D01*
X700Y505D01*
X700Y503D01*
X702Y503D01*
X702Y501D01*
X704Y501D01*
X704Y499D01*
X708Y499D01*
X708Y497D01*
X710Y497D01*
X710Y495D01*
X712Y495D01*
X712Y493D01*
X716Y493D01*
X716Y491D01*
X718Y491D01*
X718Y489D01*
X720Y489D01*
X720Y487D01*
X724Y487D01*
X724Y485D01*
X726Y485D01*
X726Y483D01*
X728Y483D01*
X728Y481D01*
X732Y481D01*
X732Y479D01*
X734Y479D01*
X734Y477D01*
X736Y477D01*
X736Y475D01*
X740Y475D01*
X740Y473D01*
X742Y473D01*
X742Y471D01*
X744Y471D01*
X744Y469D01*
X748Y469D01*
X748Y467D01*
X750Y467D01*
X750Y465D01*
X752Y465D01*
X752Y463D01*
X756Y463D01*
X756Y461D01*
X758Y461D01*
X758Y459D01*
X760Y459D01*
X760Y457D01*
X764Y457D01*
X764Y455D01*
X766Y455D01*
X766Y453D01*
X768Y453D01*
X768Y451D01*
X772Y451D01*
X772Y449D01*
X774Y449D01*
X774Y447D01*
X776Y447D01*
X776Y445D01*
X780Y445D01*
X780Y443D01*
X782Y443D01*
X782Y441D01*
X784Y441D01*
X784Y439D01*
X788Y439D01*
X788Y437D01*
X790Y437D01*
X790Y435D01*
X792Y435D01*
X792Y433D01*
X796Y433D01*
X796Y431D01*
X798Y431D01*
X798Y429D01*
X800Y429D01*
X800Y427D01*
X804Y427D01*
X804Y425D01*
X806Y425D01*
X806Y423D01*
X808Y423D01*
X808Y421D01*
X812Y421D01*
X812Y419D01*
X814Y419D01*
X814Y417D01*
X816Y417D01*
X816Y415D01*
X820Y415D01*
X820Y413D01*
X822Y413D01*
X822Y411D01*
X824Y411D01*
X824Y409D01*
X828Y409D01*
X828Y407D01*
X830Y407D01*
X830Y405D01*
X832Y405D01*
X832Y403D01*
X836Y403D01*
X836Y401D01*
X838Y401D01*
X838Y399D01*
X840Y399D01*
X840Y397D01*
X844Y397D01*
X844Y395D01*
X846Y395D01*
X846Y393D01*
X848Y393D01*
X848Y391D01*
X852Y391D01*
X852Y389D01*
X854Y389D01*
X854Y387D01*
X856Y387D01*
X856Y385D01*
X860Y385D01*
X860Y383D01*
X862Y383D01*
X862Y381D01*
X864Y381D01*
X864Y379D01*
X868Y379D01*
X868Y377D01*
X870Y377D01*
X870Y375D01*
X872Y375D01*
X872Y373D01*
X876Y373D01*
X876Y371D01*
X878Y371D01*
X878Y369D01*
X880Y369D01*
X880Y367D01*
X884Y367D01*
X884Y365D01*
X886Y365D01*
X886Y363D01*
X888Y363D01*
X888Y361D01*
X892Y361D01*
X892Y359D01*
X894Y359D01*
X894Y357D01*
X896Y357D01*
X896Y355D01*
X900Y355D01*
X900Y353D01*
X902Y353D01*
X902Y351D01*
X904Y351D01*
X904Y349D01*
X908Y349D01*
X908Y347D01*
X910Y347D01*
X910Y345D01*
X912Y345D01*
X912Y343D01*
X916Y343D01*
X916Y341D01*
X918Y341D01*
X918Y339D01*
X920Y339D01*
X920Y337D01*
X924Y337D01*
X924Y335D01*
X926Y335D01*
X926Y333D01*
X928Y333D01*
X928Y331D01*
X932Y331D01*
X932Y329D01*
X934Y329D01*
X934Y327D01*
X936Y327D01*
X936Y325D01*
X940Y325D01*
X940Y323D01*
X942Y323D01*
X942Y321D01*
X944Y321D01*
X944Y319D01*
X948Y319D01*
X948Y317D01*
X950Y317D01*
X950Y315D01*
X952Y315D01*
X952Y313D01*
X956Y313D01*
X956Y311D01*
X958Y311D01*
X958Y309D01*
X960Y309D01*
X960Y307D01*
X964Y307D01*
X964Y305D01*
X966Y305D01*
X966Y303D01*
X968Y303D01*
X968Y301D01*
X972Y301D01*
X972Y299D01*
X974Y299D01*
X974Y297D01*
X976Y297D01*
X976Y295D01*
X980Y295D01*
X980Y293D01*
X982Y293D01*
X982Y291D01*
X984Y291D01*
X984Y289D01*
X988Y289D01*
X988Y287D01*
X990Y287D01*
X990Y285D01*
X992Y285D01*
X992Y283D01*
X1018Y283D01*
X1018Y303D01*
X1016Y303D01*
X1016Y311D01*
X1014Y311D01*
X1014Y409D01*
X1012Y409D01*
X1012Y413D01*
X1010Y413D01*
X1010Y415D01*
X1008Y415D01*
X1008Y419D01*
X1006Y419D01*
X1006Y423D01*
X1004Y423D01*
X1004Y427D01*
X1002Y427D01*
X1002Y433D01*
X1000Y433D01*
X1000Y471D01*
X1002Y471D01*
X1002Y477D01*
X1004Y477D01*
X1004Y481D01*
X1006Y481D01*
X1006Y485D01*
X1008Y485D01*
X1008Y489D01*
X1010Y489D01*
X1010Y491D01*
X1012Y491D01*
X1012Y495D01*
X1014Y495D01*
X1014Y497D01*
X1016Y497D01*
X1016Y499D01*
X1018Y499D01*
X1018Y501D01*
X1020Y501D01*
X1020Y503D01*
X1022Y503D01*
X1022Y505D01*
X1024Y505D01*
X1024Y507D01*
X1026Y507D01*
X1026Y509D01*
X1028Y509D01*
X1028Y511D01*
X1032Y511D01*
X1032Y513D01*
X1034Y513D01*
X1034Y515D01*
X1038Y515D01*
X1038Y517D01*
X684Y517D01*
G37*
D02*
G36*
X1126Y397D02*
X1126Y383D01*
X1228Y383D01*
X1228Y385D01*
X1232Y385D01*
X1232Y387D01*
X1234Y387D01*
X1234Y389D01*
X1238Y389D01*
X1238Y391D01*
X1242Y391D01*
X1242Y393D01*
X1246Y393D01*
X1246Y395D01*
X1254Y395D01*
X1254Y397D01*
X1126Y397D01*
G37*
D02*
G36*
X1286Y397D02*
X1286Y395D01*
X1294Y395D01*
X1294Y393D01*
X1298Y393D01*
X1298Y391D01*
X1302Y391D01*
X1302Y389D01*
X1306Y389D01*
X1306Y387D01*
X1308Y387D01*
X1308Y385D01*
X1312Y385D01*
X1312Y383D01*
X1314Y383D01*
X1314Y381D01*
X1316Y381D01*
X1316Y379D01*
X1318Y379D01*
X1318Y377D01*
X1320Y377D01*
X1320Y375D01*
X1322Y375D01*
X1322Y373D01*
X1324Y373D01*
X1324Y371D01*
X1326Y371D01*
X1326Y369D01*
X1328Y369D01*
X1328Y365D01*
X1330Y365D01*
X1330Y363D01*
X1332Y363D01*
X1332Y359D01*
X1334Y359D01*
X1334Y355D01*
X1336Y355D01*
X1336Y349D01*
X1338Y349D01*
X1338Y341D01*
X1340Y341D01*
X1340Y315D01*
X1338Y315D01*
X1338Y307D01*
X1336Y307D01*
X1336Y283D01*
X1600Y283D01*
X1600Y397D01*
X1286Y397D01*
G37*
D02*
G04 End of Copper0*
M02*