G04 MADE WITH FRITZING*
G04 WWW.FRITZING.ORG*
G04 SINGLE SIDED*
G04 HOLES NOT PLATED*
G04 CONTOUR ON CENTER OF CONTOUR VECTOR*
%ASAXBY*%
%FSLAX23Y23*%
%MOIN*%
%OFA0B0*%
%SFA1.0B1.0*%
%ADD10C,0.210000X0.19*%
%ADD11C,0.010000*%
%ADD12C,0.005000*%
%ADD13C,0.021000*%
%LNSILK1*%
G90*
G70*
G54D10*
X1400Y1867D03*
G54D11*
X1847Y90D02*
X2250Y90D01*
D02*
X2250Y90D02*
X2250Y530D01*
D02*
X2250Y530D02*
X1847Y530D01*
D02*
X1847Y530D02*
X1847Y90D01*
G54D12*
D02*
X2250Y450D02*
X1847Y450D01*
G54D11*
D02*
X557Y1050D02*
X153Y1050D01*
D02*
X153Y1050D02*
X153Y610D01*
D02*
X153Y610D02*
X557Y610D01*
D02*
X557Y610D02*
X557Y1050D01*
G54D12*
D02*
X153Y690D02*
X557Y690D01*
G54D11*
D02*
X1100Y1317D02*
X700Y1317D01*
X700Y1317D02*
X700Y917D01*
X700Y917D02*
X1100Y917D01*
D02*
X1100Y1317D02*
X1100Y1167D01*
D02*
X1100Y1067D02*
X1100Y917D01*
D02*
X403Y420D02*
X403Y120D01*
D02*
X403Y120D02*
X503Y120D01*
D02*
X503Y120D02*
X503Y420D01*
D02*
X503Y420D02*
X403Y420D01*
G54D12*
D02*
X403Y385D02*
X438Y420D01*
G54D11*
D02*
X2100Y1617D02*
X2100Y1917D01*
X2100Y1917D02*
X2000Y1917D01*
X2000Y1917D02*
X2000Y1617D01*
X2000Y1617D02*
X2100Y1617D01*
G54D12*
D02*
X2100Y1652D02*
X2065Y1617D01*
G54D11*
D02*
X600Y420D02*
X600Y320D01*
D02*
X600Y320D02*
X700Y320D01*
D02*
X700Y320D02*
X700Y420D01*
D02*
X700Y420D02*
X600Y420D01*
G54D12*
D02*
X600Y385D02*
X635Y420D01*
G54D11*
D02*
X1453Y1332D02*
X1453Y1260D01*
D02*
X1453Y1060D02*
X1453Y1007D01*
D02*
X1486Y1260D02*
X1486Y1060D01*
D02*
X1486Y1060D02*
X1420Y1060D01*
D02*
X1420Y1060D02*
X1420Y1260D01*
D02*
X1420Y1260D02*
X1486Y1260D01*
D02*
X1150Y1504D02*
X1150Y1576D01*
D02*
X1150Y1776D02*
X1150Y1829D01*
D02*
X1117Y1576D02*
X1117Y1776D01*
D02*
X1117Y1776D02*
X1183Y1776D01*
D02*
X1183Y1776D02*
X1183Y1576D01*
D02*
X1183Y1576D02*
X1117Y1576D01*
D02*
X1050Y1504D02*
X1050Y1576D01*
D02*
X1050Y1776D02*
X1050Y1829D01*
D02*
X1017Y1576D02*
X1017Y1776D01*
D02*
X1017Y1776D02*
X1083Y1776D01*
D02*
X1083Y1776D02*
X1083Y1576D01*
D02*
X1083Y1576D02*
X1017Y1576D01*
D02*
X1388Y1567D02*
X1460Y1567D01*
D02*
X1660Y1567D02*
X1713Y1567D01*
D02*
X1460Y1600D02*
X1660Y1600D01*
D02*
X1660Y1600D02*
X1660Y1534D01*
D02*
X1660Y1534D02*
X1460Y1534D01*
D02*
X1460Y1534D02*
X1460Y1600D01*
D02*
X2150Y1104D02*
X2150Y1176D01*
D02*
X2150Y1376D02*
X2150Y1429D01*
D02*
X2117Y1176D02*
X2117Y1376D01*
D02*
X2117Y1376D02*
X2183Y1376D01*
D02*
X2183Y1376D02*
X2183Y1176D01*
D02*
X2183Y1176D02*
X2117Y1176D01*
D02*
X1950Y1104D02*
X1950Y1176D01*
D02*
X1950Y1376D02*
X1950Y1429D01*
D02*
X1917Y1176D02*
X1917Y1376D01*
D02*
X1917Y1376D02*
X1983Y1376D01*
D02*
X1983Y1376D02*
X1983Y1176D01*
D02*
X1983Y1176D02*
X1917Y1176D01*
G54D13*
D02*
X1951Y707D02*
X1953Y832D01*
G54D11*
D02*
X2350Y1832D02*
X2350Y1760D01*
D02*
X2350Y1560D02*
X2350Y1507D01*
D02*
X2383Y1760D02*
X2383Y1560D01*
D02*
X2383Y1560D02*
X2317Y1560D01*
D02*
X2317Y1560D02*
X2317Y1760D01*
D02*
X2317Y1760D02*
X2383Y1760D01*
D02*
X1603Y1920D02*
X1603Y1820D01*
D02*
X1603Y1820D02*
X1703Y1820D01*
D02*
X1703Y1820D02*
X1703Y1920D01*
D02*
X1703Y1920D02*
X1603Y1920D01*
G54D12*
D02*
X1603Y1885D02*
X1638Y1920D01*
G36*
X4Y2413D02*
X4Y2405D01*
X2784Y2405D01*
X2784Y5D01*
X2790Y5D01*
X2790Y2413D01*
X4Y2413D01*
G37*
D02*
G36*
X4Y2405D02*
X4Y5D01*
X12Y5D01*
X12Y2405D01*
X4Y2405D01*
G37*
D02*
G36*
X4Y5D02*
X4Y4D01*
X2790Y4D01*
X2790Y5D01*
X4Y5D01*
G37*
D02*
G36*
X4Y5D02*
X4Y4D01*
X2790Y4D01*
X2790Y5D01*
X4Y5D01*
G37*
D02*
G36*
X4Y4D02*
X4Y-1D01*
X2790Y-1D01*
X2790Y4D01*
X4Y4D01*
G37*
D02*
G36*
X441Y2273D02*
X441Y2272D01*
X439Y2272D01*
X439Y2271D01*
X437Y2271D01*
X437Y2270D01*
X436Y2270D01*
X436Y2269D01*
X435Y2269D01*
X435Y2268D01*
X434Y2268D01*
X434Y2267D01*
X433Y2267D01*
X433Y2266D01*
X432Y2266D01*
X432Y2265D01*
X431Y2265D01*
X431Y2263D01*
X452Y2263D01*
X452Y2235D01*
X462Y2235D01*
X462Y2270D01*
X461Y2270D01*
X461Y2271D01*
X460Y2271D01*
X460Y2272D01*
X459Y2272D01*
X459Y2273D01*
X441Y2273D01*
G37*
D02*
G36*
X475Y2273D02*
X475Y2272D01*
X474Y2272D01*
X474Y2271D01*
X473Y2271D01*
X473Y2270D01*
X472Y2270D01*
X472Y2241D01*
X471Y2241D01*
X471Y2240D01*
X470Y2240D01*
X470Y2238D01*
X469Y2238D01*
X469Y2237D01*
X468Y2237D01*
X468Y2236D01*
X466Y2236D01*
X466Y2235D01*
X479Y2235D01*
X479Y2236D01*
X480Y2236D01*
X480Y2237D01*
X481Y2237D01*
X481Y2240D01*
X482Y2240D01*
X482Y2270D01*
X481Y2270D01*
X481Y2272D01*
X479Y2272D01*
X479Y2273D01*
X475Y2273D01*
G37*
D02*
G36*
X430Y2263D02*
X430Y2262D01*
X429Y2262D01*
X429Y2259D01*
X428Y2259D01*
X428Y2240D01*
X429Y2240D01*
X429Y2237D01*
X430Y2237D01*
X430Y2235D01*
X444Y2235D01*
X444Y2236D01*
X442Y2236D01*
X442Y2237D01*
X441Y2237D01*
X441Y2238D01*
X440Y2238D01*
X440Y2240D01*
X439Y2240D01*
X439Y2241D01*
X438Y2241D01*
X438Y2258D01*
X439Y2258D01*
X439Y2259D01*
X440Y2259D01*
X440Y2260D01*
X441Y2260D01*
X441Y2262D01*
X442Y2262D01*
X442Y2263D01*
X430Y2263D01*
G37*
D02*
G36*
X431Y2235D02*
X431Y2234D01*
X479Y2234D01*
X479Y2235D01*
X431Y2235D01*
G37*
D02*
G36*
X431Y2235D02*
X431Y2234D01*
X479Y2234D01*
X479Y2235D01*
X431Y2235D01*
G37*
D02*
G36*
X431Y2235D02*
X431Y2234D01*
X479Y2234D01*
X479Y2235D01*
X431Y2235D01*
G37*
D02*
G36*
X432Y2234D02*
X432Y2233D01*
X433Y2233D01*
X433Y2232D01*
X434Y2232D01*
X434Y2231D01*
X435Y2231D01*
X435Y2230D01*
X436Y2230D01*
X436Y2229D01*
X437Y2229D01*
X437Y2228D01*
X439Y2228D01*
X439Y2227D01*
X441Y2227D01*
X441Y2226D01*
X469Y2226D01*
X469Y2227D01*
X471Y2227D01*
X471Y2228D01*
X473Y2228D01*
X473Y2229D01*
X474Y2229D01*
X474Y2230D01*
X475Y2230D01*
X475Y2231D01*
X476Y2231D01*
X476Y2232D01*
X477Y2232D01*
X477Y2233D01*
X478Y2233D01*
X478Y2234D01*
X432Y2234D01*
G37*
D02*
G36*
X448Y2201D02*
X448Y2200D01*
X438Y2200D01*
X438Y2199D01*
X435Y2199D01*
X435Y2198D01*
X434Y2198D01*
X434Y2197D01*
X433Y2197D01*
X433Y2196D01*
X432Y2196D01*
X432Y2195D01*
X431Y2195D01*
X431Y2194D01*
X430Y2194D01*
X430Y2192D01*
X466Y2192D01*
X466Y2191D01*
X467Y2191D01*
X467Y2190D01*
X468Y2190D01*
X468Y2188D01*
X469Y2188D01*
X469Y2186D01*
X470Y2186D01*
X470Y2184D01*
X471Y2184D01*
X471Y2183D01*
X472Y2183D01*
X472Y2166D01*
X471Y2166D01*
X471Y2165D01*
X470Y2165D01*
X470Y2164D01*
X481Y2164D01*
X481Y2165D01*
X482Y2165D01*
X482Y2184D01*
X481Y2184D01*
X481Y2186D01*
X480Y2186D01*
X480Y2188D01*
X479Y2188D01*
X479Y2190D01*
X478Y2190D01*
X478Y2191D01*
X477Y2191D01*
X477Y2192D01*
X479Y2192D01*
X479Y2193D01*
X481Y2193D01*
X481Y2195D01*
X482Y2195D01*
X482Y2199D01*
X481Y2199D01*
X481Y2200D01*
X480Y2200D01*
X480Y2201D01*
X448Y2201D01*
G37*
D02*
G36*
X429Y2192D02*
X429Y2191D01*
X449Y2191D01*
X449Y2190D01*
X448Y2190D01*
X448Y2165D01*
X449Y2165D01*
X449Y2164D01*
X460Y2164D01*
X460Y2165D01*
X459Y2165D01*
X459Y2166D01*
X458Y2166D01*
X458Y2189D01*
X459Y2189D01*
X459Y2190D01*
X460Y2190D01*
X460Y2191D01*
X465Y2191D01*
X465Y2192D01*
X429Y2192D01*
G37*
D02*
G36*
X429Y2191D02*
X429Y2190D01*
X428Y2190D01*
X428Y2167D01*
X429Y2167D01*
X429Y2165D01*
X430Y2165D01*
X430Y2164D01*
X435Y2164D01*
X435Y2165D01*
X436Y2165D01*
X436Y2166D01*
X437Y2166D01*
X437Y2168D01*
X438Y2168D01*
X438Y2189D01*
X439Y2189D01*
X439Y2190D01*
X441Y2190D01*
X441Y2191D01*
X429Y2191D01*
G37*
D02*
G36*
X449Y2164D02*
X449Y2163D01*
X481Y2163D01*
X481Y2164D01*
X449Y2164D01*
G37*
D02*
G36*
X449Y2164D02*
X449Y2163D01*
X481Y2163D01*
X481Y2164D01*
X449Y2164D01*
G37*
D02*
G36*
X450Y2163D02*
X450Y2161D01*
X451Y2161D01*
X451Y2159D01*
X452Y2159D01*
X452Y2158D01*
X453Y2158D01*
X453Y2157D01*
X455Y2157D01*
X455Y2156D01*
X457Y2156D01*
X457Y2155D01*
X460Y2155D01*
X460Y2154D01*
X470Y2154D01*
X470Y2155D01*
X473Y2155D01*
X473Y2156D01*
X475Y2156D01*
X475Y2157D01*
X477Y2157D01*
X477Y2158D01*
X478Y2158D01*
X478Y2159D01*
X479Y2159D01*
X479Y2161D01*
X480Y2161D01*
X480Y2162D01*
X481Y2162D01*
X481Y2163D01*
X450Y2163D01*
G37*
D02*
G36*
X467Y2130D02*
X467Y2129D01*
X466Y2129D01*
X466Y2128D01*
X465Y2128D01*
X465Y2127D01*
X464Y2127D01*
X464Y2124D01*
X465Y2124D01*
X465Y2122D01*
X466Y2122D01*
X466Y2121D01*
X468Y2121D01*
X468Y2120D01*
X471Y2120D01*
X471Y2118D01*
X472Y2118D01*
X472Y2104D01*
X471Y2104D01*
X471Y2103D01*
X470Y2103D01*
X470Y2102D01*
X481Y2102D01*
X481Y2103D01*
X482Y2103D01*
X482Y2119D01*
X481Y2119D01*
X481Y2122D01*
X480Y2122D01*
X480Y2124D01*
X479Y2124D01*
X479Y2125D01*
X478Y2125D01*
X478Y2126D01*
X477Y2126D01*
X477Y2127D01*
X476Y2127D01*
X476Y2128D01*
X474Y2128D01*
X474Y2129D01*
X472Y2129D01*
X472Y2130D01*
X467Y2130D01*
G37*
D02*
G36*
X430Y2125D02*
X430Y2124D01*
X429Y2124D01*
X429Y2123D01*
X428Y2123D01*
X428Y2102D01*
X438Y2102D01*
X438Y2122D01*
X437Y2122D01*
X437Y2124D01*
X435Y2124D01*
X435Y2125D01*
X430Y2125D01*
G37*
D02*
G36*
X415Y2102D02*
X415Y2101D01*
X481Y2101D01*
X481Y2102D01*
X415Y2102D01*
G37*
D02*
G36*
X415Y2102D02*
X415Y2101D01*
X481Y2101D01*
X481Y2102D01*
X415Y2102D01*
G37*
D02*
G36*
X413Y2101D02*
X413Y2099D01*
X412Y2099D01*
X412Y2095D01*
X413Y2095D01*
X413Y2094D01*
X414Y2094D01*
X414Y2093D01*
X415Y2093D01*
X415Y2092D01*
X428Y2092D01*
X428Y2086D01*
X429Y2086D01*
X429Y2084D01*
X430Y2084D01*
X430Y2083D01*
X435Y2083D01*
X435Y2084D01*
X436Y2084D01*
X436Y2085D01*
X437Y2085D01*
X437Y2087D01*
X438Y2087D01*
X438Y2092D01*
X470Y2092D01*
X470Y2093D01*
X473Y2093D01*
X473Y2094D01*
X475Y2094D01*
X475Y2095D01*
X477Y2095D01*
X477Y2096D01*
X478Y2096D01*
X478Y2097D01*
X479Y2097D01*
X479Y2099D01*
X480Y2099D01*
X480Y2100D01*
X481Y2100D01*
X481Y2101D01*
X413Y2101D01*
G37*
D02*
G36*
X475Y2059D02*
X475Y2058D01*
X447Y2058D01*
X447Y2057D01*
X437Y2057D01*
X437Y2056D01*
X435Y2056D01*
X435Y2055D01*
X434Y2055D01*
X434Y2054D01*
X433Y2054D01*
X433Y2053D01*
X432Y2053D01*
X432Y2052D01*
X431Y2052D01*
X431Y2051D01*
X430Y2051D01*
X430Y2049D01*
X429Y2049D01*
X429Y2047D01*
X428Y2047D01*
X428Y2034D01*
X429Y2034D01*
X429Y2031D01*
X430Y2031D01*
X430Y2030D01*
X431Y2030D01*
X431Y2028D01*
X432Y2028D01*
X432Y2027D01*
X433Y2027D01*
X433Y2025D01*
X434Y2025D01*
X434Y2023D01*
X435Y2023D01*
X435Y2022D01*
X436Y2022D01*
X436Y2021D01*
X431Y2021D01*
X431Y2020D01*
X429Y2020D01*
X429Y2018D01*
X428Y2018D01*
X428Y2014D01*
X429Y2014D01*
X429Y2013D01*
X430Y2013D01*
X430Y2012D01*
X432Y2012D01*
X432Y2011D01*
X478Y2011D01*
X478Y2012D01*
X480Y2012D01*
X480Y2013D01*
X481Y2013D01*
X481Y2014D01*
X482Y2014D01*
X482Y2018D01*
X481Y2018D01*
X481Y2019D01*
X480Y2019D01*
X480Y2020D01*
X479Y2020D01*
X479Y2021D01*
X447Y2021D01*
X447Y2022D01*
X446Y2022D01*
X446Y2024D01*
X445Y2024D01*
X445Y2026D01*
X444Y2026D01*
X444Y2027D01*
X443Y2027D01*
X443Y2029D01*
X442Y2029D01*
X442Y2030D01*
X441Y2030D01*
X441Y2032D01*
X440Y2032D01*
X440Y2033D01*
X439Y2033D01*
X439Y2035D01*
X438Y2035D01*
X438Y2046D01*
X439Y2046D01*
X439Y2047D01*
X441Y2047D01*
X441Y2048D01*
X463Y2048D01*
X463Y2049D01*
X479Y2049D01*
X479Y2050D01*
X481Y2050D01*
X481Y2052D01*
X482Y2052D01*
X482Y2056D01*
X481Y2056D01*
X481Y2057D01*
X480Y2057D01*
X480Y2058D01*
X478Y2058D01*
X478Y2059D01*
X475Y2059D01*
G37*
D02*
G36*
X1526Y2049D02*
X1526Y2048D01*
X1524Y2048D01*
X1524Y2047D01*
X1522Y2047D01*
X1522Y2046D01*
X1521Y2046D01*
X1521Y2044D01*
X1520Y2044D01*
X1520Y2042D01*
X1519Y2042D01*
X1519Y2040D01*
X1518Y2040D01*
X1518Y2038D01*
X1517Y2038D01*
X1517Y2036D01*
X1516Y2036D01*
X1516Y2034D01*
X1515Y2034D01*
X1515Y2032D01*
X1514Y2032D01*
X1514Y2030D01*
X1513Y2030D01*
X1513Y2028D01*
X1512Y2028D01*
X1512Y2019D01*
X1513Y2019D01*
X1513Y2017D01*
X1514Y2017D01*
X1514Y2015D01*
X1515Y2015D01*
X1515Y2013D01*
X1516Y2013D01*
X1516Y2011D01*
X1517Y2011D01*
X1517Y2009D01*
X1518Y2009D01*
X1518Y2007D01*
X1519Y2007D01*
X1519Y2005D01*
X1520Y2005D01*
X1520Y2003D01*
X1521Y2003D01*
X1521Y2001D01*
X1522Y2001D01*
X1522Y2000D01*
X1524Y2000D01*
X1524Y1999D01*
X1526Y1999D01*
X1526Y1998D01*
X1543Y1998D01*
X1543Y1999D01*
X1544Y1999D01*
X1544Y2000D01*
X1545Y2000D01*
X1545Y2002D01*
X1544Y2002D01*
X1544Y2004D01*
X1530Y2004D01*
X1530Y2005D01*
X1527Y2005D01*
X1527Y2006D01*
X1526Y2006D01*
X1526Y2008D01*
X1525Y2008D01*
X1525Y2010D01*
X1524Y2010D01*
X1524Y2012D01*
X1523Y2012D01*
X1523Y2014D01*
X1522Y2014D01*
X1522Y2016D01*
X1521Y2016D01*
X1521Y2018D01*
X1520Y2018D01*
X1520Y2020D01*
X1519Y2020D01*
X1519Y2027D01*
X1520Y2027D01*
X1520Y2029D01*
X1521Y2029D01*
X1521Y2031D01*
X1522Y2031D01*
X1522Y2033D01*
X1523Y2033D01*
X1523Y2035D01*
X1524Y2035D01*
X1524Y2037D01*
X1525Y2037D01*
X1525Y2039D01*
X1526Y2039D01*
X1526Y2041D01*
X1527Y2041D01*
X1527Y2042D01*
X1529Y2042D01*
X1529Y2043D01*
X1544Y2043D01*
X1544Y2045D01*
X1545Y2045D01*
X1545Y2047D01*
X1544Y2047D01*
X1544Y2048D01*
X1543Y2048D01*
X1543Y2049D01*
X1526Y2049D01*
G37*
D02*
G36*
X1563Y2049D02*
X1563Y2048D01*
X1562Y2048D01*
X1562Y2044D01*
X1563Y2044D01*
X1563Y2043D01*
X1574Y2043D01*
X1574Y2042D01*
X1575Y2042D01*
X1575Y2005D01*
X1574Y2005D01*
X1574Y2004D01*
X1582Y2004D01*
X1582Y2005D01*
X1581Y2005D01*
X1581Y2049D01*
X1563Y2049D01*
G37*
D02*
G36*
X1589Y2021D02*
X1589Y2020D01*
X1588Y2020D01*
X1588Y2005D01*
X1587Y2005D01*
X1587Y2004D01*
X1594Y2004D01*
X1594Y2020D01*
X1593Y2020D01*
X1593Y2021D01*
X1589Y2021D01*
G37*
D02*
G36*
X1563Y2004D02*
X1563Y2003D01*
X1594Y2003D01*
X1594Y2004D01*
X1563Y2004D01*
G37*
D02*
G36*
X1563Y2004D02*
X1563Y2003D01*
X1594Y2003D01*
X1594Y2004D01*
X1563Y2004D01*
G37*
D02*
G36*
X1562Y2003D02*
X1562Y1999D01*
X1563Y1999D01*
X1563Y1998D01*
X1593Y1998D01*
X1593Y1999D01*
X1594Y1999D01*
X1594Y2003D01*
X1562Y2003D01*
G37*
D02*
G36*
X1781Y2017D02*
X1781Y2016D01*
X1780Y2016D01*
X1780Y2012D01*
X1781Y2012D01*
X1781Y2011D01*
X1806Y2011D01*
X1806Y1997D01*
X1805Y1997D01*
X1805Y1996D01*
X1804Y1996D01*
X1804Y1995D01*
X1788Y1995D01*
X1788Y1994D01*
X1787Y1994D01*
X1787Y1993D01*
X1786Y1993D01*
X1786Y1990D01*
X1787Y1990D01*
X1787Y1989D01*
X1789Y1989D01*
X1789Y1988D01*
X1805Y1988D01*
X1805Y1986D01*
X1806Y1986D01*
X1806Y1973D01*
X1782Y1973D01*
X1782Y1972D01*
X1780Y1972D01*
X1780Y1967D01*
X1781Y1967D01*
X1781Y1966D01*
X1808Y1966D01*
X1808Y1967D01*
X1810Y1967D01*
X1810Y1968D01*
X1811Y1968D01*
X1811Y1969D01*
X1812Y1969D01*
X1812Y1989D01*
X1811Y1989D01*
X1811Y1991D01*
X1810Y1991D01*
X1810Y1993D01*
X1811Y1993D01*
X1811Y1994D01*
X1812Y1994D01*
X1812Y2014D01*
X1811Y2014D01*
X1811Y2015D01*
X1810Y2015D01*
X1810Y2016D01*
X1809Y2016D01*
X1809Y2017D01*
X1781Y2017D01*
G37*
D02*
G36*
X2127Y2014D02*
X2127Y2008D01*
X2150Y2008D01*
X2150Y2007D01*
X2152Y2007D01*
X2152Y2006D01*
X2153Y2006D01*
X2153Y1999D01*
X2152Y1999D01*
X2152Y1998D01*
X2150Y1998D01*
X2150Y1997D01*
X2159Y1997D01*
X2159Y2008D01*
X2158Y2008D01*
X2158Y2010D01*
X2157Y2010D01*
X2157Y2011D01*
X2156Y2011D01*
X2156Y2012D01*
X2155Y2012D01*
X2155Y2013D01*
X2153Y2013D01*
X2153Y2014D01*
X2127Y2014D01*
G37*
D02*
G36*
X2127Y2008D02*
X2127Y1997D01*
X2134Y1997D01*
X2134Y1998D01*
X2133Y1998D01*
X2133Y2007D01*
X2134Y2007D01*
X2134Y2008D01*
X2127Y2008D01*
G37*
D02*
G36*
X2127Y1997D02*
X2127Y1996D01*
X2159Y1996D01*
X2159Y1997D01*
X2127Y1997D01*
G37*
D02*
G36*
X2127Y1997D02*
X2127Y1996D01*
X2159Y1996D01*
X2159Y1997D01*
X2127Y1997D01*
G37*
D02*
G36*
X2127Y1996D02*
X2127Y1991D01*
X2138Y1991D01*
X2138Y1990D01*
X2139Y1990D01*
X2139Y1988D01*
X2140Y1988D01*
X2140Y1986D01*
X2141Y1986D01*
X2141Y1985D01*
X2142Y1985D01*
X2142Y1983D01*
X2143Y1983D01*
X2143Y1981D01*
X2144Y1981D01*
X2144Y1980D01*
X2145Y1980D01*
X2145Y1978D01*
X2146Y1978D01*
X2146Y1976D01*
X2147Y1976D01*
X2147Y1974D01*
X2148Y1974D01*
X2148Y1973D01*
X2149Y1973D01*
X2149Y1971D01*
X2150Y1971D01*
X2150Y1969D01*
X2151Y1969D01*
X2151Y1968D01*
X2152Y1968D01*
X2152Y1966D01*
X2153Y1966D01*
X2153Y1964D01*
X2154Y1964D01*
X2154Y1963D01*
X2158Y1963D01*
X2158Y1964D01*
X2159Y1964D01*
X2159Y1969D01*
X2158Y1969D01*
X2158Y1970D01*
X2157Y1970D01*
X2157Y1972D01*
X2156Y1972D01*
X2156Y1974D01*
X2155Y1974D01*
X2155Y1976D01*
X2154Y1976D01*
X2154Y1977D01*
X2153Y1977D01*
X2153Y1979D01*
X2152Y1979D01*
X2152Y1981D01*
X2151Y1981D01*
X2151Y1982D01*
X2150Y1982D01*
X2150Y1984D01*
X2149Y1984D01*
X2149Y1986D01*
X2148Y1986D01*
X2148Y1988D01*
X2147Y1988D01*
X2147Y1989D01*
X2146Y1989D01*
X2146Y1991D01*
X2153Y1991D01*
X2153Y1992D01*
X2155Y1992D01*
X2155Y1993D01*
X2156Y1993D01*
X2156Y1994D01*
X2157Y1994D01*
X2157Y1995D01*
X2158Y1995D01*
X2158Y1996D01*
X2127Y1996D01*
G37*
D02*
G36*
X2127Y1991D02*
X2127Y1964D01*
X2128Y1964D01*
X2128Y1963D01*
X2132Y1963D01*
X2132Y1964D01*
X2133Y1964D01*
X2133Y1990D01*
X2134Y1990D01*
X2134Y1991D01*
X2127Y1991D01*
G37*
D02*
G36*
X2178Y2014D02*
X2178Y2013D01*
X2177Y2013D01*
X2177Y2012D01*
X2176Y2012D01*
X2176Y2010D01*
X2177Y2010D01*
X2177Y2008D01*
X2189Y2008D01*
X2189Y1969D01*
X2197Y1969D01*
X2197Y1970D01*
X2196Y1970D01*
X2196Y2014D01*
X2178Y2014D01*
G37*
D02*
G36*
X2204Y1986D02*
X2204Y1985D01*
X2203Y1985D01*
X2203Y1982D01*
X2202Y1982D01*
X2202Y1969D01*
X2209Y1969D01*
X2209Y1985D01*
X2208Y1985D01*
X2208Y1986D01*
X2204Y1986D01*
G37*
D02*
G36*
X2177Y1969D02*
X2177Y1968D01*
X2209Y1968D01*
X2209Y1969D01*
X2177Y1969D01*
G37*
D02*
G36*
X2177Y1969D02*
X2177Y1968D01*
X2209Y1968D01*
X2209Y1969D01*
X2177Y1969D01*
G37*
D02*
G36*
X2177Y1968D02*
X2177Y1967D01*
X2176Y1967D01*
X2176Y1965D01*
X2177Y1965D01*
X2177Y1964D01*
X2178Y1964D01*
X2178Y1963D01*
X2208Y1963D01*
X2208Y1964D01*
X2209Y1964D01*
X2209Y1968D01*
X2177Y1968D01*
G37*
D02*
G36*
X2230Y2014D02*
X2230Y2013D01*
X2228Y2013D01*
X2228Y2012D01*
X2227Y2012D01*
X2227Y2010D01*
X2226Y2010D01*
X2226Y2008D01*
X2252Y2008D01*
X2252Y1969D01*
X2259Y1969D01*
X2259Y2009D01*
X2258Y2009D01*
X2258Y2011D01*
X2257Y2011D01*
X2257Y2013D01*
X2255Y2013D01*
X2255Y2014D01*
X2230Y2014D01*
G37*
D02*
G36*
X2226Y2008D02*
X2226Y1969D01*
X2233Y1969D01*
X2233Y2008D01*
X2226Y2008D01*
G37*
D02*
G36*
X2226Y1969D02*
X2226Y1968D01*
X2259Y1968D01*
X2259Y1969D01*
X2226Y1969D01*
G37*
D02*
G36*
X2226Y1969D02*
X2226Y1968D01*
X2259Y1968D01*
X2259Y1969D01*
X2226Y1969D01*
G37*
D02*
G36*
X2226Y1968D02*
X2226Y1967D01*
X2227Y1967D01*
X2227Y1965D01*
X2228Y1965D01*
X2228Y1964D01*
X2230Y1964D01*
X2230Y1963D01*
X2255Y1963D01*
X2255Y1964D01*
X2256Y1964D01*
X2256Y1965D01*
X2257Y1965D01*
X2257Y1966D01*
X2258Y1966D01*
X2258Y1968D01*
X2226Y1968D01*
G37*
D02*
G36*
X1754Y2017D02*
X1754Y2016D01*
X1753Y2016D01*
X1753Y1975D01*
X1752Y1975D01*
X1752Y1973D01*
X1759Y1973D01*
X1759Y2016D01*
X1758Y2016D01*
X1758Y2017D01*
X1754Y2017D01*
G37*
D02*
G36*
X1734Y1989D02*
X1734Y1987D01*
X1733Y1987D01*
X1733Y1974D01*
X1734Y1974D01*
X1734Y1973D01*
X1741Y1973D01*
X1741Y1974D01*
X1740Y1974D01*
X1740Y1988D01*
X1739Y1988D01*
X1739Y1989D01*
X1734Y1989D01*
G37*
D02*
G36*
X1734Y1973D02*
X1734Y1972D01*
X1759Y1972D01*
X1759Y1973D01*
X1734Y1973D01*
G37*
D02*
G36*
X1734Y1973D02*
X1734Y1972D01*
X1759Y1972D01*
X1759Y1973D01*
X1734Y1973D01*
G37*
D02*
G36*
X1734Y1972D02*
X1734Y1971D01*
X1735Y1971D01*
X1735Y1970D01*
X1736Y1970D01*
X1736Y1969D01*
X1737Y1969D01*
X1737Y1968D01*
X1738Y1968D01*
X1738Y1967D01*
X1740Y1967D01*
X1740Y1966D01*
X1753Y1966D01*
X1753Y1967D01*
X1755Y1967D01*
X1755Y1968D01*
X1756Y1968D01*
X1756Y1969D01*
X1757Y1969D01*
X1757Y1970D01*
X1758Y1970D01*
X1758Y1972D01*
X1734Y1972D01*
G37*
D02*
G36*
X460Y1987D02*
X460Y1986D01*
X439Y1986D01*
X439Y1985D01*
X436Y1985D01*
X436Y1984D01*
X434Y1984D01*
X434Y1983D01*
X433Y1983D01*
X433Y1982D01*
X432Y1982D01*
X432Y1981D01*
X431Y1981D01*
X431Y1980D01*
X430Y1980D01*
X430Y1978D01*
X429Y1978D01*
X429Y1977D01*
X467Y1977D01*
X467Y1975D01*
X468Y1975D01*
X468Y1973D01*
X469Y1973D01*
X469Y1972D01*
X470Y1972D01*
X470Y1970D01*
X471Y1970D01*
X471Y1968D01*
X472Y1968D01*
X472Y1952D01*
X471Y1952D01*
X471Y1950D01*
X481Y1950D01*
X481Y1951D01*
X482Y1951D01*
X482Y1970D01*
X481Y1970D01*
X481Y1972D01*
X480Y1972D01*
X480Y1974D01*
X479Y1974D01*
X479Y1975D01*
X478Y1975D01*
X478Y1978D01*
X480Y1978D01*
X480Y1979D01*
X481Y1979D01*
X481Y1981D01*
X482Y1981D01*
X482Y1984D01*
X481Y1984D01*
X481Y1986D01*
X479Y1986D01*
X479Y1987D01*
X460Y1987D01*
G37*
D02*
G36*
X429Y1977D02*
X429Y1976D01*
X449Y1976D01*
X449Y1975D01*
X448Y1975D01*
X448Y1951D01*
X449Y1951D01*
X449Y1950D01*
X459Y1950D01*
X459Y1952D01*
X458Y1952D01*
X458Y1975D01*
X459Y1975D01*
X459Y1976D01*
X460Y1976D01*
X460Y1977D01*
X429Y1977D01*
G37*
D02*
G36*
X429Y1976D02*
X429Y1975D01*
X428Y1975D01*
X428Y1952D01*
X429Y1952D01*
X429Y1951D01*
X430Y1951D01*
X430Y1950D01*
X431Y1950D01*
X431Y1949D01*
X434Y1949D01*
X434Y1950D01*
X436Y1950D01*
X436Y1951D01*
X437Y1951D01*
X437Y1953D01*
X438Y1953D01*
X438Y1974D01*
X439Y1974D01*
X439Y1975D01*
X440Y1975D01*
X440Y1976D01*
X429Y1976D01*
G37*
D02*
G36*
X449Y1950D02*
X449Y1949D01*
X481Y1949D01*
X481Y1950D01*
X449Y1950D01*
G37*
D02*
G36*
X449Y1950D02*
X449Y1949D01*
X481Y1949D01*
X481Y1950D01*
X449Y1950D01*
G37*
D02*
G36*
X449Y1949D02*
X449Y1948D01*
X450Y1948D01*
X450Y1946D01*
X451Y1946D01*
X451Y1945D01*
X452Y1945D01*
X452Y1944D01*
X453Y1944D01*
X453Y1943D01*
X454Y1943D01*
X454Y1942D01*
X456Y1942D01*
X456Y1941D01*
X458Y1941D01*
X458Y1940D01*
X472Y1940D01*
X472Y1941D01*
X474Y1941D01*
X474Y1942D01*
X476Y1942D01*
X476Y1943D01*
X477Y1943D01*
X477Y1944D01*
X478Y1944D01*
X478Y1945D01*
X479Y1945D01*
X479Y1946D01*
X480Y1946D01*
X480Y1948D01*
X481Y1948D01*
X481Y1949D01*
X449Y1949D01*
G37*
D02*
G36*
X1433Y1928D02*
X1433Y1927D01*
X1431Y1927D01*
X1431Y1926D01*
X1430Y1926D01*
X1430Y1924D01*
X1429Y1924D01*
X1429Y1920D01*
X1430Y1920D01*
X1430Y1918D01*
X1432Y1918D01*
X1432Y1917D01*
X1467Y1917D01*
X1467Y1918D01*
X1469Y1918D01*
X1469Y1920D01*
X1470Y1920D01*
X1470Y1924D01*
X1469Y1924D01*
X1469Y1926D01*
X1468Y1926D01*
X1468Y1927D01*
X1466Y1927D01*
X1466Y1928D01*
X1433Y1928D01*
G37*
D02*
G36*
X475Y1911D02*
X475Y1910D01*
X474Y1910D01*
X474Y1909D01*
X473Y1909D01*
X473Y1907D01*
X472Y1907D01*
X472Y1897D01*
X411Y1897D01*
X411Y1896D01*
X409Y1896D01*
X409Y1894D01*
X408Y1894D01*
X408Y1887D01*
X472Y1887D01*
X472Y1877D01*
X473Y1877D01*
X473Y1875D01*
X474Y1875D01*
X474Y1874D01*
X475Y1874D01*
X475Y1873D01*
X479Y1873D01*
X479Y1874D01*
X480Y1874D01*
X480Y1875D01*
X481Y1875D01*
X481Y1876D01*
X482Y1876D01*
X482Y1908D01*
X481Y1908D01*
X481Y1909D01*
X480Y1909D01*
X480Y1910D01*
X479Y1910D01*
X479Y1911D01*
X475Y1911D01*
G37*
D02*
G36*
X408Y1887D02*
X408Y1876D01*
X409Y1876D01*
X409Y1874D01*
X411Y1874D01*
X411Y1873D01*
X415Y1873D01*
X415Y1874D01*
X416Y1874D01*
X416Y1875D01*
X417Y1875D01*
X417Y1887D01*
X408Y1887D01*
G37*
D02*
G36*
X418Y1844D02*
X418Y1843D01*
X416Y1843D01*
X416Y1842D01*
X414Y1842D01*
X414Y1841D01*
X413Y1841D01*
X413Y1840D01*
X412Y1840D01*
X412Y1839D01*
X411Y1839D01*
X411Y1838D01*
X410Y1838D01*
X410Y1836D01*
X409Y1836D01*
X409Y1835D01*
X440Y1835D01*
X440Y1834D01*
X442Y1834D01*
X442Y1833D01*
X443Y1833D01*
X443Y1832D01*
X444Y1832D01*
X444Y1807D01*
X454Y1807D01*
X454Y1832D01*
X453Y1832D01*
X453Y1835D01*
X452Y1835D01*
X452Y1837D01*
X451Y1837D01*
X451Y1839D01*
X450Y1839D01*
X450Y1840D01*
X449Y1840D01*
X449Y1841D01*
X448Y1841D01*
X448Y1842D01*
X446Y1842D01*
X446Y1843D01*
X444Y1843D01*
X444Y1844D01*
X418Y1844D01*
G37*
D02*
G36*
X409Y1835D02*
X409Y1834D01*
X408Y1834D01*
X408Y1807D01*
X418Y1807D01*
X418Y1833D01*
X419Y1833D01*
X419Y1834D01*
X421Y1834D01*
X421Y1835D01*
X409Y1835D01*
G37*
D02*
G36*
X408Y1807D02*
X408Y1806D01*
X461Y1806D01*
X461Y1807D01*
X408Y1807D01*
G37*
D02*
G36*
X408Y1807D02*
X408Y1806D01*
X461Y1806D01*
X461Y1807D01*
X408Y1807D01*
G37*
D02*
G36*
X408Y1806D02*
X408Y1797D01*
X479Y1797D01*
X479Y1798D01*
X481Y1798D01*
X481Y1800D01*
X482Y1800D01*
X482Y1803D01*
X481Y1803D01*
X481Y1805D01*
X480Y1805D01*
X480Y1806D01*
X408Y1806D01*
G37*
D02*
G36*
X1433Y1818D02*
X1433Y1817D01*
X1431Y1817D01*
X1431Y1816D01*
X1430Y1816D01*
X1430Y1814D01*
X1429Y1814D01*
X1429Y1810D01*
X1430Y1810D01*
X1430Y1808D01*
X1432Y1808D01*
X1432Y1807D01*
X1467Y1807D01*
X1467Y1808D01*
X1469Y1808D01*
X1469Y1810D01*
X1470Y1810D01*
X1470Y1814D01*
X1469Y1814D01*
X1469Y1816D01*
X1468Y1816D01*
X1468Y1817D01*
X1466Y1817D01*
X1466Y1818D01*
X1433Y1818D01*
G37*
D02*
G36*
X2594Y1790D02*
X2594Y1784D01*
X2618Y1784D01*
X2618Y1783D01*
X2619Y1783D01*
X2619Y1782D01*
X2620Y1782D01*
X2620Y1775D01*
X2619Y1775D01*
X2619Y1774D01*
X2627Y1774D01*
X2627Y1783D01*
X2626Y1783D01*
X2626Y1785D01*
X2625Y1785D01*
X2625Y1787D01*
X2624Y1787D01*
X2624Y1788D01*
X2623Y1788D01*
X2623Y1789D01*
X2621Y1789D01*
X2621Y1790D01*
X2594Y1790D01*
G37*
D02*
G36*
X2594Y1784D02*
X2594Y1774D01*
X2601Y1774D01*
X2601Y1784D01*
X2594Y1784D01*
G37*
D02*
G36*
X2594Y1774D02*
X2594Y1773D01*
X2626Y1773D01*
X2626Y1774D01*
X2594Y1774D01*
G37*
D02*
G36*
X2594Y1774D02*
X2594Y1773D01*
X2626Y1773D01*
X2626Y1774D01*
X2594Y1774D01*
G37*
D02*
G36*
X2594Y1773D02*
X2594Y1767D01*
X2606Y1767D01*
X2606Y1765D01*
X2607Y1765D01*
X2607Y1763D01*
X2608Y1763D01*
X2608Y1761D01*
X2609Y1761D01*
X2609Y1760D01*
X2610Y1760D01*
X2610Y1758D01*
X2611Y1758D01*
X2611Y1756D01*
X2612Y1756D01*
X2612Y1755D01*
X2613Y1755D01*
X2613Y1753D01*
X2614Y1753D01*
X2614Y1751D01*
X2615Y1751D01*
X2615Y1749D01*
X2616Y1749D01*
X2616Y1748D01*
X2617Y1748D01*
X2617Y1746D01*
X2618Y1746D01*
X2618Y1744D01*
X2619Y1744D01*
X2619Y1743D01*
X2620Y1743D01*
X2620Y1741D01*
X2621Y1741D01*
X2621Y1740D01*
X2622Y1740D01*
X2622Y1739D01*
X2625Y1739D01*
X2625Y1740D01*
X2626Y1740D01*
X2626Y1741D01*
X2627Y1741D01*
X2627Y1744D01*
X2626Y1744D01*
X2626Y1745D01*
X2625Y1745D01*
X2625Y1747D01*
X2624Y1747D01*
X2624Y1749D01*
X2623Y1749D01*
X2623Y1751D01*
X2622Y1751D01*
X2622Y1752D01*
X2621Y1752D01*
X2621Y1754D01*
X2620Y1754D01*
X2620Y1756D01*
X2619Y1756D01*
X2619Y1758D01*
X2618Y1758D01*
X2618Y1759D01*
X2617Y1759D01*
X2617Y1761D01*
X2616Y1761D01*
X2616Y1763D01*
X2615Y1763D01*
X2615Y1764D01*
X2614Y1764D01*
X2614Y1766D01*
X2613Y1766D01*
X2613Y1767D01*
X2620Y1767D01*
X2620Y1768D01*
X2622Y1768D01*
X2622Y1769D01*
X2623Y1769D01*
X2623Y1770D01*
X2624Y1770D01*
X2624Y1771D01*
X2625Y1771D01*
X2625Y1772D01*
X2626Y1772D01*
X2626Y1773D01*
X2594Y1773D01*
G37*
D02*
G36*
X2594Y1767D02*
X2594Y1741D01*
X2595Y1741D01*
X2595Y1740D01*
X2596Y1740D01*
X2596Y1739D01*
X2599Y1739D01*
X2599Y1740D01*
X2600Y1740D01*
X2600Y1741D01*
X2601Y1741D01*
X2601Y1767D01*
X2594Y1767D01*
G37*
D02*
G36*
X2645Y1790D02*
X2645Y1789D01*
X2644Y1789D01*
X2644Y1784D01*
X2670Y1784D01*
X2670Y1774D01*
X2676Y1774D01*
X2676Y1789D01*
X2675Y1789D01*
X2675Y1790D01*
X2645Y1790D01*
G37*
D02*
G36*
X2644Y1784D02*
X2644Y1774D01*
X2650Y1774D01*
X2650Y1783D01*
X2651Y1783D01*
X2651Y1784D01*
X2644Y1784D01*
G37*
D02*
G36*
X2644Y1774D02*
X2644Y1773D01*
X2676Y1773D01*
X2676Y1774D01*
X2644Y1774D01*
G37*
D02*
G36*
X2644Y1774D02*
X2644Y1773D01*
X2676Y1773D01*
X2676Y1774D01*
X2644Y1774D01*
G37*
D02*
G36*
X2644Y1773D02*
X2644Y1768D01*
X2645Y1768D01*
X2645Y1767D01*
X2670Y1767D01*
X2670Y1746D01*
X2669Y1746D01*
X2669Y1745D01*
X2667Y1745D01*
X2667Y1740D01*
X2668Y1740D01*
X2668Y1739D01*
X2675Y1739D01*
X2675Y1740D01*
X2676Y1740D01*
X2676Y1773D01*
X2644Y1773D01*
G37*
D02*
G36*
X1294Y1787D02*
X1294Y1781D01*
X1318Y1781D01*
X1318Y1780D01*
X1320Y1780D01*
X1320Y1778D01*
X1321Y1778D01*
X1321Y1773D01*
X1320Y1773D01*
X1320Y1771D01*
X1315Y1771D01*
X1315Y1770D01*
X1327Y1770D01*
X1327Y1781D01*
X1326Y1781D01*
X1326Y1783D01*
X1325Y1783D01*
X1325Y1784D01*
X1324Y1784D01*
X1324Y1785D01*
X1323Y1785D01*
X1323Y1786D01*
X1321Y1786D01*
X1321Y1787D01*
X1294Y1787D01*
G37*
D02*
G36*
X1294Y1781D02*
X1294Y1770D01*
X1302Y1770D01*
X1302Y1771D01*
X1301Y1771D01*
X1301Y1781D01*
X1294Y1781D01*
G37*
D02*
G36*
X1294Y1770D02*
X1294Y1769D01*
X1326Y1769D01*
X1326Y1770D01*
X1294Y1770D01*
G37*
D02*
G36*
X1294Y1770D02*
X1294Y1769D01*
X1326Y1769D01*
X1326Y1770D01*
X1294Y1770D01*
G37*
D02*
G36*
X1294Y1769D02*
X1294Y1764D01*
X1306Y1764D01*
X1306Y1762D01*
X1307Y1762D01*
X1307Y1761D01*
X1308Y1761D01*
X1308Y1759D01*
X1309Y1759D01*
X1309Y1757D01*
X1310Y1757D01*
X1310Y1756D01*
X1311Y1756D01*
X1311Y1754D01*
X1312Y1754D01*
X1312Y1752D01*
X1313Y1752D01*
X1313Y1750D01*
X1314Y1750D01*
X1314Y1749D01*
X1315Y1749D01*
X1315Y1747D01*
X1316Y1747D01*
X1316Y1745D01*
X1317Y1745D01*
X1317Y1744D01*
X1318Y1744D01*
X1318Y1742D01*
X1319Y1742D01*
X1319Y1740D01*
X1320Y1740D01*
X1320Y1738D01*
X1321Y1738D01*
X1321Y1737D01*
X1322Y1737D01*
X1322Y1736D01*
X1326Y1736D01*
X1326Y1737D01*
X1327Y1737D01*
X1327Y1741D01*
X1326Y1741D01*
X1326Y1743D01*
X1325Y1743D01*
X1325Y1745D01*
X1324Y1745D01*
X1324Y1747D01*
X1323Y1747D01*
X1323Y1748D01*
X1322Y1748D01*
X1322Y1750D01*
X1321Y1750D01*
X1321Y1752D01*
X1320Y1752D01*
X1320Y1753D01*
X1319Y1753D01*
X1319Y1755D01*
X1318Y1755D01*
X1318Y1757D01*
X1317Y1757D01*
X1317Y1759D01*
X1316Y1759D01*
X1316Y1760D01*
X1315Y1760D01*
X1315Y1762D01*
X1314Y1762D01*
X1314Y1764D01*
X1321Y1764D01*
X1321Y1765D01*
X1323Y1765D01*
X1323Y1766D01*
X1324Y1766D01*
X1324Y1767D01*
X1325Y1767D01*
X1325Y1768D01*
X1326Y1768D01*
X1326Y1769D01*
X1294Y1769D01*
G37*
D02*
G36*
X1294Y1764D02*
X1294Y1741D01*
X1295Y1741D01*
X1295Y1737D01*
X1296Y1737D01*
X1296Y1736D01*
X1300Y1736D01*
X1300Y1737D01*
X1301Y1737D01*
X1301Y1764D01*
X1294Y1764D01*
G37*
D02*
G36*
X1347Y1787D02*
X1347Y1786D01*
X1346Y1786D01*
X1346Y1759D01*
X1353Y1759D01*
X1353Y1760D01*
X1352Y1760D01*
X1352Y1786D01*
X1351Y1786D01*
X1351Y1787D01*
X1347Y1787D01*
G37*
D02*
G36*
X1368Y1782D02*
X1368Y1781D01*
X1366Y1781D01*
X1366Y1779D01*
X1365Y1779D01*
X1365Y1759D01*
X1372Y1759D01*
X1372Y1780D01*
X1371Y1780D01*
X1371Y1781D01*
X1370Y1781D01*
X1370Y1782D01*
X1368Y1782D01*
G37*
D02*
G36*
X1346Y1759D02*
X1346Y1758D01*
X1374Y1758D01*
X1374Y1759D01*
X1346Y1759D01*
G37*
D02*
G36*
X1346Y1759D02*
X1346Y1758D01*
X1374Y1758D01*
X1374Y1759D01*
X1346Y1759D01*
G37*
D02*
G36*
X1346Y1758D02*
X1346Y1753D01*
X1365Y1753D01*
X1365Y1738D01*
X1366Y1738D01*
X1366Y1737D01*
X1367Y1737D01*
X1367Y1736D01*
X1370Y1736D01*
X1370Y1737D01*
X1371Y1737D01*
X1371Y1738D01*
X1372Y1738D01*
X1372Y1753D01*
X1374Y1753D01*
X1374Y1754D01*
X1375Y1754D01*
X1375Y1758D01*
X1346Y1758D01*
G37*
D02*
G36*
X1394Y1787D02*
X1394Y1781D01*
X1418Y1781D01*
X1418Y1780D01*
X1420Y1780D01*
X1420Y1778D01*
X1421Y1778D01*
X1421Y1773D01*
X1420Y1773D01*
X1420Y1771D01*
X1415Y1771D01*
X1415Y1770D01*
X1427Y1770D01*
X1427Y1781D01*
X1426Y1781D01*
X1426Y1783D01*
X1425Y1783D01*
X1425Y1784D01*
X1424Y1784D01*
X1424Y1785D01*
X1423Y1785D01*
X1423Y1786D01*
X1421Y1786D01*
X1421Y1787D01*
X1394Y1787D01*
G37*
D02*
G36*
X1394Y1781D02*
X1394Y1770D01*
X1402Y1770D01*
X1402Y1771D01*
X1401Y1771D01*
X1401Y1781D01*
X1394Y1781D01*
G37*
D02*
G36*
X1394Y1770D02*
X1394Y1769D01*
X1426Y1769D01*
X1426Y1770D01*
X1394Y1770D01*
G37*
D02*
G36*
X1394Y1770D02*
X1394Y1769D01*
X1426Y1769D01*
X1426Y1770D01*
X1394Y1770D01*
G37*
D02*
G36*
X1394Y1769D02*
X1394Y1764D01*
X1406Y1764D01*
X1406Y1762D01*
X1407Y1762D01*
X1407Y1761D01*
X1408Y1761D01*
X1408Y1759D01*
X1409Y1759D01*
X1409Y1757D01*
X1410Y1757D01*
X1410Y1756D01*
X1411Y1756D01*
X1411Y1754D01*
X1412Y1754D01*
X1412Y1752D01*
X1413Y1752D01*
X1413Y1750D01*
X1414Y1750D01*
X1414Y1749D01*
X1415Y1749D01*
X1415Y1747D01*
X1416Y1747D01*
X1416Y1745D01*
X1417Y1745D01*
X1417Y1744D01*
X1418Y1744D01*
X1418Y1742D01*
X1419Y1742D01*
X1419Y1740D01*
X1420Y1740D01*
X1420Y1738D01*
X1421Y1738D01*
X1421Y1737D01*
X1422Y1737D01*
X1422Y1736D01*
X1426Y1736D01*
X1426Y1737D01*
X1427Y1737D01*
X1427Y1741D01*
X1426Y1741D01*
X1426Y1743D01*
X1425Y1743D01*
X1425Y1745D01*
X1424Y1745D01*
X1424Y1746D01*
X1423Y1746D01*
X1423Y1748D01*
X1422Y1748D01*
X1422Y1750D01*
X1421Y1750D01*
X1421Y1752D01*
X1420Y1752D01*
X1420Y1753D01*
X1419Y1753D01*
X1419Y1755D01*
X1418Y1755D01*
X1418Y1757D01*
X1417Y1757D01*
X1417Y1758D01*
X1416Y1758D01*
X1416Y1760D01*
X1415Y1760D01*
X1415Y1762D01*
X1414Y1762D01*
X1414Y1764D01*
X1421Y1764D01*
X1421Y1765D01*
X1423Y1765D01*
X1423Y1766D01*
X1424Y1766D01*
X1424Y1767D01*
X1425Y1767D01*
X1425Y1768D01*
X1426Y1768D01*
X1426Y1769D01*
X1394Y1769D01*
G37*
D02*
G36*
X1394Y1764D02*
X1394Y1739D01*
X1395Y1739D01*
X1395Y1737D01*
X1396Y1737D01*
X1396Y1736D01*
X1400Y1736D01*
X1400Y1737D01*
X1401Y1737D01*
X1401Y1764D01*
X1394Y1764D01*
G37*
D02*
G36*
X1451Y1787D02*
X1451Y1758D01*
X1470Y1758D01*
X1470Y1743D01*
X1477Y1743D01*
X1477Y1760D01*
X1476Y1760D01*
X1476Y1762D01*
X1475Y1762D01*
X1475Y1763D01*
X1474Y1763D01*
X1474Y1764D01*
X1473Y1764D01*
X1473Y1765D01*
X1457Y1765D01*
X1457Y1780D01*
X1458Y1780D01*
X1458Y1781D01*
X1476Y1781D01*
X1476Y1783D01*
X1477Y1783D01*
X1477Y1785D01*
X1476Y1785D01*
X1476Y1787D01*
X1451Y1787D01*
G37*
D02*
G36*
X1445Y1745D02*
X1445Y1744D01*
X1444Y1744D01*
X1444Y1743D01*
X1452Y1743D01*
X1452Y1744D01*
X1450Y1744D01*
X1450Y1745D01*
X1445Y1745D01*
G37*
D02*
G36*
X1444Y1743D02*
X1444Y1742D01*
X1477Y1742D01*
X1477Y1743D01*
X1444Y1743D01*
G37*
D02*
G36*
X1444Y1743D02*
X1444Y1742D01*
X1477Y1742D01*
X1477Y1743D01*
X1444Y1743D01*
G37*
D02*
G36*
X1444Y1742D02*
X1444Y1740D01*
X1445Y1740D01*
X1445Y1739D01*
X1447Y1739D01*
X1447Y1738D01*
X1450Y1738D01*
X1450Y1737D01*
X1452Y1737D01*
X1452Y1736D01*
X1473Y1736D01*
X1473Y1737D01*
X1475Y1737D01*
X1475Y1739D01*
X1476Y1739D01*
X1476Y1740D01*
X1477Y1740D01*
X1477Y1742D01*
X1444Y1742D01*
G37*
D02*
G36*
X431Y1687D02*
X431Y1686D01*
X428Y1686D01*
X428Y1685D01*
X426Y1685D01*
X426Y1684D01*
X425Y1684D01*
X425Y1683D01*
X423Y1683D01*
X423Y1682D01*
X422Y1682D01*
X422Y1681D01*
X421Y1681D01*
X421Y1680D01*
X419Y1680D01*
X419Y1679D01*
X418Y1679D01*
X418Y1678D01*
X417Y1678D01*
X417Y1677D01*
X458Y1677D01*
X458Y1676D01*
X460Y1676D01*
X460Y1675D01*
X461Y1675D01*
X461Y1674D01*
X462Y1674D01*
X462Y1673D01*
X464Y1673D01*
X464Y1672D01*
X465Y1672D01*
X465Y1671D01*
X466Y1671D01*
X466Y1670D01*
X468Y1670D01*
X468Y1669D01*
X469Y1669D01*
X469Y1668D01*
X470Y1668D01*
X470Y1667D01*
X471Y1667D01*
X471Y1666D01*
X473Y1666D01*
X473Y1665D01*
X474Y1665D01*
X474Y1664D01*
X476Y1664D01*
X476Y1663D01*
X478Y1663D01*
X478Y1664D01*
X480Y1664D01*
X480Y1665D01*
X481Y1665D01*
X481Y1666D01*
X482Y1666D01*
X482Y1670D01*
X481Y1670D01*
X481Y1671D01*
X480Y1671D01*
X480Y1672D01*
X479Y1672D01*
X479Y1673D01*
X478Y1673D01*
X478Y1674D01*
X477Y1674D01*
X477Y1675D01*
X475Y1675D01*
X475Y1676D01*
X474Y1676D01*
X474Y1677D01*
X473Y1677D01*
X473Y1678D01*
X472Y1678D01*
X472Y1679D01*
X470Y1679D01*
X470Y1680D01*
X469Y1680D01*
X469Y1681D01*
X468Y1681D01*
X468Y1682D01*
X466Y1682D01*
X466Y1683D01*
X465Y1683D01*
X465Y1684D01*
X464Y1684D01*
X464Y1685D01*
X462Y1685D01*
X462Y1686D01*
X458Y1686D01*
X458Y1687D01*
X431Y1687D01*
G37*
D02*
G36*
X416Y1677D02*
X416Y1676D01*
X414Y1676D01*
X414Y1675D01*
X413Y1675D01*
X413Y1674D01*
X412Y1674D01*
X412Y1673D01*
X411Y1673D01*
X411Y1672D01*
X409Y1672D01*
X409Y1670D01*
X408Y1670D01*
X408Y1666D01*
X409Y1666D01*
X409Y1665D01*
X410Y1665D01*
X410Y1664D01*
X412Y1664D01*
X412Y1663D01*
X414Y1663D01*
X414Y1664D01*
X416Y1664D01*
X416Y1665D01*
X417Y1665D01*
X417Y1666D01*
X418Y1666D01*
X418Y1667D01*
X420Y1667D01*
X420Y1668D01*
X421Y1668D01*
X421Y1669D01*
X422Y1669D01*
X422Y1670D01*
X424Y1670D01*
X424Y1671D01*
X425Y1671D01*
X425Y1672D01*
X426Y1672D01*
X426Y1673D01*
X427Y1673D01*
X427Y1674D01*
X429Y1674D01*
X429Y1675D01*
X430Y1675D01*
X430Y1676D01*
X432Y1676D01*
X432Y1677D01*
X416Y1677D01*
G37*
D02*
G36*
X1794Y1687D02*
X1794Y1681D01*
X1818Y1681D01*
X1818Y1680D01*
X1820Y1680D01*
X1820Y1672D01*
X1819Y1672D01*
X1819Y1671D01*
X1827Y1671D01*
X1827Y1681D01*
X1826Y1681D01*
X1826Y1683D01*
X1825Y1683D01*
X1825Y1684D01*
X1824Y1684D01*
X1824Y1685D01*
X1823Y1685D01*
X1823Y1686D01*
X1821Y1686D01*
X1821Y1687D01*
X1794Y1687D01*
G37*
D02*
G36*
X1794Y1681D02*
X1794Y1671D01*
X1801Y1671D01*
X1801Y1681D01*
X1794Y1681D01*
G37*
D02*
G36*
X1794Y1671D02*
X1794Y1670D01*
X1827Y1670D01*
X1827Y1671D01*
X1794Y1671D01*
G37*
D02*
G36*
X1794Y1671D02*
X1794Y1670D01*
X1827Y1670D01*
X1827Y1671D01*
X1794Y1671D01*
G37*
D02*
G36*
X1794Y1670D02*
X1794Y1664D01*
X1806Y1664D01*
X1806Y1662D01*
X1807Y1662D01*
X1807Y1660D01*
X1808Y1660D01*
X1808Y1659D01*
X1809Y1659D01*
X1809Y1657D01*
X1810Y1657D01*
X1810Y1655D01*
X1811Y1655D01*
X1811Y1654D01*
X1812Y1654D01*
X1812Y1652D01*
X1813Y1652D01*
X1813Y1650D01*
X1814Y1650D01*
X1814Y1649D01*
X1815Y1649D01*
X1815Y1647D01*
X1816Y1647D01*
X1816Y1645D01*
X1817Y1645D01*
X1817Y1643D01*
X1818Y1643D01*
X1818Y1642D01*
X1819Y1642D01*
X1819Y1640D01*
X1820Y1640D01*
X1820Y1638D01*
X1821Y1638D01*
X1821Y1637D01*
X1822Y1637D01*
X1822Y1636D01*
X1826Y1636D01*
X1826Y1637D01*
X1827Y1637D01*
X1827Y1641D01*
X1826Y1641D01*
X1826Y1643D01*
X1825Y1643D01*
X1825Y1645D01*
X1824Y1645D01*
X1824Y1646D01*
X1823Y1646D01*
X1823Y1648D01*
X1822Y1648D01*
X1822Y1650D01*
X1821Y1650D01*
X1821Y1651D01*
X1820Y1651D01*
X1820Y1653D01*
X1819Y1653D01*
X1819Y1655D01*
X1818Y1655D01*
X1818Y1657D01*
X1817Y1657D01*
X1817Y1658D01*
X1816Y1658D01*
X1816Y1660D01*
X1815Y1660D01*
X1815Y1662D01*
X1814Y1662D01*
X1814Y1664D01*
X1821Y1664D01*
X1821Y1665D01*
X1823Y1665D01*
X1823Y1666D01*
X1824Y1666D01*
X1824Y1667D01*
X1825Y1667D01*
X1825Y1668D01*
X1826Y1668D01*
X1826Y1670D01*
X1794Y1670D01*
G37*
D02*
G36*
X1794Y1664D02*
X1794Y1638D01*
X1795Y1638D01*
X1795Y1637D01*
X1796Y1637D01*
X1796Y1636D01*
X1799Y1636D01*
X1799Y1637D01*
X1800Y1637D01*
X1800Y1638D01*
X1801Y1638D01*
X1801Y1664D01*
X1794Y1664D01*
G37*
D02*
G36*
X1845Y1687D02*
X1845Y1686D01*
X1844Y1686D01*
X1844Y1653D01*
X1870Y1653D01*
X1870Y1643D01*
X1877Y1643D01*
X1877Y1657D01*
X1876Y1657D01*
X1876Y1659D01*
X1851Y1659D01*
X1851Y1681D01*
X1853Y1681D01*
X1853Y1683D01*
X1854Y1683D01*
X1854Y1685D01*
X1853Y1685D01*
X1853Y1687D01*
X1845Y1687D01*
G37*
D02*
G36*
X1844Y1653D02*
X1844Y1643D01*
X1851Y1643D01*
X1851Y1653D01*
X1844Y1653D01*
G37*
D02*
G36*
X1844Y1643D02*
X1844Y1642D01*
X1877Y1642D01*
X1877Y1643D01*
X1844Y1643D01*
G37*
D02*
G36*
X1844Y1643D02*
X1844Y1642D01*
X1877Y1642D01*
X1877Y1643D01*
X1844Y1643D01*
G37*
D02*
G36*
X1844Y1642D02*
X1844Y1637D01*
X1845Y1637D01*
X1845Y1636D01*
X1875Y1636D01*
X1875Y1637D01*
X1876Y1637D01*
X1876Y1638D01*
X1877Y1638D01*
X1877Y1642D01*
X1844Y1642D01*
G37*
D02*
G36*
X450Y1630D02*
X450Y1629D01*
X436Y1629D01*
X436Y1628D01*
X434Y1628D01*
X434Y1627D01*
X432Y1627D01*
X432Y1626D01*
X431Y1626D01*
X431Y1625D01*
X430Y1625D01*
X430Y1623D01*
X429Y1623D01*
X429Y1621D01*
X428Y1621D01*
X428Y1615D01*
X429Y1615D01*
X429Y1612D01*
X430Y1612D01*
X430Y1611D01*
X431Y1611D01*
X431Y1610D01*
X432Y1610D01*
X432Y1607D01*
X431Y1607D01*
X431Y1606D01*
X430Y1606D01*
X430Y1605D01*
X429Y1605D01*
X429Y1602D01*
X428Y1602D01*
X428Y1596D01*
X429Y1596D01*
X429Y1594D01*
X430Y1594D01*
X430Y1592D01*
X431Y1592D01*
X431Y1591D01*
X430Y1591D01*
X430Y1590D01*
X429Y1590D01*
X429Y1589D01*
X428Y1589D01*
X428Y1584D01*
X429Y1584D01*
X429Y1583D01*
X430Y1583D01*
X430Y1582D01*
X480Y1582D01*
X480Y1583D01*
X481Y1583D01*
X481Y1585D01*
X482Y1585D01*
X482Y1588D01*
X481Y1588D01*
X481Y1590D01*
X480Y1590D01*
X480Y1591D01*
X444Y1591D01*
X444Y1592D01*
X443Y1592D01*
X443Y1593D01*
X442Y1593D01*
X442Y1594D01*
X441Y1594D01*
X441Y1595D01*
X440Y1595D01*
X440Y1596D01*
X439Y1596D01*
X439Y1597D01*
X438Y1597D01*
X438Y1601D01*
X478Y1601D01*
X478Y1602D01*
X480Y1602D01*
X480Y1603D01*
X481Y1603D01*
X481Y1604D01*
X482Y1604D01*
X482Y1608D01*
X481Y1608D01*
X481Y1609D01*
X480Y1609D01*
X480Y1610D01*
X479Y1610D01*
X479Y1611D01*
X443Y1611D01*
X443Y1612D01*
X442Y1612D01*
X442Y1613D01*
X441Y1613D01*
X441Y1614D01*
X440Y1614D01*
X440Y1615D01*
X439Y1615D01*
X439Y1616D01*
X438Y1616D01*
X438Y1619D01*
X440Y1619D01*
X440Y1620D01*
X467Y1620D01*
X467Y1621D01*
X479Y1621D01*
X479Y1622D01*
X481Y1622D01*
X481Y1624D01*
X482Y1624D01*
X482Y1627D01*
X481Y1627D01*
X481Y1629D01*
X480Y1629D01*
X480Y1630D01*
X450Y1630D01*
G37*
D02*
G36*
X411Y1549D02*
X411Y1548D01*
X409Y1548D01*
X409Y1546D01*
X408Y1546D01*
X408Y1542D01*
X409Y1542D01*
X409Y1541D01*
X410Y1541D01*
X410Y1540D01*
X411Y1540D01*
X411Y1539D01*
X412Y1539D01*
X412Y1538D01*
X413Y1538D01*
X413Y1537D01*
X415Y1537D01*
X415Y1536D01*
X416Y1536D01*
X416Y1535D01*
X432Y1535D01*
X432Y1536D01*
X430Y1536D01*
X430Y1537D01*
X429Y1537D01*
X429Y1538D01*
X428Y1538D01*
X428Y1539D01*
X426Y1539D01*
X426Y1540D01*
X425Y1540D01*
X425Y1541D01*
X424Y1541D01*
X424Y1542D01*
X422Y1542D01*
X422Y1543D01*
X421Y1543D01*
X421Y1544D01*
X420Y1544D01*
X420Y1545D01*
X419Y1545D01*
X419Y1546D01*
X417Y1546D01*
X417Y1547D01*
X416Y1547D01*
X416Y1548D01*
X414Y1548D01*
X414Y1549D01*
X411Y1549D01*
G37*
D02*
G36*
X476Y1549D02*
X476Y1548D01*
X474Y1548D01*
X474Y1547D01*
X473Y1547D01*
X473Y1546D01*
X471Y1546D01*
X471Y1545D01*
X470Y1545D01*
X470Y1544D01*
X469Y1544D01*
X469Y1543D01*
X467Y1543D01*
X467Y1542D01*
X466Y1542D01*
X466Y1541D01*
X465Y1541D01*
X465Y1540D01*
X464Y1540D01*
X464Y1539D01*
X462Y1539D01*
X462Y1538D01*
X461Y1538D01*
X461Y1537D01*
X460Y1537D01*
X460Y1536D01*
X458Y1536D01*
X458Y1535D01*
X474Y1535D01*
X474Y1536D01*
X475Y1536D01*
X475Y1537D01*
X476Y1537D01*
X476Y1538D01*
X478Y1538D01*
X478Y1539D01*
X479Y1539D01*
X479Y1540D01*
X480Y1540D01*
X480Y1541D01*
X481Y1541D01*
X481Y1542D01*
X482Y1542D01*
X482Y1546D01*
X481Y1546D01*
X481Y1547D01*
X480Y1547D01*
X480Y1548D01*
X479Y1548D01*
X479Y1549D01*
X476Y1549D01*
G37*
D02*
G36*
X417Y1535D02*
X417Y1534D01*
X473Y1534D01*
X473Y1535D01*
X417Y1535D01*
G37*
D02*
G36*
X417Y1535D02*
X417Y1534D01*
X473Y1534D01*
X473Y1535D01*
X417Y1535D01*
G37*
D02*
G36*
X418Y1534D02*
X418Y1533D01*
X420Y1533D01*
X420Y1532D01*
X421Y1532D01*
X421Y1531D01*
X422Y1531D01*
X422Y1530D01*
X424Y1530D01*
X424Y1529D01*
X425Y1529D01*
X425Y1528D01*
X426Y1528D01*
X426Y1527D01*
X429Y1527D01*
X429Y1526D01*
X432Y1526D01*
X432Y1525D01*
X458Y1525D01*
X458Y1526D01*
X461Y1526D01*
X461Y1527D01*
X463Y1527D01*
X463Y1528D01*
X465Y1528D01*
X465Y1529D01*
X466Y1529D01*
X466Y1530D01*
X468Y1530D01*
X468Y1531D01*
X469Y1531D01*
X469Y1532D01*
X470Y1532D01*
X470Y1533D01*
X471Y1533D01*
X471Y1534D01*
X418Y1534D01*
G37*
D02*
G36*
X431Y1487D02*
X431Y1486D01*
X430Y1486D01*
X430Y1485D01*
X429Y1485D01*
X429Y1484D01*
X428Y1484D01*
X428Y1480D01*
X429Y1480D01*
X429Y1479D01*
X430Y1479D01*
X430Y1478D01*
X431Y1478D01*
X431Y1477D01*
X463Y1477D01*
X463Y1475D01*
X464Y1475D01*
X464Y1474D01*
X465Y1474D01*
X465Y1472D01*
X466Y1472D01*
X466Y1471D01*
X467Y1471D01*
X467Y1469D01*
X468Y1469D01*
X468Y1468D01*
X469Y1468D01*
X469Y1466D01*
X470Y1466D01*
X470Y1464D01*
X471Y1464D01*
X471Y1463D01*
X472Y1463D01*
X472Y1452D01*
X471Y1452D01*
X471Y1451D01*
X469Y1451D01*
X469Y1450D01*
X445Y1450D01*
X445Y1449D01*
X431Y1449D01*
X431Y1448D01*
X429Y1448D01*
X429Y1446D01*
X428Y1446D01*
X428Y1442D01*
X429Y1442D01*
X429Y1441D01*
X430Y1441D01*
X430Y1440D01*
X461Y1440D01*
X461Y1441D01*
X472Y1441D01*
X472Y1442D01*
X474Y1442D01*
X474Y1443D01*
X476Y1443D01*
X476Y1444D01*
X477Y1444D01*
X477Y1445D01*
X478Y1445D01*
X478Y1446D01*
X479Y1446D01*
X479Y1447D01*
X480Y1447D01*
X480Y1449D01*
X481Y1449D01*
X481Y1452D01*
X482Y1452D01*
X482Y1463D01*
X481Y1463D01*
X481Y1466D01*
X480Y1466D01*
X480Y1468D01*
X479Y1468D01*
X479Y1470D01*
X478Y1470D01*
X478Y1471D01*
X477Y1471D01*
X477Y1473D01*
X476Y1473D01*
X476Y1474D01*
X475Y1474D01*
X475Y1476D01*
X474Y1476D01*
X474Y1477D01*
X479Y1477D01*
X479Y1478D01*
X480Y1478D01*
X480Y1479D01*
X481Y1479D01*
X481Y1480D01*
X482Y1480D01*
X482Y1484D01*
X481Y1484D01*
X481Y1485D01*
X480Y1485D01*
X480Y1486D01*
X479Y1486D01*
X479Y1487D01*
X431Y1487D01*
G37*
D02*
G36*
X463Y1415D02*
X463Y1414D01*
X461Y1414D01*
X461Y1413D01*
X459Y1413D01*
X459Y1412D01*
X458Y1412D01*
X458Y1411D01*
X457Y1411D01*
X457Y1410D01*
X456Y1410D01*
X456Y1409D01*
X455Y1409D01*
X455Y1407D01*
X454Y1407D01*
X454Y1406D01*
X468Y1406D01*
X468Y1405D01*
X470Y1405D01*
X470Y1404D01*
X471Y1404D01*
X471Y1403D01*
X472Y1403D01*
X472Y1379D01*
X471Y1379D01*
X471Y1377D01*
X470Y1377D01*
X470Y1376D01*
X469Y1376D01*
X469Y1374D01*
X468Y1374D01*
X468Y1371D01*
X469Y1371D01*
X469Y1370D01*
X470Y1370D01*
X470Y1369D01*
X471Y1369D01*
X471Y1368D01*
X475Y1368D01*
X475Y1369D01*
X476Y1369D01*
X476Y1370D01*
X477Y1370D01*
X477Y1371D01*
X478Y1371D01*
X478Y1372D01*
X479Y1372D01*
X479Y1374D01*
X480Y1374D01*
X480Y1376D01*
X481Y1376D01*
X481Y1379D01*
X482Y1379D01*
X482Y1404D01*
X481Y1404D01*
X481Y1407D01*
X480Y1407D01*
X480Y1409D01*
X479Y1409D01*
X479Y1410D01*
X478Y1410D01*
X478Y1411D01*
X477Y1411D01*
X477Y1412D01*
X476Y1412D01*
X476Y1413D01*
X474Y1413D01*
X474Y1414D01*
X472Y1414D01*
X472Y1415D01*
X463Y1415D01*
G37*
D02*
G36*
X434Y1414D02*
X434Y1413D01*
X433Y1413D01*
X433Y1412D01*
X432Y1412D01*
X432Y1411D01*
X431Y1411D01*
X431Y1410D01*
X430Y1410D01*
X430Y1408D01*
X429Y1408D01*
X429Y1405D01*
X428Y1405D01*
X428Y1379D01*
X438Y1379D01*
X438Y1404D01*
X439Y1404D01*
X439Y1405D01*
X440Y1405D01*
X440Y1406D01*
X441Y1406D01*
X441Y1408D01*
X442Y1408D01*
X442Y1410D01*
X441Y1410D01*
X441Y1412D01*
X440Y1412D01*
X440Y1413D01*
X439Y1413D01*
X439Y1414D01*
X434Y1414D01*
G37*
D02*
G36*
X454Y1406D02*
X454Y1405D01*
X453Y1405D01*
X453Y1403D01*
X452Y1403D01*
X452Y1401D01*
X451Y1401D01*
X451Y1398D01*
X450Y1398D01*
X450Y1396D01*
X449Y1396D01*
X449Y1394D01*
X448Y1394D01*
X448Y1392D01*
X447Y1392D01*
X447Y1389D01*
X446Y1389D01*
X446Y1387D01*
X445Y1387D01*
X445Y1385D01*
X444Y1385D01*
X444Y1383D01*
X443Y1383D01*
X443Y1380D01*
X442Y1380D01*
X442Y1379D01*
X453Y1379D01*
X453Y1382D01*
X454Y1382D01*
X454Y1384D01*
X455Y1384D01*
X455Y1386D01*
X456Y1386D01*
X456Y1388D01*
X457Y1388D01*
X457Y1391D01*
X458Y1391D01*
X458Y1393D01*
X459Y1393D01*
X459Y1395D01*
X460Y1395D01*
X460Y1397D01*
X461Y1397D01*
X461Y1400D01*
X462Y1400D01*
X462Y1402D01*
X463Y1402D01*
X463Y1404D01*
X464Y1404D01*
X464Y1405D01*
X466Y1405D01*
X466Y1406D01*
X454Y1406D01*
G37*
D02*
G36*
X428Y1379D02*
X428Y1378D01*
X452Y1378D01*
X452Y1379D01*
X428Y1379D01*
G37*
D02*
G36*
X428Y1379D02*
X428Y1378D01*
X452Y1378D01*
X452Y1379D01*
X428Y1379D01*
G37*
D02*
G36*
X429Y1378D02*
X429Y1376D01*
X430Y1376D01*
X430Y1374D01*
X431Y1374D01*
X431Y1373D01*
X432Y1373D01*
X432Y1372D01*
X433Y1372D01*
X433Y1371D01*
X434Y1371D01*
X434Y1370D01*
X437Y1370D01*
X437Y1369D01*
X443Y1369D01*
X443Y1370D01*
X446Y1370D01*
X446Y1371D01*
X447Y1371D01*
X447Y1372D01*
X449Y1372D01*
X449Y1374D01*
X450Y1374D01*
X450Y1375D01*
X451Y1375D01*
X451Y1377D01*
X452Y1377D01*
X452Y1378D01*
X429Y1378D01*
G37*
D02*
G36*
X1118Y1404D02*
X1118Y1403D01*
X1117Y1403D01*
X1117Y1360D01*
X1125Y1360D01*
X1125Y1361D01*
X1124Y1361D01*
X1124Y1402D01*
X1123Y1402D01*
X1123Y1404D01*
X1118Y1404D01*
G37*
D02*
G36*
X1144Y1404D02*
X1144Y1402D01*
X1143Y1402D01*
X1143Y1361D01*
X1142Y1361D01*
X1142Y1360D01*
X1149Y1360D01*
X1149Y1361D01*
X1150Y1361D01*
X1150Y1402D01*
X1149Y1402D01*
X1149Y1404D01*
X1144Y1404D01*
G37*
D02*
G36*
X1118Y1360D02*
X1118Y1359D01*
X1149Y1359D01*
X1149Y1360D01*
X1118Y1360D01*
G37*
D02*
G36*
X1118Y1360D02*
X1118Y1359D01*
X1149Y1359D01*
X1149Y1360D01*
X1118Y1360D01*
G37*
D02*
G36*
X1118Y1359D02*
X1118Y1358D01*
X1119Y1358D01*
X1119Y1356D01*
X1120Y1356D01*
X1120Y1355D01*
X1122Y1355D01*
X1122Y1354D01*
X1124Y1354D01*
X1124Y1353D01*
X1143Y1353D01*
X1143Y1354D01*
X1145Y1354D01*
X1145Y1355D01*
X1146Y1355D01*
X1146Y1356D01*
X1147Y1356D01*
X1147Y1357D01*
X1148Y1357D01*
X1148Y1358D01*
X1149Y1358D01*
X1149Y1359D01*
X1118Y1359D01*
G37*
D02*
G36*
X1168Y1404D02*
X1168Y1403D01*
X1167Y1403D01*
X1167Y1399D01*
X1168Y1399D01*
X1168Y1398D01*
X1180Y1398D01*
X1180Y1360D01*
X1186Y1360D01*
X1186Y1404D01*
X1168Y1404D01*
G37*
D02*
G36*
X1194Y1376D02*
X1194Y1375D01*
X1193Y1375D01*
X1193Y1360D01*
X1199Y1360D01*
X1199Y1375D01*
X1198Y1375D01*
X1198Y1376D01*
X1194Y1376D01*
G37*
D02*
G36*
X1169Y1360D02*
X1169Y1359D01*
X1199Y1359D01*
X1199Y1360D01*
X1169Y1360D01*
G37*
D02*
G36*
X1169Y1360D02*
X1169Y1359D01*
X1199Y1359D01*
X1199Y1360D01*
X1169Y1360D01*
G37*
D02*
G36*
X1167Y1359D02*
X1167Y1354D01*
X1168Y1354D01*
X1168Y1353D01*
X1198Y1353D01*
X1198Y1354D01*
X1199Y1354D01*
X1199Y1359D01*
X1167Y1359D01*
G37*
D02*
G36*
X2194Y1387D02*
X2194Y1381D01*
X2218Y1381D01*
X2218Y1380D01*
X2220Y1380D01*
X2220Y1372D01*
X2219Y1372D01*
X2219Y1371D01*
X2227Y1371D01*
X2227Y1380D01*
X2226Y1380D01*
X2226Y1383D01*
X2225Y1383D01*
X2225Y1384D01*
X2224Y1384D01*
X2224Y1385D01*
X2223Y1385D01*
X2223Y1386D01*
X2221Y1386D01*
X2221Y1387D01*
X2194Y1387D01*
G37*
D02*
G36*
X2194Y1381D02*
X2194Y1371D01*
X2201Y1371D01*
X2201Y1381D01*
X2194Y1381D01*
G37*
D02*
G36*
X2194Y1371D02*
X2194Y1370D01*
X2226Y1370D01*
X2226Y1371D01*
X2194Y1371D01*
G37*
D02*
G36*
X2194Y1371D02*
X2194Y1370D01*
X2226Y1370D01*
X2226Y1371D01*
X2194Y1371D01*
G37*
D02*
G36*
X2194Y1370D02*
X2194Y1364D01*
X2206Y1364D01*
X2206Y1362D01*
X2207Y1362D01*
X2207Y1360D01*
X2208Y1360D01*
X2208Y1359D01*
X2209Y1359D01*
X2209Y1357D01*
X2210Y1357D01*
X2210Y1355D01*
X2211Y1355D01*
X2211Y1354D01*
X2212Y1354D01*
X2212Y1352D01*
X2213Y1352D01*
X2213Y1350D01*
X2214Y1350D01*
X2214Y1348D01*
X2215Y1348D01*
X2215Y1347D01*
X2216Y1347D01*
X2216Y1345D01*
X2217Y1345D01*
X2217Y1343D01*
X2218Y1343D01*
X2218Y1342D01*
X2219Y1342D01*
X2219Y1340D01*
X2220Y1340D01*
X2220Y1338D01*
X2221Y1338D01*
X2221Y1337D01*
X2222Y1337D01*
X2222Y1336D01*
X2225Y1336D01*
X2225Y1337D01*
X2226Y1337D01*
X2226Y1338D01*
X2227Y1338D01*
X2227Y1341D01*
X2226Y1341D01*
X2226Y1343D01*
X2225Y1343D01*
X2225Y1344D01*
X2224Y1344D01*
X2224Y1346D01*
X2223Y1346D01*
X2223Y1348D01*
X2222Y1348D01*
X2222Y1350D01*
X2221Y1350D01*
X2221Y1351D01*
X2220Y1351D01*
X2220Y1353D01*
X2219Y1353D01*
X2219Y1355D01*
X2218Y1355D01*
X2218Y1356D01*
X2217Y1356D01*
X2217Y1358D01*
X2216Y1358D01*
X2216Y1360D01*
X2215Y1360D01*
X2215Y1362D01*
X2214Y1362D01*
X2214Y1363D01*
X2213Y1363D01*
X2213Y1364D01*
X2220Y1364D01*
X2220Y1365D01*
X2222Y1365D01*
X2222Y1366D01*
X2224Y1366D01*
X2224Y1367D01*
X2225Y1367D01*
X2225Y1369D01*
X2226Y1369D01*
X2226Y1370D01*
X2194Y1370D01*
G37*
D02*
G36*
X2194Y1364D02*
X2194Y1338D01*
X2195Y1338D01*
X2195Y1337D01*
X2196Y1337D01*
X2196Y1336D01*
X2199Y1336D01*
X2199Y1337D01*
X2200Y1337D01*
X2200Y1338D01*
X2201Y1338D01*
X2201Y1364D01*
X2194Y1364D01*
G37*
D02*
G36*
X2245Y1387D02*
X2245Y1386D01*
X2244Y1386D01*
X2244Y1381D01*
X2270Y1381D01*
X2270Y1368D01*
X2268Y1368D01*
X2268Y1367D01*
X2267Y1367D01*
X2267Y1366D01*
X2266Y1366D01*
X2266Y1365D01*
X2265Y1365D01*
X2265Y1364D01*
X2264Y1364D01*
X2264Y1363D01*
X2263Y1363D01*
X2263Y1362D01*
X2261Y1362D01*
X2261Y1361D01*
X2260Y1361D01*
X2260Y1360D01*
X2259Y1360D01*
X2259Y1359D01*
X2258Y1359D01*
X2258Y1358D01*
X2257Y1358D01*
X2257Y1337D01*
X2259Y1337D01*
X2259Y1336D01*
X2262Y1336D01*
X2262Y1337D01*
X2263Y1337D01*
X2263Y1342D01*
X2264Y1342D01*
X2264Y1355D01*
X2265Y1355D01*
X2265Y1356D01*
X2266Y1356D01*
X2266Y1357D01*
X2267Y1357D01*
X2267Y1358D01*
X2268Y1358D01*
X2268Y1359D01*
X2269Y1359D01*
X2269Y1360D01*
X2270Y1360D01*
X2270Y1361D01*
X2272Y1361D01*
X2272Y1362D01*
X2273Y1362D01*
X2273Y1363D01*
X2274Y1363D01*
X2274Y1364D01*
X2275Y1364D01*
X2275Y1365D01*
X2276Y1365D01*
X2276Y1367D01*
X2277Y1367D01*
X2277Y1387D01*
X2245Y1387D01*
G37*
D02*
G36*
X2244Y1381D02*
X2244Y1379D01*
X2245Y1379D01*
X2245Y1378D01*
X2249Y1378D01*
X2249Y1379D01*
X2250Y1379D01*
X2250Y1380D01*
X2251Y1380D01*
X2251Y1381D01*
X2244Y1381D01*
G37*
D02*
G36*
X2394Y1387D02*
X2394Y1381D01*
X2418Y1381D01*
X2418Y1380D01*
X2419Y1380D01*
X2419Y1379D01*
X2420Y1379D01*
X2420Y1372D01*
X2419Y1372D01*
X2419Y1371D01*
X2427Y1371D01*
X2427Y1380D01*
X2426Y1380D01*
X2426Y1382D01*
X2425Y1382D01*
X2425Y1384D01*
X2424Y1384D01*
X2424Y1385D01*
X2423Y1385D01*
X2423Y1386D01*
X2421Y1386D01*
X2421Y1387D01*
X2394Y1387D01*
G37*
D02*
G36*
X2394Y1381D02*
X2394Y1371D01*
X2401Y1371D01*
X2401Y1381D01*
X2394Y1381D01*
G37*
D02*
G36*
X2394Y1371D02*
X2394Y1370D01*
X2426Y1370D01*
X2426Y1371D01*
X2394Y1371D01*
G37*
D02*
G36*
X2394Y1371D02*
X2394Y1370D01*
X2426Y1370D01*
X2426Y1371D01*
X2394Y1371D01*
G37*
D02*
G36*
X2394Y1370D02*
X2394Y1364D01*
X2406Y1364D01*
X2406Y1362D01*
X2407Y1362D01*
X2407Y1360D01*
X2408Y1360D01*
X2408Y1359D01*
X2409Y1359D01*
X2409Y1357D01*
X2410Y1357D01*
X2410Y1355D01*
X2411Y1355D01*
X2411Y1353D01*
X2412Y1353D01*
X2412Y1352D01*
X2413Y1352D01*
X2413Y1350D01*
X2414Y1350D01*
X2414Y1348D01*
X2415Y1348D01*
X2415Y1347D01*
X2416Y1347D01*
X2416Y1345D01*
X2417Y1345D01*
X2417Y1343D01*
X2418Y1343D01*
X2418Y1341D01*
X2419Y1341D01*
X2419Y1340D01*
X2420Y1340D01*
X2420Y1338D01*
X2421Y1338D01*
X2421Y1337D01*
X2422Y1337D01*
X2422Y1336D01*
X2425Y1336D01*
X2425Y1337D01*
X2426Y1337D01*
X2426Y1338D01*
X2427Y1338D01*
X2427Y1341D01*
X2426Y1341D01*
X2426Y1343D01*
X2425Y1343D01*
X2425Y1344D01*
X2424Y1344D01*
X2424Y1346D01*
X2423Y1346D01*
X2423Y1348D01*
X2422Y1348D01*
X2422Y1349D01*
X2421Y1349D01*
X2421Y1351D01*
X2420Y1351D01*
X2420Y1353D01*
X2419Y1353D01*
X2419Y1355D01*
X2418Y1355D01*
X2418Y1356D01*
X2417Y1356D01*
X2417Y1358D01*
X2416Y1358D01*
X2416Y1360D01*
X2415Y1360D01*
X2415Y1361D01*
X2414Y1361D01*
X2414Y1363D01*
X2413Y1363D01*
X2413Y1364D01*
X2420Y1364D01*
X2420Y1365D01*
X2422Y1365D01*
X2422Y1366D01*
X2424Y1366D01*
X2424Y1367D01*
X2425Y1367D01*
X2425Y1369D01*
X2426Y1369D01*
X2426Y1370D01*
X2394Y1370D01*
G37*
D02*
G36*
X2394Y1364D02*
X2394Y1338D01*
X2395Y1338D01*
X2395Y1337D01*
X2396Y1337D01*
X2396Y1336D01*
X2399Y1336D01*
X2399Y1337D01*
X2400Y1337D01*
X2400Y1338D01*
X2401Y1338D01*
X2401Y1364D01*
X2394Y1364D01*
G37*
D02*
G36*
X2451Y1387D02*
X2451Y1385D01*
X2450Y1385D01*
X2450Y1381D01*
X2463Y1381D01*
X2463Y1365D01*
X2470Y1365D01*
X2470Y1386D01*
X2469Y1386D01*
X2469Y1387D01*
X2451Y1387D01*
G37*
D02*
G36*
X2450Y1381D02*
X2450Y1365D01*
X2457Y1365D01*
X2457Y1381D01*
X2450Y1381D01*
G37*
D02*
G36*
X2448Y1365D02*
X2448Y1364D01*
X2472Y1364D01*
X2472Y1365D01*
X2448Y1365D01*
G37*
D02*
G36*
X2448Y1365D02*
X2448Y1364D01*
X2472Y1364D01*
X2472Y1365D01*
X2448Y1365D01*
G37*
D02*
G36*
X2446Y1364D02*
X2446Y1363D01*
X2445Y1363D01*
X2445Y1361D01*
X2444Y1361D01*
X2444Y1358D01*
X2470Y1358D01*
X2470Y1343D01*
X2477Y1343D01*
X2477Y1359D01*
X2476Y1359D01*
X2476Y1362D01*
X2475Y1362D01*
X2475Y1363D01*
X2474Y1363D01*
X2474Y1364D01*
X2446Y1364D01*
G37*
D02*
G36*
X2444Y1358D02*
X2444Y1343D01*
X2450Y1343D01*
X2450Y1358D01*
X2444Y1358D01*
G37*
D02*
G36*
X2444Y1343D02*
X2444Y1342D01*
X2477Y1342D01*
X2477Y1343D01*
X2444Y1343D01*
G37*
D02*
G36*
X2444Y1343D02*
X2444Y1342D01*
X2477Y1342D01*
X2477Y1343D01*
X2444Y1343D01*
G37*
D02*
G36*
X2444Y1342D02*
X2444Y1340D01*
X2445Y1340D01*
X2445Y1338D01*
X2446Y1338D01*
X2446Y1337D01*
X2448Y1337D01*
X2448Y1336D01*
X2472Y1336D01*
X2472Y1337D01*
X2474Y1337D01*
X2474Y1338D01*
X2475Y1338D01*
X2475Y1339D01*
X2476Y1339D01*
X2476Y1342D01*
X2444Y1342D01*
G37*
D02*
G36*
X475Y1339D02*
X475Y1338D01*
X474Y1338D01*
X474Y1337D01*
X473Y1337D01*
X473Y1336D01*
X472Y1336D01*
X472Y1325D01*
X411Y1325D01*
X411Y1324D01*
X409Y1324D01*
X409Y1322D01*
X408Y1322D01*
X408Y1315D01*
X472Y1315D01*
X472Y1305D01*
X473Y1305D01*
X473Y1303D01*
X474Y1303D01*
X474Y1302D01*
X476Y1302D01*
X476Y1301D01*
X479Y1301D01*
X479Y1302D01*
X480Y1302D01*
X480Y1303D01*
X481Y1303D01*
X481Y1304D01*
X482Y1304D01*
X482Y1336D01*
X481Y1336D01*
X481Y1338D01*
X479Y1338D01*
X479Y1339D01*
X475Y1339D01*
G37*
D02*
G36*
X408Y1315D02*
X408Y1304D01*
X409Y1304D01*
X409Y1303D01*
X410Y1303D01*
X410Y1302D01*
X411Y1302D01*
X411Y1301D01*
X414Y1301D01*
X414Y1302D01*
X416Y1302D01*
X416Y1303D01*
X417Y1303D01*
X417Y1315D01*
X408Y1315D01*
G37*
D02*
G36*
X1698Y1291D02*
X1698Y1290D01*
X1697Y1290D01*
X1697Y1284D01*
X1722Y1284D01*
X1722Y1283D01*
X1723Y1283D01*
X1723Y1281D01*
X1724Y1281D01*
X1724Y1276D01*
X1723Y1276D01*
X1723Y1275D01*
X1722Y1275D01*
X1722Y1274D01*
X1730Y1274D01*
X1730Y1284D01*
X1729Y1284D01*
X1729Y1286D01*
X1728Y1286D01*
X1728Y1287D01*
X1727Y1287D01*
X1727Y1288D01*
X1726Y1288D01*
X1726Y1289D01*
X1725Y1289D01*
X1725Y1290D01*
X1719Y1290D01*
X1719Y1291D01*
X1698Y1291D01*
G37*
D02*
G36*
X1697Y1284D02*
X1697Y1274D01*
X1704Y1274D01*
X1704Y1284D01*
X1697Y1284D01*
G37*
D02*
G36*
X1697Y1274D02*
X1697Y1273D01*
X1730Y1273D01*
X1730Y1274D01*
X1697Y1274D01*
G37*
D02*
G36*
X1697Y1274D02*
X1697Y1273D01*
X1730Y1273D01*
X1730Y1274D01*
X1697Y1274D01*
G37*
D02*
G36*
X1697Y1273D02*
X1697Y1267D01*
X1709Y1267D01*
X1709Y1266D01*
X1710Y1266D01*
X1710Y1264D01*
X1711Y1264D01*
X1711Y1262D01*
X1712Y1262D01*
X1712Y1261D01*
X1713Y1261D01*
X1713Y1259D01*
X1714Y1259D01*
X1714Y1257D01*
X1715Y1257D01*
X1715Y1255D01*
X1716Y1255D01*
X1716Y1254D01*
X1717Y1254D01*
X1717Y1252D01*
X1718Y1252D01*
X1718Y1250D01*
X1719Y1250D01*
X1719Y1249D01*
X1720Y1249D01*
X1720Y1247D01*
X1721Y1247D01*
X1721Y1245D01*
X1722Y1245D01*
X1722Y1243D01*
X1723Y1243D01*
X1723Y1242D01*
X1724Y1242D01*
X1724Y1240D01*
X1726Y1240D01*
X1726Y1239D01*
X1728Y1239D01*
X1728Y1240D01*
X1730Y1240D01*
X1730Y1245D01*
X1729Y1245D01*
X1729Y1246D01*
X1728Y1246D01*
X1728Y1248D01*
X1727Y1248D01*
X1727Y1250D01*
X1726Y1250D01*
X1726Y1252D01*
X1725Y1252D01*
X1725Y1253D01*
X1724Y1253D01*
X1724Y1255D01*
X1723Y1255D01*
X1723Y1257D01*
X1722Y1257D01*
X1722Y1258D01*
X1721Y1258D01*
X1721Y1260D01*
X1720Y1260D01*
X1720Y1262D01*
X1719Y1262D01*
X1719Y1264D01*
X1718Y1264D01*
X1718Y1265D01*
X1717Y1265D01*
X1717Y1267D01*
X1723Y1267D01*
X1723Y1268D01*
X1725Y1268D01*
X1725Y1269D01*
X1727Y1269D01*
X1727Y1270D01*
X1728Y1270D01*
X1728Y1271D01*
X1729Y1271D01*
X1729Y1273D01*
X1697Y1273D01*
G37*
D02*
G36*
X1697Y1267D02*
X1697Y1247D01*
X1698Y1247D01*
X1698Y1240D01*
X1699Y1240D01*
X1699Y1239D01*
X1702Y1239D01*
X1702Y1240D01*
X1703Y1240D01*
X1703Y1241D01*
X1704Y1241D01*
X1704Y1267D01*
X1697Y1267D01*
G37*
D02*
G36*
X1751Y1291D02*
X1751Y1290D01*
X1748Y1290D01*
X1748Y1289D01*
X1747Y1289D01*
X1747Y1286D01*
X1748Y1286D01*
X1748Y1285D01*
X1749Y1285D01*
X1749Y1284D01*
X1773Y1284D01*
X1773Y1269D01*
X1771Y1269D01*
X1771Y1268D01*
X1755Y1268D01*
X1755Y1267D01*
X1754Y1267D01*
X1754Y1263D01*
X1755Y1263D01*
X1755Y1262D01*
X1770Y1262D01*
X1770Y1261D01*
X1772Y1261D01*
X1772Y1260D01*
X1773Y1260D01*
X1773Y1246D01*
X1749Y1246D01*
X1749Y1245D01*
X1748Y1245D01*
X1748Y1244D01*
X1747Y1244D01*
X1747Y1241D01*
X1748Y1241D01*
X1748Y1240D01*
X1749Y1240D01*
X1749Y1239D01*
X1775Y1239D01*
X1775Y1240D01*
X1777Y1240D01*
X1777Y1241D01*
X1778Y1241D01*
X1778Y1242D01*
X1779Y1242D01*
X1779Y1244D01*
X1780Y1244D01*
X1780Y1261D01*
X1779Y1261D01*
X1779Y1263D01*
X1778Y1263D01*
X1778Y1266D01*
X1779Y1266D01*
X1779Y1269D01*
X1780Y1269D01*
X1780Y1286D01*
X1779Y1286D01*
X1779Y1288D01*
X1778Y1288D01*
X1778Y1289D01*
X1777Y1289D01*
X1777Y1290D01*
X1773Y1290D01*
X1773Y1291D01*
X1751Y1291D01*
G37*
D02*
G36*
X430Y1272D02*
X430Y1271D01*
X429Y1271D01*
X429Y1270D01*
X428Y1270D01*
X428Y1266D01*
X429Y1266D01*
X429Y1264D01*
X430Y1264D01*
X430Y1263D01*
X462Y1263D01*
X462Y1262D01*
X463Y1262D01*
X463Y1261D01*
X464Y1261D01*
X464Y1259D01*
X465Y1259D01*
X465Y1258D01*
X466Y1258D01*
X466Y1256D01*
X467Y1256D01*
X467Y1255D01*
X468Y1255D01*
X468Y1253D01*
X469Y1253D01*
X469Y1252D01*
X470Y1252D01*
X470Y1250D01*
X471Y1250D01*
X471Y1248D01*
X472Y1248D01*
X472Y1238D01*
X471Y1238D01*
X471Y1237D01*
X470Y1237D01*
X470Y1236D01*
X457Y1236D01*
X457Y1235D01*
X432Y1235D01*
X432Y1234D01*
X430Y1234D01*
X430Y1233D01*
X429Y1233D01*
X429Y1232D01*
X428Y1232D01*
X428Y1228D01*
X429Y1228D01*
X429Y1226D01*
X431Y1226D01*
X431Y1225D01*
X445Y1225D01*
X445Y1226D01*
X470Y1226D01*
X470Y1227D01*
X473Y1227D01*
X473Y1228D01*
X475Y1228D01*
X475Y1229D01*
X477Y1229D01*
X477Y1230D01*
X478Y1230D01*
X478Y1231D01*
X479Y1231D01*
X479Y1233D01*
X480Y1233D01*
X480Y1234D01*
X481Y1234D01*
X481Y1237D01*
X482Y1237D01*
X482Y1249D01*
X481Y1249D01*
X481Y1252D01*
X480Y1252D01*
X480Y1254D01*
X479Y1254D01*
X479Y1255D01*
X478Y1255D01*
X478Y1257D01*
X477Y1257D01*
X477Y1258D01*
X476Y1258D01*
X476Y1260D01*
X475Y1260D01*
X475Y1262D01*
X474Y1262D01*
X474Y1263D01*
X480Y1263D01*
X480Y1264D01*
X481Y1264D01*
X481Y1266D01*
X482Y1266D01*
X482Y1269D01*
X481Y1269D01*
X481Y1271D01*
X480Y1271D01*
X480Y1272D01*
X430Y1272D01*
G37*
D02*
G36*
X419Y1201D02*
X419Y1200D01*
X416Y1200D01*
X416Y1199D01*
X414Y1199D01*
X414Y1198D01*
X413Y1198D01*
X413Y1197D01*
X412Y1197D01*
X412Y1196D01*
X411Y1196D01*
X411Y1195D01*
X410Y1195D01*
X410Y1193D01*
X409Y1193D01*
X409Y1191D01*
X442Y1191D01*
X442Y1190D01*
X443Y1190D01*
X443Y1189D01*
X444Y1189D01*
X444Y1163D01*
X454Y1163D01*
X454Y1189D01*
X453Y1189D01*
X453Y1192D01*
X452Y1192D01*
X452Y1194D01*
X451Y1194D01*
X451Y1195D01*
X450Y1195D01*
X450Y1197D01*
X448Y1197D01*
X448Y1198D01*
X447Y1198D01*
X447Y1199D01*
X445Y1199D01*
X445Y1200D01*
X442Y1200D01*
X442Y1201D01*
X419Y1201D01*
G37*
D02*
G36*
X409Y1191D02*
X409Y1190D01*
X408Y1190D01*
X408Y1163D01*
X418Y1163D01*
X418Y1189D01*
X419Y1189D01*
X419Y1190D01*
X420Y1190D01*
X420Y1191D01*
X409Y1191D01*
G37*
D02*
G36*
X408Y1163D02*
X408Y1162D01*
X479Y1162D01*
X479Y1163D01*
X408Y1163D01*
G37*
D02*
G36*
X408Y1163D02*
X408Y1162D01*
X479Y1162D01*
X479Y1163D01*
X408Y1163D01*
G37*
D02*
G36*
X408Y1162D02*
X408Y1154D01*
X480Y1154D01*
X480Y1155D01*
X481Y1155D01*
X481Y1157D01*
X482Y1157D01*
X482Y1160D01*
X481Y1160D01*
X481Y1162D01*
X408Y1162D01*
G37*
D02*
G36*
X197Y1130D02*
X197Y1129D01*
X196Y1129D01*
X196Y1124D01*
X198Y1124D01*
X198Y1123D01*
X209Y1123D01*
X209Y1086D01*
X208Y1086D01*
X208Y1085D01*
X215Y1085D01*
X215Y1130D01*
X197Y1130D01*
G37*
D02*
G36*
X223Y1102D02*
X223Y1101D01*
X222Y1101D01*
X222Y1085D01*
X228Y1085D01*
X228Y1101D01*
X227Y1101D01*
X227Y1102D01*
X223Y1102D01*
G37*
D02*
G36*
X197Y1085D02*
X197Y1084D01*
X228Y1084D01*
X228Y1085D01*
X197Y1085D01*
G37*
D02*
G36*
X197Y1085D02*
X197Y1084D01*
X228Y1084D01*
X228Y1085D01*
X197Y1085D01*
G37*
D02*
G36*
X196Y1084D02*
X196Y1080D01*
X197Y1080D01*
X197Y1079D01*
X227Y1079D01*
X227Y1080D01*
X228Y1080D01*
X228Y1084D01*
X196Y1084D01*
G37*
D02*
G36*
X170Y1130D02*
X170Y1129D01*
X169Y1129D01*
X169Y1087D01*
X168Y1087D01*
X168Y1086D01*
X167Y1086D01*
X167Y1085D01*
X175Y1085D01*
X175Y1129D01*
X174Y1129D01*
X174Y1130D01*
X170Y1130D01*
G37*
D02*
G36*
X151Y1102D02*
X151Y1101D01*
X150Y1101D01*
X150Y1100D01*
X149Y1100D01*
X149Y1086D01*
X150Y1086D01*
X150Y1085D01*
X158Y1085D01*
X158Y1086D01*
X157Y1086D01*
X157Y1087D01*
X156Y1087D01*
X156Y1100D01*
X155Y1100D01*
X155Y1101D01*
X154Y1101D01*
X154Y1102D01*
X151Y1102D01*
G37*
D02*
G36*
X150Y1085D02*
X150Y1084D01*
X175Y1084D01*
X175Y1085D01*
X150Y1085D01*
G37*
D02*
G36*
X150Y1085D02*
X150Y1084D01*
X175Y1084D01*
X175Y1085D01*
X150Y1085D01*
G37*
D02*
G36*
X151Y1084D02*
X151Y1082D01*
X152Y1082D01*
X152Y1081D01*
X153Y1081D01*
X153Y1080D01*
X155Y1080D01*
X155Y1079D01*
X169Y1079D01*
X169Y1080D01*
X171Y1080D01*
X171Y1081D01*
X172Y1081D01*
X172Y1082D01*
X173Y1082D01*
X173Y1083D01*
X174Y1083D01*
X174Y1084D01*
X151Y1084D01*
G37*
D02*
G36*
X2323Y1014D02*
X2323Y1013D01*
X2321Y1013D01*
X2321Y1008D01*
X2322Y1008D01*
X2322Y1007D01*
X2334Y1007D01*
X2334Y969D01*
X2340Y969D01*
X2340Y1014D01*
X2323Y1014D01*
G37*
D02*
G36*
X2349Y986D02*
X2349Y985D01*
X2348Y985D01*
X2348Y984D01*
X2347Y984D01*
X2347Y969D01*
X2353Y969D01*
X2353Y984D01*
X2352Y984D01*
X2352Y985D01*
X2351Y985D01*
X2351Y986D01*
X2349Y986D01*
G37*
D02*
G36*
X2322Y969D02*
X2322Y968D01*
X2353Y968D01*
X2353Y969D01*
X2322Y969D01*
G37*
D02*
G36*
X2322Y969D02*
X2322Y968D01*
X2353Y968D01*
X2353Y969D01*
X2322Y969D01*
G37*
D02*
G36*
X2321Y968D02*
X2321Y963D01*
X2323Y963D01*
X2323Y962D01*
X2351Y962D01*
X2351Y963D01*
X2353Y963D01*
X2353Y968D01*
X2321Y968D01*
G37*
D02*
G36*
X2173Y1001D02*
X2173Y1000D01*
X2172Y1000D01*
X2172Y997D01*
X2178Y997D01*
X2178Y1000D01*
X2177Y1000D01*
X2177Y1001D01*
X2173Y1001D01*
G37*
D02*
G36*
X2184Y1001D02*
X2184Y1000D01*
X2182Y1000D01*
X2182Y999D01*
X2181Y999D01*
X2181Y998D01*
X2180Y998D01*
X2180Y997D01*
X2197Y997D01*
X2197Y998D01*
X2195Y998D01*
X2195Y999D01*
X2194Y999D01*
X2194Y1000D01*
X2192Y1000D01*
X2192Y1001D01*
X2184Y1001D01*
G37*
D02*
G36*
X2172Y997D02*
X2172Y996D01*
X2198Y996D01*
X2198Y997D01*
X2172Y997D01*
G37*
D02*
G36*
X2172Y997D02*
X2172Y996D01*
X2198Y996D01*
X2198Y997D01*
X2172Y997D01*
G37*
D02*
G36*
X2172Y996D02*
X2172Y994D01*
X2191Y994D01*
X2191Y993D01*
X2192Y993D01*
X2192Y992D01*
X2193Y992D01*
X2193Y991D01*
X2195Y991D01*
X2195Y990D01*
X2196Y990D01*
X2196Y989D01*
X2197Y989D01*
X2197Y988D01*
X2198Y988D01*
X2198Y974D01*
X2197Y974D01*
X2197Y973D01*
X2196Y973D01*
X2196Y972D01*
X2195Y972D01*
X2195Y971D01*
X2194Y971D01*
X2194Y970D01*
X2192Y970D01*
X2192Y969D01*
X2191Y969D01*
X2191Y968D01*
X2201Y968D01*
X2201Y969D01*
X2202Y969D01*
X2202Y970D01*
X2203Y970D01*
X2203Y971D01*
X2204Y971D01*
X2204Y990D01*
X2203Y990D01*
X2203Y992D01*
X2202Y992D01*
X2202Y993D01*
X2201Y993D01*
X2201Y994D01*
X2200Y994D01*
X2200Y995D01*
X2199Y995D01*
X2199Y996D01*
X2172Y996D01*
G37*
D02*
G36*
X2172Y994D02*
X2172Y968D01*
X2185Y968D01*
X2185Y969D01*
X2184Y969D01*
X2184Y970D01*
X2183Y970D01*
X2183Y971D01*
X2182Y971D01*
X2182Y972D01*
X2181Y972D01*
X2181Y973D01*
X2180Y973D01*
X2180Y974D01*
X2179Y974D01*
X2179Y976D01*
X2178Y976D01*
X2178Y986D01*
X2179Y986D01*
X2179Y988D01*
X2180Y988D01*
X2180Y989D01*
X2181Y989D01*
X2181Y990D01*
X2182Y990D01*
X2182Y991D01*
X2183Y991D01*
X2183Y992D01*
X2184Y992D01*
X2184Y993D01*
X2185Y993D01*
X2185Y994D01*
X2172Y994D01*
G37*
D02*
G36*
X2172Y968D02*
X2172Y967D01*
X2200Y967D01*
X2200Y968D01*
X2172Y968D01*
G37*
D02*
G36*
X2172Y968D02*
X2172Y967D01*
X2200Y967D01*
X2200Y968D01*
X2172Y968D01*
G37*
D02*
G36*
X2172Y967D02*
X2172Y965D01*
X2180Y965D01*
X2180Y964D01*
X2181Y964D01*
X2181Y963D01*
X2182Y963D01*
X2182Y962D01*
X2184Y962D01*
X2184Y961D01*
X2192Y961D01*
X2192Y962D01*
X2194Y962D01*
X2194Y963D01*
X2196Y963D01*
X2196Y964D01*
X2197Y964D01*
X2197Y965D01*
X2198Y965D01*
X2198Y966D01*
X2199Y966D01*
X2199Y967D01*
X2172Y967D01*
G37*
D02*
G36*
X2172Y965D02*
X2172Y949D01*
X2174Y949D01*
X2174Y948D01*
X2176Y948D01*
X2176Y949D01*
X2178Y949D01*
X2178Y965D01*
X2172Y965D01*
G37*
D02*
G36*
X2075Y1000D02*
X2075Y999D01*
X2073Y999D01*
X2073Y997D01*
X2072Y997D01*
X2072Y992D01*
X2073Y992D01*
X2073Y970D01*
X2074Y970D01*
X2074Y969D01*
X2081Y969D01*
X2081Y970D01*
X2080Y970D01*
X2080Y982D01*
X2079Y982D01*
X2079Y998D01*
X2078Y998D01*
X2078Y999D01*
X2077Y999D01*
X2077Y1000D01*
X2075Y1000D01*
G37*
D02*
G36*
X2101Y1000D02*
X2101Y999D01*
X2099Y999D01*
X2099Y976D01*
X2098Y976D01*
X2098Y975D01*
X2097Y975D01*
X2097Y974D01*
X2095Y974D01*
X2095Y973D01*
X2093Y973D01*
X2093Y972D01*
X2092Y972D01*
X2092Y971D01*
X2090Y971D01*
X2090Y970D01*
X2089Y970D01*
X2089Y969D01*
X2105Y969D01*
X2105Y998D01*
X2104Y998D01*
X2104Y999D01*
X2103Y999D01*
X2103Y1000D01*
X2101Y1000D01*
G37*
D02*
G36*
X2074Y969D02*
X2074Y968D01*
X2105Y968D01*
X2105Y969D01*
X2074Y969D01*
G37*
D02*
G36*
X2074Y969D02*
X2074Y968D01*
X2105Y968D01*
X2105Y969D01*
X2074Y969D01*
G37*
D02*
G36*
X2074Y968D02*
X2074Y967D01*
X2099Y967D01*
X2099Y963D01*
X2101Y963D01*
X2101Y962D01*
X2103Y962D01*
X2103Y963D01*
X2104Y963D01*
X2104Y964D01*
X2105Y964D01*
X2105Y968D01*
X2074Y968D01*
G37*
D02*
G36*
X2075Y967D02*
X2075Y966D01*
X2076Y966D01*
X2076Y965D01*
X2077Y965D01*
X2077Y964D01*
X2078Y964D01*
X2078Y963D01*
X2081Y963D01*
X2081Y962D01*
X2089Y962D01*
X2089Y963D01*
X2092Y963D01*
X2092Y964D01*
X2093Y964D01*
X2093Y965D01*
X2095Y965D01*
X2095Y966D01*
X2096Y966D01*
X2096Y967D01*
X2075Y967D01*
G37*
D02*
G36*
X2124Y1000D02*
X2124Y999D01*
X2122Y999D01*
X2122Y998D01*
X2127Y998D01*
X2127Y999D01*
X2126Y999D01*
X2126Y1000D01*
X2124Y1000D01*
G37*
D02*
G36*
X2132Y1000D02*
X2132Y999D01*
X2130Y999D01*
X2130Y998D01*
X2138Y998D01*
X2138Y999D01*
X2135Y999D01*
X2135Y1000D01*
X2132Y1000D01*
G37*
D02*
G36*
X2145Y1000D02*
X2145Y999D01*
X2143Y999D01*
X2143Y998D01*
X2141Y998D01*
X2141Y997D01*
X2152Y997D01*
X2152Y998D01*
X2151Y998D01*
X2151Y999D01*
X2148Y999D01*
X2148Y1000D01*
X2145Y1000D01*
G37*
D02*
G36*
X2122Y998D02*
X2122Y997D01*
X2139Y997D01*
X2139Y998D01*
X2122Y998D01*
G37*
D02*
G36*
X2122Y998D02*
X2122Y997D01*
X2139Y997D01*
X2139Y998D01*
X2122Y998D01*
G37*
D02*
G36*
X2122Y997D02*
X2122Y996D01*
X2153Y996D01*
X2153Y997D01*
X2122Y997D01*
G37*
D02*
G36*
X2122Y997D02*
X2122Y996D01*
X2153Y996D01*
X2153Y997D01*
X2122Y997D01*
G37*
D02*
G36*
X2122Y996D02*
X2122Y995D01*
X2121Y995D01*
X2121Y993D01*
X2147Y993D01*
X2147Y992D01*
X2148Y992D01*
X2148Y970D01*
X2149Y970D01*
X2149Y963D01*
X2151Y963D01*
X2151Y962D01*
X2153Y962D01*
X2153Y963D01*
X2155Y963D01*
X2155Y989D01*
X2154Y989D01*
X2154Y995D01*
X2153Y995D01*
X2153Y996D01*
X2122Y996D01*
G37*
D02*
G36*
X2121Y993D02*
X2121Y967D01*
X2122Y967D01*
X2122Y963D01*
X2124Y963D01*
X2124Y962D01*
X2126Y962D01*
X2126Y963D01*
X2127Y963D01*
X2127Y964D01*
X2128Y964D01*
X2128Y989D01*
X2129Y989D01*
X2129Y990D01*
X2130Y990D01*
X2130Y991D01*
X2131Y991D01*
X2131Y992D01*
X2133Y992D01*
X2133Y993D01*
X2121Y993D01*
G37*
D02*
G36*
X2135Y993D02*
X2135Y964D01*
X2136Y964D01*
X2136Y963D01*
X2137Y963D01*
X2137Y962D01*
X2140Y962D01*
X2140Y963D01*
X2141Y963D01*
X2141Y964D01*
X2142Y964D01*
X2142Y990D01*
X2143Y990D01*
X2143Y991D01*
X2144Y991D01*
X2144Y992D01*
X2146Y992D01*
X2146Y993D01*
X2135Y993D01*
G37*
D02*
G36*
X2232Y1000D02*
X2232Y999D01*
X2229Y999D01*
X2229Y998D01*
X2227Y998D01*
X2227Y997D01*
X2226Y997D01*
X2226Y996D01*
X2225Y996D01*
X2225Y995D01*
X2224Y995D01*
X2224Y994D01*
X2223Y994D01*
X2223Y993D01*
X2243Y993D01*
X2243Y992D01*
X2245Y992D01*
X2245Y991D01*
X2246Y991D01*
X2246Y990D01*
X2247Y990D01*
X2247Y983D01*
X2254Y983D01*
X2254Y991D01*
X2253Y991D01*
X2253Y993D01*
X2252Y993D01*
X2252Y994D01*
X2251Y994D01*
X2251Y995D01*
X2250Y995D01*
X2250Y996D01*
X2249Y996D01*
X2249Y997D01*
X2248Y997D01*
X2248Y998D01*
X2246Y998D01*
X2246Y999D01*
X2243Y999D01*
X2243Y1000D01*
X2232Y1000D01*
G37*
D02*
G36*
X2223Y993D02*
X2223Y992D01*
X2222Y992D01*
X2222Y990D01*
X2221Y990D01*
X2221Y983D01*
X2228Y983D01*
X2228Y990D01*
X2229Y990D01*
X2229Y991D01*
X2231Y991D01*
X2231Y992D01*
X2232Y992D01*
X2232Y993D01*
X2223Y993D01*
G37*
D02*
G36*
X2221Y983D02*
X2221Y982D01*
X2254Y982D01*
X2254Y983D01*
X2221Y983D01*
G37*
D02*
G36*
X2221Y983D02*
X2221Y982D01*
X2254Y982D01*
X2254Y983D01*
X2221Y983D01*
G37*
D02*
G36*
X2221Y982D02*
X2221Y972D01*
X2222Y972D01*
X2222Y969D01*
X2223Y969D01*
X2223Y968D01*
X2224Y968D01*
X2224Y967D01*
X2225Y967D01*
X2225Y966D01*
X2226Y966D01*
X2226Y965D01*
X2227Y965D01*
X2227Y964D01*
X2229Y964D01*
X2229Y963D01*
X2231Y963D01*
X2231Y962D01*
X2252Y962D01*
X2252Y963D01*
X2253Y963D01*
X2253Y964D01*
X2254Y964D01*
X2254Y967D01*
X2253Y967D01*
X2253Y968D01*
X2252Y968D01*
X2252Y969D01*
X2232Y969D01*
X2232Y970D01*
X2230Y970D01*
X2230Y971D01*
X2229Y971D01*
X2229Y972D01*
X2228Y972D01*
X2228Y976D01*
X2252Y976D01*
X2252Y977D01*
X2253Y977D01*
X2253Y978D01*
X2254Y978D01*
X2254Y982D01*
X2221Y982D01*
G37*
D02*
G36*
X2273Y1000D02*
X2273Y999D01*
X2272Y999D01*
X2272Y998D01*
X2271Y998D01*
X2271Y993D01*
X2278Y993D01*
X2278Y997D01*
X2277Y997D01*
X2277Y999D01*
X2275Y999D01*
X2275Y1000D01*
X2273Y1000D01*
G37*
D02*
G36*
X2286Y1000D02*
X2286Y999D01*
X2285Y999D01*
X2285Y998D01*
X2284Y998D01*
X2284Y997D01*
X2282Y997D01*
X2282Y996D01*
X2281Y996D01*
X2281Y995D01*
X2280Y995D01*
X2280Y994D01*
X2279Y994D01*
X2279Y993D01*
X2296Y993D01*
X2296Y992D01*
X2297Y992D01*
X2297Y986D01*
X2298Y986D01*
X2298Y985D01*
X2303Y985D01*
X2303Y987D01*
X2304Y987D01*
X2304Y992D01*
X2303Y992D01*
X2303Y994D01*
X2302Y994D01*
X2302Y996D01*
X2301Y996D01*
X2301Y997D01*
X2300Y997D01*
X2300Y998D01*
X2298Y998D01*
X2298Y999D01*
X2295Y999D01*
X2295Y1000D01*
X2286Y1000D01*
G37*
D02*
G36*
X2271Y993D02*
X2271Y992D01*
X2288Y992D01*
X2288Y993D01*
X2271Y993D01*
G37*
D02*
G36*
X2271Y993D02*
X2271Y992D01*
X2288Y992D01*
X2288Y993D01*
X2271Y993D01*
G37*
D02*
G36*
X2271Y992D02*
X2271Y964D01*
X2272Y964D01*
X2272Y963D01*
X2273Y963D01*
X2273Y962D01*
X2275Y962D01*
X2275Y963D01*
X2277Y963D01*
X2277Y965D01*
X2278Y965D01*
X2278Y984D01*
X2279Y984D01*
X2279Y985D01*
X2280Y985D01*
X2280Y986D01*
X2281Y986D01*
X2281Y987D01*
X2282Y987D01*
X2282Y988D01*
X2283Y988D01*
X2283Y989D01*
X2284Y989D01*
X2284Y990D01*
X2286Y990D01*
X2286Y991D01*
X2287Y991D01*
X2287Y992D01*
X2271Y992D01*
G37*
D02*
G36*
X2048Y1014D02*
X2048Y1013D01*
X2046Y1013D01*
X2046Y972D01*
X2045Y972D01*
X2045Y970D01*
X2044Y970D01*
X2044Y969D01*
X2052Y969D01*
X2052Y1012D01*
X2051Y1012D01*
X2051Y1013D01*
X2050Y1013D01*
X2050Y1014D01*
X2048Y1014D01*
G37*
D02*
G36*
X2028Y986D02*
X2028Y985D01*
X2027Y985D01*
X2027Y984D01*
X2026Y984D01*
X2026Y969D01*
X2034Y969D01*
X2034Y970D01*
X2033Y970D01*
X2033Y983D01*
X2032Y983D01*
X2032Y985D01*
X2030Y985D01*
X2030Y986D01*
X2028Y986D01*
G37*
D02*
G36*
X2027Y969D02*
X2027Y968D01*
X2051Y968D01*
X2051Y969D01*
X2027Y969D01*
G37*
D02*
G36*
X2027Y969D02*
X2027Y968D01*
X2051Y968D01*
X2051Y969D01*
X2027Y969D01*
G37*
D02*
G36*
X2027Y968D02*
X2027Y967D01*
X2028Y967D01*
X2028Y966D01*
X2029Y966D01*
X2029Y965D01*
X2030Y965D01*
X2030Y964D01*
X2031Y964D01*
X2031Y963D01*
X2034Y963D01*
X2034Y962D01*
X2044Y962D01*
X2044Y963D01*
X2047Y963D01*
X2047Y964D01*
X2049Y964D01*
X2049Y965D01*
X2050Y965D01*
X2050Y967D01*
X2051Y967D01*
X2051Y968D01*
X2027Y968D01*
G37*
D02*
G36*
X2342Y605D02*
X2342Y604D01*
X2341Y604D01*
X2341Y603D01*
X2340Y603D01*
X2340Y599D01*
X2341Y599D01*
X2341Y598D01*
X2366Y598D01*
X2366Y582D01*
X2343Y582D01*
X2343Y581D01*
X2342Y581D01*
X2342Y580D01*
X2341Y580D01*
X2341Y579D01*
X2340Y579D01*
X2340Y553D01*
X2370Y553D01*
X2370Y554D01*
X2372Y554D01*
X2372Y559D01*
X2371Y559D01*
X2371Y560D01*
X2346Y560D01*
X2346Y575D01*
X2347Y575D01*
X2347Y576D01*
X2369Y576D01*
X2369Y577D01*
X2370Y577D01*
X2370Y578D01*
X2371Y578D01*
X2371Y579D01*
X2372Y579D01*
X2372Y587D01*
X2373Y587D01*
X2373Y593D01*
X2372Y593D01*
X2372Y601D01*
X2371Y601D01*
X2371Y603D01*
X2369Y603D01*
X2369Y604D01*
X2367Y604D01*
X2367Y605D01*
X2342Y605D01*
G37*
D02*
G36*
X2316Y605D02*
X2316Y604D01*
X2314Y604D01*
X2314Y603D01*
X2313Y603D01*
X2313Y562D01*
X2312Y562D01*
X2312Y561D01*
X2311Y561D01*
X2311Y560D01*
X2319Y560D01*
X2319Y562D01*
X2320Y562D01*
X2320Y602D01*
X2319Y602D01*
X2319Y604D01*
X2317Y604D01*
X2317Y605D01*
X2316Y605D01*
G37*
D02*
G36*
X2296Y577D02*
X2296Y576D01*
X2294Y576D01*
X2294Y574D01*
X2293Y574D01*
X2293Y561D01*
X2294Y561D01*
X2294Y560D01*
X2301Y560D01*
X2301Y561D01*
X2300Y561D01*
X2300Y575D01*
X2299Y575D01*
X2299Y576D01*
X2298Y576D01*
X2298Y577D01*
X2296Y577D01*
G37*
D02*
G36*
X2294Y560D02*
X2294Y559D01*
X2319Y559D01*
X2319Y560D01*
X2294Y560D01*
G37*
D02*
G36*
X2294Y560D02*
X2294Y559D01*
X2319Y559D01*
X2319Y560D01*
X2294Y560D01*
G37*
D02*
G36*
X2295Y559D02*
X2295Y557D01*
X2296Y557D01*
X2296Y556D01*
X2297Y556D01*
X2297Y555D01*
X2298Y555D01*
X2298Y554D01*
X2301Y554D01*
X2301Y553D01*
X2312Y553D01*
X2312Y554D01*
X2314Y554D01*
X2314Y555D01*
X2316Y555D01*
X2316Y556D01*
X2317Y556D01*
X2317Y557D01*
X2318Y557D01*
X2318Y559D01*
X2295Y559D01*
G37*
D02*
G36*
X632Y534D02*
X632Y533D01*
X630Y533D01*
X630Y532D01*
X629Y532D01*
X629Y531D01*
X628Y531D01*
X628Y530D01*
X627Y530D01*
X627Y529D01*
X626Y529D01*
X626Y528D01*
X625Y528D01*
X625Y526D01*
X624Y526D01*
X624Y525D01*
X623Y525D01*
X623Y524D01*
X622Y524D01*
X622Y522D01*
X621Y522D01*
X621Y521D01*
X620Y521D01*
X620Y520D01*
X619Y520D01*
X619Y519D01*
X618Y519D01*
X618Y517D01*
X617Y517D01*
X617Y514D01*
X616Y514D01*
X616Y490D01*
X624Y490D01*
X624Y491D01*
X623Y491D01*
X623Y514D01*
X624Y514D01*
X624Y515D01*
X625Y515D01*
X625Y517D01*
X626Y517D01*
X626Y518D01*
X627Y518D01*
X627Y519D01*
X628Y519D01*
X628Y521D01*
X629Y521D01*
X629Y522D01*
X630Y522D01*
X630Y523D01*
X631Y523D01*
X631Y524D01*
X632Y524D01*
X632Y526D01*
X633Y526D01*
X633Y527D01*
X634Y527D01*
X634Y528D01*
X648Y528D01*
X648Y530D01*
X649Y530D01*
X649Y533D01*
X648Y533D01*
X648Y534D01*
X632Y534D01*
G37*
D02*
G36*
X633Y506D02*
X633Y504D01*
X632Y504D01*
X632Y502D01*
X633Y502D01*
X633Y501D01*
X634Y501D01*
X634Y500D01*
X642Y500D01*
X642Y491D01*
X641Y491D01*
X641Y490D01*
X649Y490D01*
X649Y506D01*
X633Y506D01*
G37*
D02*
G36*
X617Y490D02*
X617Y489D01*
X648Y489D01*
X648Y490D01*
X617Y490D01*
G37*
D02*
G36*
X617Y490D02*
X617Y489D01*
X648Y489D01*
X648Y490D01*
X617Y490D01*
G37*
D02*
G36*
X617Y489D02*
X617Y488D01*
X618Y488D01*
X618Y487D01*
X619Y487D01*
X619Y486D01*
X620Y486D01*
X620Y485D01*
X621Y485D01*
X621Y484D01*
X623Y484D01*
X623Y483D01*
X642Y483D01*
X642Y484D01*
X644Y484D01*
X644Y485D01*
X645Y485D01*
X645Y486D01*
X646Y486D01*
X646Y487D01*
X647Y487D01*
X647Y488D01*
X648Y488D01*
X648Y489D01*
X617Y489D01*
G37*
D02*
G36*
X667Y534D02*
X667Y533D01*
X666Y533D01*
X666Y529D01*
X667Y529D01*
X667Y528D01*
X679Y528D01*
X679Y490D01*
X685Y490D01*
X685Y534D01*
X667Y534D01*
G37*
D02*
G36*
X693Y506D02*
X693Y505D01*
X692Y505D01*
X692Y490D01*
X698Y490D01*
X698Y495D01*
X699Y495D01*
X699Y501D01*
X698Y501D01*
X698Y505D01*
X697Y505D01*
X697Y506D01*
X693Y506D01*
G37*
D02*
G36*
X668Y490D02*
X668Y489D01*
X698Y489D01*
X698Y490D01*
X668Y490D01*
G37*
D02*
G36*
X668Y490D02*
X668Y489D01*
X698Y489D01*
X698Y490D01*
X668Y490D01*
G37*
D02*
G36*
X667Y489D02*
X667Y488D01*
X666Y488D01*
X666Y484D01*
X667Y484D01*
X667Y483D01*
X697Y483D01*
X697Y484D01*
X698Y484D01*
X698Y489D01*
X667Y489D01*
G37*
D02*
G36*
X414Y523D02*
X414Y517D01*
X438Y517D01*
X438Y516D01*
X439Y516D01*
X439Y515D01*
X440Y515D01*
X440Y508D01*
X439Y508D01*
X439Y507D01*
X446Y507D01*
X446Y510D01*
X447Y510D01*
X447Y514D01*
X446Y514D01*
X446Y518D01*
X445Y518D01*
X445Y519D01*
X444Y519D01*
X444Y520D01*
X443Y520D01*
X443Y521D01*
X442Y521D01*
X442Y522D01*
X440Y522D01*
X440Y523D01*
X414Y523D01*
G37*
D02*
G36*
X414Y517D02*
X414Y507D01*
X420Y507D01*
X420Y516D01*
X421Y516D01*
X421Y517D01*
X414Y517D01*
G37*
D02*
G36*
X414Y507D02*
X414Y506D01*
X446Y506D01*
X446Y507D01*
X414Y507D01*
G37*
D02*
G36*
X414Y507D02*
X414Y506D01*
X446Y506D01*
X446Y507D01*
X414Y507D01*
G37*
D02*
G36*
X414Y506D02*
X414Y500D01*
X425Y500D01*
X425Y499D01*
X426Y499D01*
X426Y497D01*
X427Y497D01*
X427Y496D01*
X428Y496D01*
X428Y494D01*
X429Y494D01*
X429Y492D01*
X430Y492D01*
X430Y490D01*
X431Y490D01*
X431Y489D01*
X432Y489D01*
X432Y487D01*
X433Y487D01*
X433Y485D01*
X434Y485D01*
X434Y484D01*
X435Y484D01*
X435Y482D01*
X436Y482D01*
X436Y480D01*
X437Y480D01*
X437Y478D01*
X438Y478D01*
X438Y477D01*
X439Y477D01*
X439Y475D01*
X440Y475D01*
X440Y473D01*
X441Y473D01*
X441Y472D01*
X445Y472D01*
X445Y473D01*
X446Y473D01*
X446Y478D01*
X445Y478D01*
X445Y480D01*
X444Y480D01*
X444Y481D01*
X443Y481D01*
X443Y483D01*
X442Y483D01*
X442Y485D01*
X441Y485D01*
X441Y486D01*
X440Y486D01*
X440Y488D01*
X439Y488D01*
X439Y490D01*
X438Y490D01*
X438Y492D01*
X437Y492D01*
X437Y493D01*
X436Y493D01*
X436Y495D01*
X435Y495D01*
X435Y497D01*
X434Y497D01*
X434Y498D01*
X433Y498D01*
X433Y500D01*
X440Y500D01*
X440Y501D01*
X442Y501D01*
X442Y502D01*
X443Y502D01*
X443Y503D01*
X444Y503D01*
X444Y504D01*
X445Y504D01*
X445Y506D01*
X414Y506D01*
G37*
D02*
G36*
X414Y500D02*
X414Y473D01*
X415Y473D01*
X415Y472D01*
X419Y472D01*
X419Y473D01*
X420Y473D01*
X420Y500D01*
X414Y500D01*
G37*
D02*
G36*
X465Y523D02*
X465Y522D01*
X464Y522D01*
X464Y521D01*
X463Y521D01*
X463Y519D01*
X464Y519D01*
X464Y518D01*
X465Y518D01*
X465Y517D01*
X476Y517D01*
X476Y479D01*
X483Y479D01*
X483Y523D01*
X465Y523D01*
G37*
D02*
G36*
X491Y495D02*
X491Y494D01*
X490Y494D01*
X490Y479D01*
X496Y479D01*
X496Y494D01*
X495Y494D01*
X495Y495D01*
X491Y495D01*
G37*
D02*
G36*
X466Y479D02*
X466Y478D01*
X496Y478D01*
X496Y479D01*
X466Y479D01*
G37*
D02*
G36*
X466Y479D02*
X466Y478D01*
X496Y478D01*
X496Y479D01*
X466Y479D01*
G37*
D02*
G36*
X464Y478D02*
X464Y476D01*
X463Y476D01*
X463Y474D01*
X464Y474D01*
X464Y473D01*
X465Y473D01*
X465Y472D01*
X495Y472D01*
X495Y473D01*
X496Y473D01*
X496Y478D01*
X464Y478D01*
G37*
D02*
G04 End of Silk1*
M02*