G04 MADE WITH FRITZING*
G04 WWW.FRITZING.ORG*
G04 SINGLE SIDED*
G04 HOLES NOT PLATED*
G04 CONTOUR ON CENTER OF CONTOUR VECTOR*
%ASAXBY*%
%FSLAX23Y23*%
%MOIN*%
%OFA0B0*%
%SFA1.0B1.0*%
%ADD10C,0.075000*%
%ADD11C,0.080000*%
%ADD12C,0.078000*%
%ADD13R,0.080000X0.080000*%
%ADD14R,0.075000X0.075000*%
%ADD15R,0.078000X0.078000*%
%ADD16C,0.048000*%
%LNCOPPER0*%
G90*
G70*
G54D10*
X1579Y1993D03*
X783Y1858D03*
X1079Y1732D03*
X1176Y1329D03*
X1877Y1645D03*
X777Y816D03*
X1576Y2330D03*
G54D11*
X1950Y270D03*
X2147Y270D03*
X453Y870D03*
X256Y870D03*
G54D10*
X1050Y1267D03*
X1050Y967D03*
X950Y1267D03*
X950Y967D03*
X850Y1267D03*
X850Y967D03*
X750Y1267D03*
X750Y967D03*
G54D12*
X453Y370D03*
X453Y270D03*
X453Y170D03*
X2050Y1667D03*
X2050Y1767D03*
X2050Y1867D03*
X650Y370D03*
G54D10*
X1453Y1370D03*
X1453Y970D03*
X1150Y1467D03*
X1150Y1867D03*
X1050Y1467D03*
X1050Y1867D03*
X1450Y1867D03*
X1350Y1867D03*
X1350Y1567D03*
X1750Y1567D03*
X2150Y1067D03*
X2150Y1467D03*
X1950Y1067D03*
X1950Y1467D03*
X1950Y670D03*
X1953Y870D03*
X2350Y1870D03*
X2350Y1470D03*
G54D12*
X1653Y1870D03*
G54D13*
X1950Y270D03*
X453Y870D03*
G54D14*
X1050Y1267D03*
G54D15*
X453Y370D03*
X2050Y1667D03*
G54D14*
X1453Y1370D03*
X1150Y1467D03*
X1050Y1467D03*
X1450Y1867D03*
X1350Y1567D03*
X2150Y1067D03*
X1950Y1067D03*
X2350Y1870D03*
G54D16*
X256Y170D02*
X416Y170D01*
D02*
X256Y833D02*
X256Y170D01*
D02*
X490Y370D02*
X613Y370D01*
D02*
X1050Y767D02*
X1050Y931D01*
D02*
X1050Y167D02*
X1050Y767D01*
D02*
X490Y170D02*
X1050Y167D01*
D02*
X1303Y1370D02*
X1417Y1370D01*
D02*
X1303Y1120D02*
X1303Y1370D01*
D02*
X850Y1120D02*
X1303Y1120D01*
D02*
X850Y1231D02*
X850Y1120D01*
D02*
X1050Y1431D02*
X1050Y1303D01*
D02*
X1114Y1467D02*
X1086Y1467D01*
D02*
X950Y1867D02*
X950Y1303D01*
D02*
X1014Y1867D02*
X950Y1867D01*
D02*
X1186Y1867D02*
X1314Y1867D01*
D02*
X950Y1567D02*
X950Y1867D01*
D02*
X1314Y1567D02*
X950Y1567D01*
D02*
X1653Y1070D02*
X1914Y1067D01*
D02*
X1485Y986D02*
X1653Y1070D01*
D02*
X2050Y1067D02*
X2114Y1067D01*
D02*
X2050Y1467D02*
X2050Y1067D01*
D02*
X1986Y1467D02*
X2050Y1467D01*
D02*
X1750Y1767D02*
X2013Y1767D01*
D02*
X1750Y1603D02*
X1750Y1767D01*
D02*
X2150Y1667D02*
X2087Y1667D01*
D02*
X2150Y1503D02*
X2150Y1667D01*
D02*
X2150Y767D02*
X1050Y767D01*
D02*
X2150Y1031D02*
X2150Y767D01*
D02*
X1951Y1031D02*
X1953Y906D01*
D02*
X1950Y634D02*
X1950Y307D01*
D02*
X2087Y1867D02*
X2314Y1869D01*
D02*
X2353Y570D02*
X2350Y270D01*
D02*
X2350Y1434D02*
X2353Y570D01*
D02*
X2350Y270D02*
X2184Y270D01*
D02*
X653Y1270D02*
X714Y1268D01*
D02*
X650Y407D02*
X653Y1270D01*
D02*
X653Y2070D02*
X653Y1270D01*
D02*
X1453Y2070D02*
X653Y2070D01*
D02*
X1451Y1903D02*
X1453Y2070D01*
D02*
X1753Y1970D02*
X1453Y2270D01*
D02*
X2553Y1970D02*
X1753Y1970D01*
D02*
X1453Y2270D02*
X653Y2270D01*
D02*
X2147Y170D02*
X2553Y170D01*
D02*
X2553Y170D02*
X2553Y1970D01*
D02*
X653Y2270D02*
X653Y2070D01*
D02*
X2147Y233D02*
X2147Y170D01*
D02*
X453Y833D02*
X453Y407D01*
D02*
X1653Y1670D02*
X1653Y1833D01*
D02*
X1353Y1670D02*
X1653Y1670D01*
D02*
X1351Y1831D02*
X1353Y1670D01*
G36*
X710Y2215D02*
X710Y2127D01*
X1464Y2127D01*
X1464Y2125D01*
X1474Y2125D01*
X1474Y2123D01*
X1516Y2123D01*
X1516Y2125D01*
X1514Y2125D01*
X1514Y2127D01*
X1512Y2127D01*
X1512Y2129D01*
X1510Y2129D01*
X1510Y2131D01*
X1508Y2131D01*
X1508Y2133D01*
X1506Y2133D01*
X1506Y2135D01*
X1504Y2135D01*
X1504Y2137D01*
X1502Y2137D01*
X1502Y2139D01*
X1500Y2139D01*
X1500Y2141D01*
X1498Y2141D01*
X1498Y2143D01*
X1496Y2143D01*
X1496Y2145D01*
X1494Y2145D01*
X1494Y2147D01*
X1492Y2147D01*
X1492Y2149D01*
X1490Y2149D01*
X1490Y2151D01*
X1488Y2151D01*
X1488Y2153D01*
X1486Y2153D01*
X1486Y2155D01*
X1484Y2155D01*
X1484Y2157D01*
X1482Y2157D01*
X1482Y2159D01*
X1480Y2159D01*
X1480Y2161D01*
X1478Y2161D01*
X1478Y2163D01*
X1476Y2163D01*
X1476Y2165D01*
X1474Y2165D01*
X1474Y2167D01*
X1472Y2167D01*
X1472Y2169D01*
X1470Y2169D01*
X1470Y2171D01*
X1468Y2171D01*
X1468Y2173D01*
X1466Y2173D01*
X1466Y2175D01*
X1464Y2175D01*
X1464Y2177D01*
X1462Y2177D01*
X1462Y2179D01*
X1460Y2179D01*
X1460Y2181D01*
X1458Y2181D01*
X1458Y2183D01*
X1456Y2183D01*
X1456Y2185D01*
X1454Y2185D01*
X1454Y2187D01*
X1452Y2187D01*
X1452Y2189D01*
X1450Y2189D01*
X1450Y2191D01*
X1448Y2191D01*
X1448Y2193D01*
X1446Y2193D01*
X1446Y2195D01*
X1444Y2195D01*
X1444Y2197D01*
X1442Y2197D01*
X1442Y2199D01*
X1440Y2199D01*
X1440Y2201D01*
X1438Y2201D01*
X1438Y2203D01*
X1436Y2203D01*
X1436Y2205D01*
X1434Y2205D01*
X1434Y2207D01*
X1432Y2207D01*
X1432Y2209D01*
X1430Y2209D01*
X1430Y2211D01*
X1428Y2211D01*
X1428Y2213D01*
X1426Y2213D01*
X1426Y2215D01*
X710Y2215D01*
G37*
D02*
G36*
X1506Y2095D02*
X1506Y2091D01*
X1508Y2091D01*
X1508Y2081D01*
X1510Y2081D01*
X1510Y2055D01*
X1508Y2055D01*
X1508Y1937D01*
X1520Y1937D01*
X1520Y1797D01*
X1408Y1797D01*
X1408Y1727D01*
X1598Y1727D01*
X1598Y1801D01*
X1584Y1801D01*
X1584Y1939D01*
X1700Y1939D01*
X1700Y1941D01*
X1698Y1941D01*
X1698Y1943D01*
X1696Y1943D01*
X1696Y1945D01*
X1694Y1945D01*
X1694Y1947D01*
X1692Y1947D01*
X1692Y1949D01*
X1690Y1949D01*
X1690Y1951D01*
X1688Y1951D01*
X1688Y1953D01*
X1686Y1953D01*
X1686Y1955D01*
X1684Y1955D01*
X1684Y1957D01*
X1682Y1957D01*
X1682Y1959D01*
X1680Y1959D01*
X1680Y1961D01*
X1678Y1961D01*
X1678Y1963D01*
X1676Y1963D01*
X1676Y1965D01*
X1674Y1965D01*
X1674Y1967D01*
X1672Y1967D01*
X1672Y1969D01*
X1670Y1969D01*
X1670Y1971D01*
X1668Y1971D01*
X1668Y1973D01*
X1666Y1973D01*
X1666Y1975D01*
X1664Y1975D01*
X1664Y1977D01*
X1662Y1977D01*
X1662Y1979D01*
X1660Y1979D01*
X1660Y1981D01*
X1658Y1981D01*
X1658Y1983D01*
X1656Y1983D01*
X1656Y1985D01*
X1654Y1985D01*
X1654Y1987D01*
X1652Y1987D01*
X1652Y1989D01*
X1650Y1989D01*
X1650Y1991D01*
X1648Y1991D01*
X1648Y1993D01*
X1646Y1993D01*
X1646Y1995D01*
X1644Y1995D01*
X1644Y1997D01*
X1642Y1997D01*
X1642Y1999D01*
X1640Y1999D01*
X1640Y2001D01*
X1638Y2001D01*
X1638Y2003D01*
X1636Y2003D01*
X1636Y2005D01*
X1634Y2005D01*
X1634Y2007D01*
X1632Y2007D01*
X1632Y2009D01*
X1630Y2009D01*
X1630Y2011D01*
X1628Y2011D01*
X1628Y2013D01*
X1626Y2013D01*
X1626Y2015D01*
X1624Y2015D01*
X1624Y2017D01*
X1622Y2017D01*
X1622Y2019D01*
X1620Y2019D01*
X1620Y2021D01*
X1618Y2021D01*
X1618Y2023D01*
X1616Y2023D01*
X1616Y2025D01*
X1614Y2025D01*
X1614Y2027D01*
X1612Y2027D01*
X1612Y2029D01*
X1610Y2029D01*
X1610Y2031D01*
X1608Y2031D01*
X1608Y2033D01*
X1606Y2033D01*
X1606Y2035D01*
X1604Y2035D01*
X1604Y2037D01*
X1602Y2037D01*
X1602Y2039D01*
X1600Y2039D01*
X1600Y2041D01*
X1598Y2041D01*
X1598Y2043D01*
X1596Y2043D01*
X1596Y2045D01*
X1594Y2045D01*
X1594Y2047D01*
X1592Y2047D01*
X1592Y2049D01*
X1590Y2049D01*
X1590Y2051D01*
X1588Y2051D01*
X1588Y2053D01*
X1586Y2053D01*
X1586Y2055D01*
X1584Y2055D01*
X1584Y2057D01*
X1582Y2057D01*
X1582Y2059D01*
X1580Y2059D01*
X1580Y2061D01*
X1578Y2061D01*
X1578Y2063D01*
X1576Y2063D01*
X1576Y2065D01*
X1574Y2065D01*
X1574Y2067D01*
X1572Y2067D01*
X1572Y2069D01*
X1570Y2069D01*
X1570Y2071D01*
X1568Y2071D01*
X1568Y2073D01*
X1566Y2073D01*
X1566Y2075D01*
X1564Y2075D01*
X1564Y2077D01*
X1562Y2077D01*
X1562Y2079D01*
X1560Y2079D01*
X1560Y2081D01*
X1558Y2081D01*
X1558Y2083D01*
X1556Y2083D01*
X1556Y2085D01*
X1554Y2085D01*
X1554Y2087D01*
X1552Y2087D01*
X1552Y2089D01*
X1550Y2089D01*
X1550Y2091D01*
X1548Y2091D01*
X1548Y2093D01*
X1546Y2093D01*
X1546Y2095D01*
X1506Y2095D01*
G37*
D02*
G36*
X710Y2015D02*
X710Y1937D01*
X1164Y1937D01*
X1164Y1935D01*
X1172Y1935D01*
X1172Y1933D01*
X1176Y1933D01*
X1176Y1931D01*
X1182Y1931D01*
X1182Y1929D01*
X1184Y1929D01*
X1184Y1927D01*
X1188Y1927D01*
X1188Y1925D01*
X1190Y1925D01*
X1190Y1923D01*
X1310Y1923D01*
X1310Y1925D01*
X1312Y1925D01*
X1312Y1927D01*
X1316Y1927D01*
X1316Y1929D01*
X1318Y1929D01*
X1318Y1931D01*
X1324Y1931D01*
X1324Y1933D01*
X1328Y1933D01*
X1328Y1935D01*
X1336Y1935D01*
X1336Y1937D01*
X1394Y1937D01*
X1394Y1939D01*
X1396Y1939D01*
X1396Y2015D01*
X710Y2015D01*
G37*
D02*
G36*
X710Y1937D02*
X710Y1337D01*
X764Y1337D01*
X764Y1335D01*
X772Y1335D01*
X772Y1333D01*
X776Y1333D01*
X776Y1331D01*
X824Y1331D01*
X824Y1333D01*
X828Y1333D01*
X828Y1335D01*
X836Y1335D01*
X836Y1337D01*
X894Y1337D01*
X894Y1885D01*
X896Y1885D01*
X896Y1891D01*
X898Y1891D01*
X898Y1895D01*
X900Y1895D01*
X900Y1899D01*
X902Y1899D01*
X902Y1903D01*
X904Y1903D01*
X904Y1905D01*
X906Y1905D01*
X906Y1907D01*
X908Y1907D01*
X908Y1909D01*
X910Y1909D01*
X910Y1911D01*
X912Y1911D01*
X912Y1913D01*
X914Y1913D01*
X914Y1915D01*
X918Y1915D01*
X918Y1917D01*
X922Y1917D01*
X922Y1919D01*
X926Y1919D01*
X926Y1921D01*
X934Y1921D01*
X934Y1923D01*
X1010Y1923D01*
X1010Y1925D01*
X1012Y1925D01*
X1012Y1927D01*
X1016Y1927D01*
X1016Y1929D01*
X1018Y1929D01*
X1018Y1931D01*
X1024Y1931D01*
X1024Y1933D01*
X1028Y1933D01*
X1028Y1935D01*
X1036Y1935D01*
X1036Y1937D01*
X710Y1937D01*
G37*
D02*
G36*
X1064Y1937D02*
X1064Y1935D01*
X1072Y1935D01*
X1072Y1933D01*
X1076Y1933D01*
X1076Y1931D01*
X1124Y1931D01*
X1124Y1933D01*
X1128Y1933D01*
X1128Y1935D01*
X1136Y1935D01*
X1136Y1937D01*
X1064Y1937D01*
G37*
D02*
G36*
X1722Y1915D02*
X1722Y1823D01*
X1994Y1823D01*
X1994Y1827D01*
X1992Y1827D01*
X1992Y1829D01*
X1990Y1829D01*
X1990Y1833D01*
X1988Y1833D01*
X1988Y1835D01*
X1986Y1835D01*
X1986Y1839D01*
X1984Y1839D01*
X1984Y1845D01*
X1982Y1845D01*
X1982Y1853D01*
X1980Y1853D01*
X1980Y1881D01*
X1982Y1881D01*
X1982Y1889D01*
X1984Y1889D01*
X1984Y1895D01*
X1986Y1895D01*
X1986Y1899D01*
X1988Y1899D01*
X1988Y1901D01*
X1990Y1901D01*
X1990Y1905D01*
X1992Y1905D01*
X1992Y1907D01*
X1994Y1907D01*
X1994Y1911D01*
X1996Y1911D01*
X1996Y1913D01*
X1998Y1913D01*
X1998Y1915D01*
X1722Y1915D01*
G37*
D02*
G36*
X1190Y1811D02*
X1190Y1809D01*
X1188Y1809D01*
X1188Y1807D01*
X1184Y1807D01*
X1184Y1805D01*
X1180Y1805D01*
X1180Y1803D01*
X1176Y1803D01*
X1176Y1801D01*
X1172Y1801D01*
X1172Y1799D01*
X1164Y1799D01*
X1164Y1797D01*
X1294Y1797D01*
X1294Y1811D01*
X1190Y1811D01*
G37*
D02*
G36*
X1076Y1803D02*
X1076Y1801D01*
X1072Y1801D01*
X1072Y1799D01*
X1064Y1799D01*
X1064Y1797D01*
X1136Y1797D01*
X1136Y1799D01*
X1128Y1799D01*
X1128Y1801D01*
X1124Y1801D01*
X1124Y1803D01*
X1076Y1803D01*
G37*
D02*
G36*
X1006Y1797D02*
X1006Y1795D01*
X1294Y1795D01*
X1294Y1797D01*
X1006Y1797D01*
G37*
D02*
G36*
X1006Y1797D02*
X1006Y1795D01*
X1294Y1795D01*
X1294Y1797D01*
X1006Y1797D01*
G37*
D02*
G36*
X1006Y1795D02*
X1006Y1623D01*
X1280Y1623D01*
X1280Y1637D01*
X1304Y1637D01*
X1304Y1639D01*
X1302Y1639D01*
X1302Y1645D01*
X1300Y1645D01*
X1300Y1649D01*
X1298Y1649D01*
X1298Y1669D01*
X1296Y1669D01*
X1296Y1795D01*
X1006Y1795D01*
G37*
D02*
G36*
X1106Y1397D02*
X1106Y1337D01*
X1120Y1337D01*
X1120Y1197D01*
X906Y1197D01*
X906Y1177D01*
X1248Y1177D01*
X1248Y1391D01*
X1250Y1391D01*
X1250Y1397D01*
X1106Y1397D01*
G37*
D02*
G36*
X1806Y1711D02*
X1806Y1607D01*
X1808Y1607D01*
X1808Y1605D01*
X1810Y1605D01*
X1810Y1601D01*
X1812Y1601D01*
X1812Y1597D01*
X1814Y1597D01*
X1814Y1593D01*
X1816Y1593D01*
X1816Y1589D01*
X1818Y1589D01*
X1818Y1581D01*
X1820Y1581D01*
X1820Y1553D01*
X1818Y1553D01*
X1818Y1545D01*
X1816Y1545D01*
X1816Y1541D01*
X1814Y1541D01*
X1814Y1537D01*
X1964Y1537D01*
X1964Y1535D01*
X1972Y1535D01*
X1972Y1533D01*
X1976Y1533D01*
X1976Y1531D01*
X1982Y1531D01*
X1982Y1529D01*
X1984Y1529D01*
X1984Y1527D01*
X1988Y1527D01*
X1988Y1525D01*
X1990Y1525D01*
X1990Y1523D01*
X2094Y1523D01*
X2094Y1597D01*
X1980Y1597D01*
X1980Y1711D01*
X1806Y1711D01*
G37*
D02*
G36*
X1420Y1615D02*
X1420Y1497D01*
X1736Y1497D01*
X1736Y1499D01*
X1728Y1499D01*
X1728Y1501D01*
X1724Y1501D01*
X1724Y1503D01*
X1718Y1503D01*
X1718Y1505D01*
X1716Y1505D01*
X1716Y1507D01*
X1712Y1507D01*
X1712Y1509D01*
X1710Y1509D01*
X1710Y1511D01*
X1706Y1511D01*
X1706Y1513D01*
X1704Y1513D01*
X1704Y1515D01*
X1702Y1515D01*
X1702Y1517D01*
X1700Y1517D01*
X1700Y1519D01*
X1698Y1519D01*
X1698Y1521D01*
X1696Y1521D01*
X1696Y1523D01*
X1694Y1523D01*
X1694Y1527D01*
X1692Y1527D01*
X1692Y1529D01*
X1690Y1529D01*
X1690Y1533D01*
X1688Y1533D01*
X1688Y1535D01*
X1686Y1535D01*
X1686Y1539D01*
X1684Y1539D01*
X1684Y1545D01*
X1682Y1545D01*
X1682Y1553D01*
X1680Y1553D01*
X1680Y1581D01*
X1682Y1581D01*
X1682Y1589D01*
X1684Y1589D01*
X1684Y1595D01*
X1686Y1595D01*
X1686Y1599D01*
X1688Y1599D01*
X1688Y1601D01*
X1690Y1601D01*
X1690Y1605D01*
X1692Y1605D01*
X1692Y1607D01*
X1694Y1607D01*
X1694Y1615D01*
X1420Y1615D01*
G37*
D02*
G36*
X1812Y1537D02*
X1812Y1533D01*
X1810Y1533D01*
X1810Y1529D01*
X1808Y1529D01*
X1808Y1527D01*
X1806Y1527D01*
X1806Y1523D01*
X1804Y1523D01*
X1804Y1521D01*
X1802Y1521D01*
X1802Y1519D01*
X1800Y1519D01*
X1800Y1517D01*
X1798Y1517D01*
X1798Y1515D01*
X1796Y1515D01*
X1796Y1513D01*
X1794Y1513D01*
X1794Y1511D01*
X1790Y1511D01*
X1790Y1509D01*
X1788Y1509D01*
X1788Y1507D01*
X1784Y1507D01*
X1784Y1505D01*
X1780Y1505D01*
X1780Y1503D01*
X1776Y1503D01*
X1776Y1501D01*
X1772Y1501D01*
X1772Y1499D01*
X1764Y1499D01*
X1764Y1497D01*
X1886Y1497D01*
X1886Y1499D01*
X1888Y1499D01*
X1888Y1501D01*
X1890Y1501D01*
X1890Y1505D01*
X1892Y1505D01*
X1892Y1507D01*
X1894Y1507D01*
X1894Y1511D01*
X1896Y1511D01*
X1896Y1513D01*
X1898Y1513D01*
X1898Y1515D01*
X1900Y1515D01*
X1900Y1517D01*
X1902Y1517D01*
X1902Y1519D01*
X1904Y1519D01*
X1904Y1521D01*
X1906Y1521D01*
X1906Y1523D01*
X1910Y1523D01*
X1910Y1525D01*
X1912Y1525D01*
X1912Y1527D01*
X1916Y1527D01*
X1916Y1529D01*
X1918Y1529D01*
X1918Y1531D01*
X1924Y1531D01*
X1924Y1533D01*
X1928Y1533D01*
X1928Y1535D01*
X1936Y1535D01*
X1936Y1537D01*
X1812Y1537D01*
G37*
D02*
G36*
X1220Y1511D02*
X1220Y1497D01*
X1280Y1497D01*
X1280Y1511D01*
X1220Y1511D01*
G37*
D02*
G36*
X1220Y1497D02*
X1220Y1495D01*
X1886Y1495D01*
X1886Y1497D01*
X1220Y1497D01*
G37*
D02*
G36*
X1220Y1497D02*
X1220Y1495D01*
X1886Y1495D01*
X1886Y1497D01*
X1220Y1497D01*
G37*
D02*
G36*
X1220Y1497D02*
X1220Y1495D01*
X1886Y1495D01*
X1886Y1497D01*
X1220Y1497D01*
G37*
D02*
G36*
X1220Y1495D02*
X1220Y1439D01*
X1522Y1439D01*
X1522Y1301D01*
X1360Y1301D01*
X1360Y1127D01*
X1676Y1127D01*
X1676Y1125D01*
X1880Y1125D01*
X1880Y1137D01*
X1994Y1137D01*
X1994Y1397D01*
X1936Y1397D01*
X1936Y1399D01*
X1928Y1399D01*
X1928Y1401D01*
X1924Y1401D01*
X1924Y1403D01*
X1918Y1403D01*
X1918Y1405D01*
X1916Y1405D01*
X1916Y1407D01*
X1912Y1407D01*
X1912Y1409D01*
X1910Y1409D01*
X1910Y1411D01*
X1906Y1411D01*
X1906Y1413D01*
X1904Y1413D01*
X1904Y1415D01*
X1902Y1415D01*
X1902Y1417D01*
X1900Y1417D01*
X1900Y1419D01*
X1898Y1419D01*
X1898Y1421D01*
X1896Y1421D01*
X1896Y1423D01*
X1894Y1423D01*
X1894Y1427D01*
X1892Y1427D01*
X1892Y1429D01*
X1890Y1429D01*
X1890Y1433D01*
X1888Y1433D01*
X1888Y1435D01*
X1886Y1435D01*
X1886Y1439D01*
X1884Y1439D01*
X1884Y1445D01*
X1882Y1445D01*
X1882Y1453D01*
X1880Y1453D01*
X1880Y1481D01*
X1882Y1481D01*
X1882Y1489D01*
X1884Y1489D01*
X1884Y1495D01*
X1220Y1495D01*
G37*
D02*
G36*
X1220Y1439D02*
X1220Y1409D01*
X1260Y1409D01*
X1260Y1411D01*
X1262Y1411D01*
X1262Y1413D01*
X1264Y1413D01*
X1264Y1415D01*
X1266Y1415D01*
X1266Y1417D01*
X1270Y1417D01*
X1270Y1419D01*
X1272Y1419D01*
X1272Y1421D01*
X1276Y1421D01*
X1276Y1423D01*
X1282Y1423D01*
X1282Y1425D01*
X1292Y1425D01*
X1292Y1427D01*
X1384Y1427D01*
X1384Y1439D01*
X1220Y1439D01*
G37*
D02*
G36*
X708Y1197D02*
X708Y1065D01*
X830Y1065D01*
X830Y1067D01*
X824Y1067D01*
X824Y1069D01*
X820Y1069D01*
X820Y1071D01*
X816Y1071D01*
X816Y1073D01*
X814Y1073D01*
X814Y1075D01*
X812Y1075D01*
X812Y1077D01*
X808Y1077D01*
X808Y1079D01*
X806Y1079D01*
X806Y1083D01*
X804Y1083D01*
X804Y1085D01*
X802Y1085D01*
X802Y1087D01*
X800Y1087D01*
X800Y1091D01*
X798Y1091D01*
X798Y1097D01*
X796Y1097D01*
X796Y1103D01*
X794Y1103D01*
X794Y1197D01*
X708Y1197D01*
G37*
D02*
G36*
X1360Y1127D02*
X1360Y1109D01*
X1358Y1109D01*
X1358Y1099D01*
X1356Y1099D01*
X1356Y1093D01*
X1354Y1093D01*
X1354Y1089D01*
X1352Y1089D01*
X1352Y1087D01*
X1350Y1087D01*
X1350Y1083D01*
X1348Y1083D01*
X1348Y1081D01*
X1346Y1081D01*
X1346Y1079D01*
X1344Y1079D01*
X1344Y1077D01*
X1342Y1077D01*
X1342Y1075D01*
X1340Y1075D01*
X1340Y1073D01*
X1336Y1073D01*
X1336Y1071D01*
X1334Y1071D01*
X1334Y1069D01*
X1330Y1069D01*
X1330Y1067D01*
X1324Y1067D01*
X1324Y1065D01*
X1514Y1065D01*
X1514Y1067D01*
X1518Y1067D01*
X1518Y1069D01*
X1522Y1069D01*
X1522Y1071D01*
X1526Y1071D01*
X1526Y1073D01*
X1530Y1073D01*
X1530Y1075D01*
X1534Y1075D01*
X1534Y1077D01*
X1538Y1077D01*
X1538Y1079D01*
X1542Y1079D01*
X1542Y1081D01*
X1546Y1081D01*
X1546Y1083D01*
X1550Y1083D01*
X1550Y1085D01*
X1554Y1085D01*
X1554Y1087D01*
X1558Y1087D01*
X1558Y1089D01*
X1562Y1089D01*
X1562Y1091D01*
X1566Y1091D01*
X1566Y1093D01*
X1570Y1093D01*
X1570Y1095D01*
X1574Y1095D01*
X1574Y1097D01*
X1578Y1097D01*
X1578Y1099D01*
X1582Y1099D01*
X1582Y1101D01*
X1586Y1101D01*
X1586Y1103D01*
X1590Y1103D01*
X1590Y1105D01*
X1594Y1105D01*
X1594Y1107D01*
X1598Y1107D01*
X1598Y1109D01*
X1602Y1109D01*
X1602Y1111D01*
X1606Y1111D01*
X1606Y1113D01*
X1610Y1113D01*
X1610Y1115D01*
X1614Y1115D01*
X1614Y1117D01*
X1618Y1117D01*
X1618Y1119D01*
X1622Y1119D01*
X1622Y1121D01*
X1626Y1121D01*
X1626Y1123D01*
X1632Y1123D01*
X1632Y1125D01*
X1642Y1125D01*
X1642Y1127D01*
X1360Y1127D01*
G37*
D02*
G36*
X708Y1065D02*
X708Y1063D01*
X1510Y1063D01*
X1510Y1065D01*
X708Y1065D01*
G37*
D02*
G36*
X708Y1065D02*
X708Y1063D01*
X1510Y1063D01*
X1510Y1065D01*
X708Y1065D01*
G37*
D02*
G36*
X708Y1063D02*
X708Y1037D01*
X1064Y1037D01*
X1064Y1035D01*
X1072Y1035D01*
X1072Y1033D01*
X1076Y1033D01*
X1076Y1031D01*
X1082Y1031D01*
X1082Y1029D01*
X1084Y1029D01*
X1084Y1027D01*
X1088Y1027D01*
X1088Y1025D01*
X1090Y1025D01*
X1090Y1023D01*
X1094Y1023D01*
X1094Y1021D01*
X1096Y1021D01*
X1096Y1019D01*
X1098Y1019D01*
X1098Y1017D01*
X1100Y1017D01*
X1100Y1015D01*
X1102Y1015D01*
X1102Y1013D01*
X1104Y1013D01*
X1104Y1011D01*
X1106Y1011D01*
X1106Y1007D01*
X1108Y1007D01*
X1108Y1005D01*
X1110Y1005D01*
X1110Y1001D01*
X1112Y1001D01*
X1112Y997D01*
X1114Y997D01*
X1114Y993D01*
X1116Y993D01*
X1116Y989D01*
X1118Y989D01*
X1118Y981D01*
X1120Y981D01*
X1120Y953D01*
X1118Y953D01*
X1118Y945D01*
X1116Y945D01*
X1116Y941D01*
X1114Y941D01*
X1114Y937D01*
X1112Y937D01*
X1112Y933D01*
X1110Y933D01*
X1110Y929D01*
X1108Y929D01*
X1108Y927D01*
X1106Y927D01*
X1106Y901D01*
X1436Y901D01*
X1436Y903D01*
X1430Y903D01*
X1430Y905D01*
X1424Y905D01*
X1424Y907D01*
X1420Y907D01*
X1420Y909D01*
X1418Y909D01*
X1418Y911D01*
X1414Y911D01*
X1414Y913D01*
X1412Y913D01*
X1412Y915D01*
X1408Y915D01*
X1408Y917D01*
X1406Y917D01*
X1406Y919D01*
X1404Y919D01*
X1404Y921D01*
X1402Y921D01*
X1402Y923D01*
X1400Y923D01*
X1400Y925D01*
X1398Y925D01*
X1398Y929D01*
X1396Y929D01*
X1396Y931D01*
X1394Y931D01*
X1394Y935D01*
X1392Y935D01*
X1392Y937D01*
X1390Y937D01*
X1390Y941D01*
X1388Y941D01*
X1388Y945D01*
X1386Y945D01*
X1386Y953D01*
X1384Y953D01*
X1384Y989D01*
X1386Y989D01*
X1386Y995D01*
X1388Y995D01*
X1388Y999D01*
X1390Y999D01*
X1390Y1003D01*
X1392Y1003D01*
X1392Y1007D01*
X1394Y1007D01*
X1394Y1009D01*
X1396Y1009D01*
X1396Y1011D01*
X1398Y1011D01*
X1398Y1015D01*
X1400Y1015D01*
X1400Y1017D01*
X1402Y1017D01*
X1402Y1019D01*
X1404Y1019D01*
X1404Y1021D01*
X1406Y1021D01*
X1406Y1023D01*
X1408Y1023D01*
X1408Y1025D01*
X1412Y1025D01*
X1412Y1027D01*
X1414Y1027D01*
X1414Y1029D01*
X1416Y1029D01*
X1416Y1031D01*
X1420Y1031D01*
X1420Y1033D01*
X1424Y1033D01*
X1424Y1035D01*
X1428Y1035D01*
X1428Y1037D01*
X1434Y1037D01*
X1434Y1039D01*
X1462Y1039D01*
X1462Y1041D01*
X1466Y1041D01*
X1466Y1043D01*
X1470Y1043D01*
X1470Y1045D01*
X1474Y1045D01*
X1474Y1047D01*
X1478Y1047D01*
X1478Y1049D01*
X1482Y1049D01*
X1482Y1051D01*
X1486Y1051D01*
X1486Y1053D01*
X1490Y1053D01*
X1490Y1055D01*
X1494Y1055D01*
X1494Y1057D01*
X1498Y1057D01*
X1498Y1059D01*
X1502Y1059D01*
X1502Y1061D01*
X1506Y1061D01*
X1506Y1063D01*
X708Y1063D01*
G37*
D02*
G36*
X764Y1037D02*
X764Y1035D01*
X772Y1035D01*
X772Y1033D01*
X776Y1033D01*
X776Y1031D01*
X824Y1031D01*
X824Y1033D01*
X828Y1033D01*
X828Y1035D01*
X836Y1035D01*
X836Y1037D01*
X764Y1037D01*
G37*
D02*
G36*
X864Y1037D02*
X864Y1035D01*
X872Y1035D01*
X872Y1033D01*
X876Y1033D01*
X876Y1031D01*
X924Y1031D01*
X924Y1033D01*
X928Y1033D01*
X928Y1035D01*
X936Y1035D01*
X936Y1037D01*
X864Y1037D01*
G37*
D02*
G36*
X964Y1037D02*
X964Y1035D01*
X972Y1035D01*
X972Y1033D01*
X976Y1033D01*
X976Y1031D01*
X1024Y1031D01*
X1024Y1033D01*
X1028Y1033D01*
X1028Y1035D01*
X1036Y1035D01*
X1036Y1037D01*
X964Y1037D01*
G37*
D02*
G36*
X1668Y1013D02*
X1668Y1011D01*
X1664Y1011D01*
X1664Y1009D01*
X1660Y1009D01*
X1660Y1007D01*
X1656Y1007D01*
X1656Y1005D01*
X1652Y1005D01*
X1652Y1003D01*
X1648Y1003D01*
X1648Y1001D01*
X1644Y1001D01*
X1644Y999D01*
X1640Y999D01*
X1640Y997D01*
X1636Y997D01*
X1636Y995D01*
X1632Y995D01*
X1632Y993D01*
X1628Y993D01*
X1628Y991D01*
X1624Y991D01*
X1624Y989D01*
X1620Y989D01*
X1620Y987D01*
X1616Y987D01*
X1616Y985D01*
X1612Y985D01*
X1612Y983D01*
X1608Y983D01*
X1608Y981D01*
X1604Y981D01*
X1604Y979D01*
X1600Y979D01*
X1600Y977D01*
X1596Y977D01*
X1596Y975D01*
X1592Y975D01*
X1592Y973D01*
X1588Y973D01*
X1588Y971D01*
X1584Y971D01*
X1584Y969D01*
X1580Y969D01*
X1580Y967D01*
X1576Y967D01*
X1576Y965D01*
X1572Y965D01*
X1572Y963D01*
X1568Y963D01*
X1568Y961D01*
X1564Y961D01*
X1564Y959D01*
X1560Y959D01*
X1560Y957D01*
X1556Y957D01*
X1556Y955D01*
X1552Y955D01*
X1552Y953D01*
X1548Y953D01*
X1548Y951D01*
X1544Y951D01*
X1544Y949D01*
X1540Y949D01*
X1540Y947D01*
X1536Y947D01*
X1536Y945D01*
X1532Y945D01*
X1532Y943D01*
X1528Y943D01*
X1528Y941D01*
X1524Y941D01*
X1524Y939D01*
X1520Y939D01*
X1520Y937D01*
X1516Y937D01*
X1516Y935D01*
X1514Y935D01*
X1514Y933D01*
X1512Y933D01*
X1512Y931D01*
X1510Y931D01*
X1510Y929D01*
X1508Y929D01*
X1508Y925D01*
X1506Y925D01*
X1506Y923D01*
X1504Y923D01*
X1504Y921D01*
X1502Y921D01*
X1502Y919D01*
X1500Y919D01*
X1500Y917D01*
X1498Y917D01*
X1498Y915D01*
X1494Y915D01*
X1494Y913D01*
X1492Y913D01*
X1492Y911D01*
X1490Y911D01*
X1490Y909D01*
X1486Y909D01*
X1486Y907D01*
X1482Y907D01*
X1482Y905D01*
X1478Y905D01*
X1478Y903D01*
X1470Y903D01*
X1470Y901D01*
X1890Y901D01*
X1890Y903D01*
X1892Y903D01*
X1892Y907D01*
X1894Y907D01*
X1894Y909D01*
X1896Y909D01*
X1896Y995D01*
X1894Y995D01*
X1894Y997D01*
X1880Y997D01*
X1880Y1011D01*
X1850Y1011D01*
X1850Y1013D01*
X1668Y1013D01*
G37*
D02*
G36*
X1106Y901D02*
X1106Y899D01*
X1890Y899D01*
X1890Y901D01*
X1106Y901D01*
G37*
D02*
G36*
X1106Y901D02*
X1106Y899D01*
X1890Y899D01*
X1890Y901D01*
X1106Y901D01*
G37*
D02*
G36*
X1106Y899D02*
X1106Y823D01*
X1900Y823D01*
X1900Y825D01*
X1898Y825D01*
X1898Y829D01*
X1896Y829D01*
X1896Y831D01*
X1894Y831D01*
X1894Y835D01*
X1892Y835D01*
X1892Y837D01*
X1890Y837D01*
X1890Y841D01*
X1888Y841D01*
X1888Y845D01*
X1886Y845D01*
X1886Y853D01*
X1884Y853D01*
X1884Y889D01*
X1886Y889D01*
X1886Y895D01*
X1888Y895D01*
X1888Y899D01*
X1106Y899D01*
G37*
D02*
G36*
X2020Y1011D02*
X2020Y997D01*
X2008Y997D01*
X2008Y913D01*
X2010Y913D01*
X2010Y909D01*
X2012Y909D01*
X2012Y907D01*
X2014Y907D01*
X2014Y903D01*
X2016Y903D01*
X2016Y899D01*
X2018Y899D01*
X2018Y895D01*
X2020Y895D01*
X2020Y889D01*
X2022Y889D01*
X2022Y851D01*
X2020Y851D01*
X2020Y845D01*
X2018Y845D01*
X2018Y841D01*
X2016Y841D01*
X2016Y837D01*
X2014Y837D01*
X2014Y833D01*
X2012Y833D01*
X2012Y831D01*
X2010Y831D01*
X2010Y829D01*
X2008Y829D01*
X2008Y825D01*
X2006Y825D01*
X2006Y823D01*
X2094Y823D01*
X2094Y997D01*
X2080Y997D01*
X2080Y1011D01*
X2020Y1011D01*
G37*
D02*
G36*
X776Y903D02*
X776Y901D01*
X772Y901D01*
X772Y899D01*
X764Y899D01*
X764Y897D01*
X836Y897D01*
X836Y899D01*
X828Y899D01*
X828Y901D01*
X824Y901D01*
X824Y903D01*
X776Y903D01*
G37*
D02*
G36*
X876Y903D02*
X876Y901D01*
X872Y901D01*
X872Y899D01*
X864Y899D01*
X864Y897D01*
X936Y897D01*
X936Y899D01*
X928Y899D01*
X928Y901D01*
X924Y901D01*
X924Y903D01*
X876Y903D01*
G37*
D02*
G36*
X708Y897D02*
X708Y895D01*
X994Y895D01*
X994Y897D01*
X708Y897D01*
G37*
D02*
G36*
X708Y897D02*
X708Y895D01*
X994Y895D01*
X994Y897D01*
X708Y897D01*
G37*
D02*
G36*
X708Y895D02*
X708Y653D01*
X706Y653D01*
X706Y439D01*
X720Y439D01*
X720Y301D01*
X994Y301D01*
X994Y895D01*
X708Y895D01*
G37*
D02*
G36*
X522Y315D02*
X522Y301D01*
X580Y301D01*
X580Y315D01*
X522Y315D01*
G37*
D02*
G36*
X516Y301D02*
X516Y299D01*
X994Y299D01*
X994Y301D01*
X516Y301D01*
G37*
D02*
G36*
X516Y301D02*
X516Y299D01*
X994Y299D01*
X994Y301D01*
X516Y301D01*
G37*
D02*
G36*
X518Y299D02*
X518Y295D01*
X520Y295D01*
X520Y289D01*
X522Y289D01*
X522Y251D01*
X520Y251D01*
X520Y245D01*
X518Y245D01*
X518Y241D01*
X516Y241D01*
X516Y237D01*
X514Y237D01*
X514Y233D01*
X512Y233D01*
X512Y231D01*
X510Y231D01*
X510Y229D01*
X508Y229D01*
X508Y225D01*
X870Y225D01*
X870Y223D01*
X994Y223D01*
X994Y299D01*
X518Y299D01*
G37*
D02*
G36*
X4Y2413D02*
X4Y2327D01*
X1464Y2327D01*
X1464Y2325D01*
X1474Y2325D01*
X1474Y2323D01*
X1480Y2323D01*
X1480Y2321D01*
X1484Y2321D01*
X1484Y2319D01*
X1488Y2319D01*
X1488Y2317D01*
X1490Y2317D01*
X1490Y2315D01*
X1492Y2315D01*
X1492Y2313D01*
X1494Y2313D01*
X1494Y2311D01*
X1496Y2311D01*
X1496Y2309D01*
X1498Y2309D01*
X1498Y2307D01*
X1500Y2307D01*
X1500Y2305D01*
X1502Y2305D01*
X1502Y2303D01*
X1504Y2303D01*
X1504Y2301D01*
X1506Y2301D01*
X1506Y2299D01*
X1508Y2299D01*
X1508Y2297D01*
X1510Y2297D01*
X1510Y2295D01*
X1512Y2295D01*
X1512Y2293D01*
X1514Y2293D01*
X1514Y2291D01*
X1516Y2291D01*
X1516Y2289D01*
X1518Y2289D01*
X1518Y2287D01*
X1520Y2287D01*
X1520Y2285D01*
X1522Y2285D01*
X1522Y2283D01*
X1524Y2283D01*
X1524Y2281D01*
X1526Y2281D01*
X1526Y2279D01*
X1528Y2279D01*
X1528Y2277D01*
X1530Y2277D01*
X1530Y2275D01*
X1532Y2275D01*
X1532Y2273D01*
X1534Y2273D01*
X1534Y2271D01*
X1536Y2271D01*
X1536Y2269D01*
X1538Y2269D01*
X1538Y2267D01*
X1540Y2267D01*
X1540Y2265D01*
X1542Y2265D01*
X1542Y2263D01*
X1544Y2263D01*
X1544Y2261D01*
X1546Y2261D01*
X1546Y2259D01*
X1548Y2259D01*
X1548Y2257D01*
X1550Y2257D01*
X1550Y2255D01*
X1552Y2255D01*
X1552Y2253D01*
X1554Y2253D01*
X1554Y2251D01*
X1556Y2251D01*
X1556Y2249D01*
X1558Y2249D01*
X1558Y2247D01*
X1560Y2247D01*
X1560Y2245D01*
X1562Y2245D01*
X1562Y2243D01*
X1564Y2243D01*
X1564Y2241D01*
X1566Y2241D01*
X1566Y2239D01*
X1568Y2239D01*
X1568Y2237D01*
X1570Y2237D01*
X1570Y2235D01*
X1572Y2235D01*
X1572Y2233D01*
X1574Y2233D01*
X1574Y2231D01*
X1576Y2231D01*
X1576Y2229D01*
X1578Y2229D01*
X1578Y2227D01*
X1580Y2227D01*
X1580Y2225D01*
X1582Y2225D01*
X1582Y2223D01*
X1584Y2223D01*
X1584Y2221D01*
X1586Y2221D01*
X1586Y2219D01*
X1588Y2219D01*
X1588Y2217D01*
X1590Y2217D01*
X1590Y2215D01*
X1592Y2215D01*
X1592Y2213D01*
X1594Y2213D01*
X1594Y2211D01*
X1596Y2211D01*
X1596Y2209D01*
X1598Y2209D01*
X1598Y2207D01*
X1600Y2207D01*
X1600Y2205D01*
X1602Y2205D01*
X1602Y2203D01*
X1604Y2203D01*
X1604Y2201D01*
X1606Y2201D01*
X1606Y2199D01*
X1608Y2199D01*
X1608Y2197D01*
X1610Y2197D01*
X1610Y2195D01*
X1612Y2195D01*
X1612Y2193D01*
X1614Y2193D01*
X1614Y2191D01*
X1616Y2191D01*
X1616Y2189D01*
X1618Y2189D01*
X1618Y2187D01*
X1620Y2187D01*
X1620Y2185D01*
X1622Y2185D01*
X1622Y2183D01*
X1624Y2183D01*
X1624Y2181D01*
X1626Y2181D01*
X1626Y2179D01*
X1628Y2179D01*
X1628Y2177D01*
X1630Y2177D01*
X1630Y2175D01*
X1632Y2175D01*
X1632Y2173D01*
X1634Y2173D01*
X1634Y2171D01*
X1636Y2171D01*
X1636Y2169D01*
X1638Y2169D01*
X1638Y2167D01*
X1640Y2167D01*
X1640Y2165D01*
X1642Y2165D01*
X1642Y2163D01*
X1644Y2163D01*
X1644Y2161D01*
X1646Y2161D01*
X1646Y2159D01*
X1648Y2159D01*
X1648Y2157D01*
X1650Y2157D01*
X1650Y2155D01*
X1652Y2155D01*
X1652Y2153D01*
X1654Y2153D01*
X1654Y2151D01*
X1656Y2151D01*
X1656Y2149D01*
X1658Y2149D01*
X1658Y2147D01*
X1660Y2147D01*
X1660Y2145D01*
X1662Y2145D01*
X1662Y2143D01*
X1664Y2143D01*
X1664Y2141D01*
X1666Y2141D01*
X1666Y2139D01*
X1668Y2139D01*
X1668Y2137D01*
X1670Y2137D01*
X1670Y2135D01*
X1672Y2135D01*
X1672Y2133D01*
X1674Y2133D01*
X1674Y2131D01*
X1676Y2131D01*
X1676Y2129D01*
X1678Y2129D01*
X1678Y2127D01*
X1680Y2127D01*
X1680Y2125D01*
X1682Y2125D01*
X1682Y2123D01*
X1684Y2123D01*
X1684Y2121D01*
X1686Y2121D01*
X1686Y2119D01*
X1688Y2119D01*
X1688Y2117D01*
X1690Y2117D01*
X1690Y2115D01*
X1692Y2115D01*
X1692Y2113D01*
X1694Y2113D01*
X1694Y2111D01*
X1696Y2111D01*
X1696Y2109D01*
X1698Y2109D01*
X1698Y2107D01*
X1700Y2107D01*
X1700Y2105D01*
X1702Y2105D01*
X1702Y2103D01*
X1704Y2103D01*
X1704Y2101D01*
X1706Y2101D01*
X1706Y2099D01*
X1708Y2099D01*
X1708Y2097D01*
X1710Y2097D01*
X1710Y2095D01*
X1712Y2095D01*
X1712Y2093D01*
X1714Y2093D01*
X1714Y2091D01*
X1716Y2091D01*
X1716Y2089D01*
X1718Y2089D01*
X1718Y2087D01*
X1720Y2087D01*
X1720Y2085D01*
X1722Y2085D01*
X1722Y2083D01*
X1724Y2083D01*
X1724Y2081D01*
X1726Y2081D01*
X1726Y2079D01*
X1728Y2079D01*
X1728Y2077D01*
X1730Y2077D01*
X1730Y2075D01*
X1732Y2075D01*
X1732Y2073D01*
X1734Y2073D01*
X1734Y2071D01*
X1736Y2071D01*
X1736Y2069D01*
X1738Y2069D01*
X1738Y2067D01*
X1740Y2067D01*
X1740Y2065D01*
X1742Y2065D01*
X1742Y2063D01*
X1744Y2063D01*
X1744Y2061D01*
X1746Y2061D01*
X1746Y2059D01*
X1748Y2059D01*
X1748Y2057D01*
X1750Y2057D01*
X1750Y2055D01*
X1752Y2055D01*
X1752Y2053D01*
X1754Y2053D01*
X1754Y2051D01*
X1756Y2051D01*
X1756Y2049D01*
X1758Y2049D01*
X1758Y2047D01*
X1760Y2047D01*
X1760Y2045D01*
X1762Y2045D01*
X1762Y2043D01*
X1764Y2043D01*
X1764Y2041D01*
X1766Y2041D01*
X1766Y2039D01*
X1768Y2039D01*
X1768Y2037D01*
X1770Y2037D01*
X1770Y2035D01*
X1772Y2035D01*
X1772Y2033D01*
X1774Y2033D01*
X1774Y2031D01*
X1776Y2031D01*
X1776Y2029D01*
X1778Y2029D01*
X1778Y2027D01*
X2564Y2027D01*
X2564Y2025D01*
X2574Y2025D01*
X2574Y2023D01*
X2580Y2023D01*
X2580Y2021D01*
X2584Y2021D01*
X2584Y2019D01*
X2588Y2019D01*
X2588Y2017D01*
X2590Y2017D01*
X2590Y2015D01*
X2592Y2015D01*
X2592Y2013D01*
X2594Y2013D01*
X2594Y2011D01*
X2596Y2011D01*
X2596Y2009D01*
X2598Y2009D01*
X2598Y2007D01*
X2600Y2007D01*
X2600Y2005D01*
X2602Y2005D01*
X2602Y2001D01*
X2604Y2001D01*
X2604Y1997D01*
X2606Y1997D01*
X2606Y1991D01*
X2608Y1991D01*
X2608Y1981D01*
X2610Y1981D01*
X2610Y159D01*
X2608Y159D01*
X2608Y149D01*
X2606Y149D01*
X2606Y143D01*
X2604Y143D01*
X2604Y139D01*
X2602Y139D01*
X2602Y137D01*
X2600Y137D01*
X2600Y133D01*
X2598Y133D01*
X2598Y131D01*
X2596Y131D01*
X2596Y129D01*
X2594Y129D01*
X2594Y127D01*
X2592Y127D01*
X2592Y125D01*
X2590Y125D01*
X2590Y123D01*
X2586Y123D01*
X2586Y121D01*
X2584Y121D01*
X2584Y119D01*
X2580Y119D01*
X2580Y117D01*
X2574Y117D01*
X2574Y115D01*
X2784Y115D01*
X2784Y2413D01*
X4Y2413D01*
G37*
D02*
G36*
X4Y2327D02*
X4Y939D01*
X522Y939D01*
X522Y801D01*
X510Y801D01*
X510Y439D01*
X522Y439D01*
X522Y427D01*
X580Y427D01*
X580Y439D01*
X594Y439D01*
X594Y671D01*
X596Y671D01*
X596Y1245D01*
X598Y1245D01*
X598Y2291D01*
X600Y2291D01*
X600Y2297D01*
X602Y2297D01*
X602Y2301D01*
X604Y2301D01*
X604Y2303D01*
X606Y2303D01*
X606Y2307D01*
X608Y2307D01*
X608Y2309D01*
X610Y2309D01*
X610Y2311D01*
X612Y2311D01*
X612Y2313D01*
X614Y2313D01*
X614Y2315D01*
X616Y2315D01*
X616Y2317D01*
X620Y2317D01*
X620Y2319D01*
X622Y2319D01*
X622Y2321D01*
X626Y2321D01*
X626Y2323D01*
X632Y2323D01*
X632Y2325D01*
X642Y2325D01*
X642Y2327D01*
X4Y2327D01*
G37*
D02*
G36*
X2420Y1915D02*
X2420Y1801D01*
X2498Y1801D01*
X2498Y1915D01*
X2420Y1915D01*
G37*
D02*
G36*
X2152Y1813D02*
X2152Y1811D01*
X2106Y1811D01*
X2106Y1807D01*
X2108Y1807D01*
X2108Y1805D01*
X2110Y1805D01*
X2110Y1801D01*
X2280Y1801D01*
X2280Y1813D01*
X2152Y1813D01*
G37*
D02*
G36*
X2112Y1801D02*
X2112Y1799D01*
X2498Y1799D01*
X2498Y1801D01*
X2112Y1801D01*
G37*
D02*
G36*
X2112Y1801D02*
X2112Y1799D01*
X2498Y1799D01*
X2498Y1801D01*
X2112Y1801D01*
G37*
D02*
G36*
X2114Y1799D02*
X2114Y1793D01*
X2116Y1793D01*
X2116Y1789D01*
X2118Y1789D01*
X2118Y1781D01*
X2120Y1781D01*
X2120Y1753D01*
X2118Y1753D01*
X2118Y1745D01*
X2116Y1745D01*
X2116Y1741D01*
X2114Y1741D01*
X2114Y1737D01*
X2120Y1737D01*
X2120Y1723D01*
X2166Y1723D01*
X2166Y1721D01*
X2174Y1721D01*
X2174Y1719D01*
X2178Y1719D01*
X2178Y1717D01*
X2182Y1717D01*
X2182Y1715D01*
X2186Y1715D01*
X2186Y1713D01*
X2188Y1713D01*
X2188Y1711D01*
X2190Y1711D01*
X2190Y1709D01*
X2192Y1709D01*
X2192Y1707D01*
X2194Y1707D01*
X2194Y1705D01*
X2196Y1705D01*
X2196Y1703D01*
X2198Y1703D01*
X2198Y1699D01*
X2200Y1699D01*
X2200Y1695D01*
X2202Y1695D01*
X2202Y1691D01*
X2204Y1691D01*
X2204Y1683D01*
X2206Y1683D01*
X2206Y1539D01*
X2368Y1539D01*
X2368Y1537D01*
X2374Y1537D01*
X2374Y1535D01*
X2380Y1535D01*
X2380Y1533D01*
X2384Y1533D01*
X2384Y1531D01*
X2386Y1531D01*
X2386Y1529D01*
X2390Y1529D01*
X2390Y1527D01*
X2392Y1527D01*
X2392Y1525D01*
X2394Y1525D01*
X2394Y1523D01*
X2396Y1523D01*
X2396Y1521D01*
X2398Y1521D01*
X2398Y1519D01*
X2400Y1519D01*
X2400Y1517D01*
X2402Y1517D01*
X2402Y1515D01*
X2404Y1515D01*
X2404Y1513D01*
X2406Y1513D01*
X2406Y1511D01*
X2408Y1511D01*
X2408Y1507D01*
X2410Y1507D01*
X2410Y1505D01*
X2412Y1505D01*
X2412Y1501D01*
X2414Y1501D01*
X2414Y1497D01*
X2416Y1497D01*
X2416Y1491D01*
X2418Y1491D01*
X2418Y1483D01*
X2420Y1483D01*
X2420Y1457D01*
X2418Y1457D01*
X2418Y1449D01*
X2416Y1449D01*
X2416Y1443D01*
X2414Y1443D01*
X2414Y1439D01*
X2412Y1439D01*
X2412Y1435D01*
X2410Y1435D01*
X2410Y1433D01*
X2408Y1433D01*
X2408Y1429D01*
X2406Y1429D01*
X2406Y1187D01*
X2408Y1187D01*
X2408Y615D01*
X2410Y615D01*
X2410Y551D01*
X2408Y551D01*
X2408Y361D01*
X2406Y361D01*
X2406Y253D01*
X2404Y253D01*
X2404Y247D01*
X2402Y247D01*
X2402Y241D01*
X2400Y241D01*
X2400Y239D01*
X2398Y239D01*
X2398Y235D01*
X2396Y235D01*
X2396Y233D01*
X2394Y233D01*
X2394Y229D01*
X2392Y229D01*
X2392Y227D01*
X2498Y227D01*
X2498Y1799D01*
X2114Y1799D01*
G37*
D02*
G36*
X2206Y1539D02*
X2206Y1507D01*
X2208Y1507D01*
X2208Y1505D01*
X2210Y1505D01*
X2210Y1501D01*
X2212Y1501D01*
X2212Y1499D01*
X2214Y1499D01*
X2214Y1493D01*
X2216Y1493D01*
X2216Y1489D01*
X2218Y1489D01*
X2218Y1481D01*
X2220Y1481D01*
X2220Y1453D01*
X2218Y1453D01*
X2218Y1445D01*
X2216Y1445D01*
X2216Y1441D01*
X2214Y1441D01*
X2214Y1437D01*
X2212Y1437D01*
X2212Y1433D01*
X2210Y1433D01*
X2210Y1429D01*
X2208Y1429D01*
X2208Y1427D01*
X2206Y1427D01*
X2206Y1423D01*
X2204Y1423D01*
X2204Y1421D01*
X2202Y1421D01*
X2202Y1419D01*
X2200Y1419D01*
X2200Y1417D01*
X2198Y1417D01*
X2198Y1415D01*
X2196Y1415D01*
X2196Y1413D01*
X2194Y1413D01*
X2194Y1411D01*
X2190Y1411D01*
X2190Y1409D01*
X2188Y1409D01*
X2188Y1407D01*
X2184Y1407D01*
X2184Y1405D01*
X2182Y1405D01*
X2182Y1403D01*
X2176Y1403D01*
X2176Y1401D01*
X2172Y1401D01*
X2172Y1399D01*
X2164Y1399D01*
X2164Y1397D01*
X2106Y1397D01*
X2106Y1137D01*
X2220Y1137D01*
X2220Y997D01*
X2206Y997D01*
X2206Y751D01*
X2204Y751D01*
X2204Y743D01*
X2202Y743D01*
X2202Y739D01*
X2200Y739D01*
X2200Y735D01*
X2198Y735D01*
X2198Y731D01*
X2196Y731D01*
X2196Y729D01*
X2194Y729D01*
X2194Y727D01*
X2192Y727D01*
X2192Y725D01*
X2190Y725D01*
X2190Y723D01*
X2188Y723D01*
X2188Y721D01*
X2186Y721D01*
X2186Y719D01*
X2182Y719D01*
X2182Y717D01*
X2178Y717D01*
X2178Y715D01*
X2174Y715D01*
X2174Y713D01*
X2166Y713D01*
X2166Y711D01*
X2008Y711D01*
X2008Y707D01*
X2010Y707D01*
X2010Y705D01*
X2012Y705D01*
X2012Y701D01*
X2014Y701D01*
X2014Y697D01*
X2016Y697D01*
X2016Y691D01*
X2018Y691D01*
X2018Y683D01*
X2020Y683D01*
X2020Y657D01*
X2018Y657D01*
X2018Y649D01*
X2016Y649D01*
X2016Y643D01*
X2014Y643D01*
X2014Y639D01*
X2012Y639D01*
X2012Y635D01*
X2010Y635D01*
X2010Y633D01*
X2008Y633D01*
X2008Y629D01*
X2006Y629D01*
X2006Y339D01*
X2166Y339D01*
X2166Y337D01*
X2172Y337D01*
X2172Y335D01*
X2176Y335D01*
X2176Y333D01*
X2180Y333D01*
X2180Y331D01*
X2184Y331D01*
X2184Y329D01*
X2186Y329D01*
X2186Y327D01*
X2294Y327D01*
X2294Y375D01*
X2296Y375D01*
X2296Y567D01*
X2298Y567D01*
X2298Y595D01*
X2296Y595D01*
X2296Y1169D01*
X2294Y1169D01*
X2294Y1429D01*
X2292Y1429D01*
X2292Y1433D01*
X2290Y1433D01*
X2290Y1435D01*
X2288Y1435D01*
X2288Y1439D01*
X2286Y1439D01*
X2286Y1443D01*
X2284Y1443D01*
X2284Y1449D01*
X2282Y1449D01*
X2282Y1457D01*
X2280Y1457D01*
X2280Y1483D01*
X2282Y1483D01*
X2282Y1493D01*
X2284Y1493D01*
X2284Y1497D01*
X2286Y1497D01*
X2286Y1501D01*
X2288Y1501D01*
X2288Y1505D01*
X2290Y1505D01*
X2290Y1507D01*
X2292Y1507D01*
X2292Y1511D01*
X2294Y1511D01*
X2294Y1513D01*
X2296Y1513D01*
X2296Y1515D01*
X2298Y1515D01*
X2298Y1517D01*
X2300Y1517D01*
X2300Y1519D01*
X2302Y1519D01*
X2302Y1521D01*
X2304Y1521D01*
X2304Y1523D01*
X2306Y1523D01*
X2306Y1525D01*
X2308Y1525D01*
X2308Y1527D01*
X2310Y1527D01*
X2310Y1529D01*
X2314Y1529D01*
X2314Y1531D01*
X2316Y1531D01*
X2316Y1533D01*
X2320Y1533D01*
X2320Y1535D01*
X2326Y1535D01*
X2326Y1537D01*
X2330Y1537D01*
X2330Y1539D01*
X2206Y1539D01*
G37*
D02*
G36*
X4Y939D02*
X4Y101D01*
X436Y101D01*
X436Y103D01*
X430Y103D01*
X430Y105D01*
X424Y105D01*
X424Y107D01*
X420Y107D01*
X420Y109D01*
X418Y109D01*
X418Y111D01*
X414Y111D01*
X414Y113D01*
X412Y113D01*
X412Y115D01*
X236Y115D01*
X236Y117D01*
X230Y117D01*
X230Y119D01*
X226Y119D01*
X226Y121D01*
X222Y121D01*
X222Y123D01*
X220Y123D01*
X220Y125D01*
X218Y125D01*
X218Y127D01*
X216Y127D01*
X216Y129D01*
X214Y129D01*
X214Y131D01*
X212Y131D01*
X212Y133D01*
X210Y133D01*
X210Y135D01*
X208Y135D01*
X208Y139D01*
X206Y139D01*
X206Y143D01*
X204Y143D01*
X204Y147D01*
X202Y147D01*
X202Y155D01*
X200Y155D01*
X200Y829D01*
X198Y829D01*
X198Y833D01*
X196Y833D01*
X196Y835D01*
X194Y835D01*
X194Y839D01*
X192Y839D01*
X192Y843D01*
X190Y843D01*
X190Y849D01*
X188Y849D01*
X188Y859D01*
X186Y859D01*
X186Y881D01*
X188Y881D01*
X188Y891D01*
X190Y891D01*
X190Y897D01*
X192Y897D01*
X192Y901D01*
X194Y901D01*
X194Y905D01*
X196Y905D01*
X196Y907D01*
X198Y907D01*
X198Y911D01*
X200Y911D01*
X200Y913D01*
X202Y913D01*
X202Y915D01*
X204Y915D01*
X204Y917D01*
X206Y917D01*
X206Y919D01*
X208Y919D01*
X208Y921D01*
X210Y921D01*
X210Y923D01*
X212Y923D01*
X212Y925D01*
X214Y925D01*
X214Y927D01*
X216Y927D01*
X216Y929D01*
X220Y929D01*
X220Y931D01*
X224Y931D01*
X224Y933D01*
X226Y933D01*
X226Y935D01*
X232Y935D01*
X232Y937D01*
X238Y937D01*
X238Y939D01*
X4Y939D01*
G37*
D02*
G36*
X276Y939D02*
X276Y937D01*
X282Y937D01*
X282Y935D01*
X286Y935D01*
X286Y933D01*
X290Y933D01*
X290Y931D01*
X292Y931D01*
X292Y929D01*
X296Y929D01*
X296Y927D01*
X298Y927D01*
X298Y925D01*
X300Y925D01*
X300Y923D01*
X304Y923D01*
X304Y921D01*
X306Y921D01*
X306Y919D01*
X308Y919D01*
X308Y915D01*
X310Y915D01*
X310Y913D01*
X312Y913D01*
X312Y911D01*
X314Y911D01*
X314Y909D01*
X316Y909D01*
X316Y905D01*
X318Y905D01*
X318Y901D01*
X320Y901D01*
X320Y897D01*
X322Y897D01*
X322Y893D01*
X324Y893D01*
X324Y885D01*
X326Y885D01*
X326Y855D01*
X324Y855D01*
X324Y847D01*
X322Y847D01*
X322Y843D01*
X320Y843D01*
X320Y839D01*
X318Y839D01*
X318Y835D01*
X316Y835D01*
X316Y833D01*
X314Y833D01*
X314Y829D01*
X312Y829D01*
X312Y227D01*
X398Y227D01*
X398Y229D01*
X396Y229D01*
X396Y231D01*
X394Y231D01*
X394Y235D01*
X392Y235D01*
X392Y237D01*
X390Y237D01*
X390Y241D01*
X388Y241D01*
X388Y245D01*
X386Y245D01*
X386Y253D01*
X384Y253D01*
X384Y289D01*
X386Y289D01*
X386Y295D01*
X388Y295D01*
X388Y299D01*
X390Y299D01*
X390Y301D01*
X384Y301D01*
X384Y439D01*
X398Y439D01*
X398Y801D01*
X384Y801D01*
X384Y939D01*
X276Y939D01*
G37*
D02*
G36*
X1106Y711D02*
X1106Y201D01*
X1880Y201D01*
X1880Y339D01*
X1894Y339D01*
X1894Y629D01*
X1892Y629D01*
X1892Y633D01*
X1890Y633D01*
X1890Y635D01*
X1888Y635D01*
X1888Y639D01*
X1886Y639D01*
X1886Y643D01*
X1884Y643D01*
X1884Y649D01*
X1882Y649D01*
X1882Y657D01*
X1880Y657D01*
X1880Y683D01*
X1882Y683D01*
X1882Y693D01*
X1884Y693D01*
X1884Y697D01*
X1886Y697D01*
X1886Y701D01*
X1888Y701D01*
X1888Y705D01*
X1890Y705D01*
X1890Y707D01*
X1892Y707D01*
X1892Y711D01*
X1106Y711D01*
G37*
D02*
G36*
X2020Y339D02*
X2020Y201D01*
X2090Y201D01*
X2090Y231D01*
X2088Y231D01*
X2088Y233D01*
X2086Y233D01*
X2086Y237D01*
X2084Y237D01*
X2084Y241D01*
X2082Y241D01*
X2082Y245D01*
X2080Y245D01*
X2080Y251D01*
X2078Y251D01*
X2078Y289D01*
X2080Y289D01*
X2080Y295D01*
X2082Y295D01*
X2082Y299D01*
X2084Y299D01*
X2084Y303D01*
X2086Y303D01*
X2086Y307D01*
X2088Y307D01*
X2088Y309D01*
X2090Y309D01*
X2090Y313D01*
X2092Y313D01*
X2092Y315D01*
X2094Y315D01*
X2094Y317D01*
X2096Y317D01*
X2096Y319D01*
X2098Y319D01*
X2098Y321D01*
X2100Y321D01*
X2100Y323D01*
X2102Y323D01*
X2102Y325D01*
X2104Y325D01*
X2104Y327D01*
X2108Y327D01*
X2108Y329D01*
X2110Y329D01*
X2110Y331D01*
X2114Y331D01*
X2114Y333D01*
X2118Y333D01*
X2118Y335D01*
X2122Y335D01*
X2122Y337D01*
X2128Y337D01*
X2128Y339D01*
X2020Y339D01*
G37*
D02*
G36*
X1106Y201D02*
X1106Y199D01*
X2090Y199D01*
X2090Y201D01*
X1106Y201D01*
G37*
D02*
G36*
X1106Y201D02*
X1106Y199D01*
X2090Y199D01*
X2090Y201D01*
X1106Y201D01*
G37*
D02*
G36*
X1106Y199D02*
X1106Y151D01*
X1104Y151D01*
X1104Y143D01*
X1102Y143D01*
X1102Y139D01*
X1100Y139D01*
X1100Y135D01*
X1098Y135D01*
X1098Y131D01*
X1096Y131D01*
X1096Y129D01*
X1094Y129D01*
X1094Y127D01*
X1092Y127D01*
X1092Y125D01*
X1090Y125D01*
X1090Y123D01*
X1088Y123D01*
X1088Y121D01*
X1086Y121D01*
X1086Y119D01*
X1082Y119D01*
X1082Y117D01*
X1078Y117D01*
X1078Y115D01*
X2126Y115D01*
X2126Y117D01*
X2120Y117D01*
X2120Y119D01*
X2116Y119D01*
X2116Y121D01*
X2114Y121D01*
X2114Y123D01*
X2110Y123D01*
X2110Y125D01*
X2108Y125D01*
X2108Y127D01*
X2106Y127D01*
X2106Y129D01*
X2104Y129D01*
X2104Y131D01*
X2102Y131D01*
X2102Y133D01*
X2100Y133D01*
X2100Y137D01*
X2098Y137D01*
X2098Y139D01*
X2096Y139D01*
X2096Y143D01*
X2094Y143D01*
X2094Y149D01*
X2092Y149D01*
X2092Y159D01*
X2090Y159D01*
X2090Y199D01*
X1106Y199D01*
G37*
D02*
G36*
X1074Y115D02*
X1074Y113D01*
X2784Y113D01*
X2784Y115D01*
X1074Y115D01*
G37*
D02*
G36*
X1074Y115D02*
X1074Y113D01*
X2784Y113D01*
X2784Y115D01*
X1074Y115D01*
G37*
D02*
G36*
X492Y113D02*
X492Y111D01*
X852Y111D01*
X852Y113D01*
X492Y113D01*
G37*
D02*
G36*
X1066Y113D02*
X1066Y111D01*
X2784Y111D01*
X2784Y113D01*
X1066Y113D01*
G37*
D02*
G36*
X490Y111D02*
X490Y109D01*
X2784Y109D01*
X2784Y111D01*
X490Y111D01*
G37*
D02*
G36*
X490Y111D02*
X490Y109D01*
X2784Y109D01*
X2784Y111D01*
X490Y111D01*
G37*
D02*
G36*
X486Y109D02*
X486Y107D01*
X482Y107D01*
X482Y105D01*
X478Y105D01*
X478Y103D01*
X470Y103D01*
X470Y101D01*
X2784Y101D01*
X2784Y109D01*
X486Y109D01*
G37*
D02*
G36*
X4Y101D02*
X4Y99D01*
X2784Y99D01*
X2784Y101D01*
X4Y101D01*
G37*
D02*
G36*
X4Y101D02*
X4Y99D01*
X2784Y99D01*
X2784Y101D01*
X4Y101D01*
G37*
D02*
G36*
X4Y99D02*
X4Y11D01*
X2784Y11D01*
X2784Y99D01*
X4Y99D01*
G37*
D02*
G04 End of Copper0*
M02*