G04 MADE WITH FRITZING*
G04 WWW.FRITZING.ORG*
G04 SINGLE SIDED*
G04 HOLES NOT PLATED*
G04 CONTOUR ON CENTER OF CONTOUR VECTOR*
%ASAXBY*%
%FSLAX23Y23*%
%MOIN*%
%OFA0B0*%
%SFA1.0B1.0*%
%ADD10C,0.086000*%
%ADD11C,0.081000*%
%ADD12C,0.084000*%
%ADD13R,0.086000X0.086000*%
%ADD14R,0.081000X0.081000*%
%ADD15R,0.084000X0.084000*%
%LNMASK0*%
G90*
G70*
G54D10*
X1950Y270D03*
X2147Y270D03*
X453Y870D03*
X256Y870D03*
G54D11*
X1050Y1267D03*
X1050Y967D03*
X950Y1267D03*
X950Y967D03*
X850Y1267D03*
X850Y967D03*
X750Y1267D03*
X750Y967D03*
G54D12*
X453Y370D03*
X453Y270D03*
X453Y170D03*
X2050Y1667D03*
X2050Y1767D03*
X2050Y1867D03*
X650Y370D03*
G54D11*
X1453Y1370D03*
X1453Y970D03*
X1150Y1467D03*
X1150Y1867D03*
X1050Y1467D03*
X1050Y1867D03*
X1450Y1867D03*
X1350Y1867D03*
X1350Y1567D03*
X1750Y1567D03*
X2150Y1067D03*
X2150Y1467D03*
X1950Y1067D03*
X1950Y1467D03*
X1950Y670D03*
X1953Y870D03*
X2350Y1870D03*
X2350Y1470D03*
G54D12*
X1653Y1870D03*
G54D13*
X1950Y270D03*
X453Y870D03*
G54D14*
X1050Y1267D03*
G54D15*
X453Y370D03*
X2050Y1667D03*
G54D14*
X1453Y1370D03*
X1150Y1467D03*
X1050Y1467D03*
X1450Y1867D03*
X1350Y1567D03*
X2150Y1067D03*
X1950Y1067D03*
X2350Y1870D03*
G04 End of Mask0*
M02*