M48
M72,TZ
T10C0.035000
T11C0.051181
T12C0.078740
T13C0.038000
%
T10
X2.369990Y0.727210
X1.769990Y0.727210
X1.969990Y0.827210
X1.369990Y0.827210
X1.569990Y1.727206
X0.969989Y1.727206
X1.369990Y1.427206
X0.969989Y1.427206
X0.769989Y1.027210
X0.769989Y0.627210
X1.769990Y1.027210
X1.369990Y1.027210
X2.069990Y1.727206
X1.669990Y1.727206
X0.969990Y0.927210
X1.369990Y0.927210
X2.569990Y1.027210
X2.169990Y1.027210
X2.769990Y1.427210
X2.769990Y1.027210
X1.269990Y0.327210
X1.669990Y0.327210
X2.569990Y1.727206
X2.169990Y1.727206
X2.269990Y1.527206
X2.269990Y1.227206
X2.169990Y1.527206
X2.169990Y1.227206
X2.069990Y1.527206
X2.069990Y1.227206
X1.969990Y1.527206
X1.969990Y1.227206
X1.869990Y1.527206
X1.869990Y1.227206
X1.769990Y1.527206
X1.769990Y1.227206
X1.669990Y1.527206
X1.669990Y1.227206
T11
X2.707790Y0.689420
X2.569990Y0.827210
X2.845580Y0.827210
X0.932196Y0.589410
X1.069990Y0.727210
X1.069990Y0.451620
T12
X0.369989Y1.224056
X0.369989Y1.027210
X2.066840Y0.327210
X1.869990Y0.327210
T13
X2.269990Y0.227210
X2.269990Y0.327210
X2.569990Y1.927206
T00
M30
