M48
INCH
T10C0.035000
T11C0.051181
T12C0.078740
T13C0.038000
T14C0.086614
%
T10
X011354Y009351
X007354Y009351
X013405Y017370
X009405Y017370
X006354Y015351
X006354Y011351
X019427Y010287
X015427Y010287
X018006Y015770
X018006Y011770
X006354Y003350
X010354Y003350
X018705Y017370
X014705Y017370
X016354Y015351
X016354Y012351
X015354Y015351
X015354Y012351
X014354Y015351
X014354Y012351
X013354Y015351
X013354Y012351
X012354Y015351
X012354Y012351
X011354Y015351
X011354Y012351
X010354Y015351
X010354Y012351
T11
X016627Y005992
X018005Y007370
X018005Y004614
X005976Y005973
X007354Y007350
X007354Y004595
T12
X003354Y012319
X003354Y010351
X014322Y003351
X012354Y003351
T13
X016354Y002350
X016354Y003350
X019406Y015570
T14
X001906Y001970
X018606Y001970
X018606Y018670
X001906Y018670
T00
M30
