G04 MADE WITH FRITZING*
G04 WWW.FRITZING.ORG*
G04 DOUBLE SIDED*
G04 HOLES PLATED*
G04 CONTOUR ON CENTER OF CONTOUR VECTOR*
%ASAXBY*%
%FSLAX23Y23*%
%MOIN*%
%OFA0B0*%
%SFA1.0B1.0*%
%ADD10C,0.075000*%
%ADD11C,0.076772*%
%ADD12C,0.118740*%
%ADD13C,0.078000*%
%ADD14R,0.075000X0.075000*%
%ADD15R,0.118740X0.118740*%
%ADD16C,0.048000*%
%LNCOPPER0*%
G90*
G70*
G54D10*
X1596Y1898D03*
X1929Y1393D03*
X1577Y870D03*
X874Y998D03*
X1035Y1235D03*
X1035Y1535D03*
X1135Y1235D03*
X1135Y1535D03*
X1235Y1235D03*
X1235Y1535D03*
X1335Y1235D03*
X1335Y1535D03*
X1435Y1235D03*
X1435Y1535D03*
X1535Y1235D03*
X1535Y1535D03*
X1635Y1235D03*
X1635Y1535D03*
G54D11*
X735Y460D03*
X735Y735D03*
X598Y597D03*
X1801Y461D03*
X1801Y737D03*
X1663Y599D03*
G54D10*
X1471Y1737D03*
X1871Y1737D03*
X1035Y335D03*
X635Y335D03*
X1801Y1177D03*
X1801Y1577D03*
X1543Y1029D03*
X1943Y1029D03*
X635Y1135D03*
X635Y1535D03*
X941Y1737D03*
X1341Y1737D03*
X735Y935D03*
X1135Y935D03*
G54D12*
X1235Y335D03*
X1432Y335D03*
X335Y1035D03*
X335Y1232D03*
G54D13*
X1941Y1557D03*
X1635Y335D03*
X1635Y235D03*
G54D14*
X1035Y1235D03*
G54D15*
X1235Y335D03*
X335Y1035D03*
G54D16*
X1763Y1190D02*
X1673Y1222D01*
D02*
X1828Y1148D02*
X1915Y1057D01*
D02*
X337Y1435D02*
X835Y1435D01*
D02*
X835Y1435D02*
X835Y1733D01*
D02*
X134Y1236D02*
X337Y1435D01*
D02*
X835Y1733D02*
X901Y1736D01*
D02*
X134Y1236D02*
X274Y1233D01*
D02*
X134Y1236D02*
X143Y597D01*
D02*
X143Y597D02*
X333Y597D01*
D02*
X333Y597D02*
X335Y235D01*
D02*
X335Y235D02*
X1594Y235D01*
D02*
X333Y597D02*
X550Y597D01*
D02*
X636Y933D02*
X636Y1095D01*
D02*
X696Y934D02*
X636Y933D01*
D02*
X1135Y1195D02*
X1135Y975D01*
D02*
X1461Y1838D02*
X1467Y1777D01*
D02*
X636Y1837D02*
X1461Y1838D01*
D02*
X635Y1575D02*
X636Y1837D01*
D02*
X1357Y1701D02*
X1419Y1571D01*
D02*
X1434Y1495D02*
X1432Y1418D01*
D02*
X1802Y1417D02*
X1801Y1537D01*
D02*
X1432Y1418D02*
X1802Y1417D01*
D02*
X1831Y1737D02*
X1629Y1738D01*
D02*
X1629Y1738D02*
X1634Y1575D01*
D02*
X1483Y1699D02*
X1523Y1573D01*
D02*
X1541Y1068D02*
X1537Y1195D01*
D02*
X980Y1737D02*
X1212Y1738D01*
D02*
X1212Y1738D02*
X1315Y1569D01*
D02*
X1594Y335D02*
X1494Y335D01*
D02*
X1885Y1700D02*
X1926Y1595D01*
D02*
X1174Y335D02*
X1075Y335D01*
D02*
X1582Y1029D02*
X1693Y1028D01*
D02*
X1693Y1028D02*
X1784Y782D01*
D02*
X735Y412D02*
X735Y336D01*
D02*
X735Y336D02*
X675Y336D01*
D02*
X1433Y397D02*
X1435Y1195D01*
D02*
X503Y1269D02*
X503Y1070D01*
D02*
X503Y1070D02*
X396Y1048D01*
D02*
X934Y1269D02*
X503Y1269D01*
D02*
X934Y1335D02*
X934Y1269D01*
D02*
X1336Y1335D02*
X934Y1335D01*
D02*
X1336Y1275D02*
X1336Y1335D01*
D02*
X1034Y1136D02*
X675Y1135D01*
D02*
X1035Y1195D02*
X1034Y1136D01*
D02*
X1235Y397D02*
X1235Y1195D01*
G36*
X48Y1999D02*
X48Y1959D01*
X1866Y1959D01*
X1866Y1957D01*
X1878Y1957D01*
X1878Y1955D01*
X1884Y1955D01*
X1884Y1953D01*
X1890Y1953D01*
X1890Y1951D01*
X1894Y1951D01*
X1894Y1949D01*
X1898Y1949D01*
X1898Y1947D01*
X1900Y1947D01*
X1900Y1945D01*
X1904Y1945D01*
X1904Y1943D01*
X1908Y1943D01*
X1908Y1941D01*
X1910Y1941D01*
X1910Y1939D01*
X1912Y1939D01*
X1912Y1937D01*
X1916Y1937D01*
X1916Y1935D01*
X1918Y1935D01*
X1918Y1933D01*
X1920Y1933D01*
X1920Y1931D01*
X1922Y1931D01*
X1922Y1929D01*
X1924Y1929D01*
X1924Y1927D01*
X1926Y1927D01*
X1926Y1925D01*
X1928Y1925D01*
X1928Y1923D01*
X1930Y1923D01*
X1930Y1919D01*
X1932Y1919D01*
X1932Y1917D01*
X1934Y1917D01*
X1934Y1915D01*
X1936Y1915D01*
X1936Y1911D01*
X1938Y1911D01*
X1938Y1909D01*
X1940Y1909D01*
X1940Y1905D01*
X1942Y1905D01*
X1942Y1901D01*
X1944Y1901D01*
X1944Y1897D01*
X1946Y1897D01*
X1946Y1893D01*
X1948Y1893D01*
X1948Y1887D01*
X1950Y1887D01*
X1950Y1877D01*
X1952Y1877D01*
X1952Y1855D01*
X1950Y1855D01*
X1950Y1847D01*
X1948Y1847D01*
X1948Y1841D01*
X1946Y1841D01*
X1946Y1837D01*
X1944Y1837D01*
X1944Y1833D01*
X1942Y1833D01*
X1942Y1829D01*
X1940Y1829D01*
X1940Y1825D01*
X1938Y1825D01*
X1938Y1823D01*
X1936Y1823D01*
X1936Y1819D01*
X1934Y1819D01*
X1934Y1817D01*
X1932Y1817D01*
X1932Y1815D01*
X1930Y1815D01*
X1930Y1791D01*
X1932Y1791D01*
X1932Y1789D01*
X1934Y1789D01*
X1934Y1787D01*
X1936Y1787D01*
X1936Y1785D01*
X1938Y1785D01*
X1938Y1781D01*
X1940Y1781D01*
X1940Y1779D01*
X1942Y1779D01*
X1942Y1775D01*
X1944Y1775D01*
X1944Y1773D01*
X1946Y1773D01*
X1946Y1769D01*
X1948Y1769D01*
X1948Y1765D01*
X1950Y1765D01*
X1950Y1761D01*
X1952Y1761D01*
X1952Y1755D01*
X1954Y1755D01*
X1954Y1747D01*
X1956Y1747D01*
X1956Y1713D01*
X1958Y1713D01*
X1958Y1709D01*
X1960Y1709D01*
X1960Y1703D01*
X1962Y1703D01*
X1962Y1697D01*
X1964Y1697D01*
X1964Y1693D01*
X1966Y1693D01*
X1966Y1687D01*
X1968Y1687D01*
X1968Y1683D01*
X1970Y1683D01*
X1970Y1677D01*
X1972Y1677D01*
X1972Y1673D01*
X1974Y1673D01*
X1974Y1667D01*
X1976Y1667D01*
X1976Y1663D01*
X1978Y1663D01*
X1978Y1657D01*
X1980Y1657D01*
X1980Y1651D01*
X1982Y1651D01*
X1982Y1647D01*
X1984Y1647D01*
X1984Y1641D01*
X1986Y1641D01*
X1986Y1637D01*
X2006Y1637D01*
X2006Y1999D01*
X48Y1999D01*
G37*
D02*
G36*
X48Y1959D02*
X48Y1775D01*
X184Y1775D01*
X184Y1777D01*
X174Y1777D01*
X174Y1779D01*
X166Y1779D01*
X166Y1781D01*
X162Y1781D01*
X162Y1783D01*
X158Y1783D01*
X158Y1785D01*
X154Y1785D01*
X154Y1787D01*
X150Y1787D01*
X150Y1789D01*
X146Y1789D01*
X146Y1791D01*
X144Y1791D01*
X144Y1793D01*
X142Y1793D01*
X142Y1795D01*
X138Y1795D01*
X138Y1797D01*
X136Y1797D01*
X136Y1799D01*
X134Y1799D01*
X134Y1801D01*
X132Y1801D01*
X132Y1803D01*
X130Y1803D01*
X130Y1805D01*
X128Y1805D01*
X128Y1807D01*
X126Y1807D01*
X126Y1809D01*
X124Y1809D01*
X124Y1811D01*
X122Y1811D01*
X122Y1813D01*
X120Y1813D01*
X120Y1815D01*
X118Y1815D01*
X118Y1819D01*
X116Y1819D01*
X116Y1821D01*
X114Y1821D01*
X114Y1825D01*
X112Y1825D01*
X112Y1827D01*
X110Y1827D01*
X110Y1831D01*
X108Y1831D01*
X108Y1835D01*
X106Y1835D01*
X106Y1839D01*
X104Y1839D01*
X104Y1845D01*
X102Y1845D01*
X102Y1853D01*
X100Y1853D01*
X100Y1881D01*
X102Y1881D01*
X102Y1889D01*
X104Y1889D01*
X104Y1893D01*
X106Y1893D01*
X106Y1899D01*
X108Y1899D01*
X108Y1903D01*
X110Y1903D01*
X110Y1907D01*
X112Y1907D01*
X112Y1909D01*
X114Y1909D01*
X114Y1913D01*
X116Y1913D01*
X116Y1915D01*
X118Y1915D01*
X118Y1919D01*
X120Y1919D01*
X120Y1921D01*
X122Y1921D01*
X122Y1923D01*
X124Y1923D01*
X124Y1925D01*
X126Y1925D01*
X126Y1927D01*
X128Y1927D01*
X128Y1929D01*
X130Y1929D01*
X130Y1931D01*
X132Y1931D01*
X132Y1933D01*
X134Y1933D01*
X134Y1935D01*
X136Y1935D01*
X136Y1937D01*
X138Y1937D01*
X138Y1939D01*
X142Y1939D01*
X142Y1941D01*
X144Y1941D01*
X144Y1943D01*
X148Y1943D01*
X148Y1945D01*
X150Y1945D01*
X150Y1947D01*
X154Y1947D01*
X154Y1949D01*
X158Y1949D01*
X158Y1951D01*
X162Y1951D01*
X162Y1953D01*
X168Y1953D01*
X168Y1955D01*
X174Y1955D01*
X174Y1957D01*
X186Y1957D01*
X186Y1959D01*
X48Y1959D01*
G37*
D02*
G36*
X196Y1959D02*
X196Y1957D01*
X208Y1957D01*
X208Y1955D01*
X214Y1955D01*
X214Y1953D01*
X220Y1953D01*
X220Y1951D01*
X224Y1951D01*
X224Y1949D01*
X228Y1949D01*
X228Y1947D01*
X230Y1947D01*
X230Y1945D01*
X234Y1945D01*
X234Y1943D01*
X238Y1943D01*
X238Y1941D01*
X240Y1941D01*
X240Y1939D01*
X242Y1939D01*
X242Y1937D01*
X244Y1937D01*
X244Y1935D01*
X248Y1935D01*
X248Y1933D01*
X250Y1933D01*
X250Y1931D01*
X252Y1931D01*
X252Y1929D01*
X254Y1929D01*
X254Y1927D01*
X256Y1927D01*
X256Y1925D01*
X258Y1925D01*
X258Y1923D01*
X260Y1923D01*
X260Y1919D01*
X262Y1919D01*
X262Y1917D01*
X264Y1917D01*
X264Y1915D01*
X266Y1915D01*
X266Y1911D01*
X1468Y1911D01*
X1468Y1909D01*
X1478Y1909D01*
X1478Y1907D01*
X1486Y1907D01*
X1486Y1905D01*
X1490Y1905D01*
X1490Y1903D01*
X1494Y1903D01*
X1494Y1901D01*
X1498Y1901D01*
X1498Y1899D01*
X1500Y1899D01*
X1500Y1897D01*
X1504Y1897D01*
X1504Y1895D01*
X1506Y1895D01*
X1506Y1893D01*
X1508Y1893D01*
X1508Y1891D01*
X1510Y1891D01*
X1510Y1889D01*
X1512Y1889D01*
X1512Y1887D01*
X1514Y1887D01*
X1514Y1885D01*
X1516Y1885D01*
X1516Y1883D01*
X1518Y1883D01*
X1518Y1881D01*
X1520Y1881D01*
X1520Y1877D01*
X1522Y1877D01*
X1522Y1875D01*
X1524Y1875D01*
X1524Y1871D01*
X1526Y1871D01*
X1526Y1867D01*
X1528Y1867D01*
X1528Y1861D01*
X1530Y1861D01*
X1530Y1855D01*
X1532Y1855D01*
X1532Y1839D01*
X1534Y1839D01*
X1534Y1819D01*
X1536Y1819D01*
X1536Y1811D01*
X1632Y1811D01*
X1632Y1809D01*
X1780Y1809D01*
X1780Y1831D01*
X1778Y1831D01*
X1778Y1835D01*
X1776Y1835D01*
X1776Y1839D01*
X1774Y1839D01*
X1774Y1845D01*
X1772Y1845D01*
X1772Y1853D01*
X1770Y1853D01*
X1770Y1881D01*
X1772Y1881D01*
X1772Y1889D01*
X1774Y1889D01*
X1774Y1893D01*
X1776Y1893D01*
X1776Y1899D01*
X1778Y1899D01*
X1778Y1903D01*
X1780Y1903D01*
X1780Y1907D01*
X1782Y1907D01*
X1782Y1909D01*
X1784Y1909D01*
X1784Y1913D01*
X1786Y1913D01*
X1786Y1915D01*
X1788Y1915D01*
X1788Y1919D01*
X1790Y1919D01*
X1790Y1921D01*
X1792Y1921D01*
X1792Y1923D01*
X1794Y1923D01*
X1794Y1925D01*
X1796Y1925D01*
X1796Y1927D01*
X1798Y1927D01*
X1798Y1929D01*
X1800Y1929D01*
X1800Y1931D01*
X1802Y1931D01*
X1802Y1933D01*
X1804Y1933D01*
X1804Y1935D01*
X1806Y1935D01*
X1806Y1937D01*
X1808Y1937D01*
X1808Y1939D01*
X1812Y1939D01*
X1812Y1941D01*
X1814Y1941D01*
X1814Y1943D01*
X1818Y1943D01*
X1818Y1945D01*
X1820Y1945D01*
X1820Y1947D01*
X1824Y1947D01*
X1824Y1949D01*
X1828Y1949D01*
X1828Y1951D01*
X1832Y1951D01*
X1832Y1953D01*
X1838Y1953D01*
X1838Y1955D01*
X1844Y1955D01*
X1844Y1957D01*
X1856Y1957D01*
X1856Y1959D01*
X196Y1959D01*
G37*
D02*
G36*
X268Y1911D02*
X268Y1909D01*
X270Y1909D01*
X270Y1905D01*
X272Y1905D01*
X272Y1901D01*
X274Y1901D01*
X274Y1897D01*
X276Y1897D01*
X276Y1893D01*
X278Y1893D01*
X278Y1887D01*
X280Y1887D01*
X280Y1877D01*
X282Y1877D01*
X282Y1857D01*
X280Y1857D01*
X280Y1847D01*
X278Y1847D01*
X278Y1841D01*
X276Y1841D01*
X276Y1837D01*
X274Y1837D01*
X274Y1833D01*
X272Y1833D01*
X272Y1829D01*
X270Y1829D01*
X270Y1825D01*
X268Y1825D01*
X268Y1823D01*
X266Y1823D01*
X266Y1819D01*
X264Y1819D01*
X264Y1817D01*
X262Y1817D01*
X262Y1815D01*
X260Y1815D01*
X260Y1811D01*
X258Y1811D01*
X258Y1809D01*
X256Y1809D01*
X256Y1807D01*
X254Y1807D01*
X254Y1805D01*
X252Y1805D01*
X252Y1803D01*
X250Y1803D01*
X250Y1801D01*
X248Y1801D01*
X248Y1799D01*
X246Y1799D01*
X246Y1797D01*
X242Y1797D01*
X242Y1795D01*
X240Y1795D01*
X240Y1793D01*
X238Y1793D01*
X238Y1791D01*
X234Y1791D01*
X234Y1789D01*
X232Y1789D01*
X232Y1787D01*
X228Y1787D01*
X228Y1785D01*
X224Y1785D01*
X224Y1783D01*
X220Y1783D01*
X220Y1781D01*
X214Y1781D01*
X214Y1779D01*
X208Y1779D01*
X208Y1777D01*
X198Y1777D01*
X198Y1775D01*
X564Y1775D01*
X564Y1849D01*
X566Y1849D01*
X566Y1857D01*
X568Y1857D01*
X568Y1863D01*
X570Y1863D01*
X570Y1867D01*
X572Y1867D01*
X572Y1871D01*
X574Y1871D01*
X574Y1875D01*
X576Y1875D01*
X576Y1877D01*
X578Y1877D01*
X578Y1881D01*
X580Y1881D01*
X580Y1883D01*
X582Y1883D01*
X582Y1885D01*
X584Y1885D01*
X584Y1887D01*
X586Y1887D01*
X586Y1889D01*
X588Y1889D01*
X588Y1891D01*
X590Y1891D01*
X590Y1893D01*
X592Y1893D01*
X592Y1895D01*
X596Y1895D01*
X596Y1897D01*
X598Y1897D01*
X598Y1899D01*
X602Y1899D01*
X602Y1901D01*
X606Y1901D01*
X606Y1903D01*
X610Y1903D01*
X610Y1905D01*
X618Y1905D01*
X618Y1907D01*
X628Y1907D01*
X628Y1909D01*
X1330Y1909D01*
X1330Y1911D01*
X268Y1911D01*
G37*
D02*
G36*
X1536Y1811D02*
X1536Y1797D01*
X1538Y1797D01*
X1538Y1781D01*
X1540Y1781D01*
X1540Y1779D01*
X1542Y1779D01*
X1542Y1775D01*
X1544Y1775D01*
X1544Y1773D01*
X1546Y1773D01*
X1546Y1771D01*
X1566Y1771D01*
X1566Y1775D01*
X1568Y1775D01*
X1568Y1777D01*
X1570Y1777D01*
X1570Y1781D01*
X1572Y1781D01*
X1572Y1783D01*
X1574Y1783D01*
X1574Y1785D01*
X1576Y1785D01*
X1576Y1787D01*
X1578Y1787D01*
X1578Y1789D01*
X1580Y1789D01*
X1580Y1791D01*
X1582Y1791D01*
X1582Y1793D01*
X1584Y1793D01*
X1584Y1795D01*
X1586Y1795D01*
X1586Y1797D01*
X1590Y1797D01*
X1590Y1799D01*
X1592Y1799D01*
X1592Y1801D01*
X1596Y1801D01*
X1596Y1803D01*
X1600Y1803D01*
X1600Y1805D01*
X1606Y1805D01*
X1606Y1807D01*
X1612Y1807D01*
X1612Y1809D01*
X1630Y1809D01*
X1630Y1811D01*
X1536Y1811D01*
G37*
D02*
G36*
X48Y1775D02*
X48Y1773D01*
X564Y1773D01*
X564Y1775D01*
X48Y1775D01*
G37*
D02*
G36*
X48Y1775D02*
X48Y1773D01*
X564Y1773D01*
X564Y1775D01*
X48Y1775D01*
G37*
D02*
G36*
X48Y1773D02*
X48Y1261D01*
X68Y1261D01*
X68Y1265D01*
X70Y1265D01*
X70Y1269D01*
X72Y1269D01*
X72Y1273D01*
X74Y1273D01*
X74Y1277D01*
X76Y1277D01*
X76Y1279D01*
X78Y1279D01*
X78Y1281D01*
X80Y1281D01*
X80Y1283D01*
X82Y1283D01*
X82Y1285D01*
X84Y1285D01*
X84Y1287D01*
X86Y1287D01*
X86Y1289D01*
X88Y1289D01*
X88Y1291D01*
X90Y1291D01*
X90Y1293D01*
X92Y1293D01*
X92Y1295D01*
X94Y1295D01*
X94Y1297D01*
X96Y1297D01*
X96Y1299D01*
X98Y1299D01*
X98Y1301D01*
X100Y1301D01*
X100Y1303D01*
X102Y1303D01*
X102Y1305D01*
X104Y1305D01*
X104Y1307D01*
X106Y1307D01*
X106Y1309D01*
X108Y1309D01*
X108Y1311D01*
X110Y1311D01*
X110Y1313D01*
X112Y1313D01*
X112Y1315D01*
X114Y1315D01*
X114Y1317D01*
X116Y1317D01*
X116Y1319D01*
X118Y1319D01*
X118Y1321D01*
X120Y1321D01*
X120Y1323D01*
X122Y1323D01*
X122Y1325D01*
X124Y1325D01*
X124Y1327D01*
X126Y1327D01*
X126Y1329D01*
X128Y1329D01*
X128Y1331D01*
X130Y1331D01*
X130Y1333D01*
X132Y1333D01*
X132Y1335D01*
X134Y1335D01*
X134Y1337D01*
X136Y1337D01*
X136Y1339D01*
X138Y1339D01*
X138Y1341D01*
X140Y1341D01*
X140Y1343D01*
X142Y1343D01*
X142Y1345D01*
X144Y1345D01*
X144Y1347D01*
X146Y1347D01*
X146Y1349D01*
X148Y1349D01*
X148Y1351D01*
X150Y1351D01*
X150Y1353D01*
X152Y1353D01*
X152Y1355D01*
X154Y1355D01*
X154Y1357D01*
X156Y1357D01*
X156Y1359D01*
X158Y1359D01*
X158Y1361D01*
X160Y1361D01*
X160Y1363D01*
X162Y1363D01*
X162Y1365D01*
X164Y1365D01*
X164Y1367D01*
X166Y1367D01*
X166Y1369D01*
X168Y1369D01*
X168Y1371D01*
X170Y1371D01*
X170Y1373D01*
X172Y1373D01*
X172Y1375D01*
X174Y1375D01*
X174Y1377D01*
X176Y1377D01*
X176Y1379D01*
X180Y1379D01*
X180Y1381D01*
X182Y1381D01*
X182Y1383D01*
X184Y1383D01*
X184Y1385D01*
X186Y1385D01*
X186Y1387D01*
X188Y1387D01*
X188Y1389D01*
X190Y1389D01*
X190Y1391D01*
X192Y1391D01*
X192Y1393D01*
X194Y1393D01*
X194Y1395D01*
X196Y1395D01*
X196Y1397D01*
X198Y1397D01*
X198Y1399D01*
X200Y1399D01*
X200Y1401D01*
X202Y1401D01*
X202Y1403D01*
X204Y1403D01*
X204Y1405D01*
X206Y1405D01*
X206Y1407D01*
X208Y1407D01*
X208Y1409D01*
X210Y1409D01*
X210Y1411D01*
X212Y1411D01*
X212Y1413D01*
X214Y1413D01*
X214Y1415D01*
X216Y1415D01*
X216Y1417D01*
X218Y1417D01*
X218Y1419D01*
X220Y1419D01*
X220Y1421D01*
X222Y1421D01*
X222Y1423D01*
X224Y1423D01*
X224Y1425D01*
X226Y1425D01*
X226Y1427D01*
X228Y1427D01*
X228Y1429D01*
X230Y1429D01*
X230Y1431D01*
X232Y1431D01*
X232Y1433D01*
X234Y1433D01*
X234Y1435D01*
X236Y1435D01*
X236Y1437D01*
X238Y1437D01*
X238Y1439D01*
X240Y1439D01*
X240Y1441D01*
X242Y1441D01*
X242Y1443D01*
X244Y1443D01*
X244Y1445D01*
X246Y1445D01*
X246Y1447D01*
X248Y1447D01*
X248Y1449D01*
X250Y1449D01*
X250Y1451D01*
X252Y1451D01*
X252Y1453D01*
X254Y1453D01*
X254Y1455D01*
X256Y1455D01*
X256Y1457D01*
X258Y1457D01*
X258Y1459D01*
X260Y1459D01*
X260Y1461D01*
X262Y1461D01*
X262Y1463D01*
X264Y1463D01*
X264Y1465D01*
X266Y1465D01*
X266Y1467D01*
X268Y1467D01*
X268Y1469D01*
X270Y1469D01*
X270Y1471D01*
X272Y1471D01*
X272Y1473D01*
X274Y1473D01*
X274Y1475D01*
X278Y1475D01*
X278Y1477D01*
X280Y1477D01*
X280Y1479D01*
X282Y1479D01*
X282Y1481D01*
X284Y1481D01*
X284Y1483D01*
X286Y1483D01*
X286Y1485D01*
X288Y1485D01*
X288Y1487D01*
X290Y1487D01*
X290Y1489D01*
X292Y1489D01*
X292Y1491D01*
X294Y1491D01*
X294Y1493D01*
X298Y1493D01*
X298Y1495D01*
X300Y1495D01*
X300Y1497D01*
X304Y1497D01*
X304Y1499D01*
X308Y1499D01*
X308Y1501D01*
X312Y1501D01*
X312Y1503D01*
X318Y1503D01*
X318Y1505D01*
X330Y1505D01*
X330Y1507D01*
X550Y1507D01*
X550Y1545D01*
X552Y1545D01*
X552Y1553D01*
X554Y1553D01*
X554Y1559D01*
X556Y1559D01*
X556Y1563D01*
X558Y1563D01*
X558Y1567D01*
X560Y1567D01*
X560Y1571D01*
X562Y1571D01*
X562Y1573D01*
X564Y1573D01*
X564Y1773D01*
X48Y1773D01*
G37*
D02*
G36*
X708Y1765D02*
X708Y1573D01*
X710Y1573D01*
X710Y1569D01*
X712Y1569D01*
X712Y1565D01*
X714Y1565D01*
X714Y1561D01*
X716Y1561D01*
X716Y1555D01*
X718Y1555D01*
X718Y1549D01*
X720Y1549D01*
X720Y1507D01*
X762Y1507D01*
X762Y1737D01*
X764Y1737D01*
X764Y1765D01*
X708Y1765D01*
G37*
D02*
G36*
X1704Y1665D02*
X1704Y1615D01*
X1706Y1615D01*
X1706Y1611D01*
X1726Y1611D01*
X1726Y1613D01*
X1728Y1613D01*
X1728Y1617D01*
X1730Y1617D01*
X1730Y1619D01*
X1732Y1619D01*
X1732Y1623D01*
X1734Y1623D01*
X1734Y1625D01*
X1736Y1625D01*
X1736Y1627D01*
X1738Y1627D01*
X1738Y1629D01*
X1740Y1629D01*
X1740Y1633D01*
X1742Y1633D01*
X1742Y1635D01*
X1744Y1635D01*
X1744Y1637D01*
X1748Y1637D01*
X1748Y1639D01*
X1750Y1639D01*
X1750Y1641D01*
X1752Y1641D01*
X1752Y1643D01*
X1754Y1643D01*
X1754Y1645D01*
X1756Y1645D01*
X1756Y1665D01*
X1704Y1665D01*
G37*
D02*
G36*
X978Y1665D02*
X978Y1663D01*
X976Y1663D01*
X976Y1661D01*
X972Y1661D01*
X972Y1659D01*
X968Y1659D01*
X968Y1657D01*
X964Y1657D01*
X964Y1655D01*
X958Y1655D01*
X958Y1653D01*
X948Y1653D01*
X948Y1651D01*
X1180Y1651D01*
X1180Y1653D01*
X1178Y1653D01*
X1178Y1657D01*
X1176Y1657D01*
X1176Y1661D01*
X1174Y1661D01*
X1174Y1663D01*
X1172Y1663D01*
X1172Y1665D01*
X978Y1665D01*
G37*
D02*
G36*
X906Y1653D02*
X906Y1651D01*
X932Y1651D01*
X932Y1653D01*
X906Y1653D01*
G37*
D02*
G36*
X906Y1651D02*
X906Y1649D01*
X1182Y1649D01*
X1182Y1651D01*
X906Y1651D01*
G37*
D02*
G36*
X906Y1651D02*
X906Y1649D01*
X1182Y1649D01*
X1182Y1651D01*
X906Y1651D01*
G37*
D02*
G36*
X906Y1649D02*
X906Y1621D01*
X1142Y1621D01*
X1142Y1619D01*
X1152Y1619D01*
X1152Y1617D01*
X1158Y1617D01*
X1158Y1615D01*
X1162Y1615D01*
X1162Y1613D01*
X1166Y1613D01*
X1166Y1611D01*
X1170Y1611D01*
X1170Y1609D01*
X1174Y1609D01*
X1174Y1607D01*
X1196Y1607D01*
X1196Y1627D01*
X1194Y1627D01*
X1194Y1631D01*
X1192Y1631D01*
X1192Y1633D01*
X1190Y1633D01*
X1190Y1637D01*
X1188Y1637D01*
X1188Y1641D01*
X1186Y1641D01*
X1186Y1643D01*
X1184Y1643D01*
X1184Y1647D01*
X1182Y1647D01*
X1182Y1649D01*
X906Y1649D01*
G37*
D02*
G36*
X906Y1621D02*
X906Y1449D01*
X1028Y1449D01*
X1028Y1451D01*
X1018Y1451D01*
X1018Y1453D01*
X1012Y1453D01*
X1012Y1455D01*
X1008Y1455D01*
X1008Y1457D01*
X1004Y1457D01*
X1004Y1459D01*
X1000Y1459D01*
X1000Y1461D01*
X998Y1461D01*
X998Y1463D01*
X994Y1463D01*
X994Y1465D01*
X992Y1465D01*
X992Y1467D01*
X988Y1467D01*
X988Y1469D01*
X986Y1469D01*
X986Y1471D01*
X984Y1471D01*
X984Y1473D01*
X982Y1473D01*
X982Y1475D01*
X980Y1475D01*
X980Y1477D01*
X978Y1477D01*
X978Y1479D01*
X976Y1479D01*
X976Y1481D01*
X974Y1481D01*
X974Y1483D01*
X972Y1483D01*
X972Y1485D01*
X970Y1485D01*
X970Y1487D01*
X968Y1487D01*
X968Y1491D01*
X966Y1491D01*
X966Y1493D01*
X964Y1493D01*
X964Y1495D01*
X962Y1495D01*
X962Y1499D01*
X960Y1499D01*
X960Y1503D01*
X958Y1503D01*
X958Y1507D01*
X956Y1507D01*
X956Y1511D01*
X954Y1511D01*
X954Y1517D01*
X952Y1517D01*
X952Y1525D01*
X950Y1525D01*
X950Y1545D01*
X952Y1545D01*
X952Y1553D01*
X954Y1553D01*
X954Y1559D01*
X956Y1559D01*
X956Y1563D01*
X958Y1563D01*
X958Y1567D01*
X960Y1567D01*
X960Y1571D01*
X962Y1571D01*
X962Y1573D01*
X964Y1573D01*
X964Y1577D01*
X966Y1577D01*
X966Y1579D01*
X968Y1579D01*
X968Y1583D01*
X970Y1583D01*
X970Y1585D01*
X972Y1585D01*
X972Y1587D01*
X974Y1587D01*
X974Y1589D01*
X976Y1589D01*
X976Y1591D01*
X978Y1591D01*
X978Y1593D01*
X980Y1593D01*
X980Y1595D01*
X982Y1595D01*
X982Y1597D01*
X984Y1597D01*
X984Y1599D01*
X986Y1599D01*
X986Y1601D01*
X988Y1601D01*
X988Y1603D01*
X992Y1603D01*
X992Y1605D01*
X994Y1605D01*
X994Y1607D01*
X998Y1607D01*
X998Y1609D01*
X1000Y1609D01*
X1000Y1611D01*
X1004Y1611D01*
X1004Y1613D01*
X1008Y1613D01*
X1008Y1615D01*
X1014Y1615D01*
X1014Y1617D01*
X1020Y1617D01*
X1020Y1619D01*
X1030Y1619D01*
X1030Y1621D01*
X906Y1621D01*
G37*
D02*
G36*
X1042Y1621D02*
X1042Y1619D01*
X1052Y1619D01*
X1052Y1617D01*
X1058Y1617D01*
X1058Y1615D01*
X1062Y1615D01*
X1062Y1613D01*
X1066Y1613D01*
X1066Y1611D01*
X1070Y1611D01*
X1070Y1609D01*
X1074Y1609D01*
X1074Y1607D01*
X1098Y1607D01*
X1098Y1609D01*
X1100Y1609D01*
X1100Y1611D01*
X1104Y1611D01*
X1104Y1613D01*
X1108Y1613D01*
X1108Y1615D01*
X1114Y1615D01*
X1114Y1617D01*
X1120Y1617D01*
X1120Y1619D01*
X1130Y1619D01*
X1130Y1621D01*
X1042Y1621D01*
G37*
D02*
G36*
X1074Y1463D02*
X1074Y1461D01*
X1070Y1461D01*
X1070Y1459D01*
X1066Y1459D01*
X1066Y1457D01*
X1062Y1457D01*
X1062Y1455D01*
X1058Y1455D01*
X1058Y1453D01*
X1052Y1453D01*
X1052Y1451D01*
X1044Y1451D01*
X1044Y1449D01*
X1128Y1449D01*
X1128Y1451D01*
X1118Y1451D01*
X1118Y1453D01*
X1112Y1453D01*
X1112Y1455D01*
X1108Y1455D01*
X1108Y1457D01*
X1104Y1457D01*
X1104Y1459D01*
X1100Y1459D01*
X1100Y1461D01*
X1098Y1461D01*
X1098Y1463D01*
X1074Y1463D01*
G37*
D02*
G36*
X1174Y1463D02*
X1174Y1461D01*
X1170Y1461D01*
X1170Y1459D01*
X1166Y1459D01*
X1166Y1457D01*
X1162Y1457D01*
X1162Y1455D01*
X1158Y1455D01*
X1158Y1453D01*
X1152Y1453D01*
X1152Y1451D01*
X1144Y1451D01*
X1144Y1449D01*
X1228Y1449D01*
X1228Y1451D01*
X1218Y1451D01*
X1218Y1453D01*
X1212Y1453D01*
X1212Y1455D01*
X1208Y1455D01*
X1208Y1457D01*
X1204Y1457D01*
X1204Y1459D01*
X1200Y1459D01*
X1200Y1461D01*
X1198Y1461D01*
X1198Y1463D01*
X1174Y1463D01*
G37*
D02*
G36*
X1274Y1463D02*
X1274Y1461D01*
X1270Y1461D01*
X1270Y1459D01*
X1266Y1459D01*
X1266Y1457D01*
X1262Y1457D01*
X1262Y1455D01*
X1258Y1455D01*
X1258Y1453D01*
X1252Y1453D01*
X1252Y1451D01*
X1244Y1451D01*
X1244Y1449D01*
X1328Y1449D01*
X1328Y1451D01*
X1318Y1451D01*
X1318Y1453D01*
X1312Y1453D01*
X1312Y1455D01*
X1308Y1455D01*
X1308Y1457D01*
X1304Y1457D01*
X1304Y1459D01*
X1300Y1459D01*
X1300Y1461D01*
X1298Y1461D01*
X1298Y1463D01*
X1274Y1463D01*
G37*
D02*
G36*
X906Y1449D02*
X906Y1447D01*
X1360Y1447D01*
X1360Y1449D01*
X906Y1449D01*
G37*
D02*
G36*
X906Y1449D02*
X906Y1447D01*
X1360Y1447D01*
X1360Y1449D01*
X906Y1449D01*
G37*
D02*
G36*
X906Y1449D02*
X906Y1447D01*
X1360Y1447D01*
X1360Y1449D01*
X906Y1449D01*
G37*
D02*
G36*
X906Y1449D02*
X906Y1447D01*
X1360Y1447D01*
X1360Y1449D01*
X906Y1449D01*
G37*
D02*
G36*
X906Y1447D02*
X906Y1407D01*
X1360Y1407D01*
X1360Y1447D01*
X906Y1447D01*
G37*
D02*
G36*
X1874Y1489D02*
X1874Y1487D01*
X1894Y1487D01*
X1894Y1489D01*
X1874Y1489D01*
G37*
D02*
G36*
X1874Y1487D02*
X1874Y1469D01*
X1936Y1469D01*
X1936Y1471D01*
X1926Y1471D01*
X1926Y1473D01*
X1920Y1473D01*
X1920Y1475D01*
X1914Y1475D01*
X1914Y1477D01*
X1910Y1477D01*
X1910Y1479D01*
X1906Y1479D01*
X1906Y1481D01*
X1902Y1481D01*
X1902Y1483D01*
X1900Y1483D01*
X1900Y1485D01*
X1896Y1485D01*
X1896Y1487D01*
X1874Y1487D01*
G37*
D02*
G36*
X1984Y1487D02*
X1984Y1485D01*
X1982Y1485D01*
X1982Y1483D01*
X1978Y1483D01*
X1978Y1481D01*
X1976Y1481D01*
X1976Y1479D01*
X1972Y1479D01*
X1972Y1477D01*
X1968Y1477D01*
X1968Y1475D01*
X1962Y1475D01*
X1962Y1473D01*
X1956Y1473D01*
X1956Y1471D01*
X1944Y1471D01*
X1944Y1469D01*
X2006Y1469D01*
X2006Y1487D01*
X1984Y1487D01*
G37*
D02*
G36*
X1874Y1469D02*
X1874Y1467D01*
X2006Y1467D01*
X2006Y1469D01*
X1874Y1469D01*
G37*
D02*
G36*
X1874Y1469D02*
X1874Y1467D01*
X2006Y1467D01*
X2006Y1469D01*
X1874Y1469D01*
G37*
D02*
G36*
X1874Y1467D02*
X1874Y1407D01*
X1872Y1407D01*
X1872Y1397D01*
X1870Y1397D01*
X1870Y1391D01*
X1868Y1391D01*
X1868Y1387D01*
X1866Y1387D01*
X1866Y1383D01*
X1864Y1383D01*
X1864Y1379D01*
X1862Y1379D01*
X1862Y1377D01*
X1860Y1377D01*
X1860Y1373D01*
X1858Y1373D01*
X1858Y1371D01*
X1856Y1371D01*
X1856Y1369D01*
X1854Y1369D01*
X1854Y1367D01*
X1852Y1367D01*
X1852Y1365D01*
X1850Y1365D01*
X1850Y1363D01*
X1848Y1363D01*
X1848Y1361D01*
X1846Y1361D01*
X1846Y1359D01*
X1842Y1359D01*
X1842Y1357D01*
X1840Y1357D01*
X1840Y1355D01*
X1836Y1355D01*
X1836Y1353D01*
X1832Y1353D01*
X1832Y1351D01*
X1828Y1351D01*
X1828Y1349D01*
X1822Y1349D01*
X1822Y1347D01*
X1814Y1347D01*
X1814Y1345D01*
X1408Y1345D01*
X1408Y1321D01*
X1642Y1321D01*
X1642Y1319D01*
X1652Y1319D01*
X1652Y1317D01*
X1658Y1317D01*
X1658Y1315D01*
X1662Y1315D01*
X1662Y1313D01*
X1666Y1313D01*
X1666Y1311D01*
X1670Y1311D01*
X1670Y1309D01*
X1674Y1309D01*
X1674Y1307D01*
X1676Y1307D01*
X1676Y1305D01*
X1680Y1305D01*
X1680Y1303D01*
X1682Y1303D01*
X1682Y1301D01*
X1684Y1301D01*
X1684Y1299D01*
X1686Y1299D01*
X1686Y1297D01*
X1690Y1297D01*
X1690Y1295D01*
X1692Y1295D01*
X1692Y1293D01*
X1694Y1293D01*
X1694Y1291D01*
X1696Y1291D01*
X1696Y1289D01*
X1702Y1289D01*
X1702Y1287D01*
X1708Y1287D01*
X1708Y1285D01*
X1712Y1285D01*
X1712Y1283D01*
X1718Y1283D01*
X1718Y1281D01*
X1724Y1281D01*
X1724Y1279D01*
X1730Y1279D01*
X1730Y1277D01*
X1736Y1277D01*
X1736Y1275D01*
X1742Y1275D01*
X1742Y1273D01*
X1748Y1273D01*
X1748Y1271D01*
X1752Y1271D01*
X1752Y1269D01*
X1758Y1269D01*
X1758Y1267D01*
X1764Y1267D01*
X1764Y1265D01*
X1770Y1265D01*
X1770Y1263D01*
X1806Y1263D01*
X1806Y1261D01*
X1816Y1261D01*
X1816Y1259D01*
X1822Y1259D01*
X1822Y1257D01*
X1828Y1257D01*
X1828Y1255D01*
X1832Y1255D01*
X1832Y1253D01*
X1836Y1253D01*
X1836Y1251D01*
X1838Y1251D01*
X1838Y1249D01*
X1842Y1249D01*
X1842Y1247D01*
X1844Y1247D01*
X1844Y1245D01*
X1848Y1245D01*
X1848Y1243D01*
X1850Y1243D01*
X1850Y1241D01*
X1852Y1241D01*
X1852Y1239D01*
X1854Y1239D01*
X1854Y1237D01*
X1856Y1237D01*
X1856Y1235D01*
X1858Y1235D01*
X1858Y1233D01*
X1860Y1233D01*
X1860Y1231D01*
X1862Y1231D01*
X1862Y1229D01*
X1864Y1229D01*
X1864Y1227D01*
X1866Y1227D01*
X1866Y1225D01*
X1868Y1225D01*
X1868Y1221D01*
X1870Y1221D01*
X1870Y1219D01*
X1872Y1219D01*
X1872Y1215D01*
X1874Y1215D01*
X1874Y1213D01*
X1876Y1213D01*
X1876Y1209D01*
X1878Y1209D01*
X1878Y1205D01*
X1880Y1205D01*
X1880Y1201D01*
X1882Y1201D01*
X1882Y1195D01*
X1884Y1195D01*
X1884Y1193D01*
X1886Y1193D01*
X1886Y1191D01*
X1888Y1191D01*
X1888Y1189D01*
X1890Y1189D01*
X1890Y1187D01*
X1892Y1187D01*
X1892Y1185D01*
X1894Y1185D01*
X1894Y1183D01*
X1896Y1183D01*
X1896Y1181D01*
X1898Y1181D01*
X1898Y1179D01*
X1900Y1179D01*
X1900Y1177D01*
X1902Y1177D01*
X1902Y1175D01*
X1904Y1175D01*
X1904Y1173D01*
X1906Y1173D01*
X1906Y1169D01*
X1908Y1169D01*
X1908Y1167D01*
X1910Y1167D01*
X1910Y1165D01*
X1912Y1165D01*
X1912Y1163D01*
X1914Y1163D01*
X1914Y1161D01*
X1916Y1161D01*
X1916Y1159D01*
X1918Y1159D01*
X1918Y1157D01*
X1920Y1157D01*
X1920Y1155D01*
X1922Y1155D01*
X1922Y1153D01*
X1924Y1153D01*
X1924Y1151D01*
X1926Y1151D01*
X1926Y1149D01*
X1928Y1149D01*
X1928Y1147D01*
X1930Y1147D01*
X1930Y1145D01*
X1932Y1145D01*
X1932Y1143D01*
X1934Y1143D01*
X1934Y1141D01*
X1936Y1141D01*
X1936Y1139D01*
X1938Y1139D01*
X1938Y1137D01*
X1940Y1137D01*
X1940Y1135D01*
X1942Y1135D01*
X1942Y1133D01*
X1944Y1133D01*
X1944Y1131D01*
X1946Y1131D01*
X1946Y1129D01*
X1948Y1129D01*
X1948Y1127D01*
X1950Y1127D01*
X1950Y1125D01*
X1952Y1125D01*
X1952Y1121D01*
X1954Y1121D01*
X1954Y1119D01*
X1956Y1119D01*
X1956Y1117D01*
X1958Y1117D01*
X1958Y1115D01*
X1960Y1115D01*
X1960Y1113D01*
X1962Y1113D01*
X1962Y1111D01*
X1964Y1111D01*
X1964Y1109D01*
X1968Y1109D01*
X1968Y1107D01*
X1974Y1107D01*
X1974Y1105D01*
X1976Y1105D01*
X1976Y1103D01*
X1980Y1103D01*
X1980Y1101D01*
X1984Y1101D01*
X1984Y1099D01*
X1986Y1099D01*
X1986Y1097D01*
X2006Y1097D01*
X2006Y1467D01*
X1874Y1467D01*
G37*
D02*
G36*
X1408Y1321D02*
X1408Y1319D01*
X1430Y1319D01*
X1430Y1321D01*
X1408Y1321D01*
G37*
D02*
G36*
X1442Y1321D02*
X1442Y1319D01*
X1452Y1319D01*
X1452Y1317D01*
X1458Y1317D01*
X1458Y1315D01*
X1462Y1315D01*
X1462Y1313D01*
X1466Y1313D01*
X1466Y1311D01*
X1470Y1311D01*
X1470Y1309D01*
X1474Y1309D01*
X1474Y1307D01*
X1498Y1307D01*
X1498Y1309D01*
X1500Y1309D01*
X1500Y1311D01*
X1504Y1311D01*
X1504Y1313D01*
X1508Y1313D01*
X1508Y1315D01*
X1514Y1315D01*
X1514Y1317D01*
X1520Y1317D01*
X1520Y1319D01*
X1530Y1319D01*
X1530Y1321D01*
X1442Y1321D01*
G37*
D02*
G36*
X1542Y1321D02*
X1542Y1319D01*
X1552Y1319D01*
X1552Y1317D01*
X1558Y1317D01*
X1558Y1315D01*
X1562Y1315D01*
X1562Y1313D01*
X1566Y1313D01*
X1566Y1311D01*
X1570Y1311D01*
X1570Y1309D01*
X1574Y1309D01*
X1574Y1307D01*
X1598Y1307D01*
X1598Y1309D01*
X1600Y1309D01*
X1600Y1311D01*
X1604Y1311D01*
X1604Y1313D01*
X1608Y1313D01*
X1608Y1315D01*
X1614Y1315D01*
X1614Y1317D01*
X1620Y1317D01*
X1620Y1319D01*
X1630Y1319D01*
X1630Y1321D01*
X1542Y1321D01*
G37*
D02*
G36*
X366Y1363D02*
X366Y1361D01*
X364Y1361D01*
X364Y1359D01*
X362Y1359D01*
X362Y1357D01*
X360Y1357D01*
X360Y1355D01*
X358Y1355D01*
X358Y1335D01*
X364Y1335D01*
X364Y1333D01*
X368Y1333D01*
X368Y1331D01*
X372Y1331D01*
X372Y1329D01*
X376Y1329D01*
X376Y1327D01*
X380Y1327D01*
X380Y1325D01*
X384Y1325D01*
X384Y1323D01*
X388Y1323D01*
X388Y1321D01*
X390Y1321D01*
X390Y1319D01*
X392Y1319D01*
X392Y1317D01*
X396Y1317D01*
X396Y1315D01*
X398Y1315D01*
X398Y1313D01*
X400Y1313D01*
X400Y1311D01*
X402Y1311D01*
X402Y1309D01*
X404Y1309D01*
X404Y1307D01*
X406Y1307D01*
X406Y1305D01*
X408Y1305D01*
X408Y1303D01*
X410Y1303D01*
X410Y1301D01*
X412Y1301D01*
X412Y1299D01*
X414Y1299D01*
X414Y1297D01*
X416Y1297D01*
X416Y1295D01*
X436Y1295D01*
X436Y1297D01*
X438Y1297D01*
X438Y1301D01*
X440Y1301D01*
X440Y1305D01*
X442Y1305D01*
X442Y1309D01*
X444Y1309D01*
X444Y1311D01*
X446Y1311D01*
X446Y1313D01*
X448Y1313D01*
X448Y1315D01*
X450Y1315D01*
X450Y1319D01*
X452Y1319D01*
X452Y1321D01*
X454Y1321D01*
X454Y1323D01*
X458Y1323D01*
X458Y1325D01*
X460Y1325D01*
X460Y1327D01*
X462Y1327D01*
X462Y1329D01*
X466Y1329D01*
X466Y1331D01*
X470Y1331D01*
X470Y1333D01*
X474Y1333D01*
X474Y1335D01*
X478Y1335D01*
X478Y1337D01*
X484Y1337D01*
X484Y1339D01*
X494Y1339D01*
X494Y1341D01*
X862Y1341D01*
X862Y1345D01*
X864Y1345D01*
X864Y1363D01*
X366Y1363D01*
G37*
D02*
G36*
X208Y1161D02*
X208Y1029D01*
X228Y1029D01*
X228Y1161D01*
X208Y1161D01*
G37*
D02*
G36*
X1308Y1151D02*
X1308Y1149D01*
X1328Y1149D01*
X1328Y1151D01*
X1308Y1151D01*
G37*
D02*
G36*
X1344Y1151D02*
X1344Y1149D01*
X1364Y1149D01*
X1364Y1151D01*
X1344Y1151D01*
G37*
D02*
G36*
X1308Y1149D02*
X1308Y1147D01*
X1364Y1147D01*
X1364Y1149D01*
X1308Y1149D01*
G37*
D02*
G36*
X1308Y1149D02*
X1308Y1147D01*
X1364Y1147D01*
X1364Y1149D01*
X1308Y1149D01*
G37*
D02*
G36*
X1308Y1147D02*
X1308Y443D01*
X1360Y443D01*
X1360Y543D01*
X1362Y543D01*
X1362Y1117D01*
X1364Y1117D01*
X1364Y1147D01*
X1308Y1147D01*
G37*
D02*
G36*
X1610Y1149D02*
X1610Y1135D01*
X1612Y1135D01*
X1612Y1101D01*
X1698Y1101D01*
X1698Y1099D01*
X1710Y1099D01*
X1710Y1097D01*
X1718Y1097D01*
X1718Y1095D01*
X1722Y1095D01*
X1722Y1093D01*
X1726Y1093D01*
X1726Y1091D01*
X1730Y1091D01*
X1730Y1089D01*
X1732Y1089D01*
X1732Y1087D01*
X1736Y1087D01*
X1736Y1085D01*
X1738Y1085D01*
X1738Y1083D01*
X1740Y1083D01*
X1740Y1081D01*
X1742Y1081D01*
X1742Y1079D01*
X1744Y1079D01*
X1744Y1077D01*
X1746Y1077D01*
X1746Y1075D01*
X1748Y1075D01*
X1748Y1073D01*
X1750Y1073D01*
X1750Y1071D01*
X1752Y1071D01*
X1752Y1067D01*
X1754Y1067D01*
X1754Y1065D01*
X1756Y1065D01*
X1756Y1061D01*
X1758Y1061D01*
X1758Y1057D01*
X1760Y1057D01*
X1760Y1051D01*
X1762Y1051D01*
X1762Y1047D01*
X1764Y1047D01*
X1764Y1041D01*
X1766Y1041D01*
X1766Y1035D01*
X1768Y1035D01*
X1768Y1029D01*
X1770Y1029D01*
X1770Y1025D01*
X1772Y1025D01*
X1772Y1019D01*
X1774Y1019D01*
X1774Y1013D01*
X1776Y1013D01*
X1776Y1009D01*
X1778Y1009D01*
X1778Y1003D01*
X1780Y1003D01*
X1780Y997D01*
X1782Y997D01*
X1782Y991D01*
X1784Y991D01*
X1784Y987D01*
X1786Y987D01*
X1786Y981D01*
X1788Y981D01*
X1788Y975D01*
X1790Y975D01*
X1790Y971D01*
X1792Y971D01*
X1792Y965D01*
X1794Y965D01*
X1794Y959D01*
X1796Y959D01*
X1796Y955D01*
X1798Y955D01*
X1798Y949D01*
X1800Y949D01*
X1800Y943D01*
X1934Y943D01*
X1934Y945D01*
X1924Y945D01*
X1924Y947D01*
X1920Y947D01*
X1920Y949D01*
X1914Y949D01*
X1914Y951D01*
X1910Y951D01*
X1910Y953D01*
X1908Y953D01*
X1908Y955D01*
X1904Y955D01*
X1904Y957D01*
X1900Y957D01*
X1900Y959D01*
X1898Y959D01*
X1898Y961D01*
X1896Y961D01*
X1896Y963D01*
X1894Y963D01*
X1894Y965D01*
X1890Y965D01*
X1890Y967D01*
X1888Y967D01*
X1888Y969D01*
X1886Y969D01*
X1886Y971D01*
X1884Y971D01*
X1884Y973D01*
X1882Y973D01*
X1882Y975D01*
X1880Y975D01*
X1880Y977D01*
X1878Y977D01*
X1878Y981D01*
X1876Y981D01*
X1876Y983D01*
X1874Y983D01*
X1874Y985D01*
X1872Y985D01*
X1872Y989D01*
X1870Y989D01*
X1870Y991D01*
X1868Y991D01*
X1868Y995D01*
X1866Y995D01*
X1866Y999D01*
X1864Y999D01*
X1864Y1003D01*
X1862Y1003D01*
X1862Y1009D01*
X1860Y1009D01*
X1860Y1011D01*
X1858Y1011D01*
X1858Y1013D01*
X1856Y1013D01*
X1856Y1017D01*
X1854Y1017D01*
X1854Y1019D01*
X1852Y1019D01*
X1852Y1021D01*
X1850Y1021D01*
X1850Y1023D01*
X1848Y1023D01*
X1848Y1025D01*
X1846Y1025D01*
X1846Y1027D01*
X1844Y1027D01*
X1844Y1029D01*
X1842Y1029D01*
X1842Y1031D01*
X1840Y1031D01*
X1840Y1033D01*
X1838Y1033D01*
X1838Y1035D01*
X1836Y1035D01*
X1836Y1037D01*
X1834Y1037D01*
X1834Y1039D01*
X1832Y1039D01*
X1832Y1041D01*
X1830Y1041D01*
X1830Y1043D01*
X1828Y1043D01*
X1828Y1045D01*
X1826Y1045D01*
X1826Y1047D01*
X1824Y1047D01*
X1824Y1049D01*
X1822Y1049D01*
X1822Y1051D01*
X1820Y1051D01*
X1820Y1053D01*
X1818Y1053D01*
X1818Y1055D01*
X1816Y1055D01*
X1816Y1057D01*
X1814Y1057D01*
X1814Y1059D01*
X1812Y1059D01*
X1812Y1061D01*
X1810Y1061D01*
X1810Y1065D01*
X1808Y1065D01*
X1808Y1067D01*
X1806Y1067D01*
X1806Y1069D01*
X1804Y1069D01*
X1804Y1071D01*
X1802Y1071D01*
X1802Y1073D01*
X1800Y1073D01*
X1800Y1075D01*
X1798Y1075D01*
X1798Y1077D01*
X1796Y1077D01*
X1796Y1079D01*
X1794Y1079D01*
X1794Y1081D01*
X1792Y1081D01*
X1792Y1083D01*
X1790Y1083D01*
X1790Y1085D01*
X1788Y1085D01*
X1788Y1087D01*
X1786Y1087D01*
X1786Y1089D01*
X1784Y1089D01*
X1784Y1091D01*
X1782Y1091D01*
X1782Y1093D01*
X1780Y1093D01*
X1780Y1095D01*
X1778Y1095D01*
X1778Y1097D01*
X1774Y1097D01*
X1774Y1099D01*
X1770Y1099D01*
X1770Y1101D01*
X1766Y1101D01*
X1766Y1103D01*
X1762Y1103D01*
X1762Y1105D01*
X1760Y1105D01*
X1760Y1107D01*
X1756Y1107D01*
X1756Y1109D01*
X1754Y1109D01*
X1754Y1111D01*
X1752Y1111D01*
X1752Y1113D01*
X1750Y1113D01*
X1750Y1115D01*
X1746Y1115D01*
X1746Y1117D01*
X1744Y1117D01*
X1744Y1119D01*
X1742Y1119D01*
X1742Y1121D01*
X1740Y1121D01*
X1740Y1123D01*
X1734Y1123D01*
X1734Y1125D01*
X1728Y1125D01*
X1728Y1127D01*
X1722Y1127D01*
X1722Y1129D01*
X1716Y1129D01*
X1716Y1131D01*
X1712Y1131D01*
X1712Y1133D01*
X1706Y1133D01*
X1706Y1135D01*
X1700Y1135D01*
X1700Y1137D01*
X1694Y1137D01*
X1694Y1139D01*
X1688Y1139D01*
X1688Y1141D01*
X1682Y1141D01*
X1682Y1143D01*
X1676Y1143D01*
X1676Y1145D01*
X1672Y1145D01*
X1672Y1147D01*
X1666Y1147D01*
X1666Y1149D01*
X1610Y1149D01*
G37*
D02*
G36*
X1984Y959D02*
X1984Y957D01*
X1982Y957D01*
X1982Y955D01*
X1978Y955D01*
X1978Y953D01*
X1974Y953D01*
X1974Y951D01*
X1970Y951D01*
X1970Y949D01*
X1966Y949D01*
X1966Y947D01*
X1960Y947D01*
X1960Y945D01*
X1952Y945D01*
X1952Y943D01*
X2006Y943D01*
X2006Y959D01*
X1984Y959D01*
G37*
D02*
G36*
X1582Y957D02*
X1582Y955D01*
X1578Y955D01*
X1578Y953D01*
X1574Y953D01*
X1574Y951D01*
X1570Y951D01*
X1570Y949D01*
X1566Y949D01*
X1566Y947D01*
X1560Y947D01*
X1560Y945D01*
X1552Y945D01*
X1552Y943D01*
X1648Y943D01*
X1648Y945D01*
X1646Y945D01*
X1646Y949D01*
X1644Y949D01*
X1644Y955D01*
X1642Y955D01*
X1642Y957D01*
X1582Y957D01*
G37*
D02*
G36*
X1506Y945D02*
X1506Y943D01*
X1534Y943D01*
X1534Y945D01*
X1506Y945D01*
G37*
D02*
G36*
X1506Y943D02*
X1506Y941D01*
X1648Y941D01*
X1648Y943D01*
X1506Y943D01*
G37*
D02*
G36*
X1506Y943D02*
X1506Y941D01*
X1648Y941D01*
X1648Y943D01*
X1506Y943D01*
G37*
D02*
G36*
X1802Y943D02*
X1802Y941D01*
X2006Y941D01*
X2006Y943D01*
X1802Y943D01*
G37*
D02*
G36*
X1802Y943D02*
X1802Y941D01*
X2006Y941D01*
X2006Y943D01*
X1802Y943D01*
G37*
D02*
G36*
X1506Y941D02*
X1506Y685D01*
X1676Y685D01*
X1676Y683D01*
X1682Y683D01*
X1682Y681D01*
X1688Y681D01*
X1688Y679D01*
X1692Y679D01*
X1692Y677D01*
X1696Y677D01*
X1696Y675D01*
X1700Y675D01*
X1700Y673D01*
X1702Y673D01*
X1702Y671D01*
X1706Y671D01*
X1706Y669D01*
X1708Y669D01*
X1708Y667D01*
X1712Y667D01*
X1712Y665D01*
X1714Y665D01*
X1714Y663D01*
X1716Y663D01*
X1716Y661D01*
X1718Y661D01*
X1718Y659D01*
X1720Y659D01*
X1720Y657D01*
X1722Y657D01*
X1722Y655D01*
X1724Y655D01*
X1724Y653D01*
X1726Y653D01*
X1726Y651D01*
X1788Y651D01*
X1788Y653D01*
X1780Y653D01*
X1780Y655D01*
X1776Y655D01*
X1776Y657D01*
X1770Y657D01*
X1770Y659D01*
X1766Y659D01*
X1766Y661D01*
X1764Y661D01*
X1764Y663D01*
X1760Y663D01*
X1760Y665D01*
X1758Y665D01*
X1758Y667D01*
X1754Y667D01*
X1754Y669D01*
X1752Y669D01*
X1752Y671D01*
X1750Y671D01*
X1750Y673D01*
X1748Y673D01*
X1748Y675D01*
X1744Y675D01*
X1744Y677D01*
X1742Y677D01*
X1742Y679D01*
X1740Y679D01*
X1740Y683D01*
X1738Y683D01*
X1738Y685D01*
X1736Y685D01*
X1736Y687D01*
X1734Y687D01*
X1734Y689D01*
X1732Y689D01*
X1732Y691D01*
X1730Y691D01*
X1730Y695D01*
X1728Y695D01*
X1728Y697D01*
X1726Y697D01*
X1726Y701D01*
X1724Y701D01*
X1724Y705D01*
X1722Y705D01*
X1722Y709D01*
X1720Y709D01*
X1720Y713D01*
X1718Y713D01*
X1718Y719D01*
X1716Y719D01*
X1716Y727D01*
X1714Y727D01*
X1714Y767D01*
X1712Y767D01*
X1712Y771D01*
X1710Y771D01*
X1710Y777D01*
X1708Y777D01*
X1708Y783D01*
X1706Y783D01*
X1706Y787D01*
X1704Y787D01*
X1704Y793D01*
X1702Y793D01*
X1702Y799D01*
X1700Y799D01*
X1700Y803D01*
X1698Y803D01*
X1698Y809D01*
X1696Y809D01*
X1696Y815D01*
X1694Y815D01*
X1694Y821D01*
X1692Y821D01*
X1692Y825D01*
X1690Y825D01*
X1690Y831D01*
X1688Y831D01*
X1688Y837D01*
X1686Y837D01*
X1686Y841D01*
X1684Y841D01*
X1684Y847D01*
X1682Y847D01*
X1682Y853D01*
X1680Y853D01*
X1680Y857D01*
X1678Y857D01*
X1678Y863D01*
X1676Y863D01*
X1676Y869D01*
X1674Y869D01*
X1674Y875D01*
X1672Y875D01*
X1672Y879D01*
X1670Y879D01*
X1670Y885D01*
X1668Y885D01*
X1668Y891D01*
X1666Y891D01*
X1666Y895D01*
X1664Y895D01*
X1664Y901D01*
X1662Y901D01*
X1662Y907D01*
X1660Y907D01*
X1660Y913D01*
X1658Y913D01*
X1658Y917D01*
X1656Y917D01*
X1656Y923D01*
X1654Y923D01*
X1654Y929D01*
X1652Y929D01*
X1652Y933D01*
X1650Y933D01*
X1650Y939D01*
X1648Y939D01*
X1648Y941D01*
X1506Y941D01*
G37*
D02*
G36*
X1802Y941D02*
X1802Y937D01*
X1804Y937D01*
X1804Y933D01*
X1806Y933D01*
X1806Y927D01*
X1808Y927D01*
X1808Y921D01*
X1810Y921D01*
X1810Y917D01*
X1812Y917D01*
X1812Y911D01*
X1814Y911D01*
X1814Y905D01*
X1816Y905D01*
X1816Y901D01*
X1818Y901D01*
X1818Y895D01*
X1820Y895D01*
X1820Y889D01*
X1822Y889D01*
X1822Y883D01*
X1824Y883D01*
X1824Y879D01*
X1826Y879D01*
X1826Y873D01*
X1828Y873D01*
X1828Y867D01*
X1830Y867D01*
X1830Y863D01*
X1832Y863D01*
X1832Y857D01*
X1834Y857D01*
X1834Y851D01*
X1836Y851D01*
X1836Y845D01*
X1838Y845D01*
X1838Y841D01*
X1840Y841D01*
X1840Y835D01*
X1842Y835D01*
X1842Y829D01*
X1844Y829D01*
X1844Y825D01*
X1846Y825D01*
X1846Y819D01*
X1848Y819D01*
X1848Y813D01*
X1850Y813D01*
X1850Y809D01*
X1852Y809D01*
X1852Y803D01*
X1854Y803D01*
X1854Y799D01*
X1856Y799D01*
X1856Y797D01*
X1858Y797D01*
X1858Y795D01*
X1860Y795D01*
X1860Y793D01*
X1862Y793D01*
X1862Y791D01*
X1864Y791D01*
X1864Y789D01*
X1866Y789D01*
X1866Y787D01*
X1868Y787D01*
X1868Y783D01*
X1870Y783D01*
X1870Y781D01*
X1872Y781D01*
X1872Y777D01*
X1874Y777D01*
X1874Y775D01*
X1876Y775D01*
X1876Y771D01*
X1878Y771D01*
X1878Y767D01*
X1880Y767D01*
X1880Y763D01*
X1882Y763D01*
X1882Y759D01*
X1884Y759D01*
X1884Y751D01*
X1886Y751D01*
X1886Y723D01*
X1884Y723D01*
X1884Y715D01*
X1882Y715D01*
X1882Y711D01*
X1880Y711D01*
X1880Y707D01*
X1878Y707D01*
X1878Y703D01*
X1876Y703D01*
X1876Y699D01*
X1874Y699D01*
X1874Y695D01*
X1872Y695D01*
X1872Y693D01*
X1870Y693D01*
X1870Y691D01*
X1868Y691D01*
X1868Y687D01*
X1866Y687D01*
X1866Y685D01*
X1864Y685D01*
X1864Y683D01*
X1862Y683D01*
X1862Y681D01*
X1860Y681D01*
X1860Y679D01*
X1858Y679D01*
X1858Y677D01*
X1856Y677D01*
X1856Y675D01*
X1854Y675D01*
X1854Y673D01*
X1852Y673D01*
X1852Y671D01*
X1850Y671D01*
X1850Y669D01*
X1846Y669D01*
X1846Y667D01*
X1844Y667D01*
X1844Y665D01*
X1840Y665D01*
X1840Y663D01*
X1838Y663D01*
X1838Y661D01*
X1834Y661D01*
X1834Y659D01*
X1830Y659D01*
X1830Y657D01*
X1826Y657D01*
X1826Y655D01*
X1820Y655D01*
X1820Y653D01*
X1814Y653D01*
X1814Y651D01*
X2006Y651D01*
X2006Y941D01*
X1802Y941D01*
G37*
D02*
G36*
X48Y875D02*
X48Y289D01*
X196Y289D01*
X196Y287D01*
X208Y287D01*
X208Y285D01*
X214Y285D01*
X214Y283D01*
X220Y283D01*
X220Y281D01*
X224Y281D01*
X224Y279D01*
X228Y279D01*
X228Y277D01*
X230Y277D01*
X230Y275D01*
X234Y275D01*
X234Y273D01*
X238Y273D01*
X238Y271D01*
X240Y271D01*
X240Y269D01*
X242Y269D01*
X242Y267D01*
X244Y267D01*
X244Y265D01*
X264Y265D01*
X264Y303D01*
X262Y303D01*
X262Y525D01*
X132Y525D01*
X132Y527D01*
X122Y527D01*
X122Y529D01*
X116Y529D01*
X116Y531D01*
X112Y531D01*
X112Y533D01*
X108Y533D01*
X108Y535D01*
X104Y535D01*
X104Y537D01*
X102Y537D01*
X102Y539D01*
X98Y539D01*
X98Y541D01*
X96Y541D01*
X96Y543D01*
X94Y543D01*
X94Y545D01*
X92Y545D01*
X92Y547D01*
X90Y547D01*
X90Y549D01*
X88Y549D01*
X88Y551D01*
X86Y551D01*
X86Y553D01*
X84Y553D01*
X84Y557D01*
X82Y557D01*
X82Y559D01*
X80Y559D01*
X80Y563D01*
X78Y563D01*
X78Y567D01*
X76Y567D01*
X76Y573D01*
X74Y573D01*
X74Y579D01*
X72Y579D01*
X72Y589D01*
X70Y589D01*
X70Y721D01*
X68Y721D01*
X68Y875D01*
X48Y875D01*
G37*
D02*
G36*
X1506Y685D02*
X1506Y539D01*
X1504Y539D01*
X1504Y513D01*
X1650Y513D01*
X1650Y515D01*
X1644Y515D01*
X1644Y517D01*
X1638Y517D01*
X1638Y519D01*
X1634Y519D01*
X1634Y521D01*
X1630Y521D01*
X1630Y523D01*
X1626Y523D01*
X1626Y525D01*
X1622Y525D01*
X1622Y527D01*
X1620Y527D01*
X1620Y529D01*
X1616Y529D01*
X1616Y531D01*
X1614Y531D01*
X1614Y533D01*
X1612Y533D01*
X1612Y535D01*
X1610Y535D01*
X1610Y537D01*
X1608Y537D01*
X1608Y539D01*
X1606Y539D01*
X1606Y541D01*
X1604Y541D01*
X1604Y543D01*
X1602Y543D01*
X1602Y545D01*
X1600Y545D01*
X1600Y547D01*
X1598Y547D01*
X1598Y549D01*
X1596Y549D01*
X1596Y551D01*
X1594Y551D01*
X1594Y555D01*
X1592Y555D01*
X1592Y557D01*
X1590Y557D01*
X1590Y561D01*
X1588Y561D01*
X1588Y563D01*
X1586Y563D01*
X1586Y567D01*
X1584Y567D01*
X1584Y571D01*
X1582Y571D01*
X1582Y575D01*
X1580Y575D01*
X1580Y581D01*
X1578Y581D01*
X1578Y591D01*
X1576Y591D01*
X1576Y607D01*
X1578Y607D01*
X1578Y617D01*
X1580Y617D01*
X1580Y623D01*
X1582Y623D01*
X1582Y627D01*
X1584Y627D01*
X1584Y631D01*
X1586Y631D01*
X1586Y635D01*
X1588Y635D01*
X1588Y639D01*
X1590Y639D01*
X1590Y641D01*
X1592Y641D01*
X1592Y643D01*
X1594Y643D01*
X1594Y647D01*
X1596Y647D01*
X1596Y649D01*
X1598Y649D01*
X1598Y651D01*
X1600Y651D01*
X1600Y653D01*
X1602Y653D01*
X1602Y655D01*
X1604Y655D01*
X1604Y657D01*
X1606Y657D01*
X1606Y659D01*
X1608Y659D01*
X1608Y661D01*
X1610Y661D01*
X1610Y663D01*
X1612Y663D01*
X1612Y665D01*
X1614Y665D01*
X1614Y667D01*
X1616Y667D01*
X1616Y669D01*
X1620Y669D01*
X1620Y671D01*
X1622Y671D01*
X1622Y673D01*
X1626Y673D01*
X1626Y675D01*
X1630Y675D01*
X1630Y677D01*
X1634Y677D01*
X1634Y679D01*
X1638Y679D01*
X1638Y681D01*
X1642Y681D01*
X1642Y683D01*
X1650Y683D01*
X1650Y685D01*
X1506Y685D01*
G37*
D02*
G36*
X1728Y651D02*
X1728Y649D01*
X2006Y649D01*
X2006Y651D01*
X1728Y651D01*
G37*
D02*
G36*
X1728Y651D02*
X1728Y649D01*
X2006Y649D01*
X2006Y651D01*
X1728Y651D01*
G37*
D02*
G36*
X1730Y649D02*
X1730Y645D01*
X1732Y645D01*
X1732Y643D01*
X1734Y643D01*
X1734Y641D01*
X1736Y641D01*
X1736Y637D01*
X1738Y637D01*
X1738Y633D01*
X1740Y633D01*
X1740Y631D01*
X1742Y631D01*
X1742Y625D01*
X1744Y625D01*
X1744Y621D01*
X1746Y621D01*
X1746Y615D01*
X1748Y615D01*
X1748Y603D01*
X1750Y603D01*
X1750Y595D01*
X1748Y595D01*
X1748Y583D01*
X1746Y583D01*
X1746Y577D01*
X1744Y577D01*
X1744Y573D01*
X1742Y573D01*
X1742Y569D01*
X1740Y569D01*
X1740Y565D01*
X1738Y565D01*
X1738Y561D01*
X1736Y561D01*
X1736Y557D01*
X1734Y557D01*
X1734Y555D01*
X1732Y555D01*
X1732Y553D01*
X1730Y553D01*
X1730Y549D01*
X1728Y549D01*
X1728Y547D01*
X1814Y547D01*
X1814Y545D01*
X1822Y545D01*
X1822Y543D01*
X1826Y543D01*
X1826Y541D01*
X1830Y541D01*
X1830Y539D01*
X1834Y539D01*
X1834Y537D01*
X1838Y537D01*
X1838Y535D01*
X1842Y535D01*
X1842Y533D01*
X1844Y533D01*
X1844Y531D01*
X1846Y531D01*
X1846Y529D01*
X1850Y529D01*
X1850Y527D01*
X1852Y527D01*
X1852Y525D01*
X1854Y525D01*
X1854Y523D01*
X1856Y523D01*
X1856Y521D01*
X1858Y521D01*
X1858Y519D01*
X1860Y519D01*
X1860Y517D01*
X1862Y517D01*
X1862Y515D01*
X1864Y515D01*
X1864Y513D01*
X1866Y513D01*
X1866Y511D01*
X1868Y511D01*
X1868Y507D01*
X1870Y507D01*
X1870Y505D01*
X1872Y505D01*
X1872Y503D01*
X1874Y503D01*
X1874Y499D01*
X1876Y499D01*
X1876Y495D01*
X1878Y495D01*
X1878Y491D01*
X1880Y491D01*
X1880Y487D01*
X1882Y487D01*
X1882Y483D01*
X1884Y483D01*
X1884Y477D01*
X1886Y477D01*
X1886Y447D01*
X1884Y447D01*
X1884Y439D01*
X1882Y439D01*
X1882Y435D01*
X1880Y435D01*
X1880Y431D01*
X1878Y431D01*
X1878Y427D01*
X1876Y427D01*
X1876Y423D01*
X1874Y423D01*
X1874Y421D01*
X1872Y421D01*
X1872Y417D01*
X1870Y417D01*
X1870Y415D01*
X1868Y415D01*
X1868Y413D01*
X1866Y413D01*
X1866Y409D01*
X1864Y409D01*
X1864Y407D01*
X1862Y407D01*
X1862Y405D01*
X1860Y405D01*
X1860Y403D01*
X1858Y403D01*
X1858Y401D01*
X1856Y401D01*
X1856Y399D01*
X1854Y399D01*
X1854Y397D01*
X1852Y397D01*
X1852Y395D01*
X1848Y395D01*
X1848Y393D01*
X1846Y393D01*
X1846Y391D01*
X1844Y391D01*
X1844Y389D01*
X1840Y389D01*
X1840Y387D01*
X1836Y387D01*
X1836Y385D01*
X1834Y385D01*
X1834Y383D01*
X1830Y383D01*
X1830Y381D01*
X1824Y381D01*
X1824Y379D01*
X1820Y379D01*
X1820Y377D01*
X1812Y377D01*
X1812Y375D01*
X2006Y375D01*
X2006Y649D01*
X1730Y649D01*
G37*
D02*
G36*
X1726Y547D02*
X1726Y545D01*
X1724Y545D01*
X1724Y543D01*
X1722Y543D01*
X1722Y541D01*
X1720Y541D01*
X1720Y539D01*
X1718Y539D01*
X1718Y537D01*
X1716Y537D01*
X1716Y535D01*
X1714Y535D01*
X1714Y533D01*
X1712Y533D01*
X1712Y531D01*
X1708Y531D01*
X1708Y529D01*
X1706Y529D01*
X1706Y527D01*
X1702Y527D01*
X1702Y525D01*
X1700Y525D01*
X1700Y523D01*
X1696Y523D01*
X1696Y521D01*
X1692Y521D01*
X1692Y519D01*
X1688Y519D01*
X1688Y517D01*
X1682Y517D01*
X1682Y515D01*
X1674Y515D01*
X1674Y513D01*
X1738Y513D01*
X1738Y517D01*
X1740Y517D01*
X1740Y519D01*
X1742Y519D01*
X1742Y521D01*
X1744Y521D01*
X1744Y523D01*
X1748Y523D01*
X1748Y525D01*
X1750Y525D01*
X1750Y527D01*
X1752Y527D01*
X1752Y529D01*
X1754Y529D01*
X1754Y531D01*
X1758Y531D01*
X1758Y533D01*
X1760Y533D01*
X1760Y535D01*
X1764Y535D01*
X1764Y537D01*
X1766Y537D01*
X1766Y539D01*
X1770Y539D01*
X1770Y541D01*
X1774Y541D01*
X1774Y543D01*
X1780Y543D01*
X1780Y545D01*
X1786Y545D01*
X1786Y547D01*
X1726Y547D01*
G37*
D02*
G36*
X1504Y513D02*
X1504Y511D01*
X1736Y511D01*
X1736Y513D01*
X1504Y513D01*
G37*
D02*
G36*
X1504Y513D02*
X1504Y511D01*
X1736Y511D01*
X1736Y513D01*
X1504Y513D01*
G37*
D02*
G36*
X1504Y511D02*
X1504Y421D01*
X1650Y421D01*
X1650Y419D01*
X1656Y419D01*
X1656Y417D01*
X1662Y417D01*
X1662Y415D01*
X1666Y415D01*
X1666Y413D01*
X1670Y413D01*
X1670Y411D01*
X1672Y411D01*
X1672Y409D01*
X1676Y409D01*
X1676Y407D01*
X1680Y407D01*
X1680Y405D01*
X1682Y405D01*
X1682Y403D01*
X1684Y403D01*
X1684Y401D01*
X1686Y401D01*
X1686Y399D01*
X1690Y399D01*
X1690Y397D01*
X1692Y397D01*
X1692Y395D01*
X1694Y395D01*
X1694Y393D01*
X1696Y393D01*
X1696Y391D01*
X1698Y391D01*
X1698Y387D01*
X1700Y387D01*
X1700Y385D01*
X1702Y385D01*
X1702Y383D01*
X1704Y383D01*
X1704Y381D01*
X1706Y381D01*
X1706Y377D01*
X1708Y377D01*
X1708Y375D01*
X1790Y375D01*
X1790Y377D01*
X1782Y377D01*
X1782Y379D01*
X1776Y379D01*
X1776Y381D01*
X1772Y381D01*
X1772Y383D01*
X1768Y383D01*
X1768Y385D01*
X1764Y385D01*
X1764Y387D01*
X1760Y387D01*
X1760Y389D01*
X1758Y389D01*
X1758Y391D01*
X1756Y391D01*
X1756Y393D01*
X1752Y393D01*
X1752Y395D01*
X1750Y395D01*
X1750Y397D01*
X1748Y397D01*
X1748Y399D01*
X1746Y399D01*
X1746Y401D01*
X1744Y401D01*
X1744Y403D01*
X1742Y403D01*
X1742Y405D01*
X1740Y405D01*
X1740Y407D01*
X1738Y407D01*
X1738Y409D01*
X1736Y409D01*
X1736Y411D01*
X1734Y411D01*
X1734Y413D01*
X1732Y413D01*
X1732Y417D01*
X1730Y417D01*
X1730Y419D01*
X1728Y419D01*
X1728Y423D01*
X1726Y423D01*
X1726Y425D01*
X1724Y425D01*
X1724Y429D01*
X1722Y429D01*
X1722Y433D01*
X1720Y433D01*
X1720Y437D01*
X1718Y437D01*
X1718Y443D01*
X1716Y443D01*
X1716Y451D01*
X1714Y451D01*
X1714Y471D01*
X1716Y471D01*
X1716Y479D01*
X1718Y479D01*
X1718Y485D01*
X1720Y485D01*
X1720Y489D01*
X1722Y489D01*
X1722Y493D01*
X1724Y493D01*
X1724Y497D01*
X1726Y497D01*
X1726Y501D01*
X1728Y501D01*
X1728Y503D01*
X1730Y503D01*
X1730Y507D01*
X1732Y507D01*
X1732Y509D01*
X1734Y509D01*
X1734Y511D01*
X1504Y511D01*
G37*
D02*
G36*
X1504Y421D02*
X1504Y407D01*
X1594Y407D01*
X1594Y409D01*
X1598Y409D01*
X1598Y411D01*
X1602Y411D01*
X1602Y413D01*
X1606Y413D01*
X1606Y415D01*
X1610Y415D01*
X1610Y417D01*
X1614Y417D01*
X1614Y419D01*
X1622Y419D01*
X1622Y421D01*
X1504Y421D01*
G37*
D02*
G36*
X1710Y375D02*
X1710Y373D01*
X2006Y373D01*
X2006Y375D01*
X1710Y375D01*
G37*
D02*
G36*
X1710Y375D02*
X1710Y373D01*
X2006Y373D01*
X2006Y375D01*
X1710Y375D01*
G37*
D02*
G36*
X1710Y373D02*
X1710Y371D01*
X1712Y371D01*
X1712Y369D01*
X1714Y369D01*
X1714Y365D01*
X1716Y365D01*
X1716Y359D01*
X1718Y359D01*
X1718Y355D01*
X1720Y355D01*
X1720Y347D01*
X1722Y347D01*
X1722Y323D01*
X1720Y323D01*
X1720Y315D01*
X1718Y315D01*
X1718Y309D01*
X1716Y309D01*
X1716Y305D01*
X1714Y305D01*
X1714Y301D01*
X1712Y301D01*
X1712Y299D01*
X1710Y299D01*
X1710Y295D01*
X1708Y295D01*
X1708Y289D01*
X1866Y289D01*
X1866Y287D01*
X1878Y287D01*
X1878Y285D01*
X1884Y285D01*
X1884Y283D01*
X1890Y283D01*
X1890Y281D01*
X1894Y281D01*
X1894Y279D01*
X1898Y279D01*
X1898Y277D01*
X1900Y277D01*
X1900Y275D01*
X1904Y275D01*
X1904Y273D01*
X1908Y273D01*
X1908Y271D01*
X1910Y271D01*
X1910Y269D01*
X1912Y269D01*
X1912Y267D01*
X1916Y267D01*
X1916Y265D01*
X1918Y265D01*
X1918Y263D01*
X1920Y263D01*
X1920Y261D01*
X1922Y261D01*
X1922Y259D01*
X1924Y259D01*
X1924Y257D01*
X1926Y257D01*
X1926Y255D01*
X1928Y255D01*
X1928Y253D01*
X1930Y253D01*
X1930Y249D01*
X1932Y249D01*
X1932Y247D01*
X1934Y247D01*
X1934Y245D01*
X1936Y245D01*
X1936Y241D01*
X1938Y241D01*
X1938Y239D01*
X1940Y239D01*
X1940Y235D01*
X1942Y235D01*
X1942Y231D01*
X1944Y231D01*
X1944Y227D01*
X1946Y227D01*
X1946Y223D01*
X1948Y223D01*
X1948Y217D01*
X1950Y217D01*
X1950Y207D01*
X1952Y207D01*
X1952Y185D01*
X1950Y185D01*
X1950Y177D01*
X1948Y177D01*
X1948Y171D01*
X1946Y171D01*
X1946Y167D01*
X1944Y167D01*
X1944Y163D01*
X1942Y163D01*
X1942Y159D01*
X1940Y159D01*
X1940Y155D01*
X1938Y155D01*
X1938Y153D01*
X1936Y153D01*
X1936Y149D01*
X1934Y149D01*
X1934Y147D01*
X1932Y147D01*
X1932Y143D01*
X1930Y143D01*
X1930Y141D01*
X1928Y141D01*
X1928Y139D01*
X1926Y139D01*
X1926Y137D01*
X1924Y137D01*
X1924Y135D01*
X1922Y135D01*
X1922Y133D01*
X1920Y133D01*
X1920Y131D01*
X1918Y131D01*
X1918Y129D01*
X1916Y129D01*
X1916Y127D01*
X1912Y127D01*
X1912Y125D01*
X1910Y125D01*
X1910Y123D01*
X1908Y123D01*
X1908Y121D01*
X1904Y121D01*
X1904Y119D01*
X1902Y119D01*
X1902Y117D01*
X1898Y117D01*
X1898Y115D01*
X1894Y115D01*
X1894Y113D01*
X1890Y113D01*
X1890Y111D01*
X1884Y111D01*
X1884Y109D01*
X1878Y109D01*
X1878Y107D01*
X1868Y107D01*
X1868Y105D01*
X2006Y105D01*
X2006Y373D01*
X1710Y373D01*
G37*
D02*
G36*
X48Y289D02*
X48Y105D01*
X184Y105D01*
X184Y107D01*
X174Y107D01*
X174Y109D01*
X166Y109D01*
X166Y111D01*
X162Y111D01*
X162Y113D01*
X158Y113D01*
X158Y115D01*
X154Y115D01*
X154Y117D01*
X150Y117D01*
X150Y119D01*
X146Y119D01*
X146Y121D01*
X144Y121D01*
X144Y123D01*
X142Y123D01*
X142Y125D01*
X138Y125D01*
X138Y127D01*
X136Y127D01*
X136Y129D01*
X134Y129D01*
X134Y131D01*
X132Y131D01*
X132Y133D01*
X130Y133D01*
X130Y135D01*
X128Y135D01*
X128Y137D01*
X126Y137D01*
X126Y139D01*
X124Y139D01*
X124Y141D01*
X122Y141D01*
X122Y143D01*
X120Y143D01*
X120Y145D01*
X118Y145D01*
X118Y149D01*
X116Y149D01*
X116Y151D01*
X114Y151D01*
X114Y155D01*
X112Y155D01*
X112Y157D01*
X110Y157D01*
X110Y161D01*
X108Y161D01*
X108Y165D01*
X106Y165D01*
X106Y169D01*
X104Y169D01*
X104Y175D01*
X102Y175D01*
X102Y183D01*
X100Y183D01*
X100Y211D01*
X102Y211D01*
X102Y219D01*
X104Y219D01*
X104Y223D01*
X106Y223D01*
X106Y229D01*
X108Y229D01*
X108Y233D01*
X110Y233D01*
X110Y237D01*
X112Y237D01*
X112Y239D01*
X114Y239D01*
X114Y243D01*
X116Y243D01*
X116Y245D01*
X118Y245D01*
X118Y249D01*
X120Y249D01*
X120Y251D01*
X122Y251D01*
X122Y253D01*
X124Y253D01*
X124Y255D01*
X126Y255D01*
X126Y257D01*
X128Y257D01*
X128Y259D01*
X130Y259D01*
X130Y261D01*
X132Y261D01*
X132Y263D01*
X134Y263D01*
X134Y265D01*
X136Y265D01*
X136Y267D01*
X138Y267D01*
X138Y269D01*
X142Y269D01*
X142Y271D01*
X144Y271D01*
X144Y273D01*
X148Y273D01*
X148Y275D01*
X150Y275D01*
X150Y277D01*
X154Y277D01*
X154Y279D01*
X158Y279D01*
X158Y281D01*
X162Y281D01*
X162Y283D01*
X168Y283D01*
X168Y285D01*
X174Y285D01*
X174Y287D01*
X186Y287D01*
X186Y289D01*
X48Y289D01*
G37*
D02*
G36*
X1708Y289D02*
X1708Y275D01*
X1710Y275D01*
X1710Y271D01*
X1712Y271D01*
X1712Y269D01*
X1714Y269D01*
X1714Y265D01*
X1716Y265D01*
X1716Y259D01*
X1718Y259D01*
X1718Y255D01*
X1720Y255D01*
X1720Y247D01*
X1722Y247D01*
X1722Y223D01*
X1720Y223D01*
X1720Y215D01*
X1718Y215D01*
X1718Y209D01*
X1716Y209D01*
X1716Y205D01*
X1714Y205D01*
X1714Y201D01*
X1712Y201D01*
X1712Y199D01*
X1710Y199D01*
X1710Y195D01*
X1708Y195D01*
X1708Y191D01*
X1706Y191D01*
X1706Y189D01*
X1704Y189D01*
X1704Y187D01*
X1702Y187D01*
X1702Y185D01*
X1700Y185D01*
X1700Y181D01*
X1698Y181D01*
X1698Y179D01*
X1696Y179D01*
X1696Y177D01*
X1694Y177D01*
X1694Y175D01*
X1692Y175D01*
X1692Y173D01*
X1690Y173D01*
X1690Y171D01*
X1688Y171D01*
X1688Y169D01*
X1684Y169D01*
X1684Y167D01*
X1682Y167D01*
X1682Y165D01*
X1680Y165D01*
X1680Y163D01*
X1676Y163D01*
X1676Y161D01*
X1674Y161D01*
X1674Y159D01*
X1670Y159D01*
X1670Y157D01*
X1666Y157D01*
X1666Y155D01*
X1662Y155D01*
X1662Y153D01*
X1656Y153D01*
X1656Y151D01*
X1650Y151D01*
X1650Y149D01*
X1638Y149D01*
X1638Y147D01*
X1788Y147D01*
X1788Y149D01*
X1786Y149D01*
X1786Y151D01*
X1784Y151D01*
X1784Y155D01*
X1782Y155D01*
X1782Y157D01*
X1780Y157D01*
X1780Y161D01*
X1778Y161D01*
X1778Y165D01*
X1776Y165D01*
X1776Y169D01*
X1774Y169D01*
X1774Y175D01*
X1772Y175D01*
X1772Y183D01*
X1770Y183D01*
X1770Y211D01*
X1772Y211D01*
X1772Y219D01*
X1774Y219D01*
X1774Y223D01*
X1776Y223D01*
X1776Y229D01*
X1778Y229D01*
X1778Y233D01*
X1780Y233D01*
X1780Y237D01*
X1782Y237D01*
X1782Y239D01*
X1784Y239D01*
X1784Y243D01*
X1786Y243D01*
X1786Y245D01*
X1788Y245D01*
X1788Y249D01*
X1790Y249D01*
X1790Y251D01*
X1792Y251D01*
X1792Y253D01*
X1794Y253D01*
X1794Y255D01*
X1796Y255D01*
X1796Y257D01*
X1798Y257D01*
X1798Y259D01*
X1800Y259D01*
X1800Y261D01*
X1802Y261D01*
X1802Y263D01*
X1804Y263D01*
X1804Y265D01*
X1806Y265D01*
X1806Y267D01*
X1808Y267D01*
X1808Y269D01*
X1812Y269D01*
X1812Y271D01*
X1814Y271D01*
X1814Y273D01*
X1818Y273D01*
X1818Y275D01*
X1820Y275D01*
X1820Y277D01*
X1824Y277D01*
X1824Y279D01*
X1828Y279D01*
X1828Y281D01*
X1832Y281D01*
X1832Y283D01*
X1838Y283D01*
X1838Y285D01*
X1844Y285D01*
X1844Y287D01*
X1856Y287D01*
X1856Y289D01*
X1708Y289D01*
G37*
D02*
G36*
X278Y173D02*
X278Y171D01*
X276Y171D01*
X276Y167D01*
X274Y167D01*
X274Y163D01*
X272Y163D01*
X272Y159D01*
X270Y159D01*
X270Y155D01*
X268Y155D01*
X268Y153D01*
X266Y153D01*
X266Y149D01*
X264Y149D01*
X264Y147D01*
X1632Y147D01*
X1632Y149D01*
X1620Y149D01*
X1620Y151D01*
X1614Y151D01*
X1614Y153D01*
X1608Y153D01*
X1608Y155D01*
X1604Y155D01*
X1604Y157D01*
X1600Y157D01*
X1600Y159D01*
X1598Y159D01*
X1598Y161D01*
X1594Y161D01*
X1594Y163D01*
X322Y163D01*
X322Y165D01*
X314Y165D01*
X314Y167D01*
X308Y167D01*
X308Y169D01*
X304Y169D01*
X304Y171D01*
X300Y171D01*
X300Y173D01*
X278Y173D01*
G37*
D02*
G36*
X262Y147D02*
X262Y145D01*
X1788Y145D01*
X1788Y147D01*
X262Y147D01*
G37*
D02*
G36*
X262Y147D02*
X262Y145D01*
X1788Y145D01*
X1788Y147D01*
X262Y147D01*
G37*
D02*
G36*
X260Y145D02*
X260Y141D01*
X258Y141D01*
X258Y139D01*
X256Y139D01*
X256Y137D01*
X254Y137D01*
X254Y135D01*
X252Y135D01*
X252Y133D01*
X250Y133D01*
X250Y131D01*
X248Y131D01*
X248Y129D01*
X246Y129D01*
X246Y127D01*
X242Y127D01*
X242Y125D01*
X240Y125D01*
X240Y123D01*
X238Y123D01*
X238Y121D01*
X234Y121D01*
X234Y119D01*
X232Y119D01*
X232Y117D01*
X228Y117D01*
X228Y115D01*
X224Y115D01*
X224Y113D01*
X220Y113D01*
X220Y111D01*
X214Y111D01*
X214Y109D01*
X208Y109D01*
X208Y107D01*
X198Y107D01*
X198Y105D01*
X1854Y105D01*
X1854Y107D01*
X1844Y107D01*
X1844Y109D01*
X1836Y109D01*
X1836Y111D01*
X1832Y111D01*
X1832Y113D01*
X1828Y113D01*
X1828Y115D01*
X1824Y115D01*
X1824Y117D01*
X1820Y117D01*
X1820Y119D01*
X1816Y119D01*
X1816Y121D01*
X1814Y121D01*
X1814Y123D01*
X1812Y123D01*
X1812Y125D01*
X1808Y125D01*
X1808Y127D01*
X1806Y127D01*
X1806Y129D01*
X1804Y129D01*
X1804Y131D01*
X1802Y131D01*
X1802Y133D01*
X1800Y133D01*
X1800Y135D01*
X1798Y135D01*
X1798Y137D01*
X1796Y137D01*
X1796Y139D01*
X1794Y139D01*
X1794Y141D01*
X1792Y141D01*
X1792Y143D01*
X1790Y143D01*
X1790Y145D01*
X260Y145D01*
G37*
D02*
G36*
X48Y105D02*
X48Y103D01*
X2006Y103D01*
X2006Y105D01*
X48Y105D01*
G37*
D02*
G36*
X48Y105D02*
X48Y103D01*
X2006Y103D01*
X2006Y105D01*
X48Y105D01*
G37*
D02*
G36*
X48Y105D02*
X48Y103D01*
X2006Y103D01*
X2006Y105D01*
X48Y105D01*
G37*
D02*
G36*
X48Y103D02*
X48Y41D01*
X2006Y41D01*
X2006Y103D01*
X48Y103D01*
G37*
D02*
G36*
X1036Y1065D02*
X1036Y1063D01*
X708Y1063D01*
X708Y1021D01*
X742Y1021D01*
X742Y1019D01*
X752Y1019D01*
X752Y1017D01*
X758Y1017D01*
X758Y1015D01*
X762Y1015D01*
X762Y1013D01*
X766Y1013D01*
X766Y1011D01*
X770Y1011D01*
X770Y1009D01*
X774Y1009D01*
X774Y1007D01*
X776Y1007D01*
X776Y1005D01*
X780Y1005D01*
X780Y1003D01*
X782Y1003D01*
X782Y1001D01*
X784Y1001D01*
X784Y999D01*
X786Y999D01*
X786Y997D01*
X790Y997D01*
X790Y995D01*
X792Y995D01*
X792Y993D01*
X794Y993D01*
X794Y991D01*
X796Y991D01*
X796Y987D01*
X798Y987D01*
X798Y985D01*
X800Y985D01*
X800Y983D01*
X802Y983D01*
X802Y981D01*
X804Y981D01*
X804Y979D01*
X806Y979D01*
X806Y975D01*
X808Y975D01*
X808Y973D01*
X810Y973D01*
X810Y969D01*
X812Y969D01*
X812Y965D01*
X814Y965D01*
X814Y961D01*
X816Y961D01*
X816Y955D01*
X818Y955D01*
X818Y949D01*
X820Y949D01*
X820Y921D01*
X818Y921D01*
X818Y915D01*
X816Y915D01*
X816Y909D01*
X814Y909D01*
X814Y905D01*
X812Y905D01*
X812Y901D01*
X810Y901D01*
X810Y897D01*
X808Y897D01*
X808Y895D01*
X806Y895D01*
X806Y891D01*
X804Y891D01*
X804Y889D01*
X802Y889D01*
X802Y887D01*
X800Y887D01*
X800Y885D01*
X798Y885D01*
X798Y881D01*
X796Y881D01*
X796Y879D01*
X794Y879D01*
X794Y877D01*
X792Y877D01*
X792Y875D01*
X790Y875D01*
X790Y873D01*
X788Y873D01*
X788Y871D01*
X784Y871D01*
X784Y869D01*
X782Y869D01*
X782Y867D01*
X780Y867D01*
X780Y865D01*
X776Y865D01*
X776Y863D01*
X774Y863D01*
X774Y861D01*
X770Y861D01*
X770Y859D01*
X766Y859D01*
X766Y857D01*
X762Y857D01*
X762Y855D01*
X758Y855D01*
X758Y853D01*
X752Y853D01*
X752Y851D01*
X744Y851D01*
X744Y849D01*
X1128Y849D01*
X1128Y851D01*
X1118Y851D01*
X1118Y853D01*
X1112Y853D01*
X1112Y855D01*
X1108Y855D01*
X1108Y857D01*
X1104Y857D01*
X1104Y859D01*
X1100Y859D01*
X1100Y861D01*
X1098Y861D01*
X1098Y863D01*
X1094Y863D01*
X1094Y865D01*
X1092Y865D01*
X1092Y867D01*
X1088Y867D01*
X1088Y869D01*
X1086Y869D01*
X1086Y871D01*
X1084Y871D01*
X1084Y873D01*
X1082Y873D01*
X1082Y875D01*
X1080Y875D01*
X1080Y877D01*
X1078Y877D01*
X1078Y879D01*
X1076Y879D01*
X1076Y881D01*
X1074Y881D01*
X1074Y883D01*
X1072Y883D01*
X1072Y885D01*
X1070Y885D01*
X1070Y887D01*
X1068Y887D01*
X1068Y891D01*
X1066Y891D01*
X1066Y893D01*
X1064Y893D01*
X1064Y895D01*
X1062Y895D01*
X1062Y899D01*
X1060Y899D01*
X1060Y903D01*
X1058Y903D01*
X1058Y907D01*
X1056Y907D01*
X1056Y911D01*
X1054Y911D01*
X1054Y917D01*
X1052Y917D01*
X1052Y925D01*
X1050Y925D01*
X1050Y945D01*
X1052Y945D01*
X1052Y953D01*
X1054Y953D01*
X1054Y959D01*
X1056Y959D01*
X1056Y963D01*
X1058Y963D01*
X1058Y967D01*
X1060Y967D01*
X1060Y971D01*
X1062Y971D01*
X1062Y973D01*
X1064Y973D01*
X1064Y1065D01*
X1036Y1065D01*
G37*
D02*
G36*
X708Y1021D02*
X708Y1019D01*
X730Y1019D01*
X730Y1021D01*
X708Y1021D01*
G37*
D02*
G36*
X544Y1011D02*
X544Y1009D01*
X540Y1009D01*
X540Y1007D01*
X536Y1007D01*
X536Y1005D01*
X532Y1005D01*
X532Y1003D01*
X528Y1003D01*
X528Y1001D01*
X522Y1001D01*
X522Y999D01*
X512Y999D01*
X512Y997D01*
X502Y997D01*
X502Y995D01*
X494Y995D01*
X494Y993D01*
X484Y993D01*
X484Y991D01*
X474Y991D01*
X474Y989D01*
X464Y989D01*
X464Y987D01*
X454Y987D01*
X454Y985D01*
X444Y985D01*
X444Y983D01*
X442Y983D01*
X442Y927D01*
X210Y927D01*
X210Y875D01*
X212Y875D01*
X212Y849D01*
X728Y849D01*
X728Y851D01*
X718Y851D01*
X718Y853D01*
X712Y853D01*
X712Y855D01*
X708Y855D01*
X708Y857D01*
X704Y857D01*
X704Y859D01*
X700Y859D01*
X700Y861D01*
X622Y861D01*
X622Y863D01*
X614Y863D01*
X614Y865D01*
X610Y865D01*
X610Y867D01*
X604Y867D01*
X604Y869D01*
X600Y869D01*
X600Y871D01*
X598Y871D01*
X598Y873D01*
X594Y873D01*
X594Y875D01*
X592Y875D01*
X592Y877D01*
X590Y877D01*
X590Y879D01*
X586Y879D01*
X586Y881D01*
X584Y881D01*
X584Y883D01*
X582Y883D01*
X582Y887D01*
X580Y887D01*
X580Y889D01*
X578Y889D01*
X578Y891D01*
X576Y891D01*
X576Y895D01*
X574Y895D01*
X574Y897D01*
X572Y897D01*
X572Y901D01*
X570Y901D01*
X570Y907D01*
X568Y907D01*
X568Y911D01*
X566Y911D01*
X566Y919D01*
X564Y919D01*
X564Y1011D01*
X544Y1011D01*
G37*
D02*
G36*
X1144Y851D02*
X1144Y849D01*
X1164Y849D01*
X1164Y851D01*
X1144Y851D01*
G37*
D02*
G36*
X212Y849D02*
X212Y847D01*
X1164Y847D01*
X1164Y849D01*
X212Y849D01*
G37*
D02*
G36*
X212Y849D02*
X212Y847D01*
X1164Y847D01*
X1164Y849D01*
X212Y849D01*
G37*
D02*
G36*
X212Y849D02*
X212Y847D01*
X1164Y847D01*
X1164Y849D01*
X212Y849D01*
G37*
D02*
G36*
X212Y847D02*
X212Y821D01*
X748Y821D01*
X748Y819D01*
X754Y819D01*
X754Y817D01*
X760Y817D01*
X760Y815D01*
X764Y815D01*
X764Y813D01*
X768Y813D01*
X768Y811D01*
X772Y811D01*
X772Y809D01*
X776Y809D01*
X776Y807D01*
X778Y807D01*
X778Y805D01*
X782Y805D01*
X782Y803D01*
X784Y803D01*
X784Y801D01*
X786Y801D01*
X786Y799D01*
X788Y799D01*
X788Y797D01*
X790Y797D01*
X790Y795D01*
X792Y795D01*
X792Y793D01*
X794Y793D01*
X794Y791D01*
X796Y791D01*
X796Y789D01*
X798Y789D01*
X798Y787D01*
X800Y787D01*
X800Y785D01*
X802Y785D01*
X802Y783D01*
X804Y783D01*
X804Y779D01*
X806Y779D01*
X806Y777D01*
X808Y777D01*
X808Y775D01*
X810Y775D01*
X810Y771D01*
X812Y771D01*
X812Y767D01*
X814Y767D01*
X814Y763D01*
X816Y763D01*
X816Y759D01*
X818Y759D01*
X818Y753D01*
X820Y753D01*
X820Y745D01*
X822Y745D01*
X822Y725D01*
X820Y725D01*
X820Y717D01*
X818Y717D01*
X818Y711D01*
X816Y711D01*
X816Y707D01*
X814Y707D01*
X814Y703D01*
X812Y703D01*
X812Y699D01*
X810Y699D01*
X810Y695D01*
X808Y695D01*
X808Y693D01*
X806Y693D01*
X806Y689D01*
X804Y689D01*
X804Y687D01*
X802Y687D01*
X802Y685D01*
X800Y685D01*
X800Y683D01*
X798Y683D01*
X798Y681D01*
X796Y681D01*
X796Y677D01*
X794Y677D01*
X794Y675D01*
X790Y675D01*
X790Y673D01*
X788Y673D01*
X788Y671D01*
X786Y671D01*
X786Y669D01*
X784Y669D01*
X784Y667D01*
X782Y667D01*
X782Y665D01*
X778Y665D01*
X778Y663D01*
X776Y663D01*
X776Y661D01*
X772Y661D01*
X772Y659D01*
X770Y659D01*
X770Y657D01*
X766Y657D01*
X766Y655D01*
X760Y655D01*
X760Y653D01*
X756Y653D01*
X756Y651D01*
X748Y651D01*
X748Y649D01*
X1164Y649D01*
X1164Y847D01*
X212Y847D01*
G37*
D02*
G36*
X212Y821D02*
X212Y721D01*
X214Y721D01*
X214Y683D01*
X610Y683D01*
X610Y681D01*
X618Y681D01*
X618Y679D01*
X622Y679D01*
X622Y677D01*
X628Y677D01*
X628Y675D01*
X632Y675D01*
X632Y673D01*
X634Y673D01*
X634Y671D01*
X638Y671D01*
X638Y669D01*
X640Y669D01*
X640Y667D01*
X644Y667D01*
X644Y665D01*
X646Y665D01*
X646Y663D01*
X648Y663D01*
X648Y661D01*
X650Y661D01*
X650Y659D01*
X654Y659D01*
X654Y657D01*
X656Y657D01*
X656Y655D01*
X658Y655D01*
X658Y653D01*
X660Y653D01*
X660Y649D01*
X722Y649D01*
X722Y651D01*
X716Y651D01*
X716Y653D01*
X710Y653D01*
X710Y655D01*
X706Y655D01*
X706Y657D01*
X702Y657D01*
X702Y659D01*
X698Y659D01*
X698Y661D01*
X696Y661D01*
X696Y663D01*
X692Y663D01*
X692Y665D01*
X690Y665D01*
X690Y667D01*
X686Y667D01*
X686Y669D01*
X684Y669D01*
X684Y671D01*
X682Y671D01*
X682Y673D01*
X680Y673D01*
X680Y675D01*
X678Y675D01*
X678Y677D01*
X676Y677D01*
X676Y679D01*
X674Y679D01*
X674Y681D01*
X672Y681D01*
X672Y683D01*
X670Y683D01*
X670Y685D01*
X668Y685D01*
X668Y689D01*
X666Y689D01*
X666Y691D01*
X664Y691D01*
X664Y693D01*
X662Y693D01*
X662Y697D01*
X660Y697D01*
X660Y701D01*
X658Y701D01*
X658Y705D01*
X656Y705D01*
X656Y709D01*
X654Y709D01*
X654Y713D01*
X652Y713D01*
X652Y719D01*
X650Y719D01*
X650Y749D01*
X652Y749D01*
X652Y757D01*
X654Y757D01*
X654Y761D01*
X656Y761D01*
X656Y765D01*
X658Y765D01*
X658Y769D01*
X660Y769D01*
X660Y773D01*
X662Y773D01*
X662Y775D01*
X664Y775D01*
X664Y779D01*
X666Y779D01*
X666Y781D01*
X668Y781D01*
X668Y785D01*
X670Y785D01*
X670Y787D01*
X672Y787D01*
X672Y789D01*
X674Y789D01*
X674Y791D01*
X676Y791D01*
X676Y793D01*
X678Y793D01*
X678Y795D01*
X680Y795D01*
X680Y797D01*
X682Y797D01*
X682Y799D01*
X684Y799D01*
X684Y801D01*
X688Y801D01*
X688Y803D01*
X690Y803D01*
X690Y805D01*
X692Y805D01*
X692Y807D01*
X696Y807D01*
X696Y809D01*
X698Y809D01*
X698Y811D01*
X702Y811D01*
X702Y813D01*
X706Y813D01*
X706Y815D01*
X710Y815D01*
X710Y817D01*
X716Y817D01*
X716Y819D01*
X724Y819D01*
X724Y821D01*
X212Y821D01*
G37*
D02*
G36*
X214Y683D02*
X214Y669D01*
X558Y669D01*
X558Y671D01*
X560Y671D01*
X560Y673D01*
X564Y673D01*
X564Y675D01*
X568Y675D01*
X568Y677D01*
X572Y677D01*
X572Y679D01*
X578Y679D01*
X578Y681D01*
X584Y681D01*
X584Y683D01*
X214Y683D01*
G37*
D02*
G36*
X662Y649D02*
X662Y647D01*
X1164Y647D01*
X1164Y649D01*
X662Y649D01*
G37*
D02*
G36*
X662Y649D02*
X662Y647D01*
X1164Y647D01*
X1164Y649D01*
X662Y649D01*
G37*
D02*
G36*
X664Y647D02*
X664Y645D01*
X666Y645D01*
X666Y643D01*
X668Y643D01*
X668Y639D01*
X670Y639D01*
X670Y637D01*
X672Y637D01*
X672Y633D01*
X674Y633D01*
X674Y629D01*
X676Y629D01*
X676Y625D01*
X678Y625D01*
X678Y621D01*
X680Y621D01*
X680Y615D01*
X682Y615D01*
X682Y607D01*
X684Y607D01*
X684Y587D01*
X682Y587D01*
X682Y579D01*
X680Y579D01*
X680Y573D01*
X678Y573D01*
X678Y569D01*
X676Y569D01*
X676Y565D01*
X674Y565D01*
X674Y561D01*
X672Y561D01*
X672Y557D01*
X670Y557D01*
X670Y555D01*
X668Y555D01*
X668Y551D01*
X666Y551D01*
X666Y549D01*
X664Y549D01*
X664Y547D01*
X662Y547D01*
X662Y545D01*
X748Y545D01*
X748Y543D01*
X756Y543D01*
X756Y541D01*
X762Y541D01*
X762Y539D01*
X766Y539D01*
X766Y537D01*
X770Y537D01*
X770Y535D01*
X772Y535D01*
X772Y533D01*
X776Y533D01*
X776Y531D01*
X778Y531D01*
X778Y529D01*
X782Y529D01*
X782Y527D01*
X784Y527D01*
X784Y525D01*
X786Y525D01*
X786Y523D01*
X788Y523D01*
X788Y521D01*
X792Y521D01*
X792Y519D01*
X794Y519D01*
X794Y517D01*
X796Y517D01*
X796Y515D01*
X798Y515D01*
X798Y511D01*
X800Y511D01*
X800Y509D01*
X802Y509D01*
X802Y507D01*
X804Y507D01*
X804Y505D01*
X806Y505D01*
X806Y501D01*
X808Y501D01*
X808Y499D01*
X810Y499D01*
X810Y495D01*
X812Y495D01*
X812Y491D01*
X814Y491D01*
X814Y487D01*
X816Y487D01*
X816Y483D01*
X818Y483D01*
X818Y477D01*
X820Y477D01*
X820Y469D01*
X822Y469D01*
X822Y451D01*
X820Y451D01*
X820Y441D01*
X818Y441D01*
X818Y435D01*
X816Y435D01*
X816Y431D01*
X814Y431D01*
X814Y427D01*
X812Y427D01*
X812Y423D01*
X810Y423D01*
X810Y421D01*
X1042Y421D01*
X1042Y419D01*
X1052Y419D01*
X1052Y417D01*
X1058Y417D01*
X1058Y415D01*
X1062Y415D01*
X1062Y413D01*
X1066Y413D01*
X1066Y411D01*
X1070Y411D01*
X1070Y409D01*
X1074Y409D01*
X1074Y407D01*
X1128Y407D01*
X1128Y443D01*
X1164Y443D01*
X1164Y647D01*
X664Y647D01*
G37*
D02*
G36*
X660Y545D02*
X660Y543D01*
X658Y543D01*
X658Y539D01*
X656Y539D01*
X656Y537D01*
X652Y537D01*
X652Y535D01*
X650Y535D01*
X650Y533D01*
X648Y533D01*
X648Y531D01*
X646Y531D01*
X646Y529D01*
X644Y529D01*
X644Y527D01*
X640Y527D01*
X640Y525D01*
X638Y525D01*
X638Y523D01*
X634Y523D01*
X634Y521D01*
X630Y521D01*
X630Y519D01*
X626Y519D01*
X626Y517D01*
X622Y517D01*
X622Y515D01*
X618Y515D01*
X618Y513D01*
X610Y513D01*
X610Y511D01*
X672Y511D01*
X672Y513D01*
X674Y513D01*
X674Y515D01*
X676Y515D01*
X676Y517D01*
X678Y517D01*
X678Y519D01*
X680Y519D01*
X680Y521D01*
X682Y521D01*
X682Y523D01*
X684Y523D01*
X684Y525D01*
X686Y525D01*
X686Y527D01*
X690Y527D01*
X690Y529D01*
X692Y529D01*
X692Y531D01*
X694Y531D01*
X694Y533D01*
X698Y533D01*
X698Y535D01*
X702Y535D01*
X702Y537D01*
X706Y537D01*
X706Y539D01*
X710Y539D01*
X710Y541D01*
X714Y541D01*
X714Y543D01*
X722Y543D01*
X722Y545D01*
X660Y545D01*
G37*
D02*
G36*
X406Y525D02*
X406Y511D01*
X586Y511D01*
X586Y513D01*
X578Y513D01*
X578Y515D01*
X572Y515D01*
X572Y517D01*
X568Y517D01*
X568Y519D01*
X564Y519D01*
X564Y521D01*
X560Y521D01*
X560Y523D01*
X558Y523D01*
X558Y525D01*
X406Y525D01*
G37*
D02*
G36*
X406Y511D02*
X406Y509D01*
X670Y509D01*
X670Y511D01*
X406Y511D01*
G37*
D02*
G36*
X406Y511D02*
X406Y509D01*
X670Y509D01*
X670Y511D01*
X406Y511D01*
G37*
D02*
G36*
X406Y509D02*
X406Y307D01*
X550Y307D01*
X550Y345D01*
X552Y345D01*
X552Y353D01*
X554Y353D01*
X554Y359D01*
X556Y359D01*
X556Y363D01*
X558Y363D01*
X558Y367D01*
X560Y367D01*
X560Y371D01*
X562Y371D01*
X562Y373D01*
X564Y373D01*
X564Y377D01*
X566Y377D01*
X566Y379D01*
X568Y379D01*
X568Y383D01*
X570Y383D01*
X570Y385D01*
X572Y385D01*
X572Y387D01*
X574Y387D01*
X574Y389D01*
X576Y389D01*
X576Y391D01*
X578Y391D01*
X578Y393D01*
X580Y393D01*
X580Y395D01*
X582Y395D01*
X582Y397D01*
X584Y397D01*
X584Y399D01*
X586Y399D01*
X586Y401D01*
X588Y401D01*
X588Y403D01*
X592Y403D01*
X592Y405D01*
X594Y405D01*
X594Y407D01*
X598Y407D01*
X598Y409D01*
X600Y409D01*
X600Y411D01*
X604Y411D01*
X604Y413D01*
X608Y413D01*
X608Y415D01*
X614Y415D01*
X614Y417D01*
X620Y417D01*
X620Y419D01*
X630Y419D01*
X630Y421D01*
X654Y421D01*
X654Y437D01*
X652Y437D01*
X652Y445D01*
X650Y445D01*
X650Y475D01*
X652Y475D01*
X652Y481D01*
X654Y481D01*
X654Y485D01*
X656Y485D01*
X656Y489D01*
X658Y489D01*
X658Y493D01*
X660Y493D01*
X660Y497D01*
X662Y497D01*
X662Y501D01*
X664Y501D01*
X664Y503D01*
X666Y503D01*
X666Y505D01*
X668Y505D01*
X668Y509D01*
X406Y509D01*
G37*
D02*
G36*
X808Y421D02*
X808Y329D01*
X806Y329D01*
X806Y307D01*
X950Y307D01*
X950Y345D01*
X952Y345D01*
X952Y353D01*
X954Y353D01*
X954Y359D01*
X956Y359D01*
X956Y363D01*
X958Y363D01*
X958Y367D01*
X960Y367D01*
X960Y371D01*
X962Y371D01*
X962Y373D01*
X964Y373D01*
X964Y377D01*
X966Y377D01*
X966Y379D01*
X968Y379D01*
X968Y383D01*
X970Y383D01*
X970Y385D01*
X972Y385D01*
X972Y387D01*
X974Y387D01*
X974Y389D01*
X976Y389D01*
X976Y391D01*
X978Y391D01*
X978Y393D01*
X980Y393D01*
X980Y395D01*
X982Y395D01*
X982Y397D01*
X984Y397D01*
X984Y399D01*
X986Y399D01*
X986Y401D01*
X988Y401D01*
X988Y403D01*
X992Y403D01*
X992Y405D01*
X994Y405D01*
X994Y407D01*
X998Y407D01*
X998Y409D01*
X1000Y409D01*
X1000Y411D01*
X1004Y411D01*
X1004Y413D01*
X1008Y413D01*
X1008Y415D01*
X1014Y415D01*
X1014Y417D01*
X1020Y417D01*
X1020Y419D01*
X1030Y419D01*
X1030Y421D01*
X808Y421D01*
G37*
D02*
G04 End of Copper0*
M02*