M48
M72,TZ
T10C0.040000
T11C0.035000
T12C0.038000
%
T10
X0.256296Y0.869820
X0.453147Y0.869820
X2.146850Y0.269820
X1.950000Y0.269820
T11
X2.350000Y1.469814
X2.350000Y1.869814
X1.953150Y0.869810
X1.950000Y0.669810
X1.950000Y1.466670
X1.950000Y1.066670
X2.150000Y1.466670
X2.150000Y1.066670
X1.750000Y1.566670
X1.350000Y1.566670
X1.350000Y1.866670
X1.450000Y1.866670
X1.050000Y1.866670
X1.050000Y1.466670
X1.150000Y1.866670
X1.150000Y1.466670
X1.453140Y0.969810
X1.453140Y1.369810
X0.750000Y0.966670
X0.750000Y1.266670
X0.850000Y0.966670
X0.850000Y1.266670
X0.950000Y0.966670
X0.950000Y1.266670
X1.050000Y0.966670
X1.050000Y1.266670
T12
X1.653140Y1.869814
X0.650000Y0.369810
X2.050000Y1.866670
X2.050000Y1.766670
X2.050000Y1.666670
X0.453144Y0.169810
X0.453144Y0.269810
X0.453144Y0.369810
T00
M30
